M48
METRIC
T1C1.750
T2C3.048
T3C3.988
T4C4.000
%
G90
G05
T1
X33.655Y-41.91
X33.655Y-65.722
X36.036Y-141.922
X38.417Y-84.772
X40.799Y-103.822
X43.815Y-41.91
X43.815Y-65.722
X45.561Y-122.872
X46.196Y-141.922
X48.578Y-84.772
X50.959Y-103.822
X52.705Y-65.722
X55.721Y-122.872
X57.467Y-41.91
X57.467Y-141.922
X62.23Y-84.772
X62.865Y-65.722
X66.992Y-103.822
X67.627Y-41.91
X67.627Y-141.922
X71.755Y-65.722
X72.39Y-84.772
X76.517Y-41.91
X76.517Y-122.872
X77.153Y-103.822
X78.899Y-141.922
X81.28Y-84.772
X81.915Y-65.722
X86.042Y-103.822
X86.677Y-41.91
X86.677Y-122.872
X89.059Y-141.922
X90.805Y-65.722
X91.44Y-84.772
X95.567Y-41.91
X95.567Y-122.872
X96.203Y-103.822
X100.33Y-84.772
X100.965Y-65.722
X105.093Y-103.822
X105.727Y-41.91
X105.727Y-122.872
X109.855Y-65.722
X110.49Y-84.772
X114.617Y-41.91
X114.617Y-122.872
X115.252Y-103.822
X119.38Y-84.772
X120.015Y-65.722
X124.142Y-103.822
X124.777Y-41.91
X124.777Y-122.872
X128.905Y-65.722
X129.54Y-84.772
X133.667Y-122.872
X134.302Y-103.822
X138.43Y-41.91
X138.43Y-84.772
X139.065Y-65.722
X143.192Y-103.822
X143.827Y-122.872
X147.955Y-65.722
X148.59Y-41.91
X148.59Y-84.772
X150.336Y-141.922
X152.718Y-122.872
X153.352Y-103.822
X157.48Y-41.91
X157.48Y-84.772
X158.115Y-65.722
X160.496Y-141.922
X162.243Y-103.822
X162.877Y-122.872
X167.005Y-65.722
X167.64Y-41.91
X167.64Y-84.772
X171.767Y-122.872
X172.403Y-103.822
X176.53Y-41.91
X176.53Y-84.772
X177.165Y-65.722
X181.292Y-103.822
X181.927Y-122.872
X186.055Y-65.722
X186.69Y-41.91
X186.69Y-84.772
X190.817Y-122.872
X191.452Y-103.822
X195.58Y-41.91
X195.58Y-84.772
X196.215Y-65.722
X200.343Y-103.822
X200.977Y-122.872
X205.105Y-65.722
X205.74Y-41.91
X205.74Y-84.772
X209.867Y-122.872
X210.502Y-103.822
X214.63Y-84.772
X215.265Y-65.722
X219.392Y-41.91
X219.392Y-103.822
X219.392Y-141.922
X220.028Y-122.872
X224.155Y-65.722
X224.79Y-84.772
X228.917Y-122.872
X229.552Y-41.91
X229.552Y-103.822
X229.552Y-141.922
X233.68Y-84.772
X234.315Y-65.722
X238.442Y-41.91
X238.442Y-103.822
X238.442Y-141.922
X239.077Y-122.872
X243.205Y-65.722
X243.84Y-84.772
X247.968Y-122.872
X248.602Y-41.91
X248.602Y-103.822
X248.602Y-141.922
X252.73Y-84.772
X253.365Y-65.722
X257.493Y-41.91
X257.493Y-103.822
X257.493Y-141.922
X258.127Y-122.872
X262.255Y-65.722
X262.89Y-84.772
X267.652Y-41.91
X267.652Y-103.822
X267.652Y-141.922
X271.78Y-84.772
X272.415Y-65.722
X274.161Y-122.872
X276.542Y-41.91
X281.94Y-84.772
X284.321Y-122.872
X286.702Y-41.91
X288.449Y-103.822
X290.83Y-65.722
X290.83Y-146.685
X295.592Y-84.772
X298.609Y-103.822
X300.355Y-41.91
X300.99Y-65.722
X300.99Y-146.685
X305.752Y-84.772
X309.88Y-127.635
X309.88Y-146.685
X310.515Y-41.91
X320.04Y-127.635
X320.04Y-146.685
X328.93Y-65.722
X328.93Y-84.772
X328.93Y-103.822
X328.93Y-146.685
X339.09Y-65.722
X339.09Y-84.772
X339.09Y-103.822
X339.09Y-146.685
T2
X38.703Y-115.887
X62.579Y-115.887
X105.416Y-134.938
X205.416Y-134.938
X281.591Y-96.837
X283.972Y-58.737
X305.467Y-96.837
X307.848Y-58.737
T3
X38.703Y-131.097
X62.579Y-131.097
X105.416Y-150.147
X205.416Y-150.147
X281.591Y-112.047
X283.972Y-73.947
X305.467Y-112.047
X307.848Y-73.947
T4
X38.735Y-41.91
X38.735Y-65.722
X41.116Y-141.922
X43.497Y-84.772
X45.879Y-103.822
X50.641Y-122.872
X57.785Y-65.722
X62.547Y-41.91
X62.547Y-141.922
X67.31Y-84.772
X72.072Y-103.822
X76.835Y-65.722
X81.597Y-41.91
X81.597Y-122.872
X83.979Y-141.922
X86.36Y-84.772
X91.123Y-103.822
X95.885Y-65.722
X100.647Y-41.91
X100.647Y-122.872
X105.41Y-84.772
X110.172Y-103.822
X114.935Y-65.722
X119.697Y-41.91
X119.697Y-122.872
X124.46Y-84.772
X129.222Y-103.822
X133.985Y-65.722
X138.748Y-122.872
X143.51Y-41.91
X143.51Y-84.772
X148.272Y-103.822
X153.035Y-65.722
X155.416Y-141.922
X157.797Y-122.872
X162.56Y-41.91
X162.56Y-84.772
X167.322Y-103.822
X172.085Y-65.722
X176.847Y-122.872
X181.61Y-41.91
X181.61Y-84.772
X186.373Y-103.822
X191.135Y-65.722
X195.897Y-122.872
X200.66Y-41.91
X200.66Y-84.772
X205.422Y-103.822
X210.185Y-65.722
X214.947Y-122.872
X219.71Y-84.772
X224.472Y-41.91
X224.472Y-103.822
X224.472Y-141.922
X229.235Y-65.722
X233.998Y-122.872
X238.76Y-84.772
X243.522Y-41.91
X243.522Y-103.822
X243.522Y-141.922
X248.285Y-65.722
X253.047Y-122.872
X257.81Y-84.772
X262.572Y-41.91
X262.572Y-103.822
X262.572Y-141.922
X267.335Y-65.722
X276.86Y-84.772
X279.241Y-122.872
X281.623Y-41.91
X293.529Y-103.822
X295.91Y-65.722
X295.91Y-146.685
X300.673Y-84.772
X305.435Y-41.91
X314.96Y-127.635
X314.96Y-146.685
X334.01Y-65.722
X334.01Y-84.772
X334.01Y-103.822
X334.01Y-146.685
M30
