%TF.GenerationSoftware,KiCad,Pcbnew,9.0.2*%
%TF.CreationDate,2025-07-31T22:41:45+05:30*%
%TF.ProjectId,clackintosh,636c6163-6b69-46e7-946f-73682e6b6963,rev?*%
%TF.SameCoordinates,Original*%
%TF.FileFunction,Soldermask,Bot*%
%TF.FilePolarity,Negative*%
%FSLAX46Y46*%
G04 Gerber Fmt 4.6, Leading zero omitted, Abs format (unit mm)*
G04 Created by KiCad (PCBNEW 9.0.2) date 2025-07-31 22:41:45*
%MOMM*%
%LPD*%
G01*
G04 APERTURE LIST*
G04 Aperture macros list*
%AMRoundRect*
0 Rectangle with rounded corners*
0 $1 Rounding radius*
0 $2 $3 $4 $5 $6 $7 $8 $9 X,Y pos of 4 corners*
0 Add a 4 corners polygon primitive as box body*
4,1,4,$2,$3,$4,$5,$6,$7,$8,$9,$2,$3,0*
0 Add four circle primitives for the rounded corners*
1,1,$1+$1,$2,$3*
1,1,$1+$1,$4,$5*
1,1,$1+$1,$6,$7*
1,1,$1+$1,$8,$9*
0 Add four rect primitives between the rounded corners*
20,1,$1+$1,$2,$3,$4,$5,0*
20,1,$1+$1,$4,$5,$6,$7,0*
20,1,$1+$1,$6,$7,$8,$9,0*
20,1,$1+$1,$8,$9,$2,$3,0*%
G04 Aperture macros list end*
%ADD10RoundRect,0.250000X0.550000X-0.550000X0.550000X0.550000X-0.550000X0.550000X-0.550000X-0.550000X0*%
%ADD11C,1.600000*%
%ADD12R,2.000000X2.000000*%
%ADD13C,2.000000*%
%ADD14R,3.200000X2.000000*%
%ADD15RoundRect,0.082000X-0.718000X0.328000X-0.718000X-0.328000X0.718000X-0.328000X0.718000X0.328000X0*%
%ADD16RoundRect,0.102000X-0.704000X-0.704000X0.704000X-0.704000X0.704000X0.704000X-0.704000X0.704000X0*%
%ADD17C,1.612000*%
%ADD18RoundRect,0.250000X-0.550000X-0.550000X0.550000X-0.550000X0.550000X0.550000X-0.550000X0.550000X0*%
%ADD19C,1.524000*%
%ADD20RoundRect,0.250000X-0.512000X-0.512000X0.512000X-0.512000X0.512000X0.512000X-0.512000X0.512000X0*%
%ADD21C,1.752600*%
%ADD22RoundRect,0.250000X1.025000X1.000000X-1.025000X1.000000X-1.025000X-1.000000X1.025000X-1.000000X0*%
%ADD23C,1.750000*%
%ADD24C,4.000000*%
%ADD25C,3.600000*%
%ADD26C,3.048000*%
%ADD27C,3.987800*%
%ADD28RoundRect,0.250000X0.550000X0.550000X-0.550000X0.550000X-0.550000X-0.550000X0.550000X-0.550000X0*%
G04 APERTURE END LIST*
D10*
%TO.C,D55*%
X252887500Y-105012500D03*
D11*
X252887500Y-97392500D03*
%TD*%
D10*
%TO.C,D61*%
X110012500Y-124062500D03*
D11*
X110012500Y-116442500D03*
%TD*%
D10*
%TO.C,D75*%
X164781300Y-143112500D03*
D11*
X164781300Y-135492500D03*
%TD*%
D10*
%TO.C,D17*%
X86200000Y-66912500D03*
D11*
X86200000Y-59292500D03*
%TD*%
D10*
%TO.C,D18*%
X105250000Y-66912500D03*
D11*
X105250000Y-59292500D03*
%TD*%
D12*
%TO.C,SW1*%
X327250000Y-39000000D03*
D13*
X327250000Y-44000000D03*
X327250000Y-41500000D03*
D14*
X334750000Y-35900000D03*
X334750000Y-47100000D03*
D13*
X341750000Y-44000000D03*
X341750000Y-39000000D03*
%TD*%
D10*
%TO.C,D56*%
X271937500Y-105012500D03*
D11*
X271937500Y-97392500D03*
%TD*%
D10*
%TO.C,D10*%
X233837500Y-43100000D03*
D11*
X233837500Y-35480000D03*
%TD*%
D15*
%TO.C,L16*%
X210800000Y-132899999D03*
X210800000Y-134399999D03*
X216000000Y-134399999D03*
X216000000Y-132899999D03*
%TD*%
%TO.C,L14*%
X67387500Y-129002499D03*
X67387500Y-130502499D03*
X72587500Y-130502499D03*
X72587500Y-129002499D03*
%TD*%
D10*
%TO.C,D23*%
X200500000Y-66912500D03*
D11*
X200500000Y-59292500D03*
%TD*%
D10*
%TO.C,D79*%
X305275000Y-147875000D03*
D11*
X305275000Y-140255000D03*
%TD*%
D10*
%TO.C,D50*%
X157637500Y-105012500D03*
D11*
X157637500Y-97392500D03*
%TD*%
D10*
%TO.C,D33*%
X114775000Y-85962500D03*
D11*
X114775000Y-78342500D03*
%TD*%
D10*
%TO.C,D67*%
X224312500Y-124062500D03*
D11*
X224312500Y-116442500D03*
%TD*%
D16*
%TO.C,SW2*%
X276812500Y-19500000D03*
D17*
X279312500Y-19500000D03*
X281812500Y-19500000D03*
%TD*%
D10*
%TO.C,D8*%
X190975000Y-43100000D03*
D11*
X190975000Y-35480000D03*
%TD*%
D10*
%TO.C,D48*%
X119537500Y-105012500D03*
D11*
X119537500Y-97392500D03*
%TD*%
D10*
%TO.C,D4*%
X110012500Y-43100000D03*
D11*
X110012500Y-35480000D03*
%TD*%
D15*
%TO.C,L18*%
X332200000Y-131999999D03*
X332200000Y-133499999D03*
X337400000Y-133499999D03*
X337400000Y-131999999D03*
%TD*%
D10*
%TO.C,D63*%
X148112500Y-124062500D03*
D11*
X148112500Y-116442500D03*
%TD*%
D10*
%TO.C,D73*%
X71912500Y-143112500D03*
D11*
X71912500Y-135492500D03*
%TD*%
D10*
%TO.C,D30*%
X52862500Y-85962500D03*
D11*
X52862500Y-78342500D03*
%TD*%
D10*
%TO.C,D3*%
X90962500Y-43100000D03*
D11*
X90962500Y-35480000D03*
%TD*%
D10*
%TO.C,D12*%
X271937500Y-43100000D03*
D11*
X271937500Y-35480000D03*
%TD*%
D10*
%TO.C,D7*%
X171925000Y-43100000D03*
D11*
X171925000Y-35480000D03*
%TD*%
D10*
%TO.C,D40*%
X248125000Y-85962500D03*
D11*
X248125000Y-78342500D03*
%TD*%
D15*
%TO.C,L5*%
X255000000Y-74299999D03*
X255000000Y-75799999D03*
X260200000Y-75799999D03*
X260200000Y-74299999D03*
%TD*%
%TO.C,L6*%
X178700000Y-74299999D03*
X178700000Y-75799999D03*
X183900000Y-75799999D03*
X183900000Y-74299999D03*
%TD*%
%TO.C,L3*%
X210087500Y-52602499D03*
X210087500Y-54102499D03*
X215287500Y-54102499D03*
X215287500Y-52602499D03*
%TD*%
D10*
%TO.C,D26*%
X257650000Y-66912500D03*
D11*
X257650000Y-59292500D03*
%TD*%
D10*
%TO.C,D39*%
X229075000Y-85962500D03*
D11*
X229075000Y-78342500D03*
%TD*%
D10*
%TO.C,D47*%
X100487500Y-105012500D03*
D11*
X100487500Y-97392500D03*
%TD*%
D10*
%TO.C,D38*%
X210025000Y-85962500D03*
D11*
X210025000Y-78342500D03*
%TD*%
D10*
%TO.C,D69*%
X262412500Y-124062500D03*
D11*
X262412500Y-116442500D03*
%TD*%
D10*
%TO.C,D58*%
X343375000Y-105012500D03*
D11*
X343375000Y-97392500D03*
%TD*%
D10*
%TO.C,D22*%
X181450000Y-66912500D03*
D11*
X181450000Y-59292500D03*
%TD*%
D15*
%TO.C,L4*%
X291487500Y-52902499D03*
X291487500Y-54402499D03*
X296687500Y-54402499D03*
X296687500Y-52902499D03*
%TD*%
D10*
%TO.C,D72*%
X50481300Y-143112500D03*
D11*
X50481300Y-135492500D03*
%TD*%
D15*
%TO.C,L20*%
X316500000Y-102099999D03*
X316500000Y-103599999D03*
X321700000Y-103599999D03*
X321700000Y-102099999D03*
%TD*%
D10*
%TO.C,D14*%
X314800000Y-43100000D03*
D11*
X314800000Y-35480000D03*
%TD*%
D10*
%TO.C,D6*%
X152875000Y-43100000D03*
D11*
X152875000Y-35480000D03*
%TD*%
D10*
%TO.C,D27*%
X276700000Y-66912500D03*
D11*
X276700000Y-59292500D03*
%TD*%
D10*
%TO.C,D2*%
X71912500Y-43100000D03*
D11*
X71912500Y-35480000D03*
%TD*%
D15*
%TO.C,L2*%
X128700000Y-52699999D03*
X128700000Y-54199999D03*
X133900000Y-54199999D03*
X133900000Y-52699999D03*
%TD*%
D10*
%TO.C,D24*%
X219550000Y-66912500D03*
D11*
X219550000Y-59292500D03*
%TD*%
D18*
%TO.C,C21*%
X66594900Y-19100000D03*
D11*
X69094900Y-19100000D03*
%TD*%
D10*
%TO.C,D25*%
X238600000Y-66912500D03*
D11*
X238600000Y-59292500D03*
%TD*%
D10*
%TO.C,D42*%
X286225000Y-85962500D03*
D11*
X286225000Y-78342500D03*
%TD*%
D10*
%TO.C,D5*%
X129062500Y-43100000D03*
D11*
X129062500Y-35480000D03*
%TD*%
D10*
%TO.C,D62*%
X129062500Y-124062500D03*
D11*
X129062500Y-116442500D03*
%TD*%
D10*
%TO.C,D68*%
X243362500Y-124062500D03*
D11*
X243362500Y-116442500D03*
%TD*%
D19*
%TO.C,BT1*%
X320460000Y-16900000D03*
D20*
X323000000Y-16900000D03*
%TD*%
D10*
%TO.C,D41*%
X267175000Y-85962500D03*
D11*
X267175000Y-78342500D03*
%TD*%
D10*
%TO.C,D32*%
X95725000Y-85962500D03*
D11*
X95725000Y-78342500D03*
%TD*%
D10*
%TO.C,D70*%
X288606300Y-124062500D03*
D11*
X288606300Y-116442500D03*
%TD*%
D10*
%TO.C,D52*%
X195737500Y-105012500D03*
D11*
X195737500Y-97392500D03*
%TD*%
D21*
%TO.C,U2*%
X28510000Y-26320000D03*
X31050000Y-26320000D03*
X33590000Y-26320000D03*
X36130000Y-26320000D03*
X38670000Y-26320000D03*
X41210000Y-26320000D03*
X43750000Y-26320000D03*
X46290000Y-26320000D03*
X48830000Y-26320000D03*
X51370000Y-26320000D03*
X53910000Y-26320000D03*
X56450000Y-26320000D03*
X56450000Y-11080000D03*
X53910000Y-11080000D03*
X51370000Y-11080000D03*
X48830000Y-11080000D03*
X46290000Y-11080000D03*
X43750000Y-11080000D03*
X41210000Y-11080000D03*
X38670000Y-11080000D03*
X36130000Y-11080000D03*
X33590000Y-11080000D03*
X31050000Y-11080000D03*
X28510000Y-11080000D03*
X51370000Y-23780000D03*
X51370000Y-21240000D03*
X51370000Y-18700000D03*
%TD*%
D15*
%TO.C,L1*%
X48100000Y-52899999D03*
X48100000Y-54399999D03*
X53300000Y-54399999D03*
X53300000Y-52899999D03*
%TD*%
D10*
%TO.C,D45*%
X55243800Y-105012500D03*
D11*
X55243800Y-97392500D03*
%TD*%
D10*
%TO.C,D59*%
X69200000Y-124310000D03*
D11*
X69200000Y-116690000D03*
%TD*%
D10*
%TO.C,D57*%
X311700000Y-104910000D03*
D11*
X311700000Y-97290000D03*
%TD*%
D10*
%TO.C,D9*%
X210025000Y-43100000D03*
D11*
X210025000Y-35480000D03*
%TD*%
D10*
%TO.C,D76*%
X233837500Y-143112500D03*
D11*
X233837500Y-135492500D03*
%TD*%
D10*
%TO.C,D34*%
X133825000Y-85962500D03*
D11*
X133825000Y-78342500D03*
%TD*%
D10*
%TO.C,D1*%
X48100000Y-43100000D03*
D11*
X48100000Y-35480000D03*
%TD*%
D10*
%TO.C,U1*%
X80440000Y-21700000D03*
D11*
X82980000Y-21700000D03*
X85520000Y-21700000D03*
X88060000Y-21700000D03*
X90600000Y-21700000D03*
X93140000Y-21700000D03*
X95680000Y-21700000D03*
X98220000Y-21700000D03*
X100760000Y-21700000D03*
X103300000Y-21700000D03*
X105840000Y-21700000D03*
X108380000Y-21700000D03*
X110920000Y-21700000D03*
X113460000Y-21700000D03*
X113460000Y-14080000D03*
X110920000Y-14080000D03*
X108380000Y-14080000D03*
X105840000Y-14080000D03*
X103300000Y-14080000D03*
X100760000Y-14080000D03*
X98220000Y-14080000D03*
X95680000Y-14080000D03*
X93140000Y-14080000D03*
X90600000Y-14080000D03*
X88060000Y-14080000D03*
X85520000Y-14080000D03*
X82980000Y-14080000D03*
X80440000Y-14080000D03*
%TD*%
D10*
%TO.C,D31*%
X76675000Y-85962500D03*
D11*
X76675000Y-78342500D03*
%TD*%
D15*
%TO.C,L7*%
X83100000Y-74599999D03*
X83100000Y-76099999D03*
X88300000Y-76099999D03*
X88300000Y-74599999D03*
%TD*%
%TO.C,L13*%
X171487500Y-112602499D03*
X171487500Y-114102499D03*
X176687500Y-114102499D03*
X176687500Y-112602499D03*
%TD*%
D10*
%TO.C,D37*%
X190975000Y-85962500D03*
D11*
X190975000Y-78342500D03*
%TD*%
D10*
%TO.C,D64*%
X167162500Y-124062500D03*
D11*
X167162500Y-116442500D03*
%TD*%
D10*
%TO.C,D81*%
X343375000Y-147875000D03*
D11*
X343375000Y-140255000D03*
%TD*%
D15*
%TO.C,L12*%
X250387500Y-112002499D03*
X250387500Y-113502499D03*
X255587500Y-113502499D03*
X255587500Y-112002499D03*
%TD*%
D10*
%TO.C,D16*%
X67150000Y-66912500D03*
D11*
X67150000Y-59292500D03*
%TD*%
D15*
%TO.C,L11*%
X286887500Y-92302499D03*
X286887500Y-93802499D03*
X292087500Y-93802499D03*
X292087500Y-92302499D03*
%TD*%
%TO.C,L10*%
X219187500Y-93902499D03*
X219187500Y-95402499D03*
X224387500Y-95402499D03*
X224387500Y-93902499D03*
%TD*%
D10*
%TO.C,D78*%
X271937500Y-143112500D03*
D11*
X271937500Y-135492500D03*
%TD*%
D10*
%TO.C,D11*%
X252887500Y-43100000D03*
D11*
X252887500Y-35480000D03*
%TD*%
D10*
%TO.C,D77*%
X252887500Y-143112500D03*
D11*
X252887500Y-135492500D03*
%TD*%
%TO.C,R1*%
X136390000Y-17100000D03*
X144010000Y-17100000D03*
%TD*%
D10*
%TO.C,D65*%
X186212500Y-124062500D03*
D11*
X186212500Y-116442500D03*
%TD*%
D10*
%TO.C,D60*%
X90962500Y-124062500D03*
D11*
X90962500Y-116442500D03*
%TD*%
D10*
%TO.C,D35*%
X152875000Y-85962500D03*
D11*
X152875000Y-78342500D03*
%TD*%
D10*
%TO.C,D53*%
X214787500Y-105012500D03*
D11*
X214787500Y-97392500D03*
%TD*%
D10*
%TO.C,D36*%
X171925000Y-85962500D03*
D11*
X171925000Y-78342500D03*
%TD*%
%TO.C,R2*%
X144310000Y-23400000D03*
X136690000Y-23400000D03*
%TD*%
D10*
%TO.C,D21*%
X162400000Y-66912500D03*
D11*
X162400000Y-59292500D03*
%TD*%
D15*
%TO.C,L15*%
X116687500Y-132002499D03*
X116687500Y-133502499D03*
X121887500Y-133502499D03*
X121887500Y-132002499D03*
%TD*%
%TO.C,L17*%
X294187500Y-131802499D03*
X294187500Y-133302499D03*
X299387500Y-133302499D03*
X299387500Y-131802499D03*
%TD*%
%TO.C,L9*%
X131500000Y-92999999D03*
X131500000Y-94499999D03*
X136700000Y-94499999D03*
X136700000Y-92999999D03*
%TD*%
D10*
%TO.C,D54*%
X233837500Y-105012500D03*
D11*
X233837500Y-97392500D03*
%TD*%
D10*
%TO.C,D15*%
X48100000Y-66912500D03*
D11*
X48100000Y-59292500D03*
%TD*%
D10*
%TO.C,D74*%
X93343800Y-143112500D03*
D11*
X93343800Y-135492500D03*
%TD*%
D10*
%TO.C,D71*%
X324325000Y-128825000D03*
D11*
X324325000Y-121205000D03*
%TD*%
D10*
%TO.C,D66*%
X205262500Y-124062500D03*
D11*
X205262500Y-116442500D03*
%TD*%
D15*
%TO.C,L8*%
X52787500Y-92102499D03*
X52787500Y-93602499D03*
X57987500Y-93602499D03*
X57987500Y-92102499D03*
%TD*%
D10*
%TO.C,D80*%
X324325000Y-147875000D03*
D11*
X324325000Y-140255000D03*
%TD*%
D10*
%TO.C,D29*%
X343375000Y-66912500D03*
D11*
X343375000Y-59292500D03*
%TD*%
D10*
%TO.C,D43*%
X310037500Y-85962500D03*
D11*
X310037500Y-78342500D03*
%TD*%
D10*
%TO.C,D49*%
X138587500Y-105012500D03*
D11*
X138587500Y-97392500D03*
%TD*%
D10*
%TO.C,D20*%
X143350000Y-66912500D03*
D11*
X143350000Y-59292500D03*
%TD*%
D10*
%TO.C,D51*%
X176687500Y-105012500D03*
D11*
X176687500Y-97392500D03*
%TD*%
D10*
%TO.C,D28*%
X313100000Y-66720000D03*
D11*
X313100000Y-59100000D03*
%TD*%
D10*
%TO.C,D19*%
X124300000Y-66912500D03*
D11*
X124300000Y-59292500D03*
%TD*%
D15*
%TO.C,L19*%
X316987500Y-75102499D03*
X316987500Y-76602499D03*
X322187500Y-76602499D03*
X322187500Y-75102499D03*
%TD*%
D10*
%TO.C,D44*%
X343375000Y-85962500D03*
D11*
X343375000Y-78342500D03*
%TD*%
D10*
%TO.C,D13*%
X290987500Y-43100000D03*
D11*
X290987500Y-35480000D03*
%TD*%
D10*
%TO.C,D46*%
X81437500Y-105012500D03*
D11*
X81437500Y-97392500D03*
%TD*%
D22*
%TO.C,S12*%
X255487500Y-39370000D03*
D23*
X257492500Y-41910000D03*
D24*
X262572500Y-41910000D03*
D23*
X267652500Y-41910000D03*
D22*
X268414500Y-36830000D03*
D25*
X258762500Y-39370000D03*
X265112500Y-36830000D03*
%TD*%
D22*
%TO.C,S70*%
X272156300Y-120332500D03*
D23*
X274161300Y-122872500D03*
D24*
X279241300Y-122872500D03*
D23*
X284321300Y-122872500D03*
D22*
X285083300Y-117792500D03*
D25*
X275431300Y-120332500D03*
X281781300Y-117792500D03*
%TD*%
D22*
%TO.C,S39*%
X212625000Y-82232500D03*
D23*
X214630000Y-84772500D03*
D24*
X219710000Y-84772500D03*
D23*
X224790000Y-84772500D03*
D22*
X225552000Y-79692500D03*
D25*
X215900000Y-82232500D03*
X222250000Y-79692500D03*
%TD*%
D26*
%TO.C,S57*%
X281590800Y-96837500D03*
D27*
X281590800Y-112047500D03*
D22*
X286443800Y-101282500D03*
D23*
X288448800Y-103822500D03*
D24*
X293528800Y-103822500D03*
D23*
X298608800Y-103822500D03*
D22*
X299370800Y-98742500D03*
D26*
X305466800Y-96837500D03*
D27*
X305466800Y-112047500D03*
D25*
X289718800Y-101282500D03*
X296068800Y-98742500D03*
%TD*%
D26*
%TO.C,S59*%
X38703300Y-115887500D03*
D27*
X38703300Y-131097500D03*
D22*
X43556300Y-120332500D03*
D23*
X45561300Y-122872500D03*
D24*
X50641300Y-122872500D03*
D23*
X55721300Y-122872500D03*
D22*
X56483300Y-117792500D03*
D26*
X62579300Y-115887500D03*
D27*
X62579300Y-131097500D03*
D25*
X46831300Y-120332500D03*
X53181300Y-117792500D03*
%TD*%
D28*
%TO.C,C14*%
X33505100Y-130900000D03*
D11*
X31005100Y-130900000D03*
%TD*%
D22*
%TO.C,S65*%
X169762500Y-120332500D03*
D23*
X171767500Y-122872500D03*
D24*
X176847500Y-122872500D03*
D23*
X181927500Y-122872500D03*
D22*
X182689500Y-117792500D03*
D25*
X173037500Y-120332500D03*
X179387500Y-117792500D03*
%TD*%
D22*
%TO.C,S8*%
X174525000Y-39370000D03*
D23*
X176530000Y-41910000D03*
D24*
X181610000Y-41910000D03*
D23*
X186690000Y-41910000D03*
D22*
X187452000Y-36830000D03*
D25*
X177800000Y-39370000D03*
X184150000Y-36830000D03*
%TD*%
D22*
%TO.C,S44*%
X326925000Y-82232500D03*
D23*
X328930000Y-84772500D03*
D24*
X334010000Y-84772500D03*
D23*
X339090000Y-84772500D03*
D22*
X339852000Y-79692500D03*
D25*
X330200000Y-82232500D03*
X336550000Y-79692500D03*
%TD*%
D22*
%TO.C,S60*%
X74512500Y-120332500D03*
D23*
X76517500Y-122872500D03*
D24*
X81597500Y-122872500D03*
D23*
X86677500Y-122872500D03*
D22*
X87439500Y-117792500D03*
D25*
X77787500Y-120332500D03*
X84137500Y-117792500D03*
%TD*%
D22*
%TO.C,S47*%
X84037500Y-101282500D03*
D23*
X86042500Y-103822500D03*
D24*
X91122500Y-103822500D03*
D23*
X96202500Y-103822500D03*
D22*
X96964500Y-98742500D03*
D25*
X87312500Y-101282500D03*
X93662500Y-98742500D03*
%TD*%
D22*
%TO.C,S81*%
X326925000Y-144145000D03*
D23*
X328930000Y-146685000D03*
D24*
X334010000Y-146685000D03*
D23*
X339090000Y-146685000D03*
D22*
X339852000Y-141605000D03*
D25*
X330200000Y-144145000D03*
X336550000Y-141605000D03*
%TD*%
D22*
%TO.C,S69*%
X245962500Y-120332500D03*
D23*
X247967500Y-122872500D03*
D24*
X253047500Y-122872500D03*
D23*
X258127500Y-122872500D03*
D22*
X258889500Y-117792500D03*
D25*
X249237500Y-120332500D03*
X255587500Y-117792500D03*
%TD*%
D28*
%TO.C,C6*%
X163705100Y-74700000D03*
D11*
X161205100Y-74700000D03*
%TD*%
D22*
%TO.C,S66*%
X188812500Y-120332500D03*
D23*
X190817500Y-122872500D03*
D24*
X195897500Y-122872500D03*
D23*
X200977500Y-122872500D03*
D22*
X201739500Y-117792500D03*
D25*
X192087500Y-120332500D03*
X198437500Y-117792500D03*
%TD*%
D22*
%TO.C,S9*%
X193575000Y-39370000D03*
D23*
X195580000Y-41910000D03*
D24*
X200660000Y-41910000D03*
D23*
X205740000Y-41910000D03*
D22*
X206502000Y-36830000D03*
D25*
X196850000Y-39370000D03*
X203200000Y-36830000D03*
%TD*%
D22*
%TO.C,S77*%
X236437500Y-139382500D03*
D23*
X238442500Y-141922500D03*
D24*
X243522500Y-141922500D03*
D23*
X248602500Y-141922500D03*
D22*
X249364500Y-136842500D03*
D25*
X239712500Y-139382500D03*
X246062500Y-136842500D03*
%TD*%
D28*
%TO.C,C8*%
X34205100Y-94400000D03*
D11*
X31705100Y-94400000D03*
%TD*%
D22*
%TO.C,S30*%
X36412500Y-82232500D03*
D23*
X38417500Y-84772500D03*
D24*
X43497500Y-84772500D03*
D23*
X48577500Y-84772500D03*
D22*
X49339500Y-79692500D03*
D25*
X39687500Y-82232500D03*
X46037500Y-79692500D03*
%TD*%
D28*
%TO.C,C20*%
X320500000Y-95500000D03*
D11*
X318000000Y-95500000D03*
%TD*%
D28*
%TO.C,C7*%
X68300000Y-74600000D03*
D11*
X65800000Y-74600000D03*
%TD*%
D22*
%TO.C,S40*%
X231675000Y-82232500D03*
D23*
X233680000Y-84772500D03*
D24*
X238760000Y-84772500D03*
D23*
X243840000Y-84772500D03*
D22*
X244602000Y-79692500D03*
D25*
X234950000Y-82232500D03*
X241300000Y-79692500D03*
%TD*%
D22*
%TO.C,S38*%
X193575000Y-82232500D03*
D23*
X195580000Y-84772500D03*
D24*
X200660000Y-84772500D03*
D23*
X205740000Y-84772500D03*
D22*
X206502000Y-79692500D03*
D25*
X196850000Y-82232500D03*
X203200000Y-79692500D03*
%TD*%
D22*
%TO.C,S76*%
X217387500Y-139382500D03*
D23*
X219392500Y-141922500D03*
D24*
X224472500Y-141922500D03*
D23*
X229552500Y-141922500D03*
D22*
X230314500Y-136842500D03*
D25*
X220662500Y-139382500D03*
X227012500Y-136842500D03*
%TD*%
D28*
%TO.C,C10*%
X211500000Y-93500000D03*
D11*
X209000000Y-93500000D03*
%TD*%
D22*
%TO.C,S52*%
X179287500Y-101282500D03*
D23*
X181292500Y-103822500D03*
D24*
X186372500Y-103822500D03*
D23*
X191452500Y-103822500D03*
D22*
X192214500Y-98742500D03*
D25*
X182562500Y-101282500D03*
X188912500Y-98742500D03*
%TD*%
D22*
%TO.C,S79*%
X288825000Y-144145000D03*
D23*
X290830000Y-146685000D03*
D24*
X295910000Y-146685000D03*
D23*
X300990000Y-146685000D03*
D22*
X301752000Y-141605000D03*
D25*
X292100000Y-144145000D03*
X298450000Y-141605000D03*
%TD*%
D22*
%TO.C,S2*%
X55462500Y-39370000D03*
D23*
X57467500Y-41910000D03*
D24*
X62547500Y-41910000D03*
D23*
X67627500Y-41910000D03*
D22*
X68389500Y-36830000D03*
D25*
X58737500Y-39370000D03*
X65087500Y-36830000D03*
%TD*%
D22*
%TO.C,S17*%
X69750000Y-63182500D03*
D23*
X71755000Y-65722500D03*
D24*
X76835000Y-65722500D03*
D23*
X81915000Y-65722500D03*
D22*
X82677000Y-60642500D03*
D25*
X73025000Y-63182500D03*
X79375000Y-60642500D03*
%TD*%
D22*
%TO.C,S41*%
X250725000Y-82232500D03*
D23*
X252730000Y-84772500D03*
D24*
X257810000Y-84772500D03*
D23*
X262890000Y-84772500D03*
D22*
X263652000Y-79692500D03*
D25*
X254000000Y-82232500D03*
X260350000Y-79692500D03*
%TD*%
D22*
%TO.C,S80*%
X307875000Y-144145000D03*
D23*
X309880000Y-146685000D03*
D24*
X314960000Y-146685000D03*
D23*
X320040000Y-146685000D03*
D22*
X320802000Y-141605000D03*
D25*
X311150000Y-144145000D03*
X317500000Y-141605000D03*
%TD*%
D22*
%TO.C,S32*%
X79275000Y-82232500D03*
D23*
X81280000Y-84772500D03*
D24*
X86360000Y-84772500D03*
D23*
X91440000Y-84772500D03*
D22*
X92202000Y-79692500D03*
D25*
X82550000Y-82232500D03*
X88900000Y-79692500D03*
%TD*%
D26*
%TO.C,S75*%
X105416300Y-134937500D03*
D27*
X105416300Y-150147500D03*
D22*
X148331300Y-139382500D03*
D23*
X150336300Y-141922500D03*
D24*
X155416300Y-141922500D03*
D23*
X160496300Y-141922500D03*
D22*
X161258300Y-136842500D03*
D26*
X205416300Y-134937500D03*
D27*
X205416300Y-150147500D03*
D25*
X151606300Y-139382500D03*
X157956300Y-136842500D03*
%TD*%
D22*
%TO.C,S37*%
X174525000Y-82232500D03*
D23*
X176530000Y-84772500D03*
D24*
X181610000Y-84772500D03*
D23*
X186690000Y-84772500D03*
D22*
X187452000Y-79692500D03*
D25*
X177800000Y-82232500D03*
X184150000Y-79692500D03*
%TD*%
D22*
%TO.C,S4*%
X93562500Y-39370000D03*
D23*
X95567500Y-41910000D03*
D24*
X100647500Y-41910000D03*
D23*
X105727500Y-41910000D03*
D22*
X106489500Y-36830000D03*
D25*
X96837500Y-39370000D03*
X103187500Y-36830000D03*
%TD*%
D22*
%TO.C,S18*%
X88800000Y-63182500D03*
D23*
X90805000Y-65722500D03*
D24*
X95885000Y-65722500D03*
D23*
X100965000Y-65722500D03*
D22*
X101727000Y-60642500D03*
D25*
X92075000Y-63182500D03*
X98425000Y-60642500D03*
%TD*%
D22*
%TO.C,S20*%
X126900000Y-63182500D03*
D23*
X128905000Y-65722500D03*
D24*
X133985000Y-65722500D03*
D23*
X139065000Y-65722500D03*
D22*
X139827000Y-60642500D03*
D25*
X130175000Y-63182500D03*
X136525000Y-60642500D03*
%TD*%
D28*
%TO.C,C2*%
X118500000Y-53900000D03*
D11*
X116000000Y-53900000D03*
%TD*%
D22*
%TO.C,S14*%
X298350000Y-39370000D03*
D23*
X300355000Y-41910000D03*
D24*
X305435000Y-41910000D03*
D23*
X310515000Y-41910000D03*
D22*
X311277000Y-36830000D03*
D25*
X301625000Y-39370000D03*
X307975000Y-36830000D03*
%TD*%
D28*
%TO.C,C1*%
X35994900Y-53700000D03*
D11*
X33494900Y-53700000D03*
%TD*%
D22*
%TO.C,S27*%
X260250000Y-63182500D03*
D23*
X262255000Y-65722500D03*
D24*
X267335000Y-65722500D03*
D23*
X272415000Y-65722500D03*
D22*
X273177000Y-60642500D03*
D25*
X263525000Y-63182500D03*
X269875000Y-60642500D03*
%TD*%
D28*
%TO.C,C4*%
X279205113Y-53700000D03*
D11*
X276705113Y-53700000D03*
%TD*%
D22*
%TO.C,S71*%
X307875000Y-125095000D03*
D23*
X309880000Y-127635000D03*
D24*
X314960000Y-127635000D03*
D23*
X320040000Y-127635000D03*
D22*
X320802000Y-122555000D03*
D25*
X311150000Y-125095000D03*
X317500000Y-122555000D03*
%TD*%
D22*
%TO.C,S29*%
X326925000Y-63182500D03*
D23*
X328930000Y-65722500D03*
D24*
X334010000Y-65722500D03*
D23*
X339090000Y-65722500D03*
D22*
X339852000Y-60642500D03*
D25*
X330200000Y-63182500D03*
X336550000Y-60642500D03*
%TD*%
D22*
%TO.C,S58*%
X326925000Y-101282500D03*
D23*
X328930000Y-103822500D03*
D24*
X334010000Y-103822500D03*
D23*
X339090000Y-103822500D03*
D22*
X339852000Y-98742500D03*
D25*
X330200000Y-101282500D03*
X336550000Y-98742500D03*
%TD*%
D22*
%TO.C,S49*%
X122137500Y-101282500D03*
D23*
X124142500Y-103822500D03*
D24*
X129222500Y-103822500D03*
D23*
X134302500Y-103822500D03*
D22*
X135064500Y-98742500D03*
D25*
X125412500Y-101282500D03*
X131762500Y-98742500D03*
%TD*%
D22*
%TO.C,S23*%
X184050000Y-63182500D03*
D23*
X186055000Y-65722500D03*
D24*
X191135000Y-65722500D03*
D23*
X196215000Y-65722500D03*
D22*
X196977000Y-60642500D03*
D25*
X187325000Y-63182500D03*
X193675000Y-60642500D03*
%TD*%
D22*
%TO.C,S33*%
X98325000Y-82232500D03*
D23*
X100330000Y-84772500D03*
D24*
X105410000Y-84772500D03*
D23*
X110490000Y-84772500D03*
D22*
X111252000Y-79692500D03*
D25*
X101600000Y-82232500D03*
X107950000Y-79692500D03*
%TD*%
D28*
%TO.C,C13*%
X158700000Y-112800000D03*
D11*
X156200000Y-112800000D03*
%TD*%
D28*
%TO.C,C18*%
X336300000Y-123300000D03*
D11*
X333800000Y-123300000D03*
%TD*%
D22*
%TO.C,S78*%
X255487500Y-139382500D03*
D23*
X257492500Y-141922500D03*
D24*
X262572500Y-141922500D03*
D23*
X267652500Y-141922500D03*
D22*
X268414500Y-136842500D03*
D25*
X258762500Y-139382500D03*
X265112500Y-136842500D03*
%TD*%
D22*
%TO.C,S46*%
X64987500Y-101282500D03*
D23*
X66992500Y-103822500D03*
D24*
X72072500Y-103822500D03*
D23*
X77152500Y-103822500D03*
D22*
X77914500Y-98742500D03*
D25*
X68262500Y-101282500D03*
X74612500Y-98742500D03*
%TD*%
D22*
%TO.C,S68*%
X226912500Y-120332500D03*
D23*
X228917500Y-122872500D03*
D24*
X233997500Y-122872500D03*
D23*
X239077500Y-122872500D03*
D22*
X239839500Y-117792500D03*
D25*
X230187500Y-120332500D03*
X236537500Y-117792500D03*
%TD*%
D22*
%TO.C,S31*%
X60225000Y-82232500D03*
D23*
X62230000Y-84772500D03*
D24*
X67310000Y-84772500D03*
D23*
X72390000Y-84772500D03*
D22*
X73152000Y-79692500D03*
D25*
X63500000Y-82232500D03*
X69850000Y-79692500D03*
%TD*%
D22*
%TO.C,S24*%
X203100000Y-63182500D03*
D23*
X205105000Y-65722500D03*
D24*
X210185000Y-65722500D03*
D23*
X215265000Y-65722500D03*
D22*
X216027000Y-60642500D03*
D25*
X206375000Y-63182500D03*
X212725000Y-60642500D03*
%TD*%
D22*
%TO.C,S6*%
X136425000Y-39370000D03*
D23*
X138430000Y-41910000D03*
D24*
X143510000Y-41910000D03*
D23*
X148590000Y-41910000D03*
D22*
X149352000Y-36830000D03*
D25*
X139700000Y-39370000D03*
X146050000Y-36830000D03*
%TD*%
D22*
%TO.C,S11*%
X236437500Y-39370000D03*
D23*
X238442500Y-41910000D03*
D24*
X243522500Y-41910000D03*
D23*
X248602500Y-41910000D03*
D22*
X249364500Y-36830000D03*
D25*
X239712500Y-39370000D03*
X246062500Y-36830000D03*
%TD*%
D22*
%TO.C,S45*%
X38793800Y-101282500D03*
D23*
X40798800Y-103822500D03*
D24*
X45878800Y-103822500D03*
D23*
X50958800Y-103822500D03*
D22*
X51720800Y-98742500D03*
D25*
X42068800Y-101282500D03*
X48418800Y-98742500D03*
%TD*%
D28*
%TO.C,C5*%
X239905100Y-74600000D03*
D11*
X237405100Y-74600000D03*
%TD*%
D22*
%TO.C,S73*%
X55462500Y-139382500D03*
D23*
X57467500Y-141922500D03*
D24*
X62547500Y-141922500D03*
D23*
X67627500Y-141922500D03*
D22*
X68389500Y-136842500D03*
D25*
X58737500Y-139382500D03*
X65087500Y-136842500D03*
%TD*%
D22*
%TO.C,S26*%
X241200000Y-63182500D03*
D23*
X243205000Y-65722500D03*
D24*
X248285000Y-65722500D03*
D23*
X253365000Y-65722500D03*
D22*
X254127000Y-60642500D03*
D25*
X244475000Y-63182500D03*
X250825000Y-60642500D03*
%TD*%
D28*
%TO.C,C3*%
X197300000Y-53500000D03*
D11*
X194800000Y-53500000D03*
%TD*%
D22*
%TO.C,S51*%
X160237500Y-101282500D03*
D23*
X162242500Y-103822500D03*
D24*
X167322500Y-103822500D03*
D23*
X172402500Y-103822500D03*
D22*
X173164500Y-98742500D03*
D25*
X163512500Y-101282500D03*
X169862500Y-98742500D03*
%TD*%
D22*
%TO.C,S35*%
X136425000Y-82232500D03*
D23*
X138430000Y-84772500D03*
D24*
X143510000Y-84772500D03*
D23*
X148590000Y-84772500D03*
D22*
X149352000Y-79692500D03*
D25*
X139700000Y-82232500D03*
X146050000Y-79692500D03*
%TD*%
D22*
%TO.C,S36*%
X155475000Y-82232500D03*
D23*
X157480000Y-84772500D03*
D24*
X162560000Y-84772500D03*
D23*
X167640000Y-84772500D03*
D22*
X168402000Y-79692500D03*
D25*
X158750000Y-82232500D03*
X165100000Y-79692500D03*
%TD*%
D22*
%TO.C,S15*%
X31650000Y-63182500D03*
D23*
X33655000Y-65722500D03*
D24*
X38735000Y-65722500D03*
D23*
X43815000Y-65722500D03*
D22*
X44577000Y-60642500D03*
D25*
X34925000Y-63182500D03*
X41275000Y-60642500D03*
%TD*%
D22*
%TO.C,S61*%
X93562500Y-120332500D03*
D23*
X95567500Y-122872500D03*
D24*
X100647500Y-122872500D03*
D23*
X105727500Y-122872500D03*
D22*
X106489500Y-117792500D03*
D25*
X96837500Y-120332500D03*
X103187500Y-117792500D03*
%TD*%
D22*
%TO.C,S72*%
X34031300Y-139382500D03*
D23*
X36036300Y-141922500D03*
D24*
X41116300Y-141922500D03*
D23*
X46196300Y-141922500D03*
D22*
X46958300Y-136842500D03*
D25*
X37306300Y-139382500D03*
X43656300Y-136842500D03*
%TD*%
D22*
%TO.C,S25*%
X222150000Y-63182500D03*
D23*
X224155000Y-65722500D03*
D24*
X229235000Y-65722500D03*
D23*
X234315000Y-65722500D03*
D22*
X235077000Y-60642500D03*
D25*
X225425000Y-63182500D03*
X231775000Y-60642500D03*
%TD*%
D22*
%TO.C,S54*%
X217387500Y-101282500D03*
D23*
X219392500Y-103822500D03*
D24*
X224472500Y-103822500D03*
D23*
X229552500Y-103822500D03*
D22*
X230314500Y-98742500D03*
D25*
X220662500Y-101282500D03*
X227012500Y-98742500D03*
%TD*%
D28*
%TO.C,C17*%
X282200000Y-145400000D03*
D11*
X279700000Y-145400000D03*
%TD*%
D22*
%TO.C,S63*%
X131662500Y-120332500D03*
D23*
X133667500Y-122872500D03*
D24*
X138747500Y-122872500D03*
D23*
X143827500Y-122872500D03*
D22*
X144589500Y-117792500D03*
D25*
X134937500Y-120332500D03*
X141287500Y-117792500D03*
%TD*%
D28*
%TO.C,C12*%
X235405100Y-112600000D03*
D11*
X232905100Y-112600000D03*
%TD*%
D22*
%TO.C,S7*%
X155475000Y-39370000D03*
D23*
X157480000Y-41910000D03*
D24*
X162560000Y-41910000D03*
D23*
X167640000Y-41910000D03*
D22*
X168402000Y-36830000D03*
D25*
X158750000Y-39370000D03*
X165100000Y-36830000D03*
%TD*%
D28*
%TO.C,C11*%
X268600000Y-93400000D03*
D11*
X266100000Y-93400000D03*
%TD*%
D22*
%TO.C,S16*%
X50700000Y-63182500D03*
D23*
X52705000Y-65722500D03*
D24*
X57785000Y-65722500D03*
D23*
X62865000Y-65722500D03*
D22*
X63627000Y-60642500D03*
D25*
X53975000Y-63182500D03*
X60325000Y-60642500D03*
%TD*%
D28*
%TO.C,C19*%
X320900000Y-59500000D03*
D11*
X318400000Y-59500000D03*
%TD*%
D22*
%TO.C,S1*%
X31650000Y-39370000D03*
D23*
X33655000Y-41910000D03*
D24*
X38735000Y-41910000D03*
D23*
X43815000Y-41910000D03*
D22*
X44577000Y-36830000D03*
D25*
X34925000Y-39370000D03*
X41275000Y-36830000D03*
%TD*%
D22*
%TO.C,S67*%
X207862500Y-120332500D03*
D23*
X209867500Y-122872500D03*
D24*
X214947500Y-122872500D03*
D23*
X220027500Y-122872500D03*
D22*
X220789500Y-117792500D03*
D25*
X211137500Y-120332500D03*
X217487500Y-117792500D03*
%TD*%
D22*
%TO.C,S48*%
X103087500Y-101282500D03*
D23*
X105092500Y-103822500D03*
D24*
X110172500Y-103822500D03*
D23*
X115252500Y-103822500D03*
D22*
X116014500Y-98742500D03*
D25*
X106362500Y-101282500D03*
X112712500Y-98742500D03*
%TD*%
D28*
%TO.C,C16*%
X189900000Y-139100000D03*
D11*
X187400000Y-139100000D03*
%TD*%
D22*
%TO.C,S74*%
X76893800Y-139382500D03*
D23*
X78898800Y-141922500D03*
D24*
X83978800Y-141922500D03*
D23*
X89058800Y-141922500D03*
D22*
X89820800Y-136842500D03*
D25*
X80168800Y-139382500D03*
X86518800Y-136842500D03*
%TD*%
D22*
%TO.C,S62*%
X112612500Y-120332500D03*
D23*
X114617500Y-122872500D03*
D24*
X119697500Y-122872500D03*
D23*
X124777500Y-122872500D03*
D22*
X125539500Y-117792500D03*
D25*
X115887500Y-120332500D03*
X122237500Y-117792500D03*
%TD*%
D22*
%TO.C,S19*%
X107850000Y-63182500D03*
D23*
X109855000Y-65722500D03*
D24*
X114935000Y-65722500D03*
D23*
X120015000Y-65722500D03*
D22*
X120777000Y-60642500D03*
D25*
X111125000Y-63182500D03*
X117475000Y-60642500D03*
%TD*%
D22*
%TO.C,S22*%
X165000000Y-63182500D03*
D23*
X167005000Y-65722500D03*
D24*
X172085000Y-65722500D03*
D23*
X177165000Y-65722500D03*
D22*
X177927000Y-60642500D03*
D25*
X168275000Y-63182500D03*
X174625000Y-60642500D03*
%TD*%
D22*
%TO.C,S5*%
X112612500Y-39370000D03*
D23*
X114617500Y-41910000D03*
D24*
X119697500Y-41910000D03*
D23*
X124777500Y-41910000D03*
D22*
X125539500Y-36830000D03*
D25*
X115887500Y-39370000D03*
X122237500Y-36830000D03*
%TD*%
D22*
%TO.C,S53*%
X198337500Y-101282500D03*
D23*
X200342500Y-103822500D03*
D24*
X205422500Y-103822500D03*
D23*
X210502500Y-103822500D03*
D22*
X211264500Y-98742500D03*
D25*
X201612500Y-101282500D03*
X207962500Y-98742500D03*
%TD*%
D22*
%TO.C,S10*%
X217387500Y-39370000D03*
D23*
X219392500Y-41910000D03*
D24*
X224472500Y-41910000D03*
D23*
X229552500Y-41910000D03*
D22*
X230314500Y-36830000D03*
D25*
X220662500Y-39370000D03*
X227012500Y-36830000D03*
%TD*%
D22*
%TO.C,S64*%
X150712500Y-120332500D03*
D23*
X152717500Y-122872500D03*
D24*
X157797500Y-122872500D03*
D23*
X162877500Y-122872500D03*
D22*
X163639500Y-117792500D03*
D25*
X153987500Y-120332500D03*
X160337500Y-117792500D03*
%TD*%
D26*
%TO.C,S28*%
X283972000Y-58737500D03*
D27*
X283972000Y-73947500D03*
D22*
X288825000Y-63182500D03*
D23*
X290830000Y-65722500D03*
D24*
X295910000Y-65722500D03*
D23*
X300990000Y-65722500D03*
D22*
X301752000Y-60642500D03*
D26*
X307848000Y-58737500D03*
D27*
X307848000Y-73947500D03*
D25*
X292100000Y-63182500D03*
X298450000Y-60642500D03*
%TD*%
D22*
%TO.C,S3*%
X74512500Y-39370000D03*
D23*
X76517500Y-41910000D03*
D24*
X81597500Y-41910000D03*
D23*
X86677500Y-41910000D03*
D22*
X87439500Y-36830000D03*
D25*
X77787500Y-39370000D03*
X84137500Y-36830000D03*
%TD*%
D22*
%TO.C,S55*%
X236437500Y-101282500D03*
D23*
X238442500Y-103822500D03*
D24*
X243522500Y-103822500D03*
D23*
X248602500Y-103822500D03*
D22*
X249364500Y-98742500D03*
D25*
X239712500Y-101282500D03*
X246062500Y-98742500D03*
%TD*%
D22*
%TO.C,S42*%
X269775000Y-82232500D03*
D23*
X271780000Y-84772500D03*
D24*
X276860000Y-84772500D03*
D23*
X281940000Y-84772500D03*
D22*
X282702000Y-79692500D03*
D25*
X273050000Y-82232500D03*
X279400000Y-79692500D03*
%TD*%
D22*
%TO.C,S50*%
X141187500Y-101282500D03*
D23*
X143192500Y-103822500D03*
D24*
X148272500Y-103822500D03*
D23*
X153352500Y-103822500D03*
D22*
X154114500Y-98742500D03*
D25*
X144462500Y-101282500D03*
X150812500Y-98742500D03*
%TD*%
D28*
%TO.C,C15*%
X128400000Y-143400000D03*
D11*
X125900000Y-143400000D03*
%TD*%
D22*
%TO.C,S13*%
X274537500Y-39370000D03*
D23*
X276542500Y-41910000D03*
D24*
X281622500Y-41910000D03*
D23*
X286702500Y-41910000D03*
D22*
X287464500Y-36830000D03*
D25*
X277812500Y-39370000D03*
X284162500Y-36830000D03*
%TD*%
D28*
%TO.C,C9*%
X115900000Y-93700000D03*
D11*
X113400000Y-93700000D03*
%TD*%
D22*
%TO.C,S56*%
X255487500Y-101282500D03*
D23*
X257492500Y-103822500D03*
D24*
X262572500Y-103822500D03*
D23*
X267652500Y-103822500D03*
D22*
X268414500Y-98742500D03*
D25*
X258762500Y-101282500D03*
X265112500Y-98742500D03*
%TD*%
D22*
%TO.C,S34*%
X117375000Y-82232500D03*
D23*
X119380000Y-84772500D03*
D24*
X124460000Y-84772500D03*
D23*
X129540000Y-84772500D03*
D22*
X130302000Y-79692500D03*
D25*
X120650000Y-82232500D03*
X127000000Y-79692500D03*
%TD*%
D22*
%TO.C,S43*%
X293587500Y-82232500D03*
D23*
X295592500Y-84772500D03*
D24*
X300672500Y-84772500D03*
D23*
X305752500Y-84772500D03*
D22*
X306514500Y-79692500D03*
D25*
X296862500Y-82232500D03*
X303212500Y-79692500D03*
%TD*%
D22*
%TO.C,S21*%
X145950000Y-63182500D03*
D23*
X147955000Y-65722500D03*
D24*
X153035000Y-65722500D03*
D23*
X158115000Y-65722500D03*
D22*
X158877000Y-60642500D03*
D25*
X149225000Y-63182500D03*
X155575000Y-60642500D03*
%TD*%
M02*
