%TF.GenerationSoftware,KiCad,Pcbnew,9.0.2*%
%TF.CreationDate,2025-08-01T15:53:50+05:30*%
%TF.ProjectId,clackintosh,636c6163-6b69-46e7-946f-73682e6b6963,rev?*%
%TF.SameCoordinates,Original*%
%TF.FileFunction,Copper,L2,Bot*%
%TF.FilePolarity,Positive*%
%FSLAX46Y46*%
G04 Gerber Fmt 4.6, Leading zero omitted, Abs format (unit mm)*
G04 Created by KiCad (PCBNEW 9.0.2) date 2025-08-01 15:53:50*
%MOMM*%
%LPD*%
G01*
G04 APERTURE LIST*
G04 Aperture macros list*
%AMRoundRect*
0 Rectangle with rounded corners*
0 $1 Rounding radius*
0 $2 $3 $4 $5 $6 $7 $8 $9 X,Y pos of 4 corners*
0 Add a 4 corners polygon primitive as box body*
4,1,4,$2,$3,$4,$5,$6,$7,$8,$9,$2,$3,0*
0 Add four circle primitives for the rounded corners*
1,1,$1+$1,$2,$3*
1,1,$1+$1,$4,$5*
1,1,$1+$1,$6,$7*
1,1,$1+$1,$8,$9*
0 Add four rect primitives between the rounded corners*
20,1,$1+$1,$2,$3,$4,$5,0*
20,1,$1+$1,$4,$5,$6,$7,0*
20,1,$1+$1,$6,$7,$8,$9,0*
20,1,$1+$1,$8,$9,$2,$3,0*%
G04 Aperture macros list end*
%TA.AperFunction,ComponentPad*%
%ADD10RoundRect,0.250000X0.550000X-0.550000X0.550000X0.550000X-0.550000X0.550000X-0.550000X-0.550000X0*%
%TD*%
%TA.AperFunction,ComponentPad*%
%ADD11C,1.600000*%
%TD*%
%TA.AperFunction,ComponentPad*%
%ADD12R,2.000000X2.000000*%
%TD*%
%TA.AperFunction,ComponentPad*%
%ADD13C,2.000000*%
%TD*%
%TA.AperFunction,ComponentPad*%
%ADD14R,3.200000X2.000000*%
%TD*%
%TA.AperFunction,SMDPad,CuDef*%
%ADD15RoundRect,0.082000X-0.718000X0.328000X-0.718000X-0.328000X0.718000X-0.328000X0.718000X0.328000X0*%
%TD*%
%TA.AperFunction,ComponentPad*%
%ADD16R,1.408000X1.408000*%
%TD*%
%TA.AperFunction,ComponentPad*%
%ADD17C,1.408000*%
%TD*%
%TA.AperFunction,ComponentPad*%
%ADD18RoundRect,0.250000X-0.550000X-0.550000X0.550000X-0.550000X0.550000X0.550000X-0.550000X0.550000X0*%
%TD*%
%TA.AperFunction,ComponentPad*%
%ADD19C,1.524000*%
%TD*%
%TA.AperFunction,ComponentPad*%
%ADD20RoundRect,0.250000X-0.512000X-0.512000X0.512000X-0.512000X0.512000X0.512000X-0.512000X0.512000X0*%
%TD*%
%TA.AperFunction,ComponentPad*%
%ADD21C,1.752600*%
%TD*%
%TA.AperFunction,SMDPad,CuDef*%
%ADD22RoundRect,0.250000X1.525000X1.000000X-1.525000X1.000000X-1.525000X-1.000000X1.525000X-1.000000X0*%
%TD*%
%TA.AperFunction,ComponentPad*%
%ADD23C,3.600000*%
%TD*%
%TA.AperFunction,ComponentPad*%
%ADD24RoundRect,0.250000X0.550000X0.550000X-0.550000X0.550000X-0.550000X-0.550000X0.550000X-0.550000X0*%
%TD*%
%TA.AperFunction,ViaPad*%
%ADD25C,0.600000*%
%TD*%
%TA.AperFunction,Conductor*%
%ADD26C,0.200000*%
%TD*%
G04 APERTURE END LIST*
D10*
%TO.P,D55,1,K*%
%TO.N,Row 4*%
X252887500Y-105012500D03*
D11*
%TO.P,D55,2,A*%
%TO.N,Net-(D55-A)*%
X252887500Y-97392500D03*
%TD*%
D10*
%TO.P,D61,1,K*%
%TO.N,Row 5*%
X110012500Y-124062500D03*
D11*
%TO.P,D61,2,A*%
%TO.N,Net-(D61-A)*%
X110012500Y-116442500D03*
%TD*%
D10*
%TO.P,D75,1,K*%
%TO.N,Row 6*%
X164781300Y-143112500D03*
D11*
%TO.P,D75,2,A*%
%TO.N,Net-(D75-A)*%
X164781300Y-135492500D03*
%TD*%
D10*
%TO.P,D17,1,K*%
%TO.N,Row 2*%
X86200000Y-66912500D03*
D11*
%TO.P,D17,2,A*%
%TO.N,Net-(D17-A)*%
X86200000Y-59292500D03*
%TD*%
D10*
%TO.P,D18,1,K*%
%TO.N,Row 2*%
X105250000Y-66912500D03*
D11*
%TO.P,D18,2,A*%
%TO.N,Net-(D18-A)*%
X105250000Y-59292500D03*
%TD*%
D12*
%TO.P,SW1,A,A*%
%TO.N,RE_R_A*%
X327250000Y-39000000D03*
D13*
%TO.P,SW1,B,B*%
%TO.N,RE_R_B*%
X327250000Y-44000000D03*
%TO.P,SW1,C,C*%
%TO.N,RE_SW_2*%
X327250000Y-41500000D03*
D14*
%TO.P,SW1,MP,MP*%
X334750000Y-35900000D03*
X334750000Y-47100000D03*
D13*
%TO.P,SW1,S1,S1*%
%TO.N,RE_SW_1*%
X341750000Y-44000000D03*
%TO.P,SW1,S2,S2*%
%TO.N,RE_SW_2*%
X341750000Y-39000000D03*
%TD*%
D10*
%TO.P,D56,1,K*%
%TO.N,Row 4*%
X271937500Y-105012500D03*
D11*
%TO.P,D56,2,A*%
%TO.N,Net-(D56-A)*%
X271937500Y-97392500D03*
%TD*%
D10*
%TO.P,D10,1,K*%
%TO.N,Row 1*%
X233837500Y-43100000D03*
D11*
%TO.P,D10,2,A*%
%TO.N,Net-(D10-A)*%
X233837500Y-35480000D03*
%TD*%
D15*
%TO.P,L16,1,VDD*%
%TO.N,VCC*%
X210800000Y-132899999D03*
%TO.P,L16,2,DOUT*%
%TO.N,Net-(L16-DOUT)*%
X210800000Y-134399999D03*
%TO.P,L16,3,VSS*%
%TO.N,RE_SW_2*%
X216000000Y-134399999D03*
%TO.P,L16,4,DIN*%
%TO.N,Net-(L15-DOUT)*%
X216000000Y-132899999D03*
%TD*%
%TO.P,L14,1,VDD*%
%TO.N,VCC*%
X67387500Y-129002499D03*
%TO.P,L14,2,DOUT*%
%TO.N,Net-(L14-DOUT)*%
X67387500Y-130502499D03*
%TO.P,L14,3,VSS*%
%TO.N,RE_SW_2*%
X72587500Y-130502499D03*
%TO.P,L14,4,DIN*%
%TO.N,Net-(L13-DOUT)*%
X72587500Y-129002499D03*
%TD*%
D10*
%TO.P,D23,1,K*%
%TO.N,Row 2*%
X200500000Y-66912500D03*
D11*
%TO.P,D23,2,A*%
%TO.N,Net-(D23-A)*%
X200500000Y-59292500D03*
%TD*%
D10*
%TO.P,D79,1,K*%
%TO.N,Row 6*%
X305275000Y-147875000D03*
D11*
%TO.P,D79,2,A*%
%TO.N,Net-(D79-A)*%
X305275000Y-140255000D03*
%TD*%
D10*
%TO.P,D50,1,K*%
%TO.N,Row 4*%
X157637500Y-105012500D03*
D11*
%TO.P,D50,2,A*%
%TO.N,Net-(D50-A)*%
X157637500Y-97392500D03*
%TD*%
D10*
%TO.P,D33,1,K*%
%TO.N,Row 3*%
X114775000Y-85962500D03*
D11*
%TO.P,D33,2,A*%
%TO.N,Net-(D33-A)*%
X114775000Y-78342500D03*
%TD*%
D10*
%TO.P,D67,1,K*%
%TO.N,Row 5*%
X224312500Y-124062500D03*
D11*
%TO.P,D67,2,A*%
%TO.N,Net-(D67-A)*%
X224312500Y-116442500D03*
%TD*%
D16*
%TO.P,SW2,1,A*%
%TO.N,RE_SW_2*%
X276812500Y-19500000D03*
D17*
%TO.P,SW2,2,B*%
%TO.N,SW_power*%
X279312500Y-19500000D03*
%TO.P,SW2,3,C*%
%TO.N,VCC*%
X281812500Y-19500000D03*
%TD*%
D10*
%TO.P,D8,1,K*%
%TO.N,Row 1*%
X190975000Y-43100000D03*
D11*
%TO.P,D8,2,A*%
%TO.N,Net-(D8-A)*%
X190975000Y-35480000D03*
%TD*%
D10*
%TO.P,D48,1,K*%
%TO.N,Row 4*%
X119537500Y-105012500D03*
D11*
%TO.P,D48,2,A*%
%TO.N,Net-(D48-A)*%
X119537500Y-97392500D03*
%TD*%
D10*
%TO.P,D4,1,K*%
%TO.N,Row 1*%
X110012500Y-43100000D03*
D11*
%TO.P,D4,2,A*%
%TO.N,Net-(D4-A)*%
X110012500Y-35480000D03*
%TD*%
D15*
%TO.P,L18,1,VDD*%
%TO.N,VCC*%
X332200000Y-131999999D03*
%TO.P,L18,2,DOUT*%
%TO.N,Net-(L18-DOUT)*%
X332200000Y-133499999D03*
%TO.P,L18,3,VSS*%
%TO.N,RE_SW_2*%
X337400000Y-133499999D03*
%TO.P,L18,4,DIN*%
%TO.N,Net-(L17-DOUT)*%
X337400000Y-131999999D03*
%TD*%
D10*
%TO.P,D63,1,K*%
%TO.N,Row 5*%
X148112500Y-124062500D03*
D11*
%TO.P,D63,2,A*%
%TO.N,Net-(D63-A)*%
X148112500Y-116442500D03*
%TD*%
D10*
%TO.P,D73,1,K*%
%TO.N,Row 6*%
X71912500Y-143112500D03*
D11*
%TO.P,D73,2,A*%
%TO.N,Net-(D73-A)*%
X71912500Y-135492500D03*
%TD*%
D10*
%TO.P,D30,1,K*%
%TO.N,Row 3*%
X52862500Y-85962500D03*
D11*
%TO.P,D30,2,A*%
%TO.N,Net-(D30-A)*%
X52862500Y-78342500D03*
%TD*%
D10*
%TO.P,D3,1,K*%
%TO.N,Row 1*%
X90962500Y-43100000D03*
D11*
%TO.P,D3,2,A*%
%TO.N,Net-(D3-A)*%
X90962500Y-35480000D03*
%TD*%
D10*
%TO.P,D12,1,K*%
%TO.N,Row 1*%
X271937500Y-43100000D03*
D11*
%TO.P,D12,2,A*%
%TO.N,Net-(D12-A)*%
X271937500Y-35480000D03*
%TD*%
D10*
%TO.P,D7,1,K*%
%TO.N,Row 1*%
X171925000Y-43100000D03*
D11*
%TO.P,D7,2,A*%
%TO.N,Net-(D7-A)*%
X171925000Y-35480000D03*
%TD*%
D10*
%TO.P,D40,1,K*%
%TO.N,Row 3*%
X248125000Y-85962500D03*
D11*
%TO.P,D40,2,A*%
%TO.N,Net-(D40-A)*%
X248125000Y-78342500D03*
%TD*%
D15*
%TO.P,L5,1,VDD*%
%TO.N,VCC*%
X255000000Y-74299999D03*
%TO.P,L5,2,DOUT*%
%TO.N,Net-(L5-DOUT)*%
X255000000Y-75799999D03*
%TO.P,L5,3,VSS*%
%TO.N,RE_SW_2*%
X260200000Y-75799999D03*
%TO.P,L5,4,DIN*%
%TO.N,Net-(L4-DOUT)*%
X260200000Y-74299999D03*
%TD*%
%TO.P,L6,1,VDD*%
%TO.N,VCC*%
X178700000Y-74299999D03*
%TO.P,L6,2,DOUT*%
%TO.N,Net-(L6-DOUT)*%
X178700000Y-75799999D03*
%TO.P,L6,3,VSS*%
%TO.N,RE_SW_2*%
X183900000Y-75799999D03*
%TO.P,L6,4,DIN*%
%TO.N,Net-(L5-DOUT)*%
X183900000Y-74299999D03*
%TD*%
%TO.P,L3,1,VDD*%
%TO.N,VCC*%
X210087500Y-52602499D03*
%TO.P,L3,2,DOUT*%
%TO.N,Net-(L3-DOUT)*%
X210087500Y-54102499D03*
%TO.P,L3,3,VSS*%
%TO.N,RE_SW_2*%
X215287500Y-54102499D03*
%TO.P,L3,4,DIN*%
%TO.N,Net-(L2-DOUT)*%
X215287500Y-52602499D03*
%TD*%
D10*
%TO.P,D26,1,K*%
%TO.N,Row 2*%
X257650000Y-66912500D03*
D11*
%TO.P,D26,2,A*%
%TO.N,Net-(D26-A)*%
X257650000Y-59292500D03*
%TD*%
D10*
%TO.P,D39,1,K*%
%TO.N,Row 3*%
X229075000Y-85962500D03*
D11*
%TO.P,D39,2,A*%
%TO.N,Net-(D39-A)*%
X229075000Y-78342500D03*
%TD*%
D10*
%TO.P,D47,1,K*%
%TO.N,Row 4*%
X100487500Y-105012500D03*
D11*
%TO.P,D47,2,A*%
%TO.N,Net-(D47-A)*%
X100487500Y-97392500D03*
%TD*%
D10*
%TO.P,D38,1,K*%
%TO.N,Row 3*%
X210025000Y-85962500D03*
D11*
%TO.P,D38,2,A*%
%TO.N,Net-(D38-A)*%
X210025000Y-78342500D03*
%TD*%
D10*
%TO.P,D69,1,K*%
%TO.N,Row 5*%
X262412500Y-124062500D03*
D11*
%TO.P,D69,2,A*%
%TO.N,Net-(D69-A)*%
X262412500Y-116442500D03*
%TD*%
D10*
%TO.P,D58,1,K*%
%TO.N,Row 4*%
X343375000Y-105012500D03*
D11*
%TO.P,D58,2,A*%
%TO.N,Net-(D58-A)*%
X343375000Y-97392500D03*
%TD*%
D10*
%TO.P,D22,1,K*%
%TO.N,Row 2*%
X181450000Y-66912500D03*
D11*
%TO.P,D22,2,A*%
%TO.N,Net-(D22-A)*%
X181450000Y-59292500D03*
%TD*%
D15*
%TO.P,L4,1,VDD*%
%TO.N,VCC*%
X291487500Y-52902499D03*
%TO.P,L4,2,DOUT*%
%TO.N,Net-(L4-DOUT)*%
X291487500Y-54402499D03*
%TO.P,L4,3,VSS*%
%TO.N,RE_SW_2*%
X296687500Y-54402499D03*
%TO.P,L4,4,DIN*%
%TO.N,Net-(L3-DOUT)*%
X296687500Y-52902499D03*
%TD*%
D10*
%TO.P,D72,1,K*%
%TO.N,Row 6*%
X50481300Y-143112500D03*
D11*
%TO.P,D72,2,A*%
%TO.N,Net-(D72-A)*%
X50481300Y-135492500D03*
%TD*%
D15*
%TO.P,L20,1,VDD*%
%TO.N,VCC*%
X316500000Y-102099999D03*
%TO.P,L20,2,DOUT*%
%TO.N,unconnected-(L20-DOUT-Pad2)*%
X316500000Y-103599999D03*
%TO.P,L20,3,VSS*%
%TO.N,RE_SW_2*%
X321700000Y-103599999D03*
%TO.P,L20,4,DIN*%
%TO.N,Net-(L19-DOUT)*%
X321700000Y-102099999D03*
%TD*%
D10*
%TO.P,D14,1,K*%
%TO.N,Row 1*%
X314800000Y-43100000D03*
D11*
%TO.P,D14,2,A*%
%TO.N,Net-(D14-A)*%
X314800000Y-35480000D03*
%TD*%
D10*
%TO.P,D6,1,K*%
%TO.N,Row 1*%
X152875000Y-43100000D03*
D11*
%TO.P,D6,2,A*%
%TO.N,Net-(D6-A)*%
X152875000Y-35480000D03*
%TD*%
D10*
%TO.P,D27,1,K*%
%TO.N,Row 2*%
X276700000Y-66912500D03*
D11*
%TO.P,D27,2,A*%
%TO.N,Net-(D27-A)*%
X276700000Y-59292500D03*
%TD*%
D10*
%TO.P,D2,1,K*%
%TO.N,Row 1*%
X71912500Y-43100000D03*
D11*
%TO.P,D2,2,A*%
%TO.N,Net-(D2-A)*%
X71912500Y-35480000D03*
%TD*%
D15*
%TO.P,L2,1,VDD*%
%TO.N,VCC*%
X128700000Y-52699999D03*
%TO.P,L2,2,DOUT*%
%TO.N,Net-(L2-DOUT)*%
X128700000Y-54199999D03*
%TO.P,L2,3,VSS*%
%TO.N,RE_SW_2*%
X133900000Y-54199999D03*
%TO.P,L2,4,DIN*%
%TO.N,Net-(L1-DOUT)*%
X133900000Y-52699999D03*
%TD*%
D10*
%TO.P,D24,1,K*%
%TO.N,Row 2*%
X219550000Y-66912500D03*
D11*
%TO.P,D24,2,A*%
%TO.N,Net-(D24-A)*%
X219550000Y-59292500D03*
%TD*%
D18*
%TO.P,C21,1*%
%TO.N,VCC*%
X66594900Y-19100000D03*
D11*
%TO.P,C21,2*%
%TO.N,RE_SW_2*%
X69094900Y-19100000D03*
%TD*%
D10*
%TO.P,D25,1,K*%
%TO.N,Row 2*%
X238600000Y-66912500D03*
D11*
%TO.P,D25,2,A*%
%TO.N,Net-(D25-A)*%
X238600000Y-59292500D03*
%TD*%
D10*
%TO.P,D42,1,K*%
%TO.N,Row 3*%
X286225000Y-85962500D03*
D11*
%TO.P,D42,2,A*%
%TO.N,Net-(D42-A)*%
X286225000Y-78342500D03*
%TD*%
D10*
%TO.P,D5,1,K*%
%TO.N,Row 1*%
X129062500Y-43100000D03*
D11*
%TO.P,D5,2,A*%
%TO.N,Net-(D5-A)*%
X129062500Y-35480000D03*
%TD*%
D10*
%TO.P,D62,1,K*%
%TO.N,Row 5*%
X129062500Y-124062500D03*
D11*
%TO.P,D62,2,A*%
%TO.N,Net-(D62-A)*%
X129062500Y-116442500D03*
%TD*%
D10*
%TO.P,D68,1,K*%
%TO.N,Row 5*%
X243362500Y-124062500D03*
D11*
%TO.P,D68,2,A*%
%TO.N,Net-(D68-A)*%
X243362500Y-116442500D03*
%TD*%
D19*
%TO.P,BT1,1,+*%
%TO.N,Batt+*%
X320460000Y-16900000D03*
D20*
%TO.P,BT1,2,-*%
%TO.N,RE_SW_2*%
X323000000Y-16900000D03*
%TD*%
D10*
%TO.P,D41,1,K*%
%TO.N,Row 3*%
X267175000Y-85962500D03*
D11*
%TO.P,D41,2,A*%
%TO.N,Net-(D41-A)*%
X267175000Y-78342500D03*
%TD*%
D10*
%TO.P,D32,1,K*%
%TO.N,Row 3*%
X95725000Y-85962500D03*
D11*
%TO.P,D32,2,A*%
%TO.N,Net-(D32-A)*%
X95725000Y-78342500D03*
%TD*%
D10*
%TO.P,D70,1,K*%
%TO.N,Row 5*%
X288606300Y-124062500D03*
D11*
%TO.P,D70,2,A*%
%TO.N,Net-(D70-A)*%
X288606300Y-116442500D03*
%TD*%
D10*
%TO.P,D52,1,K*%
%TO.N,Row 4*%
X195737500Y-105012500D03*
D11*
%TO.P,D52,2,A*%
%TO.N,Net-(D52-A)*%
X195737500Y-97392500D03*
%TD*%
D21*
%TO.P,U2,1,1*%
%TO.N,Col 1*%
X28510000Y-26320000D03*
%TO.P,U2,2,0*%
%TO.N,Col 2*%
X31050000Y-26320000D03*
%TO.P,U2,3,GND*%
%TO.N,RE_SW_2*%
X33590000Y-26320000D03*
%TO.P,U2,4,GND*%
X36130000Y-26320000D03*
%TO.P,U2,5,2*%
%TO.N,SDA*%
X38670000Y-26320000D03*
%TO.P,U2,6,3*%
%TO.N,SCL*%
X41210000Y-26320000D03*
%TO.P,U2,7,4*%
%TO.N,Col 3*%
X43750000Y-26320000D03*
%TO.P,U2,8,5*%
%TO.N,Col 4*%
X46290000Y-26320000D03*
%TO.P,U2,9,6*%
%TO.N,Col 5*%
X48830000Y-26320000D03*
%TO.P,U2,10,7*%
%TO.N,Col 6*%
X51370000Y-26320000D03*
%TO.P,U2,11,8*%
%TO.N,Col 7*%
X53910000Y-26320000D03*
%TO.P,U2,12,9*%
%TO.N,Col 8*%
X56450000Y-26320000D03*
%TO.P,U2,13,10*%
%TO.N,SW_power*%
X56450000Y-11080000D03*
%TO.P,U2,14,16*%
%TO.N,Col 15*%
X53910000Y-11080000D03*
%TO.P,U2,15,14*%
%TO.N,Col 14*%
X51370000Y-11080000D03*
%TO.P,U2,16,15*%
%TO.N,Col 13*%
X48830000Y-11080000D03*
%TO.P,U2,17,18*%
%TO.N,Col 12*%
X46290000Y-11080000D03*
%TO.P,U2,18,19*%
%TO.N,Col 11*%
X43750000Y-11080000D03*
%TO.P,U2,19,20*%
%TO.N,Col 10*%
X41210000Y-11080000D03*
%TO.P,U2,20,21*%
%TO.N,Col 9*%
X38670000Y-11080000D03*
%TO.P,U2,21,3.3v*%
%TO.N,VCC*%
X36130000Y-11080000D03*
%TO.P,U2,22,RST*%
%TO.N,unconnected-(U2-RST-Pad22)*%
X33590000Y-11080000D03*
%TO.P,U2,23,GND*%
%TO.N,RE_SW_2*%
X31050000Y-11080000D03*
%TO.P,U2,24,B+*%
%TO.N,Batt+*%
X28510000Y-11080000D03*
%TO.P,U2,25,1*%
%TO.N,unconnected-(U2-1-Pad25)*%
X51370000Y-23780000D03*
%TO.P,U2,26,2*%
%TO.N,unconnected-(U2-2-Pad26)*%
X51370000Y-21240000D03*
%TO.P,U2,27,7*%
%TO.N,unconnected-(U2-7-Pad27)*%
X51370000Y-18700000D03*
%TD*%
D15*
%TO.P,L1,1,VDD*%
%TO.N,VCC*%
X48100000Y-52899999D03*
%TO.P,L1,2,DOUT*%
%TO.N,Net-(L1-DOUT)*%
X48100000Y-54399999D03*
%TO.P,L1,3,VSS*%
%TO.N,RE_SW_2*%
X53300000Y-54399999D03*
%TO.P,L1,4,DIN*%
%TO.N,LED*%
X53300000Y-52899999D03*
%TD*%
D10*
%TO.P,D45,1,K*%
%TO.N,Row 4*%
X55243800Y-105012500D03*
D11*
%TO.P,D45,2,A*%
%TO.N,Net-(D45-A)*%
X55243800Y-97392500D03*
%TD*%
D10*
%TO.P,D59,1,K*%
%TO.N,Row 5*%
X69200000Y-124310000D03*
D11*
%TO.P,D59,2,A*%
%TO.N,Net-(D59-A)*%
X69200000Y-116690000D03*
%TD*%
D10*
%TO.P,D57,1,K*%
%TO.N,Row 4*%
X311700000Y-104910000D03*
D11*
%TO.P,D57,2,A*%
%TO.N,Net-(D57-A)*%
X311700000Y-97290000D03*
%TD*%
D10*
%TO.P,D9,1,K*%
%TO.N,Row 1*%
X210025000Y-43100000D03*
D11*
%TO.P,D9,2,A*%
%TO.N,Net-(D9-A)*%
X210025000Y-35480000D03*
%TD*%
D10*
%TO.P,D76,1,K*%
%TO.N,Row 6*%
X233837500Y-143112500D03*
D11*
%TO.P,D76,2,A*%
%TO.N,Net-(D76-A)*%
X233837500Y-135492500D03*
%TD*%
D10*
%TO.P,D34,1,K*%
%TO.N,Row 3*%
X133825000Y-85962500D03*
D11*
%TO.P,D34,2,A*%
%TO.N,Net-(D34-A)*%
X133825000Y-78342500D03*
%TD*%
D10*
%TO.P,D1,1,K*%
%TO.N,Row 1*%
X48100000Y-43100000D03*
D11*
%TO.P,D1,2,A*%
%TO.N,Net-(D1-A)*%
X48100000Y-35480000D03*
%TD*%
D10*
%TO.P,U1,1,GPB0*%
%TO.N,Row 1*%
X80440000Y-21700000D03*
D11*
%TO.P,U1,2,GPB1*%
%TO.N,Row 2*%
X82980000Y-21700000D03*
%TO.P,U1,3,GPB2*%
%TO.N,Row 3*%
X85520000Y-21700000D03*
%TO.P,U1,4,GPB3*%
%TO.N,Row 4*%
X88060000Y-21700000D03*
%TO.P,U1,5,GPB4*%
%TO.N,Row 5*%
X90600000Y-21700000D03*
%TO.P,U1,6,GPB5*%
%TO.N,Row 6*%
X93140000Y-21700000D03*
%TO.P,U1,7,GPB6*%
%TO.N,unconnected-(U1-GPB6-Pad7)*%
X95680000Y-21700000D03*
%TO.P,U1,8,GPB7*%
%TO.N,unconnected-(U1-GPB7-Pad8)*%
X98220000Y-21700000D03*
%TO.P,U1,9,VDD*%
%TO.N,VCC*%
X100760000Y-21700000D03*
%TO.P,U1,10,VSS*%
%TO.N,RE_SW_2*%
X103300000Y-21700000D03*
%TO.P,U1,11,NC*%
%TO.N,unconnected-(U1-NC-Pad11)*%
X105840000Y-21700000D03*
%TO.P,U1,12,SCK*%
%TO.N,SCL*%
X108380000Y-21700000D03*
%TO.P,U1,13,SDA*%
%TO.N,SDA*%
X110920000Y-21700000D03*
%TO.P,U1,14,NC*%
%TO.N,unconnected-(U1-NC-Pad14)*%
X113460000Y-21700000D03*
%TO.P,U1,15,A0*%
%TO.N,RE_SW_2*%
X113460000Y-14080000D03*
%TO.P,U1,16,A1*%
X110920000Y-14080000D03*
%TO.P,U1,17,A2*%
X108380000Y-14080000D03*
%TO.P,U1,18,~{RESET}*%
%TO.N,VCC*%
X105840000Y-14080000D03*
%TO.P,U1,19,INTB*%
%TO.N,unconnected-(U1-INTB-Pad19)*%
X103300000Y-14080000D03*
%TO.P,U1,20,INTA*%
%TO.N,unconnected-(U1-INTA-Pad20)*%
X100760000Y-14080000D03*
%TO.P,U1,21,GPA0*%
%TO.N,LED*%
X98220000Y-14080000D03*
%TO.P,U1,22,GPA1*%
%TO.N,unconnected-(U1-GPA1-Pad22)*%
X95680000Y-14080000D03*
%TO.P,U1,23,GPA2*%
%TO.N,RE_R_A*%
X93140000Y-14080000D03*
%TO.P,U1,24,GPA3*%
%TO.N,RE_R_B*%
X90600000Y-14080000D03*
%TO.P,U1,25,GPA4*%
%TO.N,unconnected-(U1-GPA4-Pad25)*%
X88060000Y-14080000D03*
%TO.P,U1,26,GPA5*%
%TO.N,RE_SW_1*%
X85520000Y-14080000D03*
%TO.P,U1,27,GPA6*%
%TO.N,unconnected-(U1-GPA6-Pad27)*%
X82980000Y-14080000D03*
%TO.P,U1,28,GPA7*%
%TO.N,unconnected-(U1-GPA7-Pad28)*%
X80440000Y-14080000D03*
%TD*%
D10*
%TO.P,D31,1,K*%
%TO.N,Row 3*%
X76675000Y-85962500D03*
D11*
%TO.P,D31,2,A*%
%TO.N,Net-(D31-A)*%
X76675000Y-78342500D03*
%TD*%
D15*
%TO.P,L7,1,VDD*%
%TO.N,VCC*%
X83100000Y-74599999D03*
%TO.P,L7,2,DOUT*%
%TO.N,Net-(L7-DOUT)*%
X83100000Y-76099999D03*
%TO.P,L7,3,VSS*%
%TO.N,RE_SW_2*%
X88300000Y-76099999D03*
%TO.P,L7,4,DIN*%
%TO.N,Net-(L6-DOUT)*%
X88300000Y-74599999D03*
%TD*%
%TO.P,L13,1,VDD*%
%TO.N,VCC*%
X171487500Y-112602499D03*
%TO.P,L13,2,DOUT*%
%TO.N,Net-(L13-DOUT)*%
X171487500Y-114102499D03*
%TO.P,L13,3,VSS*%
%TO.N,RE_SW_2*%
X176687500Y-114102499D03*
%TO.P,L13,4,DIN*%
%TO.N,Net-(L12-DOUT)*%
X176687500Y-112602499D03*
%TD*%
D10*
%TO.P,D37,1,K*%
%TO.N,Row 3*%
X190975000Y-85962500D03*
D11*
%TO.P,D37,2,A*%
%TO.N,Net-(D37-A)*%
X190975000Y-78342500D03*
%TD*%
D10*
%TO.P,D64,1,K*%
%TO.N,Row 5*%
X167162500Y-124062500D03*
D11*
%TO.P,D64,2,A*%
%TO.N,Net-(D64-A)*%
X167162500Y-116442500D03*
%TD*%
D10*
%TO.P,D81,1,K*%
%TO.N,Row 6*%
X343375000Y-147875000D03*
D11*
%TO.P,D81,2,A*%
%TO.N,Net-(D81-A)*%
X343375000Y-140255000D03*
%TD*%
D15*
%TO.P,L12,1,VDD*%
%TO.N,VCC*%
X250387500Y-112002499D03*
%TO.P,L12,2,DOUT*%
%TO.N,Net-(L12-DOUT)*%
X250387500Y-113502499D03*
%TO.P,L12,3,VSS*%
%TO.N,RE_SW_2*%
X255587500Y-113502499D03*
%TO.P,L12,4,DIN*%
%TO.N,Net-(L11-DOUT)*%
X255587500Y-112002499D03*
%TD*%
D10*
%TO.P,D16,1,K*%
%TO.N,Row 2*%
X67150000Y-66912500D03*
D11*
%TO.P,D16,2,A*%
%TO.N,Net-(D16-A)*%
X67150000Y-59292500D03*
%TD*%
D15*
%TO.P,L11,1,VDD*%
%TO.N,VCC*%
X286887500Y-92302499D03*
%TO.P,L11,2,DOUT*%
%TO.N,Net-(L11-DOUT)*%
X286887500Y-93802499D03*
%TO.P,L11,3,VSS*%
%TO.N,RE_SW_2*%
X292087500Y-93802499D03*
%TO.P,L11,4,DIN*%
%TO.N,Net-(L10-DOUT)*%
X292087500Y-92302499D03*
%TD*%
%TO.P,L10,1,VDD*%
%TO.N,VCC*%
X219187500Y-93902499D03*
%TO.P,L10,2,DOUT*%
%TO.N,Net-(L10-DOUT)*%
X219187500Y-95402499D03*
%TO.P,L10,3,VSS*%
%TO.N,RE_SW_2*%
X224387500Y-95402499D03*
%TO.P,L10,4,DIN*%
%TO.N,Net-(L10-DIN)*%
X224387500Y-93902499D03*
%TD*%
D10*
%TO.P,D78,1,K*%
%TO.N,Row 6*%
X271937500Y-143112500D03*
D11*
%TO.P,D78,2,A*%
%TO.N,Net-(D78-A)*%
X271937500Y-135492500D03*
%TD*%
D10*
%TO.P,D11,1,K*%
%TO.N,Row 1*%
X252887500Y-43100000D03*
D11*
%TO.P,D11,2,A*%
%TO.N,Net-(D11-A)*%
X252887500Y-35480000D03*
%TD*%
D10*
%TO.P,D77,1,K*%
%TO.N,Row 6*%
X252887500Y-143112500D03*
D11*
%TO.P,D77,2,A*%
%TO.N,Net-(D77-A)*%
X252887500Y-135492500D03*
%TD*%
%TO.P,R1,1*%
%TO.N,SDA*%
X136390000Y-17100000D03*
%TO.P,R1,2*%
%TO.N,VCC*%
X144010000Y-17100000D03*
%TD*%
D10*
%TO.P,D65,1,K*%
%TO.N,Row 5*%
X186212500Y-124062500D03*
D11*
%TO.P,D65,2,A*%
%TO.N,Net-(D65-A)*%
X186212500Y-116442500D03*
%TD*%
D10*
%TO.P,D60,1,K*%
%TO.N,Row 5*%
X90962500Y-124062500D03*
D11*
%TO.P,D60,2,A*%
%TO.N,Net-(D60-A)*%
X90962500Y-116442500D03*
%TD*%
D10*
%TO.P,D35,1,K*%
%TO.N,Row 3*%
X152875000Y-85962500D03*
D11*
%TO.P,D35,2,A*%
%TO.N,Net-(D35-A)*%
X152875000Y-78342500D03*
%TD*%
D10*
%TO.P,D53,1,K*%
%TO.N,Row 4*%
X214787500Y-105012500D03*
D11*
%TO.P,D53,2,A*%
%TO.N,Net-(D53-A)*%
X214787500Y-97392500D03*
%TD*%
D10*
%TO.P,D36,1,K*%
%TO.N,Row 3*%
X171925000Y-85962500D03*
D11*
%TO.P,D36,2,A*%
%TO.N,Net-(D36-A)*%
X171925000Y-78342500D03*
%TD*%
%TO.P,R2,1*%
%TO.N,VCC*%
X144310000Y-23400000D03*
%TO.P,R2,2*%
%TO.N,SCL*%
X136690000Y-23400000D03*
%TD*%
D10*
%TO.P,D21,1,K*%
%TO.N,Row 2*%
X162400000Y-66912500D03*
D11*
%TO.P,D21,2,A*%
%TO.N,Net-(D21-A)*%
X162400000Y-59292500D03*
%TD*%
D15*
%TO.P,L15,1,VDD*%
%TO.N,VCC*%
X116687500Y-132002499D03*
%TO.P,L15,2,DOUT*%
%TO.N,Net-(L15-DOUT)*%
X116687500Y-133502499D03*
%TO.P,L15,3,VSS*%
%TO.N,RE_SW_2*%
X121887500Y-133502499D03*
%TO.P,L15,4,DIN*%
%TO.N,Net-(L14-DOUT)*%
X121887500Y-132002499D03*
%TD*%
%TO.P,L17,1,VDD*%
%TO.N,VCC*%
X294187500Y-131802499D03*
%TO.P,L17,2,DOUT*%
%TO.N,Net-(L17-DOUT)*%
X294187500Y-133302499D03*
%TO.P,L17,3,VSS*%
%TO.N,RE_SW_2*%
X299387500Y-133302499D03*
%TO.P,L17,4,DIN*%
%TO.N,Net-(L16-DOUT)*%
X299387500Y-131802499D03*
%TD*%
%TO.P,L9,1,VDD*%
%TO.N,VCC*%
X131500000Y-92999999D03*
%TO.P,L9,2,DOUT*%
%TO.N,Net-(L10-DIN)*%
X131500000Y-94499999D03*
%TO.P,L9,3,VSS*%
%TO.N,RE_SW_2*%
X136700000Y-94499999D03*
%TO.P,L9,4,DIN*%
%TO.N,Net-(L8-DOUT)*%
X136700000Y-92999999D03*
%TD*%
D10*
%TO.P,D54,1,K*%
%TO.N,Row 4*%
X233837500Y-105012500D03*
D11*
%TO.P,D54,2,A*%
%TO.N,Net-(D54-A)*%
X233837500Y-97392500D03*
%TD*%
D10*
%TO.P,D15,1,K*%
%TO.N,Row 2*%
X48100000Y-66912500D03*
D11*
%TO.P,D15,2,A*%
%TO.N,Net-(D15-A)*%
X48100000Y-59292500D03*
%TD*%
D10*
%TO.P,D74,1,K*%
%TO.N,Row 6*%
X93343800Y-143112500D03*
D11*
%TO.P,D74,2,A*%
%TO.N,Net-(D74-A)*%
X93343800Y-135492500D03*
%TD*%
D10*
%TO.P,D71,1,K*%
%TO.N,Row 5*%
X324325000Y-128825000D03*
D11*
%TO.P,D71,2,A*%
%TO.N,Net-(D71-A)*%
X324325000Y-121205000D03*
%TD*%
D10*
%TO.P,D66,1,K*%
%TO.N,Row 5*%
X205262500Y-124062500D03*
D11*
%TO.P,D66,2,A*%
%TO.N,Net-(D66-A)*%
X205262500Y-116442500D03*
%TD*%
D15*
%TO.P,L8,1,VDD*%
%TO.N,VCC*%
X52787500Y-92102499D03*
%TO.P,L8,2,DOUT*%
%TO.N,Net-(L8-DOUT)*%
X52787500Y-93602499D03*
%TO.P,L8,3,VSS*%
%TO.N,RE_SW_2*%
X57987500Y-93602499D03*
%TO.P,L8,4,DIN*%
%TO.N,Net-(L7-DOUT)*%
X57987500Y-92102499D03*
%TD*%
D10*
%TO.P,D80,1,K*%
%TO.N,Row 6*%
X324325000Y-147875000D03*
D11*
%TO.P,D80,2,A*%
%TO.N,Net-(D80-A)*%
X324325000Y-140255000D03*
%TD*%
D10*
%TO.P,D29,1,K*%
%TO.N,Row 2*%
X343375000Y-66912500D03*
D11*
%TO.P,D29,2,A*%
%TO.N,Net-(D29-A)*%
X343375000Y-59292500D03*
%TD*%
D10*
%TO.P,D43,1,K*%
%TO.N,Row 3*%
X310037500Y-85962500D03*
D11*
%TO.P,D43,2,A*%
%TO.N,Net-(D43-A)*%
X310037500Y-78342500D03*
%TD*%
D10*
%TO.P,D49,1,K*%
%TO.N,Row 4*%
X138587500Y-105012500D03*
D11*
%TO.P,D49,2,A*%
%TO.N,Net-(D49-A)*%
X138587500Y-97392500D03*
%TD*%
D10*
%TO.P,D20,1,K*%
%TO.N,Row 2*%
X143350000Y-66912500D03*
D11*
%TO.P,D20,2,A*%
%TO.N,Net-(D20-A)*%
X143350000Y-59292500D03*
%TD*%
D10*
%TO.P,D51,1,K*%
%TO.N,Row 4*%
X176687500Y-105012500D03*
D11*
%TO.P,D51,2,A*%
%TO.N,Net-(D51-A)*%
X176687500Y-97392500D03*
%TD*%
D10*
%TO.P,D28,1,K*%
%TO.N,Row 2*%
X313100000Y-66720000D03*
D11*
%TO.P,D28,2,A*%
%TO.N,Net-(D28-A)*%
X313100000Y-59100000D03*
%TD*%
D10*
%TO.P,D19,1,K*%
%TO.N,Row 2*%
X124300000Y-66912500D03*
D11*
%TO.P,D19,2,A*%
%TO.N,Net-(D19-A)*%
X124300000Y-59292500D03*
%TD*%
D15*
%TO.P,L19,1,VDD*%
%TO.N,VCC*%
X316987500Y-75102499D03*
%TO.P,L19,2,DOUT*%
%TO.N,Net-(L19-DOUT)*%
X316987500Y-76602499D03*
%TO.P,L19,3,VSS*%
%TO.N,RE_SW_2*%
X322187500Y-76602499D03*
%TO.P,L19,4,DIN*%
%TO.N,Net-(L18-DOUT)*%
X322187500Y-75102499D03*
%TD*%
D10*
%TO.P,D44,1,K*%
%TO.N,Row 3*%
X343375000Y-85962500D03*
D11*
%TO.P,D44,2,A*%
%TO.N,Net-(D44-A)*%
X343375000Y-78342500D03*
%TD*%
D10*
%TO.P,D13,1,K*%
%TO.N,Row 1*%
X290987500Y-43100000D03*
D11*
%TO.P,D13,2,A*%
%TO.N,Net-(D13-A)*%
X290987500Y-35480000D03*
%TD*%
D10*
%TO.P,D46,1,K*%
%TO.N,Row 4*%
X81437500Y-105012500D03*
D11*
%TO.P,D46,2,A*%
%TO.N,Net-(D46-A)*%
X81437500Y-97392500D03*
%TD*%
D22*
%TO.P,S12,1,1*%
%TO.N,Col 12*%
X255987500Y-39370000D03*
D23*
X258762500Y-39370000D03*
%TO.P,S12,2,2*%
%TO.N,Net-(D12-A)*%
X265112500Y-36830000D03*
D22*
X267892500Y-36830000D03*
%TD*%
%TO.P,S70,1,1*%
%TO.N,Col 12*%
X272656300Y-120332500D03*
D23*
X275431300Y-120332500D03*
%TO.P,S70,2,2*%
%TO.N,Net-(D70-A)*%
X281781300Y-117792500D03*
D22*
X284561300Y-117792500D03*
%TD*%
%TO.P,S39,1,1*%
%TO.N,Col 10*%
X213125000Y-82232500D03*
D23*
X215900000Y-82232500D03*
%TO.P,S39,2,2*%
%TO.N,Net-(D39-A)*%
X222250000Y-79692500D03*
D22*
X225030000Y-79692500D03*
%TD*%
%TO.P,S57,1,1*%
%TO.N,Col 14*%
X286943800Y-101282500D03*
D23*
X289718800Y-101282500D03*
%TO.P,S57,2,2*%
%TO.N,Net-(D57-A)*%
X296068800Y-98742500D03*
D22*
X298848800Y-98742500D03*
%TD*%
%TO.P,S59,1,1*%
%TO.N,Col 1*%
X44056300Y-120332500D03*
D23*
X46831300Y-120332500D03*
%TO.P,S59,2,2*%
%TO.N,Net-(D59-A)*%
X53181300Y-117792500D03*
D22*
X55961300Y-117792500D03*
%TD*%
D24*
%TO.P,C14,1*%
%TO.N,VCC*%
X33505100Y-130900000D03*
D11*
%TO.P,C14,2*%
%TO.N,RE_SW_2*%
X31005100Y-130900000D03*
%TD*%
D22*
%TO.P,S65,1,1*%
%TO.N,Col 7*%
X170262500Y-120332500D03*
D23*
X173037500Y-120332500D03*
%TO.P,S65,2,2*%
%TO.N,Net-(D65-A)*%
X179387500Y-117792500D03*
D22*
X182167500Y-117792500D03*
%TD*%
%TO.P,S8,1,1*%
%TO.N,Col 8*%
X175025000Y-39370000D03*
D23*
X177800000Y-39370000D03*
%TO.P,S8,2,2*%
%TO.N,Net-(D8-A)*%
X184150000Y-36830000D03*
D22*
X186930000Y-36830000D03*
%TD*%
%TO.P,S44,1,1*%
%TO.N,Col 15*%
X327425000Y-82232500D03*
D23*
X330200000Y-82232500D03*
%TO.P,S44,2,2*%
%TO.N,Net-(D44-A)*%
X336550000Y-79692500D03*
D22*
X339330000Y-79692500D03*
%TD*%
%TO.P,S60,1,1*%
%TO.N,Col 2*%
X75012500Y-120332500D03*
D23*
X77787500Y-120332500D03*
%TO.P,S60,2,2*%
%TO.N,Net-(D60-A)*%
X84137500Y-117792500D03*
D22*
X86917500Y-117792500D03*
%TD*%
%TO.P,S47,1,1*%
%TO.N,Col 3*%
X84537500Y-101282500D03*
D23*
X87312500Y-101282500D03*
%TO.P,S47,2,2*%
%TO.N,Net-(D47-A)*%
X93662500Y-98742500D03*
D22*
X96442500Y-98742500D03*
%TD*%
%TO.P,S81,1,1*%
%TO.N,Col 15*%
X327425000Y-144145000D03*
D23*
X330200000Y-144145000D03*
%TO.P,S81,2,2*%
%TO.N,Net-(D81-A)*%
X336550000Y-141605000D03*
D22*
X339330000Y-141605000D03*
%TD*%
%TO.P,S69,1,1*%
%TO.N,Col 11*%
X246462500Y-120332500D03*
D23*
X249237500Y-120332500D03*
%TO.P,S69,2,2*%
%TO.N,Net-(D69-A)*%
X255587500Y-117792500D03*
D22*
X258367500Y-117792500D03*
%TD*%
D24*
%TO.P,C6,1*%
%TO.N,VCC*%
X163705100Y-74700000D03*
D11*
%TO.P,C6,2*%
%TO.N,RE_SW_2*%
X161205100Y-74700000D03*
%TD*%
D22*
%TO.P,S66,1,1*%
%TO.N,Col 8*%
X189312500Y-120332500D03*
D23*
X192087500Y-120332500D03*
%TO.P,S66,2,2*%
%TO.N,Net-(D66-A)*%
X198437500Y-117792500D03*
D22*
X201217500Y-117792500D03*
%TD*%
%TO.P,S9,1,1*%
%TO.N,Col 9*%
X194075000Y-39370000D03*
D23*
X196850000Y-39370000D03*
%TO.P,S9,2,2*%
%TO.N,Net-(D9-A)*%
X203200000Y-36830000D03*
D22*
X205980000Y-36830000D03*
%TD*%
%TO.P,S77,1,1*%
%TO.N,Col 11*%
X236937500Y-139382500D03*
D23*
X239712500Y-139382500D03*
%TO.P,S77,2,2*%
%TO.N,Net-(D77-A)*%
X246062500Y-136842500D03*
D22*
X248842500Y-136842500D03*
%TD*%
D24*
%TO.P,C8,1*%
%TO.N,VCC*%
X34205100Y-94400000D03*
D11*
%TO.P,C8,2*%
%TO.N,RE_SW_2*%
X31705100Y-94400000D03*
%TD*%
D22*
%TO.P,S30,1,1*%
%TO.N,Col 1*%
X36912500Y-82232500D03*
D23*
X39687500Y-82232500D03*
%TO.P,S30,2,2*%
%TO.N,Net-(D30-A)*%
X46037500Y-79692500D03*
D22*
X48817500Y-79692500D03*
%TD*%
D24*
%TO.P,C20,1*%
%TO.N,VCC*%
X320500000Y-95500000D03*
D11*
%TO.P,C20,2*%
%TO.N,RE_SW_2*%
X318000000Y-95500000D03*
%TD*%
D24*
%TO.P,C7,1*%
%TO.N,VCC*%
X68300000Y-74600000D03*
D11*
%TO.P,C7,2*%
%TO.N,RE_SW_2*%
X65800000Y-74600000D03*
%TD*%
D22*
%TO.P,S40,1,1*%
%TO.N,Col 11*%
X232175000Y-82232500D03*
D23*
X234950000Y-82232500D03*
%TO.P,S40,2,2*%
%TO.N,Net-(D40-A)*%
X241300000Y-79692500D03*
D22*
X244080000Y-79692500D03*
%TD*%
%TO.P,S38,1,1*%
%TO.N,Col 9*%
X194075000Y-82232500D03*
D23*
X196850000Y-82232500D03*
%TO.P,S38,2,2*%
%TO.N,Net-(D38-A)*%
X203200000Y-79692500D03*
D22*
X205980000Y-79692500D03*
%TD*%
%TO.P,S76,1,1*%
%TO.N,Col 10*%
X217887500Y-139382500D03*
D23*
X220662500Y-139382500D03*
%TO.P,S76,2,2*%
%TO.N,Net-(D76-A)*%
X227012500Y-136842500D03*
D22*
X229792500Y-136842500D03*
%TD*%
D24*
%TO.P,C10,1*%
%TO.N,VCC*%
X211500000Y-93500000D03*
D11*
%TO.P,C10,2*%
%TO.N,RE_SW_2*%
X209000000Y-93500000D03*
%TD*%
D22*
%TO.P,S52,1,1*%
%TO.N,Col 8*%
X179787500Y-101282500D03*
D23*
X182562500Y-101282500D03*
%TO.P,S52,2,2*%
%TO.N,Net-(D52-A)*%
X188912500Y-98742500D03*
D22*
X191692500Y-98742500D03*
%TD*%
%TO.P,S79,1,1*%
%TO.N,Col 13*%
X289325000Y-144145000D03*
D23*
X292100000Y-144145000D03*
%TO.P,S79,2,2*%
%TO.N,Net-(D79-A)*%
X298450000Y-141605000D03*
D22*
X301230000Y-141605000D03*
%TD*%
%TO.P,S2,1,1*%
%TO.N,Col 2*%
X55962500Y-39370000D03*
D23*
X58737500Y-39370000D03*
%TO.P,S2,2,2*%
%TO.N,Net-(D2-A)*%
X65087500Y-36830000D03*
D22*
X67867500Y-36830000D03*
%TD*%
%TO.P,S17,1,1*%
%TO.N,Col 3*%
X70250000Y-63182500D03*
D23*
X73025000Y-63182500D03*
%TO.P,S17,2,2*%
%TO.N,Net-(D17-A)*%
X79375000Y-60642500D03*
D22*
X82155000Y-60642500D03*
%TD*%
%TO.P,S41,1,1*%
%TO.N,Col 12*%
X251225000Y-82232500D03*
D23*
X254000000Y-82232500D03*
%TO.P,S41,2,2*%
%TO.N,Net-(D41-A)*%
X260350000Y-79692500D03*
D22*
X263130000Y-79692500D03*
%TD*%
%TO.P,S80,1,1*%
%TO.N,Col 14*%
X308375000Y-144145000D03*
D23*
X311150000Y-144145000D03*
%TO.P,S80,2,2*%
%TO.N,Net-(D80-A)*%
X317500000Y-141605000D03*
D22*
X320280000Y-141605000D03*
%TD*%
%TO.P,S32,1,1*%
%TO.N,Col 3*%
X79775000Y-82232500D03*
D23*
X82550000Y-82232500D03*
%TO.P,S32,2,2*%
%TO.N,Net-(D32-A)*%
X88900000Y-79692500D03*
D22*
X91680000Y-79692500D03*
%TD*%
%TO.P,S75,1,1*%
%TO.N,Col 7*%
X148831300Y-139382500D03*
D23*
X151606300Y-139382500D03*
%TO.P,S75,2,2*%
%TO.N,Net-(D75-A)*%
X157956300Y-136842500D03*
D22*
X160736300Y-136842500D03*
%TD*%
%TO.P,S37,1,1*%
%TO.N,Col 8*%
X175025000Y-82232500D03*
D23*
X177800000Y-82232500D03*
%TO.P,S37,2,2*%
%TO.N,Net-(D37-A)*%
X184150000Y-79692500D03*
D22*
X186930000Y-79692500D03*
%TD*%
%TO.P,S4,1,1*%
%TO.N,Col 4*%
X94062500Y-39370000D03*
D23*
X96837500Y-39370000D03*
%TO.P,S4,2,2*%
%TO.N,Net-(D4-A)*%
X103187500Y-36830000D03*
D22*
X105967500Y-36830000D03*
%TD*%
%TO.P,S18,1,1*%
%TO.N,Col 4*%
X89300000Y-63182500D03*
D23*
X92075000Y-63182500D03*
%TO.P,S18,2,2*%
%TO.N,Net-(D18-A)*%
X98425000Y-60642500D03*
D22*
X101205000Y-60642500D03*
%TD*%
%TO.P,S20,1,1*%
%TO.N,Col 6*%
X127400000Y-63182500D03*
D23*
X130175000Y-63182500D03*
%TO.P,S20,2,2*%
%TO.N,Net-(D20-A)*%
X136525000Y-60642500D03*
D22*
X139305000Y-60642500D03*
%TD*%
D24*
%TO.P,C2,1*%
%TO.N,VCC*%
X123605113Y-53800000D03*
D11*
%TO.P,C2,2*%
%TO.N,RE_SW_2*%
X121105113Y-53800000D03*
%TD*%
D22*
%TO.P,S14,1,1*%
%TO.N,Col 14*%
X298850000Y-39370000D03*
D23*
X301625000Y-39370000D03*
%TO.P,S14,2,2*%
%TO.N,Net-(D14-A)*%
X307975000Y-36830000D03*
D22*
X310755000Y-36830000D03*
%TD*%
D24*
%TO.P,C1,1*%
%TO.N,VCC*%
X35994900Y-53700000D03*
D11*
%TO.P,C1,2*%
%TO.N,RE_SW_2*%
X33494900Y-53700000D03*
%TD*%
D22*
%TO.P,S27,1,1*%
%TO.N,Col 13*%
X260750000Y-63182500D03*
D23*
X263525000Y-63182500D03*
%TO.P,S27,2,2*%
%TO.N,Net-(D27-A)*%
X269875000Y-60642500D03*
D22*
X272655000Y-60642500D03*
%TD*%
D24*
%TO.P,C4,1*%
%TO.N,VCC*%
X279205113Y-53700000D03*
D11*
%TO.P,C4,2*%
%TO.N,RE_SW_2*%
X276705113Y-53700000D03*
%TD*%
D22*
%TO.P,S71,1,1*%
%TO.N,Col 15*%
X308375000Y-125095000D03*
D23*
X311150000Y-125095000D03*
%TO.P,S71,2,2*%
%TO.N,Net-(D71-A)*%
X317500000Y-122555000D03*
D22*
X320280000Y-122555000D03*
%TD*%
%TO.P,S29,1,1*%
%TO.N,Col 15*%
X327425000Y-63182500D03*
D23*
X330200000Y-63182500D03*
%TO.P,S29,2,2*%
%TO.N,Net-(D29-A)*%
X336550000Y-60642500D03*
D22*
X339330000Y-60642500D03*
%TD*%
%TO.P,S58,1,1*%
%TO.N,Col 15*%
X327425000Y-101282500D03*
D23*
X330200000Y-101282500D03*
%TO.P,S58,2,2*%
%TO.N,Net-(D58-A)*%
X336550000Y-98742500D03*
D22*
X339330000Y-98742500D03*
%TD*%
%TO.P,S49,1,1*%
%TO.N,Col 5*%
X122637500Y-101282500D03*
D23*
X125412500Y-101282500D03*
%TO.P,S49,2,2*%
%TO.N,Net-(D49-A)*%
X131762500Y-98742500D03*
D22*
X134542500Y-98742500D03*
%TD*%
%TO.P,S23,1,1*%
%TO.N,Col 9*%
X184550000Y-63182500D03*
D23*
X187325000Y-63182500D03*
%TO.P,S23,2,2*%
%TO.N,Net-(D23-A)*%
X193675000Y-60642500D03*
D22*
X196455000Y-60642500D03*
%TD*%
%TO.P,S33,1,1*%
%TO.N,Col 4*%
X98825000Y-82232500D03*
D23*
X101600000Y-82232500D03*
%TO.P,S33,2,2*%
%TO.N,Net-(D33-A)*%
X107950000Y-79692500D03*
D22*
X110730000Y-79692500D03*
%TD*%
D24*
%TO.P,C13,1*%
%TO.N,VCC*%
X158700000Y-112800000D03*
D11*
%TO.P,C13,2*%
%TO.N,RE_SW_2*%
X156200000Y-112800000D03*
%TD*%
D24*
%TO.P,C18,1*%
%TO.N,VCC*%
X336300000Y-123300000D03*
D11*
%TO.P,C18,2*%
%TO.N,RE_SW_2*%
X333800000Y-123300000D03*
%TD*%
D22*
%TO.P,S78,1,1*%
%TO.N,Col 12*%
X255987500Y-139382500D03*
D23*
X258762500Y-139382500D03*
%TO.P,S78,2,2*%
%TO.N,Net-(D78-A)*%
X265112500Y-136842500D03*
D22*
X267892500Y-136842500D03*
%TD*%
%TO.P,S46,1,1*%
%TO.N,Col 2*%
X65487500Y-101282500D03*
D23*
X68262500Y-101282500D03*
%TO.P,S46,2,2*%
%TO.N,Net-(D46-A)*%
X74612500Y-98742500D03*
D22*
X77392500Y-98742500D03*
%TD*%
%TO.P,S68,1,1*%
%TO.N,Col 10*%
X227412500Y-120332500D03*
D23*
X230187500Y-120332500D03*
%TO.P,S68,2,2*%
%TO.N,Net-(D68-A)*%
X236537500Y-117792500D03*
D22*
X239317500Y-117792500D03*
%TD*%
%TO.P,S31,1,1*%
%TO.N,Col 2*%
X60725000Y-82232500D03*
D23*
X63500000Y-82232500D03*
%TO.P,S31,2,2*%
%TO.N,Net-(D31-A)*%
X69850000Y-79692500D03*
D22*
X72630000Y-79692500D03*
%TD*%
%TO.P,S24,1,1*%
%TO.N,Col 10*%
X203600000Y-63182500D03*
D23*
X206375000Y-63182500D03*
%TO.P,S24,2,2*%
%TO.N,Net-(D24-A)*%
X212725000Y-60642500D03*
D22*
X215505000Y-60642500D03*
%TD*%
%TO.P,S6,1,1*%
%TO.N,Col 6*%
X136925000Y-39370000D03*
D23*
X139700000Y-39370000D03*
%TO.P,S6,2,2*%
%TO.N,Net-(D6-A)*%
X146050000Y-36830000D03*
D22*
X148830000Y-36830000D03*
%TD*%
%TO.P,S11,1,1*%
%TO.N,Col 11*%
X236937500Y-39370000D03*
D23*
X239712500Y-39370000D03*
%TO.P,S11,2,2*%
%TO.N,Net-(D11-A)*%
X246062500Y-36830000D03*
D22*
X248842500Y-36830000D03*
%TD*%
%TO.P,S45,1,1*%
%TO.N,Col 1*%
X39293800Y-101282500D03*
D23*
X42068800Y-101282500D03*
%TO.P,S45,2,2*%
%TO.N,Net-(D45-A)*%
X48418800Y-98742500D03*
D22*
X51198800Y-98742500D03*
%TD*%
D24*
%TO.P,C5,1*%
%TO.N,VCC*%
X239905100Y-74600000D03*
D11*
%TO.P,C5,2*%
%TO.N,RE_SW_2*%
X237405100Y-74600000D03*
%TD*%
D22*
%TO.P,S73,1,1*%
%TO.N,Col 2*%
X55962500Y-139382500D03*
D23*
X58737500Y-139382500D03*
%TO.P,S73,2,2*%
%TO.N,Net-(D73-A)*%
X65087500Y-136842500D03*
D22*
X67867500Y-136842500D03*
%TD*%
%TO.P,S26,1,1*%
%TO.N,Col 12*%
X241700000Y-63182500D03*
D23*
X244475000Y-63182500D03*
%TO.P,S26,2,2*%
%TO.N,Net-(D26-A)*%
X250825000Y-60642500D03*
D22*
X253605000Y-60642500D03*
%TD*%
D24*
%TO.P,C3,1*%
%TO.N,VCC*%
X201905113Y-53400000D03*
D11*
%TO.P,C3,2*%
%TO.N,RE_SW_2*%
X199405113Y-53400000D03*
%TD*%
D22*
%TO.P,S51,1,1*%
%TO.N,Col 7*%
X160737500Y-101282500D03*
D23*
X163512500Y-101282500D03*
%TO.P,S51,2,2*%
%TO.N,Net-(D51-A)*%
X169862500Y-98742500D03*
D22*
X172642500Y-98742500D03*
%TD*%
%TO.P,S35,1,1*%
%TO.N,Col 6*%
X136925000Y-82232500D03*
D23*
X139700000Y-82232500D03*
%TO.P,S35,2,2*%
%TO.N,Net-(D35-A)*%
X146050000Y-79692500D03*
D22*
X148830000Y-79692500D03*
%TD*%
%TO.P,S36,1,1*%
%TO.N,Col 7*%
X155975000Y-82232500D03*
D23*
X158750000Y-82232500D03*
%TO.P,S36,2,2*%
%TO.N,Net-(D36-A)*%
X165100000Y-79692500D03*
D22*
X167880000Y-79692500D03*
%TD*%
%TO.P,S15,1,1*%
%TO.N,Col 1*%
X32150000Y-63182500D03*
D23*
X34925000Y-63182500D03*
%TO.P,S15,2,2*%
%TO.N,Net-(D15-A)*%
X41275000Y-60642500D03*
D22*
X44055000Y-60642500D03*
%TD*%
%TO.P,S61,1,1*%
%TO.N,Col 3*%
X94062500Y-120332500D03*
D23*
X96837500Y-120332500D03*
%TO.P,S61,2,2*%
%TO.N,Net-(D61-A)*%
X103187500Y-117792500D03*
D22*
X105967500Y-117792500D03*
%TD*%
%TO.P,S72,1,1*%
%TO.N,Col 1*%
X34531300Y-139382500D03*
D23*
X37306300Y-139382500D03*
%TO.P,S72,2,2*%
%TO.N,Net-(D72-A)*%
X43656300Y-136842500D03*
D22*
X46436300Y-136842500D03*
%TD*%
%TO.P,S25,1,1*%
%TO.N,Col 11*%
X222650000Y-63182500D03*
D23*
X225425000Y-63182500D03*
%TO.P,S25,2,2*%
%TO.N,Net-(D25-A)*%
X231775000Y-60642500D03*
D22*
X234555000Y-60642500D03*
%TD*%
%TO.P,S54,1,1*%
%TO.N,Col 10*%
X217887500Y-101282500D03*
D23*
X220662500Y-101282500D03*
%TO.P,S54,2,2*%
%TO.N,Net-(D54-A)*%
X227012500Y-98742500D03*
D22*
X229792500Y-98742500D03*
%TD*%
D24*
%TO.P,C17,1*%
%TO.N,VCC*%
X282200000Y-145400000D03*
D11*
%TO.P,C17,2*%
%TO.N,RE_SW_2*%
X279700000Y-145400000D03*
%TD*%
D22*
%TO.P,S63,1,1*%
%TO.N,Col 5*%
X132162500Y-120332500D03*
D23*
X134937500Y-120332500D03*
%TO.P,S63,2,2*%
%TO.N,Net-(D63-A)*%
X141287500Y-117792500D03*
D22*
X144067500Y-117792500D03*
%TD*%
D24*
%TO.P,C12,1*%
%TO.N,VCC*%
X235405100Y-112600000D03*
D11*
%TO.P,C12,2*%
%TO.N,RE_SW_2*%
X232905100Y-112600000D03*
%TD*%
D22*
%TO.P,S7,1,1*%
%TO.N,Col 7*%
X155975000Y-39370000D03*
D23*
X158750000Y-39370000D03*
%TO.P,S7,2,2*%
%TO.N,Net-(D7-A)*%
X165100000Y-36830000D03*
D22*
X167880000Y-36830000D03*
%TD*%
D24*
%TO.P,C11,1*%
%TO.N,VCC*%
X268600000Y-93400000D03*
D11*
%TO.P,C11,2*%
%TO.N,RE_SW_2*%
X266100000Y-93400000D03*
%TD*%
D22*
%TO.P,S16,1,1*%
%TO.N,Col 2*%
X51200000Y-63182500D03*
D23*
X53975000Y-63182500D03*
%TO.P,S16,2,2*%
%TO.N,Net-(D16-A)*%
X60325000Y-60642500D03*
D22*
X63105000Y-60642500D03*
%TD*%
D24*
%TO.P,C19,1*%
%TO.N,VCC*%
X321405113Y-65200000D03*
D11*
%TO.P,C19,2*%
%TO.N,RE_SW_2*%
X318905113Y-65200000D03*
%TD*%
D22*
%TO.P,S1,1,1*%
%TO.N,Col 1*%
X32150000Y-39370000D03*
D23*
X34925000Y-39370000D03*
%TO.P,S1,2,2*%
%TO.N,Net-(D1-A)*%
X41275000Y-36830000D03*
D22*
X44055000Y-36830000D03*
%TD*%
%TO.P,S67,1,1*%
%TO.N,Col 9*%
X208362500Y-120332500D03*
D23*
X211137500Y-120332500D03*
%TO.P,S67,2,2*%
%TO.N,Net-(D67-A)*%
X217487500Y-117792500D03*
D22*
X220267500Y-117792500D03*
%TD*%
%TO.P,S48,1,1*%
%TO.N,Col 4*%
X103587500Y-101282500D03*
D23*
X106362500Y-101282500D03*
%TO.P,S48,2,2*%
%TO.N,Net-(D48-A)*%
X112712500Y-98742500D03*
D22*
X115492500Y-98742500D03*
%TD*%
D24*
%TO.P,C16,1*%
%TO.N,VCC*%
X213305113Y-142000000D03*
D11*
%TO.P,C16,2*%
%TO.N,RE_SW_2*%
X210805113Y-142000000D03*
%TD*%
D22*
%TO.P,S74,1,1*%
%TO.N,Col 4*%
X77393800Y-139382500D03*
D23*
X80168800Y-139382500D03*
%TO.P,S74,2,2*%
%TO.N,Net-(D74-A)*%
X86518800Y-136842500D03*
D22*
X89298800Y-136842500D03*
%TD*%
%TO.P,S62,1,1*%
%TO.N,Col 4*%
X113112500Y-120332500D03*
D23*
X115887500Y-120332500D03*
%TO.P,S62,2,2*%
%TO.N,Net-(D62-A)*%
X122237500Y-117792500D03*
D22*
X125017500Y-117792500D03*
%TD*%
%TO.P,S19,1,1*%
%TO.N,Col 5*%
X108350000Y-63182500D03*
D23*
X111125000Y-63182500D03*
%TO.P,S19,2,2*%
%TO.N,Net-(D19-A)*%
X117475000Y-60642500D03*
D22*
X120255000Y-60642500D03*
%TD*%
%TO.P,S22,1,1*%
%TO.N,Col 8*%
X165500000Y-63182500D03*
D23*
X168275000Y-63182500D03*
%TO.P,S22,2,2*%
%TO.N,Net-(D22-A)*%
X174625000Y-60642500D03*
D22*
X177405000Y-60642500D03*
%TD*%
%TO.P,S5,1,1*%
%TO.N,Col 5*%
X113112500Y-39370000D03*
D23*
X115887500Y-39370000D03*
%TO.P,S5,2,2*%
%TO.N,Net-(D5-A)*%
X122237500Y-36830000D03*
D22*
X125017500Y-36830000D03*
%TD*%
%TO.P,S53,1,1*%
%TO.N,Col 9*%
X198837500Y-101282500D03*
D23*
X201612500Y-101282500D03*
%TO.P,S53,2,2*%
%TO.N,Net-(D53-A)*%
X207962500Y-98742500D03*
D22*
X210742500Y-98742500D03*
%TD*%
%TO.P,S10,1,1*%
%TO.N,Col 10*%
X217887500Y-39370000D03*
D23*
X220662500Y-39370000D03*
%TO.P,S10,2,2*%
%TO.N,Net-(D10-A)*%
X227012500Y-36830000D03*
D22*
X229792500Y-36830000D03*
%TD*%
%TO.P,S64,1,1*%
%TO.N,Col 6*%
X151212500Y-120332500D03*
D23*
X153987500Y-120332500D03*
%TO.P,S64,2,2*%
%TO.N,Net-(D64-A)*%
X160337500Y-117792500D03*
D22*
X163117500Y-117792500D03*
%TD*%
%TO.P,S28,1,1*%
%TO.N,Col 14*%
X289325000Y-63182500D03*
D23*
X292100000Y-63182500D03*
%TO.P,S28,2,2*%
%TO.N,Net-(D28-A)*%
X298450000Y-60642500D03*
D22*
X301230000Y-60642500D03*
%TD*%
%TO.P,S3,1,1*%
%TO.N,Col 3*%
X75012500Y-39370000D03*
D23*
X77787500Y-39370000D03*
%TO.P,S3,2,2*%
%TO.N,Net-(D3-A)*%
X84137500Y-36830000D03*
D22*
X86917500Y-36830000D03*
%TD*%
%TO.P,S55,1,1*%
%TO.N,Col 11*%
X236937500Y-101282500D03*
D23*
X239712500Y-101282500D03*
%TO.P,S55,2,2*%
%TO.N,Net-(D55-A)*%
X246062500Y-98742500D03*
D22*
X248842500Y-98742500D03*
%TD*%
%TO.P,S42,1,1*%
%TO.N,Col 13*%
X270275000Y-82232500D03*
D23*
X273050000Y-82232500D03*
%TO.P,S42,2,2*%
%TO.N,Net-(D42-A)*%
X279400000Y-79692500D03*
D22*
X282180000Y-79692500D03*
%TD*%
%TO.P,S50,1,1*%
%TO.N,Col 6*%
X141687500Y-101282500D03*
D23*
X144462500Y-101282500D03*
%TO.P,S50,2,2*%
%TO.N,Net-(D50-A)*%
X150812500Y-98742500D03*
D22*
X153592500Y-98742500D03*
%TD*%
D24*
%TO.P,C15,1*%
%TO.N,VCC*%
X128400000Y-143400000D03*
D11*
%TO.P,C15,2*%
%TO.N,RE_SW_2*%
X125900000Y-143400000D03*
%TD*%
D22*
%TO.P,S13,1,1*%
%TO.N,Col 13*%
X275037500Y-39370000D03*
D23*
X277812500Y-39370000D03*
%TO.P,S13,2,2*%
%TO.N,Net-(D13-A)*%
X284162500Y-36830000D03*
D22*
X286942500Y-36830000D03*
%TD*%
D24*
%TO.P,C9,1*%
%TO.N,VCC*%
X115900000Y-93700000D03*
D11*
%TO.P,C9,2*%
%TO.N,RE_SW_2*%
X113400000Y-93700000D03*
%TD*%
D22*
%TO.P,S56,1,1*%
%TO.N,Col 12*%
X255987500Y-101282500D03*
D23*
X258762500Y-101282500D03*
%TO.P,S56,2,2*%
%TO.N,Net-(D56-A)*%
X265112500Y-98742500D03*
D22*
X267892500Y-98742500D03*
%TD*%
%TO.P,S34,1,1*%
%TO.N,Col 5*%
X117875000Y-82232500D03*
D23*
X120650000Y-82232500D03*
%TO.P,S34,2,2*%
%TO.N,Net-(D34-A)*%
X127000000Y-79692500D03*
D22*
X129780000Y-79692500D03*
%TD*%
%TO.P,S43,1,1*%
%TO.N,Col 14*%
X294087500Y-82232500D03*
D23*
X296862500Y-82232500D03*
%TO.P,S43,2,2*%
%TO.N,Net-(D43-A)*%
X303212500Y-79692500D03*
D22*
X305992500Y-79692500D03*
%TD*%
%TO.P,S21,1,1*%
%TO.N,Col 7*%
X146450000Y-63182500D03*
D23*
X149225000Y-63182500D03*
%TO.P,S21,2,2*%
%TO.N,Net-(D21-A)*%
X155575000Y-60642500D03*
D22*
X158355000Y-60642500D03*
%TD*%
D25*
%TO.N,Row 4*%
X76503800Y-21083100D03*
%TO.N,Net-(L1-DOUT)*%
X133399300Y-50277400D03*
X52814400Y-56273100D03*
%TO.N,VCC*%
X76503800Y-74216600D03*
X217825700Y-96593400D03*
X250918600Y-94561600D03*
X212600300Y-71224200D03*
X255214300Y-73305000D03*
X49553300Y-92171000D03*
X285354400Y-92033500D03*
X177359600Y-74663800D03*
X249532000Y-74868300D03*
X325520200Y-95163400D03*
X165895600Y-92171000D03*
X248904400Y-112319700D03*
X315241600Y-93196600D03*
X287335100Y-141826500D03*
X64806400Y-128008200D03*
X128337000Y-93701600D03*
X208237200Y-53269800D03*
X169338000Y-112740700D03*
%TO.N,LED*%
X58536800Y-14368600D03*
%TO.N,Net-(L2-DOUT)*%
X127410300Y-56262200D03*
X208782900Y-52138000D03*
%TO.N,Net-(L3-DOUT)*%
X298096800Y-50277400D03*
X217643300Y-54652100D03*
%TO.N,Net-(L4-DOUT)*%
X263862400Y-71224200D03*
X286336100Y-71115800D03*
%TO.N,Net-(L5-DOUT)*%
X250184800Y-71224200D03*
X185122100Y-73441300D03*
%TO.N,Net-(L6-DOUT)*%
X172327800Y-76627600D03*
X88483400Y-73581000D03*
%TO.N,Net-(L7-DOUT)*%
X70556500Y-75010500D03*
X81630400Y-75288600D03*
%TO.N,Net-(L10-DOUT)*%
X292099600Y-89140500D03*
X220239800Y-98404800D03*
%TO.N,Net-(L10-DIN)*%
X129942300Y-92115500D03*
X226228800Y-89178600D03*
%TO.N,Net-(L11-DOUT)*%
X283693200Y-109751300D03*
X259168300Y-110125400D03*
%TO.N,Net-(L12-DOUT)*%
X178573600Y-113195100D03*
X250184800Y-114415800D03*
%TO.N,Net-(L13-DOUT)*%
X169596300Y-113827300D03*
X74390000Y-115182500D03*
%TO.N,Net-(L14-DOUT)*%
X67328300Y-131596100D03*
X118735600Y-130544000D03*
%TO.N,Net-(L15-DOUT)*%
X211256300Y-128079800D03*
X121191500Y-134836700D03*
%TO.N,Col 1*%
X28306000Y-62247000D03*
%TO.N,Col 2*%
X54449600Y-83193800D03*
%TO.N,Col 4*%
X113316300Y-102202300D03*
X107464100Y-139038300D03*
%TO.N,Col 5*%
X112437800Y-26336600D03*
%TO.N,Col 9*%
X190294800Y-14368600D03*
X193896500Y-62962800D03*
%TO.N,RE_SW_1*%
X91589200Y-44976300D03*
%TO.N,RE_SW_2*%
X216346700Y-136153400D03*
X295102300Y-92171000D03*
X299357100Y-139276000D03*
X196005600Y-92969100D03*
X82744800Y-77409300D03*
X177054200Y-115698700D03*
X247140400Y-111912300D03*
X258741600Y-77533900D03*
X177359600Y-76055100D03*
X73847000Y-127587900D03*
X46558800Y-74216600D03*
X91476300Y-92632100D03*
X136393800Y-113117800D03*
X224387500Y-96671600D03*
X337274000Y-134775500D03*
X291670300Y-55813500D03*
X126962400Y-113402100D03*
X325744700Y-121391400D03*
X28522800Y-74216600D03*
X127252500Y-89178600D03*
X210492500Y-55260800D03*
X297563200Y-56174000D03*
%TO.N,Col 10*%
X204890500Y-9293600D03*
X222714700Y-117010700D03*
X213112100Y-63092800D03*
%TO.N,Col 11*%
X221578200Y-12708300D03*
%TO.N,Col 12*%
X247190300Y-10026300D03*
X260489500Y-119821100D03*
%TO.N,Col 13*%
X272055400Y-11709500D03*
%TO.N,Col 14*%
X292107800Y-23345800D03*
%TO.N,Col 15*%
X52125300Y-45100200D03*
X323923000Y-101148200D03*
%TO.N,Net-(L8-DOUT)*%
X53154200Y-95799600D03*
X137345500Y-96229400D03*
%TO.N,Net-(L16-DOUT)*%
X299866800Y-130484100D03*
X217245300Y-136846100D03*
%TO.N,Net-(L17-DOUT)*%
X294488800Y-134600500D03*
X334523400Y-130572200D03*
%TD*%
D26*
%TO.N,Net-(D1-A)*%
X41275000Y-36830000D02*
X44055000Y-36830000D01*
X44055000Y-36830000D02*
X46750000Y-36830000D01*
X46750000Y-36830000D02*
X48100000Y-35480000D01*
X46750000Y-36830000D02*
X48100000Y-35480000D01*
X44055000Y-36830000D02*
X46750000Y-36830000D01*
%TO.N,Row 1*%
X80440000Y-21700000D02*
X80440000Y-30565900D01*
X71912500Y-39093400D02*
X71912500Y-43100000D01*
X80440000Y-30565900D02*
X71912500Y-39093400D01*
%TO.N,Net-(D2-A)*%
X67867500Y-36830000D02*
X70562500Y-36830000D01*
X67867500Y-36830000D02*
X70562500Y-36830000D01*
X65087500Y-36830000D02*
X67867500Y-36830000D01*
X70562500Y-36830000D02*
X71912500Y-35480000D01*
X70562500Y-36830000D02*
X71912500Y-35480000D01*
%TO.N,Net-(D3-A)*%
X84137500Y-36830000D02*
X86917500Y-36830000D01*
X89612500Y-36830000D02*
X90962500Y-35480000D01*
X89612500Y-36830000D02*
X90962500Y-35480000D01*
X86917500Y-36830000D02*
X89612500Y-36830000D01*
X86917500Y-36830000D02*
X89612500Y-36830000D01*
%TO.N,Net-(D4-A)*%
X103187500Y-36830000D02*
X105967500Y-36830000D01*
%TO.N,Net-(D5-A)*%
X122237500Y-36830000D02*
X125017500Y-36830000D01*
%TO.N,Net-(D6-A)*%
X151525000Y-36830000D02*
X152875000Y-35480000D01*
X146050000Y-36830000D02*
X148830000Y-36830000D01*
X151525000Y-36830000D02*
X152875000Y-35480000D01*
X148830000Y-36830000D02*
X151525000Y-36830000D01*
X148830000Y-36830000D02*
X151525000Y-36830000D01*
%TO.N,Net-(D7-A)*%
X167880000Y-36830000D02*
X170575000Y-36830000D01*
X167880000Y-36830000D02*
X170575000Y-36830000D01*
X170575000Y-36830000D02*
X171925000Y-35480000D01*
X170575000Y-36830000D02*
X171925000Y-35480000D01*
X165100000Y-36830000D02*
X167880000Y-36830000D01*
%TO.N,Net-(D8-A)*%
X186930000Y-36830000D02*
X189625000Y-36830000D01*
X189625000Y-36830000D02*
X190975000Y-35480000D01*
X184150000Y-36830000D02*
X186930000Y-36830000D01*
X189625000Y-36830000D02*
X190975000Y-35480000D01*
X186930000Y-36830000D02*
X189625000Y-36830000D01*
%TO.N,Net-(D9-A)*%
X203200000Y-36830000D02*
X205980000Y-36830000D01*
X208675000Y-36830000D02*
X210025000Y-35480000D01*
X205980000Y-36830000D02*
X208675000Y-36830000D01*
X205980000Y-36830000D02*
X208675000Y-36830000D01*
X208675000Y-36830000D02*
X210025000Y-35480000D01*
%TO.N,Net-(D10-A)*%
X229792000Y-36830000D02*
X231140300Y-36830000D01*
X227012500Y-36830000D02*
X229792000Y-36830000D01*
X231140300Y-36830000D02*
X232487500Y-36830000D01*
X229792000Y-36830000D02*
X229792500Y-36830000D01*
X229792500Y-36830000D02*
X231140300Y-36830000D01*
X232487500Y-36830000D02*
X233837500Y-35480000D01*
X231140300Y-36830000D02*
X232487500Y-36830000D01*
%TO.N,Row 2*%
X86200000Y-61325100D02*
X86200000Y-66912500D01*
X81850700Y-38184300D02*
X82017000Y-38350600D01*
X84531300Y-43695300D02*
X87337100Y-46501100D01*
X87337100Y-60188000D02*
X86200000Y-61325100D01*
X81615300Y-37948900D02*
X81850700Y-38184300D01*
X81850700Y-38184300D02*
X82017000Y-38350600D01*
X87337100Y-46501100D02*
X87337100Y-60188000D01*
X81615300Y-23064700D02*
X81615300Y-37948900D01*
X82017000Y-38350600D02*
X84531300Y-40864900D01*
X82980000Y-21700000D02*
X81615300Y-23064700D01*
X84531300Y-40864900D02*
X84531300Y-43695300D01*
%TO.N,Net-(D11-A)*%
X246062500Y-36830000D02*
X248842000Y-36830000D01*
X248842000Y-36830000D02*
X250190300Y-36830000D01*
X250190300Y-36830000D02*
X251537500Y-36830000D01*
X248842000Y-36830000D02*
X248842500Y-36830000D01*
X250190300Y-36830000D02*
X251537500Y-36830000D01*
X251537500Y-36830000D02*
X252887500Y-35480000D01*
X248842500Y-36830000D02*
X250190300Y-36830000D01*
%TO.N,Net-(D12-A)*%
X271937500Y-35480000D02*
X271937600Y-35480000D01*
X271937600Y-35480000D02*
X271937800Y-35480200D01*
X271262900Y-36155100D02*
X271937800Y-35480200D01*
X270588000Y-36830000D02*
X271262900Y-36155100D01*
X265112500Y-36830000D02*
X267892500Y-36830000D01*
X271262900Y-36155100D02*
X268567400Y-36155100D01*
X268567400Y-36155100D02*
X267892500Y-36830000D01*
X270588000Y-36830000D02*
X271262900Y-36155100D01*
X271262900Y-36155100D02*
X271937800Y-35480200D01*
%TO.N,Net-(D13-A)*%
X288290300Y-36830000D02*
X289637500Y-36830000D01*
X286942500Y-36830000D02*
X288290300Y-36830000D01*
X284162500Y-36830000D02*
X286942000Y-36830000D01*
X289637500Y-36830000D02*
X290987500Y-35480000D01*
X286942000Y-36830000D02*
X288290300Y-36830000D01*
X286942000Y-36830000D02*
X286942500Y-36830000D01*
X288290300Y-36830000D02*
X289637500Y-36830000D01*
%TO.N,Net-(D14-A)*%
X313450000Y-36830000D02*
X314800000Y-35480000D01*
X310755000Y-36830000D02*
X313450000Y-36830000D01*
X307975000Y-36830000D02*
X310755000Y-36830000D01*
X310755000Y-36830000D02*
X313450000Y-36830000D01*
X313450000Y-36830000D02*
X314800000Y-35480000D01*
%TO.N,Net-(D15-A)*%
X44055000Y-60642500D02*
X46750000Y-60642500D01*
X41275000Y-60642500D02*
X44055000Y-60642500D01*
X44055000Y-60642500D02*
X46750000Y-60642500D01*
X46750000Y-60642500D02*
X48100000Y-59292500D01*
X46750000Y-60642500D02*
X48100000Y-59292500D01*
%TO.N,Net-(D16-A)*%
X60325000Y-60642500D02*
X63105000Y-60642500D01*
X65800000Y-60642500D02*
X67150000Y-59292500D01*
X65800000Y-60642500D02*
X67150000Y-59292500D01*
X63105000Y-60642500D02*
X65800000Y-60642500D01*
X63105000Y-60642500D02*
X65800000Y-60642500D01*
%TO.N,Net-(D17-A)*%
X82155000Y-60642500D02*
X84850000Y-60642500D01*
X79375000Y-60642500D02*
X82155000Y-60642500D01*
X82155000Y-60642500D02*
X84850000Y-60642500D01*
X84850000Y-60642500D02*
X86200000Y-59292500D01*
X84850000Y-60642500D02*
X86200000Y-59292500D01*
%TO.N,Net-(D18-A)*%
X103900000Y-60642500D02*
X105250000Y-59292500D01*
X101205000Y-60642500D02*
X103900000Y-60642500D01*
X103900000Y-60642500D02*
X105250000Y-59292500D01*
X101205000Y-60642500D02*
X103900000Y-60642500D01*
X98425000Y-60642500D02*
X101205000Y-60642500D01*
%TO.N,Net-(D19-A)*%
X122950000Y-60642500D02*
X124300000Y-59292500D01*
X120255000Y-60642500D02*
X122950000Y-60642500D01*
X117475000Y-60642500D02*
X120255000Y-60642500D01*
X122950000Y-60642500D02*
X124300000Y-59292500D01*
X120255000Y-60642500D02*
X122950000Y-60642500D01*
%TO.N,Row 3*%
X96844600Y-77886700D02*
X96844600Y-79354200D01*
X96844600Y-79354200D02*
X95725000Y-80473800D01*
X87763300Y-45730800D02*
X87763300Y-60525600D01*
X86765400Y-61523500D02*
X86765400Y-64699900D01*
X87000800Y-64935300D02*
X87167100Y-65101600D01*
X87000800Y-64935300D02*
X87167100Y-65101600D01*
X87721000Y-65655500D02*
X87721000Y-68763100D01*
X85025400Y-42992900D02*
X87763300Y-45730800D01*
X87763300Y-60525600D02*
X86765400Y-61523500D01*
X87167100Y-65101600D02*
X87721000Y-65655500D01*
X87721000Y-68763100D02*
X96844600Y-77886700D01*
X86765400Y-64699900D02*
X87000800Y-64935300D01*
X85025400Y-40690100D02*
X85025400Y-42992900D01*
X82017000Y-37681700D02*
X85025400Y-40690100D01*
X95725000Y-80473800D02*
X95725000Y-85962500D01*
X82017000Y-25203000D02*
X82017000Y-37681700D01*
X85520000Y-21700000D02*
X82017000Y-25203000D01*
%TO.N,Net-(D20-A)*%
X139305000Y-60642500D02*
X142000000Y-60642500D01*
X142000000Y-60642500D02*
X143350000Y-59292500D01*
X136525000Y-60642500D02*
X139305000Y-60642500D01*
X139305000Y-60642500D02*
X142000000Y-60642500D01*
X142000000Y-60642500D02*
X143350000Y-59292500D01*
%TO.N,Net-(D21-A)*%
X158355000Y-60642500D02*
X161050000Y-60642500D01*
X161050000Y-60642500D02*
X162400000Y-59292500D01*
X155575000Y-60642500D02*
X158355000Y-60642500D01*
X158355000Y-60642500D02*
X161050000Y-60642500D01*
X161050000Y-60642500D02*
X162400000Y-59292500D01*
%TO.N,Net-(D22-A)*%
X180100000Y-60642500D02*
X181450000Y-59292500D01*
X180100000Y-60642500D02*
X181450000Y-59292500D01*
X174625000Y-60642500D02*
X177405000Y-60642500D01*
X177405000Y-60642500D02*
X180100000Y-60642500D01*
X177405000Y-60642500D02*
X180100000Y-60642500D01*
%TO.N,Net-(D23-A)*%
X193675000Y-60642500D02*
X196455000Y-60642500D01*
X196455000Y-60642500D02*
X199150000Y-60642500D01*
X199150000Y-60642500D02*
X200500000Y-59292500D01*
X199150000Y-60642500D02*
X200500000Y-59292500D01*
X196455000Y-60642500D02*
X199150000Y-60642500D01*
%TO.N,Net-(D24-A)*%
X212725000Y-60642500D02*
X215505000Y-60642500D01*
X215505000Y-60642500D02*
X218200000Y-60642500D01*
X218200000Y-60642500D02*
X219550000Y-59292500D01*
X215505000Y-60642500D02*
X218200000Y-60642500D01*
X218200000Y-60642500D02*
X219550000Y-59292500D01*
%TO.N,Net-(D25-A)*%
X237250000Y-60642500D02*
X238600000Y-59292500D01*
X237250000Y-60642500D02*
X238600000Y-59292500D01*
X234555000Y-60642500D02*
X237250000Y-60642500D01*
X231775000Y-60642500D02*
X234555000Y-60642500D01*
X234555000Y-60642500D02*
X237250000Y-60642500D01*
%TO.N,Net-(D26-A)*%
X256300000Y-60642500D02*
X257650000Y-59292500D01*
X253605000Y-60642500D02*
X256300000Y-60642500D01*
X250825000Y-60642500D02*
X253605000Y-60642500D01*
X253605000Y-60642500D02*
X256300000Y-60642500D01*
X256300000Y-60642500D02*
X257650000Y-59292500D01*
%TO.N,Net-(D27-A)*%
X272655000Y-60642500D02*
X275350000Y-60642500D01*
X275350000Y-60642500D02*
X276700000Y-59292500D01*
X275350000Y-60642500D02*
X276700000Y-59292500D01*
X272655000Y-60642500D02*
X275350000Y-60642500D01*
X269875000Y-60642500D02*
X272655000Y-60642500D01*
%TO.N,Net-(D28-A)*%
X301230000Y-60642500D02*
X303925000Y-60642500D01*
X303925000Y-60642500D02*
X305275000Y-59292500D01*
X298450000Y-60642500D02*
X301230000Y-60642500D01*
X313100000Y-57300000D02*
X313100000Y-59100000D01*
X305275000Y-59292500D02*
X305275000Y-58025000D01*
X301230000Y-60642500D02*
X303925000Y-60642500D01*
X306600000Y-56700000D02*
X312500000Y-56700000D01*
X312500000Y-56700000D02*
X313100000Y-57300000D01*
X303925000Y-60642500D02*
X305275000Y-59292500D01*
X305275000Y-58025000D02*
X306600000Y-56700000D01*
%TO.N,Row 4*%
X78452800Y-80174600D02*
X77647300Y-80980100D01*
X81437500Y-100010200D02*
X81437500Y-105012500D01*
X73031700Y-73070300D02*
X78452800Y-78491400D01*
X82581100Y-98866600D02*
X81437500Y-100010200D01*
X69381600Y-65913500D02*
X69381600Y-69520200D01*
X77647300Y-83704200D02*
X82581100Y-88638000D01*
X77647300Y-80980100D02*
X77647300Y-83704200D01*
X78452800Y-78491400D02*
X78452800Y-80174600D01*
X76503800Y-32631000D02*
X69456100Y-39678700D01*
X72931700Y-73070300D02*
X73031700Y-73070300D01*
X68122300Y-61263400D02*
X68122300Y-64654200D01*
X69381600Y-69520200D02*
X72931700Y-73070300D01*
X82581100Y-88638000D02*
X82581100Y-98866600D01*
X69456100Y-39678700D02*
X69456100Y-59929600D01*
X69456100Y-59929600D02*
X68122300Y-61263400D01*
X76503800Y-21083100D02*
X76503800Y-32631000D01*
X68122300Y-64654200D02*
X69381600Y-65913500D01*
%TO.N,Net-(D29-A)*%
X342025000Y-60642500D02*
X343375000Y-59292500D01*
X342025000Y-60642500D02*
X343375000Y-59292500D01*
X339330000Y-60642500D02*
X342025000Y-60642500D01*
X336550000Y-60642500D02*
X339330000Y-60642500D01*
X339330000Y-60642500D02*
X342025000Y-60642500D01*
%TO.N,Row 5*%
X105824600Y-81790500D02*
X108462700Y-84428600D01*
X106376100Y-58618500D02*
X106376100Y-61703800D01*
X112597600Y-115981400D02*
X110012500Y-118566500D01*
X94410000Y-21354700D02*
X94410000Y-31272500D01*
X106220500Y-65048100D02*
X106393800Y-65221400D01*
X94410000Y-31272500D02*
X103983100Y-40845600D01*
X93624200Y-20568900D02*
X94410000Y-21354700D01*
X110012500Y-118566500D02*
X110012500Y-124062500D01*
X108462700Y-97666800D02*
X112597600Y-101801700D01*
X108462700Y-84428600D02*
X108462700Y-97666800D01*
X106393800Y-75719100D02*
X105824600Y-76288300D01*
X106376100Y-61703800D02*
X106220500Y-61859400D01*
X106220500Y-61859400D02*
X106220500Y-65048100D01*
X105824600Y-76288300D02*
X105824600Y-81790500D01*
X103983100Y-56225500D02*
X106376100Y-58618500D01*
X91731100Y-20568900D02*
X93624200Y-20568900D01*
X112597600Y-101801700D02*
X112597600Y-115981400D01*
X106393800Y-65221400D02*
X106393800Y-75719100D01*
X103983100Y-40845600D02*
X103983100Y-56225500D01*
X90600000Y-21700000D02*
X91731100Y-20568900D01*
%TO.N,Net-(D30-A)*%
X46037500Y-79692500D02*
X48817500Y-79692500D01*
X48817500Y-79692500D02*
X51512500Y-79692500D01*
X51512500Y-79692500D02*
X52862500Y-78342500D01*
X48817500Y-79692500D02*
X51512500Y-79692500D01*
X51512500Y-79692500D02*
X52862500Y-78342500D01*
%TO.N,Row 6*%
X101632300Y-114555600D02*
X101632300Y-103865500D01*
X92476700Y-56470800D02*
X92476700Y-41480300D01*
X96728900Y-80271200D02*
X97246300Y-79753800D01*
X93343800Y-143112500D02*
X103049800Y-133406500D01*
X96728900Y-83686300D02*
X96728900Y-80271200D01*
X101080700Y-118859800D02*
X101080700Y-115107200D01*
X87167100Y-61780400D02*
X92476700Y-56470800D01*
X88122700Y-65311800D02*
X87167100Y-64356200D01*
X92138400Y-41142000D02*
X91972100Y-40975700D01*
X101632600Y-88590000D02*
X96728900Y-83686300D01*
X97246300Y-76925500D02*
X88122700Y-67801900D01*
X87167100Y-64356200D02*
X87167100Y-61780400D01*
X101080700Y-115107200D02*
X101632300Y-114555600D01*
X101467500Y-103700700D02*
X101467500Y-99949900D01*
X93140000Y-35661900D02*
X93140000Y-21700000D01*
X101632300Y-103865500D02*
X101467500Y-103700700D01*
X103049800Y-120828900D02*
X101080700Y-118859800D01*
X101632600Y-99784800D02*
X101632600Y-88590000D01*
X92138400Y-41142000D02*
X91972100Y-40975700D01*
X91972100Y-40975700D02*
X91972100Y-36829800D01*
X92476700Y-41480300D02*
X92138400Y-41142000D01*
X103049800Y-133406500D02*
X103049800Y-120828900D01*
X91972100Y-36829800D02*
X93140000Y-35661900D01*
X88122700Y-67801900D02*
X88122700Y-65311800D01*
X101467500Y-99949900D02*
X101632600Y-99784800D01*
X97246300Y-79753800D02*
X97246300Y-76925500D01*
%TO.N,Net-(D31-A)*%
X72630000Y-79692500D02*
X75325000Y-79692500D01*
X75325000Y-79692500D02*
X76675000Y-78342500D01*
X69850000Y-79692500D02*
X72630000Y-79692500D01*
X75325000Y-79692500D02*
X76675000Y-78342500D01*
X72630000Y-79692500D02*
X75325000Y-79692500D01*
%TO.N,Net-(D32-A)*%
X94375000Y-79692500D02*
X95725000Y-78342500D01*
X91680000Y-79692500D02*
X94375000Y-79692500D01*
X94375000Y-79692500D02*
X95725000Y-78342500D01*
X88900000Y-79692500D02*
X91680000Y-79692500D01*
X91680000Y-79692500D02*
X94375000Y-79692500D01*
%TO.N,Net-(D33-A)*%
X110730000Y-79692500D02*
X113425000Y-79692500D01*
X110730000Y-79692500D02*
X113425000Y-79692500D01*
X107950000Y-79692500D02*
X110730000Y-79692500D01*
X113425000Y-79692500D02*
X114775000Y-78342500D01*
X113425000Y-79692500D02*
X114775000Y-78342500D01*
%TO.N,Net-(D34-A)*%
X129780000Y-79692500D02*
X132475000Y-79692500D01*
X132475000Y-79692500D02*
X133825000Y-78342500D01*
X132475000Y-79692500D02*
X133825000Y-78342500D01*
X127000000Y-79692500D02*
X129780000Y-79692500D01*
X129780000Y-79692500D02*
X132475000Y-79692500D01*
%TO.N,Net-(D35-A)*%
X151525000Y-79692500D02*
X152875000Y-78342500D01*
X146050000Y-79692500D02*
X148830000Y-79692500D01*
X148830000Y-79692500D02*
X151525000Y-79692500D01*
X151525000Y-79692500D02*
X152875000Y-78342500D01*
X148830000Y-79692500D02*
X151525000Y-79692500D01*
%TO.N,Net-(D36-A)*%
X165100000Y-79692500D02*
X167880000Y-79692500D01*
X167880000Y-79692500D02*
X170575000Y-79692500D01*
X170575000Y-79692500D02*
X171925000Y-78342500D01*
X170575000Y-79692500D02*
X171925000Y-78342500D01*
X167880000Y-79692500D02*
X170575000Y-79692500D01*
%TO.N,Net-(D37-A)*%
X189625000Y-79692500D02*
X190975000Y-78342500D01*
X186930000Y-79692500D02*
X189625000Y-79692500D01*
X186930000Y-79692500D02*
X189625000Y-79692500D01*
X184150000Y-79692500D02*
X186930000Y-79692500D01*
X189625000Y-79692500D02*
X190975000Y-78342500D01*
%TO.N,Net-(D38-A)*%
X208675000Y-79692500D02*
X210025000Y-78342500D01*
X205980000Y-79692500D02*
X208675000Y-79692500D01*
X203200000Y-79692500D02*
X205980000Y-79692500D01*
X208675000Y-79692500D02*
X210025000Y-78342500D01*
X205980000Y-79692500D02*
X208675000Y-79692500D01*
%TO.N,Net-(D39-A)*%
X225030000Y-79692500D02*
X227725000Y-79692500D01*
X225030000Y-79692500D02*
X227725000Y-79692500D01*
X227725000Y-79692500D02*
X229075000Y-78342500D01*
X222250000Y-79692500D02*
X225030000Y-79692500D01*
X227725000Y-79692500D02*
X229075000Y-78342500D01*
%TO.N,Net-(D40-A)*%
X244080000Y-79692500D02*
X246775000Y-79692500D01*
X244080000Y-79692500D02*
X246775000Y-79692500D01*
X246775000Y-79692500D02*
X248125000Y-78342500D01*
X241300000Y-79692500D02*
X244080000Y-79692500D01*
X246775000Y-79692500D02*
X248125000Y-78342500D01*
%TO.N,Net-(D41-A)*%
X263130000Y-79692500D02*
X265825000Y-79692500D01*
X265825000Y-79692500D02*
X267175000Y-78342500D01*
X263130000Y-79692500D02*
X265825000Y-79692500D01*
X265825000Y-79692500D02*
X267175000Y-78342500D01*
X260350000Y-79692500D02*
X263130000Y-79692500D01*
%TO.N,Net-(D42-A)*%
X282180000Y-79692500D02*
X284875000Y-79692500D01*
X279400000Y-79692500D02*
X282180000Y-79692500D01*
X284875000Y-79692500D02*
X286225000Y-78342500D01*
X282180000Y-79692500D02*
X284875000Y-79692500D01*
X284875000Y-79692500D02*
X286225000Y-78342500D01*
%TO.N,Net-(D43-A)*%
X307340300Y-79692500D02*
X308687500Y-79692500D01*
X303212500Y-79692500D02*
X305992000Y-79692500D01*
X308687500Y-79692500D02*
X310037500Y-78342500D01*
X305992000Y-79692500D02*
X307340300Y-79692500D01*
X307340300Y-79692500D02*
X308687500Y-79692500D01*
X305992000Y-79692500D02*
X305992500Y-79692500D01*
X305992500Y-79692500D02*
X307340300Y-79692500D01*
%TO.N,Net-(D44-A)*%
X336550000Y-79692500D02*
X339330000Y-79692500D01*
X342025000Y-79692500D02*
X343375000Y-78342500D01*
X339330000Y-79692500D02*
X342025000Y-79692500D01*
X339330000Y-79692500D02*
X342025000Y-79692500D01*
X342025000Y-79692500D02*
X343375000Y-78342500D01*
%TO.N,Net-(D45-A)*%
X48418800Y-98742500D02*
X51198800Y-98742500D01*
X51198800Y-98742500D02*
X53893800Y-98742500D01*
X53893800Y-98742500D02*
X55243800Y-97392500D01*
X53893800Y-98742500D02*
X55243800Y-97392500D01*
X51198800Y-98742500D02*
X53893800Y-98742500D01*
%TO.N,Net-(D46-A)*%
X80087500Y-98742500D02*
X81437500Y-97392500D01*
X77392500Y-98742500D02*
X80087500Y-98742500D01*
X74612500Y-98742500D02*
X77392500Y-98742500D01*
X80087500Y-98742500D02*
X81437500Y-97392500D01*
X77392500Y-98742500D02*
X80087500Y-98742500D01*
%TO.N,Net-(D47-A)*%
X96442500Y-98742500D02*
X99137500Y-98742500D01*
X99812800Y-98067200D02*
X99812800Y-98067500D01*
X99137500Y-98742500D02*
X99812800Y-98067500D01*
X96442500Y-98742500D02*
X99137500Y-98742500D01*
X99137500Y-98742500D02*
X99812800Y-98067500D01*
X93662500Y-98742500D02*
X96442500Y-98742500D01*
X100487500Y-97392500D02*
X99812800Y-98067200D01*
%TO.N,Net-(D48-A)*%
X118187500Y-98742500D02*
X119537500Y-97392500D01*
X115492000Y-98742500D02*
X116840300Y-98742500D01*
X115492500Y-98742500D02*
X116840300Y-98742500D01*
X116840300Y-98742500D02*
X118187500Y-98742500D01*
X115492000Y-98742500D02*
X115492500Y-98742500D01*
X116840300Y-98742500D02*
X118187500Y-98742500D01*
X112712500Y-98742500D02*
X115492000Y-98742500D01*
%TO.N,Net-(D49-A)*%
X138587600Y-97392500D02*
X138587800Y-97392700D01*
X131762500Y-98742500D02*
X134542500Y-98742500D01*
X138587500Y-97392500D02*
X138587600Y-97392500D01*
X137238000Y-98742500D02*
X138587800Y-97392700D01*
X137238000Y-98742500D02*
X138587800Y-97392700D01*
%TO.N,Net-(D50-A)*%
X150812500Y-98742500D02*
X153592000Y-98742500D01*
X153592500Y-98742500D02*
X156288000Y-98742500D01*
X153592000Y-98742500D02*
X156288000Y-98742500D01*
X157637500Y-97392500D02*
X156288000Y-98742000D01*
X156288000Y-98742000D02*
X156288000Y-98742500D01*
X153592000Y-98742500D02*
X153592500Y-98742500D01*
%TO.N,Net-(D51-A)*%
X175338000Y-98742500D02*
X176012900Y-98067600D01*
X176012900Y-98067600D02*
X173317400Y-98067600D01*
X169862500Y-98742500D02*
X172642500Y-98742500D01*
X175338000Y-98742500D02*
X176012900Y-98067600D01*
X173317400Y-98067600D02*
X172642500Y-98742500D01*
X176012900Y-98067600D02*
X176687800Y-97392700D01*
X176687500Y-97392500D02*
X176687600Y-97392500D01*
X176687600Y-97392500D02*
X176687800Y-97392700D01*
X176012900Y-98067600D02*
X176687800Y-97392700D01*
%TO.N,Net-(D52-A)*%
X191692000Y-98742500D02*
X191692500Y-98742500D01*
X193040300Y-98742500D02*
X194387500Y-98742500D01*
X194387500Y-98742500D02*
X195737500Y-97392500D01*
X191692000Y-98742500D02*
X193040300Y-98742500D01*
X193040300Y-98742500D02*
X194387500Y-98742500D01*
X191692500Y-98742500D02*
X193040300Y-98742500D01*
X188912500Y-98742500D02*
X191692000Y-98742500D01*
%TO.N,Net-(D53-A)*%
X213438000Y-98742500D02*
X214112900Y-98067600D01*
X213438000Y-98742500D02*
X214112900Y-98067600D01*
X211417400Y-98067600D02*
X210742500Y-98742500D01*
X214787600Y-97392500D02*
X214787800Y-97392700D01*
X207962500Y-98742500D02*
X210742500Y-98742500D01*
X214112900Y-98067600D02*
X214787800Y-97392700D01*
X214112900Y-98067600D02*
X214787800Y-97392700D01*
X214112900Y-98067600D02*
X211417400Y-98067600D01*
X214787500Y-97392500D02*
X214787600Y-97392500D01*
%TO.N,Net-(D54-A)*%
X232488000Y-98742500D02*
X233162900Y-98067600D01*
X233837600Y-97392500D02*
X233837800Y-97392700D01*
X233162900Y-98067600D02*
X233837800Y-97392700D01*
X233837500Y-97392500D02*
X233837600Y-97392500D01*
X233162900Y-98067600D02*
X230467400Y-98067600D01*
X230467400Y-98067600D02*
X229792500Y-98742500D01*
X227012500Y-98742500D02*
X229792500Y-98742500D01*
X233162900Y-98067600D02*
X233837800Y-97392700D01*
X232488000Y-98742500D02*
X233162900Y-98067600D01*
%TO.N,Net-(D55-A)*%
X246062500Y-98742500D02*
X248842000Y-98742500D01*
X248842000Y-98742500D02*
X248842500Y-98742500D01*
X248842500Y-98742500D02*
X248842000Y-98742500D01*
%TO.N,Net-(D56-A)*%
X268567400Y-98067600D02*
X267892500Y-98742500D01*
X271262900Y-98067600D02*
X271937800Y-97392700D01*
X271262900Y-98067600D02*
X268567400Y-98067600D01*
X270588000Y-98742500D02*
X271262900Y-98067600D01*
X270588000Y-98742500D02*
X271262900Y-98067600D01*
X271937500Y-97392500D02*
X271937600Y-97392500D01*
X265112500Y-98742500D02*
X267892500Y-98742500D01*
X271262900Y-98067600D02*
X271937800Y-97392700D01*
X271937600Y-97392500D02*
X271937800Y-97392700D01*
%TO.N,Net-(D57-A)*%
X296068800Y-98742500D02*
X298848800Y-98742500D01*
%TO.N,Net-(D58-A)*%
X339330000Y-98742500D02*
X342025000Y-98742500D01*
X342025000Y-98742500D02*
X343375000Y-97392500D01*
X342025000Y-98742500D02*
X343375000Y-97392500D01*
X336550000Y-98742500D02*
X339330000Y-98742500D01*
X339330000Y-98742500D02*
X342025000Y-98742500D01*
%TO.N,Net-(D59-A)*%
X55961300Y-117792500D02*
X53181300Y-117792500D01*
%TO.N,Net-(D60-A)*%
X86917500Y-117792500D02*
X84137500Y-117792500D01*
%TO.N,Net-(D61-A)*%
X110012500Y-116442500D02*
X110012000Y-116442000D01*
X105967500Y-117792500D02*
X103187500Y-117792500D01*
X105967500Y-117792500D02*
X105968000Y-117792000D01*
X108662000Y-117792000D02*
X110012000Y-116442000D01*
X105968000Y-117792000D02*
X108662000Y-117792000D01*
X105968000Y-117792000D02*
X108662000Y-117792000D01*
X108662000Y-117792000D02*
X110012000Y-116442000D01*
%TO.N,Net-(D62-A)*%
X125017500Y-117792500D02*
X122237500Y-117792500D01*
%TO.N,Net-(D63-A)*%
X144068000Y-117792000D02*
X146762000Y-117792000D01*
X144068000Y-117792000D02*
X146762000Y-117792000D01*
X144067500Y-117792500D02*
X144068000Y-117792000D01*
X148112500Y-116442500D02*
X148112000Y-116442000D01*
X146762000Y-117792000D02*
X148112000Y-116442000D01*
X141287500Y-117792500D02*
X144067500Y-117792500D01*
X146762000Y-117792000D02*
X148112000Y-116442000D01*
%TO.N,Net-(D64-A)*%
X165812000Y-117792000D02*
X167162000Y-116442000D01*
X163118000Y-117792000D02*
X165812000Y-117792000D01*
X165812000Y-117792000D02*
X167162000Y-116442000D01*
X163118000Y-117792000D02*
X165812000Y-117792000D01*
X167162500Y-116442500D02*
X167162000Y-116442000D01*
X163117500Y-117792500D02*
X160337500Y-117792500D01*
X163117500Y-117792500D02*
X163118000Y-117792000D01*
%TO.N,Net-(D65-A)*%
X182167500Y-117792500D02*
X179387500Y-117792500D01*
%TO.N,Net-(D66-A)*%
X201217500Y-117792500D02*
X198437500Y-117792500D01*
%TO.N,Net-(D67-A)*%
X220268000Y-117792000D02*
X222962000Y-117792000D01*
X224312500Y-116442500D02*
X224312000Y-116442000D01*
X217487500Y-117792500D02*
X220267500Y-117792500D01*
X222962000Y-117792000D02*
X224312000Y-116442000D01*
X222962000Y-117792000D02*
X224312000Y-116442000D01*
X220268000Y-117792000D02*
X222962000Y-117792000D01*
X220268000Y-117792000D02*
X220267500Y-117792500D01*
%TO.N,Net-(D68-A)*%
X236537500Y-117792500D02*
X239317500Y-117792500D01*
%TO.N,Net-(D69-A)*%
X255587500Y-117792500D02*
X258367500Y-117792500D01*
%TO.N,Net-(D70-A)*%
X287256000Y-117792000D02*
X287931000Y-117117000D01*
X284561000Y-117792000D02*
X287256000Y-117792000D01*
X287256000Y-117792000D02*
X287931000Y-117117000D01*
X281781300Y-117792500D02*
X284173000Y-117792500D01*
X284173000Y-117792500D02*
X284561300Y-117792500D01*
X288605500Y-116442500D02*
X288606300Y-116442500D01*
X284173000Y-117792500D02*
X284560500Y-117792500D01*
X287931000Y-117117000D02*
X288605500Y-116442500D01*
X284560500Y-117792500D02*
X284561000Y-117792000D01*
X284561000Y-117792000D02*
X287256000Y-117792000D01*
%TO.N,Net-(D71-A)*%
X320280000Y-122555000D02*
X322975000Y-122555000D01*
X317500000Y-122555000D02*
X320280000Y-122555000D01*
X322975000Y-122555000D02*
X324325000Y-121205000D01*
X320280000Y-122555000D02*
X322975000Y-122555000D01*
X322975000Y-122555000D02*
X324325000Y-121205000D01*
%TO.N,Net-(D72-A)*%
X43656300Y-136842500D02*
X46436300Y-136842500D01*
%TO.N,Net-(D73-A)*%
X67867500Y-136842500D02*
X67867500Y-136842000D01*
X70562500Y-136842000D02*
X71912300Y-135492200D01*
X70562500Y-136842000D02*
X71912300Y-135492200D01*
X67867500Y-136842000D02*
X70562500Y-136842000D01*
X65087500Y-136842500D02*
X67867500Y-136842500D01*
X71912500Y-135492500D02*
X71912300Y-135492300D01*
X71912300Y-135492300D02*
X71912300Y-135492200D01*
X67867500Y-136842000D02*
X70562500Y-136842000D01*
%TO.N,Net-(D74-A)*%
X89298800Y-136842500D02*
X86518800Y-136842500D01*
%TO.N,Net-(D75-A)*%
X157956300Y-136842500D02*
X160736300Y-136842500D01*
%TO.N,Net-(D76-A)*%
X233162800Y-136167200D02*
X230467800Y-136167200D01*
X230467800Y-136167200D02*
X229792500Y-136842500D01*
X229792500Y-136842500D02*
X227012500Y-136842500D01*
X233162800Y-136167200D02*
X233837500Y-135492500D01*
X233162800Y-136167200D02*
X233837500Y-135492500D01*
%TO.N,Net-(D77-A)*%
X248842500Y-136842500D02*
X251537500Y-136842500D01*
X246062500Y-136842500D02*
X248842500Y-136842500D01*
X251537500Y-136842500D02*
X251538000Y-136842000D01*
X252887500Y-135492500D02*
X251538000Y-136842000D01*
%TO.N,Net-(D78-A)*%
X267892500Y-136842500D02*
X270587500Y-136842500D01*
X271937500Y-135492500D02*
X270588000Y-136842000D01*
X270587500Y-136842500D02*
X270588000Y-136842000D01*
X265112500Y-136842500D02*
X267892500Y-136842500D01*
%TO.N,Net-(D79-A)*%
X303925000Y-141605000D02*
X305275000Y-140255000D01*
X301230000Y-141605000D02*
X303925000Y-141605000D01*
X301230000Y-141605000D02*
X303925000Y-141605000D01*
X298450000Y-141605000D02*
X301230000Y-141605000D01*
X303925000Y-141605000D02*
X305275000Y-140255000D01*
%TO.N,Net-(D80-A)*%
X322975000Y-141605000D02*
X324325000Y-140255000D01*
X322975000Y-141605000D02*
X324325000Y-140255000D01*
X320280000Y-141605000D02*
X322975000Y-141605000D01*
X317500000Y-141605000D02*
X320280000Y-141605000D01*
X320280000Y-141605000D02*
X322975000Y-141605000D01*
%TO.N,Net-(D81-A)*%
X342025000Y-141605000D02*
X343375000Y-140255000D01*
X339330000Y-141605000D02*
X342025000Y-141605000D01*
X342025000Y-141605000D02*
X343375000Y-140255000D01*
X339330000Y-141605000D02*
X342025000Y-141605000D01*
X336550000Y-141605000D02*
X339330000Y-141605000D01*
%TO.N,Net-(L1-DOUT)*%
X49696300Y-56273100D02*
X52814400Y-56273100D01*
X133900000Y-50778100D02*
X133900000Y-52700000D01*
X48100000Y-54400000D02*
X48100000Y-54676800D01*
X133399300Y-50277400D02*
X133900000Y-50778100D01*
X48100000Y-54676800D02*
X49696300Y-56273100D01*
%TO.N,VCC*%
X30050900Y-59644000D02*
X35994900Y-53700000D01*
X285513400Y-92192500D02*
X285354400Y-92033500D01*
X120657200Y-99368400D02*
X120657200Y-96899200D01*
X250070300Y-112319700D02*
X250387500Y-112002500D01*
X37400000Y-35975000D02*
X37400000Y-12350000D01*
X211500000Y-84157400D02*
X211500000Y-93500000D01*
X209699000Y-138393887D02*
X213305113Y-142000000D01*
X126733600Y-53900000D02*
X126633600Y-53800000D01*
X286777600Y-92192600D02*
X286777600Y-92192500D01*
X284073400Y-52568600D02*
X285602000Y-52568600D01*
X210000000Y-132899999D02*
X209699000Y-133200999D01*
X279157000Y-102900600D02*
X283634800Y-98422800D01*
X120700300Y-106250200D02*
X120700300Y-103907900D01*
X208237200Y-53269800D02*
X208237200Y-59328800D01*
X287335100Y-141826500D02*
X287335100Y-131802500D01*
X36794900Y-52900000D02*
X41625600Y-52900000D01*
X211043900Y-80097600D02*
X211043900Y-83701300D01*
X286887500Y-92302500D02*
X286777600Y-92192600D01*
X284073400Y-52568600D02*
X283831400Y-52568600D01*
X283831400Y-52568600D02*
X282700000Y-53700000D01*
X219056100Y-93902500D02*
X219187500Y-93902500D01*
X279157000Y-118642800D02*
X279157000Y-102900600D01*
X116525500Y-132002500D02*
X116687500Y-132002500D01*
X171487500Y-112368600D02*
X171487500Y-112602500D01*
X125383300Y-144527900D02*
X115534400Y-134679000D01*
X52719000Y-92171000D02*
X52787500Y-92102500D01*
X210800000Y-132899999D02*
X210000000Y-132899999D01*
X76843700Y-74216600D02*
X76503800Y-74216600D01*
X217825700Y-96593400D02*
X216984200Y-95751900D01*
X127933600Y-52700000D02*
X128700000Y-52700000D01*
X126633600Y-53800000D02*
X123605113Y-53800000D01*
X83056600Y-74556500D02*
X76843700Y-74556500D01*
X52787500Y-88506100D02*
X52787500Y-92102500D01*
X35994900Y-53700000D02*
X36794900Y-52900000D01*
X285602000Y-52568600D02*
X285935900Y-52902500D01*
X210800000Y-132899999D02*
X196100001Y-132899999D01*
X66393200Y-128008200D02*
X64806400Y-128008200D01*
X250918600Y-85347000D02*
X249122400Y-83550800D01*
X172500500Y-111355600D02*
X171487500Y-112368600D01*
X249532000Y-78735500D02*
X249532000Y-74868300D01*
X217825700Y-96593400D02*
X217825700Y-95132900D01*
X169338000Y-112740700D02*
X171349300Y-112740700D01*
X282776900Y-122262700D02*
X279157000Y-118642800D01*
X250387500Y-112002500D02*
X250387500Y-103840900D01*
X34205100Y-94400000D02*
X34205100Y-130200000D01*
X127933600Y-52700000D02*
X127933600Y-39776400D01*
X189900000Y-139100000D02*
X184575200Y-133775200D01*
X120555900Y-99469700D02*
X120657200Y-99368400D01*
X283634800Y-93753100D02*
X285354400Y-92033500D01*
X162974600Y-75430500D02*
X162974600Y-80741200D01*
X177723400Y-74300000D02*
X177359600Y-74663800D01*
X179071000Y-111355600D02*
X172500500Y-111355600D01*
X287335100Y-131802500D02*
X294187500Y-131802500D01*
X255133900Y-73385400D02*
X255214300Y-73305000D01*
X248904400Y-112319700D02*
X248624100Y-112600000D01*
X120123200Y-119058200D02*
X120123200Y-106827300D01*
X126733600Y-53900000D02*
X127933600Y-52700000D01*
X282700000Y-53700000D02*
X279205113Y-53700000D01*
X284073400Y-40835100D02*
X284073400Y-52568600D01*
X169338000Y-112740700D02*
X170155100Y-112740700D01*
X209699000Y-133200999D02*
X209699000Y-138393887D01*
X171349300Y-112740700D02*
X171487500Y-112602500D01*
X68300000Y-74600000D02*
X66796600Y-73096600D01*
X162974600Y-80741200D02*
X165895600Y-83662200D01*
X208237200Y-53269800D02*
X209420200Y-53269800D01*
X122132700Y-121067700D02*
X120123200Y-119058200D01*
X255214300Y-73305000D02*
X255133900Y-73385400D01*
X170658100Y-103632300D02*
X170658100Y-109513200D01*
X196100001Y-132899999D02*
X189900000Y-139100000D01*
X116687500Y-132002500D02*
X116687500Y-131219800D01*
X318437500Y-97562500D02*
X320500000Y-95500000D01*
X285676000Y-60214300D02*
X285676000Y-71587100D01*
X316987500Y-69617613D02*
X321405113Y-65200000D01*
X115534400Y-134679000D02*
X115534400Y-132993600D01*
X287385800Y-73296900D02*
X287385800Y-91804200D01*
X248904400Y-112319700D02*
X250070300Y-112319700D01*
X250983200Y-103245200D02*
X250983200Y-94626200D01*
X315877500Y-95570400D02*
X317869600Y-97562500D01*
X66796600Y-73096600D02*
X65175700Y-73096600D01*
X105840000Y-16620000D02*
X105840000Y-14080000D01*
X281812500Y-19500000D02*
X281812500Y-38574200D01*
X216984200Y-95751900D02*
X217825700Y-96593400D01*
X332899000Y-110913100D02*
X332899000Y-122188600D01*
X163705100Y-74700000D02*
X162974600Y-75430500D01*
X120657200Y-96899200D02*
X117458000Y-93700000D01*
X116687500Y-131219800D02*
X122132700Y-125774600D01*
X210800000Y-132900000D02*
X210643800Y-132900000D01*
X249122400Y-83550800D02*
X249122400Y-79145100D01*
X178700000Y-74300000D02*
X177723400Y-74300000D01*
X250983200Y-94626200D02*
X250918600Y-94561600D01*
X287385800Y-91804200D02*
X286887500Y-92302500D01*
X100760000Y-21700000D02*
X105840000Y-16620000D01*
X325299200Y-95384400D02*
X325299200Y-103313300D01*
X120123200Y-106827300D02*
X120700300Y-106250200D01*
X212600300Y-78541200D02*
X211043900Y-80097600D01*
X57515800Y-80756500D02*
X57515800Y-83777800D01*
X140950000Y-26760000D02*
X144010000Y-23700000D01*
X332200000Y-132000000D02*
X332200000Y-122887600D01*
X316848600Y-75102500D02*
X315877500Y-76073600D01*
X316987500Y-75102499D02*
X316987500Y-69617613D01*
X122132700Y-125774600D02*
X122132700Y-121067700D01*
X285935900Y-59954400D02*
X285676000Y-60214300D01*
X285935900Y-52902500D02*
X291487500Y-52902500D01*
X283634800Y-98422800D02*
X283634800Y-93753100D01*
X117458000Y-93700000D02*
X115900000Y-93700000D01*
X144010000Y-23700000D02*
X144010000Y-17100000D01*
X83056600Y-74556600D02*
X83056600Y-74556500D01*
X170658100Y-109513200D02*
X172500500Y-111355600D01*
X41625600Y-52900000D02*
X48100000Y-52900000D01*
X212600300Y-63691900D02*
X212600300Y-71224200D01*
X67387500Y-129002500D02*
X66393200Y-128008200D01*
X249122400Y-79145100D02*
X249532000Y-78735500D01*
X316500000Y-98932100D02*
X316500000Y-102100000D01*
X83100000Y-74600000D02*
X83056600Y-74556600D01*
X30050900Y-90245800D02*
X30050900Y-59644000D01*
X34205100Y-94400000D02*
X30050900Y-90245800D01*
X285676000Y-71587100D02*
X287385800Y-73296900D01*
X208237200Y-59328800D02*
X212600300Y-63691900D01*
X250387500Y-103840900D02*
X250983200Y-103245200D01*
X281812500Y-38574200D02*
X284073400Y-40835100D01*
X286777600Y-92192500D02*
X285513400Y-92192500D01*
X127272100Y-144527900D02*
X125383300Y-144527900D01*
X76843700Y-74556500D02*
X76503800Y-74216600D01*
X212600300Y-71224200D02*
X212600300Y-78541200D01*
X325520200Y-95163400D02*
X325299200Y-95384400D01*
X248624100Y-112600000D02*
X248904400Y-112319700D01*
X255214300Y-73305000D02*
X255000000Y-73519300D01*
X41625600Y-52900000D02*
X41625600Y-40200600D01*
X76503800Y-74216600D02*
X76843700Y-74216600D01*
X115534400Y-132993600D02*
X116525500Y-132002500D01*
X120555900Y-103763500D02*
X120555900Y-99469700D01*
X184575200Y-116859800D02*
X179071000Y-111355600D01*
X315877500Y-93196600D02*
X315241600Y-93196600D01*
X34205100Y-130200000D02*
X33505100Y-130900000D01*
X316987500Y-75102500D02*
X316848600Y-75102500D01*
X209420200Y-53269800D02*
X210087500Y-52602500D01*
X211043900Y-83701300D02*
X211500000Y-84157400D01*
X282776900Y-127244300D02*
X282776900Y-122262700D01*
X285935900Y-52902500D02*
X285935900Y-59954400D01*
X131500000Y-93000000D02*
X129038600Y-93000000D01*
X315877500Y-76073600D02*
X315877500Y-93196600D01*
X120700300Y-103907900D02*
X120555900Y-103763500D01*
X317869600Y-97562500D02*
X318437500Y-97562500D01*
X287335100Y-131802500D02*
X282776900Y-127244300D01*
X127933600Y-39776400D02*
X140950000Y-26760000D01*
X317869600Y-97562500D02*
X316500000Y-98932100D01*
X129038600Y-93000000D02*
X128337000Y-93701600D01*
X128400000Y-143400000D02*
X127272100Y-144527900D01*
X65175700Y-73096600D02*
X57515800Y-80756500D01*
X165895600Y-83662200D02*
X165895600Y-92171000D01*
X41625600Y-40200600D02*
X37400000Y-35975000D01*
X332200000Y-122887600D02*
X332899000Y-122188600D01*
X255000000Y-73519300D02*
X255000000Y-74300000D01*
X315877500Y-93196600D02*
X315877500Y-95570400D01*
X37400000Y-12350000D02*
X36130000Y-11080000D01*
X165895600Y-98869800D02*
X170658100Y-103632300D01*
X165895600Y-92171000D02*
X165895600Y-98869800D01*
X57515800Y-83777800D02*
X52787500Y-88506100D01*
X332899000Y-122188600D02*
X335188600Y-122188600D01*
X140950000Y-26760000D02*
X144310000Y-23400000D01*
X250918600Y-94561600D02*
X250918600Y-85347000D01*
X217825700Y-95132900D02*
X219056100Y-93902500D01*
X170155100Y-112740700D02*
X169338000Y-112740700D01*
X325299200Y-103313300D02*
X332899000Y-110913100D01*
X49553300Y-92171000D02*
X52719000Y-92171000D01*
X335188600Y-122188600D02*
X336300000Y-123300000D01*
X184575200Y-133775200D02*
X184575200Y-116859800D01*
%TO.N,LED*%
X58536800Y-14368600D02*
X58536800Y-26355300D01*
X53300000Y-31592100D02*
X53300000Y-52900000D01*
X58536800Y-26355300D02*
X53300000Y-31592100D01*
%TO.N,Net-(L2-DOUT)*%
X127410300Y-56262200D02*
X128700000Y-54972500D01*
X214305200Y-51377200D02*
X209543700Y-51377200D01*
X209543700Y-51377200D02*
X208782900Y-52138000D01*
X128700000Y-54972500D02*
X128700000Y-54200000D01*
X215287500Y-52359500D02*
X214305200Y-51377200D01*
X215287500Y-52602500D02*
X215287500Y-52359500D01*
%TO.N,Net-(L3-DOUT)*%
X209879100Y-55525500D02*
X210244900Y-55891300D01*
X209879100Y-54310900D02*
X209879100Y-55525500D01*
X216404100Y-55891300D02*
X217643300Y-54652100D01*
X210244900Y-55891300D02*
X216404100Y-55891300D01*
X298096800Y-50277400D02*
X296687500Y-51686700D01*
X296687500Y-51686700D02*
X296687500Y-52902500D01*
X210087500Y-54102500D02*
X209879100Y-54310900D01*
%TO.N,Net-(L4-DOUT)*%
X260200000Y-74300000D02*
X260786600Y-74300000D01*
X286337600Y-71114300D02*
X286337600Y-59552400D01*
X286337600Y-59552400D02*
X291487500Y-54402500D01*
X286336100Y-71115800D02*
X286337600Y-71114300D01*
X260786600Y-74300000D02*
X263862400Y-71224200D01*
%TO.N,Net-(L5-DOUT)*%
X255000000Y-75800000D02*
X254760600Y-75800000D01*
X185122100Y-73441300D02*
X184758700Y-73441300D01*
X184758700Y-73441300D02*
X183900000Y-74300000D01*
X254760600Y-75800000D02*
X250184800Y-71224200D01*
%TO.N,Net-(L6-DOUT)*%
X178700000Y-75800000D02*
X178353400Y-75453400D01*
X173502000Y-75453400D02*
X172327800Y-76627600D01*
X88483400Y-73581000D02*
X88483400Y-74416600D01*
X178353400Y-75453400D02*
X173502000Y-75453400D01*
X88483400Y-74416600D02*
X88300000Y-74600000D01*
%TO.N,Net-(L7-DOUT)*%
X82441800Y-76100000D02*
X83100000Y-76100000D01*
X66904000Y-75091600D02*
X67561900Y-75749500D01*
X65342000Y-73498300D02*
X66282900Y-73498300D01*
X57958800Y-92073800D02*
X57958800Y-80881500D01*
X69817500Y-75749500D02*
X70556500Y-75010500D01*
X66282900Y-73498300D02*
X66904000Y-74119400D01*
X57958800Y-80881500D02*
X65342000Y-73498300D01*
X81630400Y-75288600D02*
X82441800Y-76100000D01*
X67561900Y-75749500D02*
X69817500Y-75749500D01*
X57987500Y-92102500D02*
X57958800Y-92073800D01*
X66904000Y-74119400D02*
X66904000Y-75091600D01*
%TO.N,Net-(L10-DOUT)*%
X292087500Y-89152600D02*
X292099600Y-89140500D01*
X220239800Y-98404800D02*
X219187500Y-97352500D01*
X219187500Y-97352500D02*
X219187500Y-95402500D01*
X292087500Y-92302500D02*
X292087500Y-89152600D01*
%TO.N,Net-(L10-DIN)*%
X129071500Y-92115500D02*
X129942300Y-92115500D01*
X127654200Y-93916100D02*
X127654200Y-93532800D01*
X131500000Y-94500000D02*
X131309000Y-94309000D01*
X128047100Y-94309000D02*
X127654200Y-93916100D01*
X129942300Y-92115500D02*
X132879200Y-89178600D01*
X223624800Y-89178600D02*
X226228800Y-89178600D01*
X226228800Y-89178600D02*
X223624800Y-89178600D01*
X132879200Y-89178600D02*
X129942300Y-92115500D01*
X127654200Y-93532800D02*
X129071500Y-92115500D01*
X131309000Y-94309000D02*
X128047100Y-94309000D01*
X224387500Y-91019900D02*
X226228800Y-89178600D01*
X224387500Y-93902500D02*
X224387500Y-91019900D01*
%TO.N,Net-(L11-DOUT)*%
X283693200Y-109751300D02*
X284094900Y-109349600D01*
X255587500Y-112002500D02*
X257464600Y-110125400D01*
X284094900Y-109349600D02*
X284094900Y-96595100D01*
X284094900Y-96595100D02*
X286887500Y-93802500D01*
X257464600Y-110125400D02*
X259168300Y-110125400D01*
%TO.N,Net-(L12-DOUT)*%
X250387500Y-114213100D02*
X250387500Y-113502500D01*
X177280100Y-113195100D02*
X176687500Y-112602500D01*
X250184800Y-114415800D02*
X250387500Y-114213100D01*
X178573600Y-113195100D02*
X177280100Y-113195100D01*
%TO.N,Net-(L13-DOUT)*%
X169871500Y-114102500D02*
X169596300Y-113827300D01*
X171487500Y-114102500D02*
X169871500Y-114102500D01*
X72587500Y-129002500D02*
X72587500Y-116985000D01*
X72587500Y-116985000D02*
X74390000Y-115182500D01*
%TO.N,Net-(L14-DOUT)*%
X121887500Y-132002500D02*
X121887500Y-131759400D01*
X67328300Y-131596100D02*
X67387500Y-131536900D01*
X120672100Y-130544000D02*
X118735600Y-130544000D01*
X118735600Y-130544000D02*
X120672100Y-130544000D01*
X121887500Y-131759400D02*
X120672100Y-130544000D01*
X67387500Y-131536900D02*
X67387500Y-130502500D01*
X120672100Y-130544000D02*
X118735600Y-130544000D01*
%TO.N,Net-(L15-DOUT)*%
X116687500Y-133502500D02*
X116687500Y-133741500D01*
X211256300Y-128079800D02*
X211467700Y-128079800D01*
X211467700Y-128079800D02*
X211256300Y-128079800D01*
X216000000Y-132612100D02*
X211467700Y-128079800D01*
X216000000Y-132900000D02*
X216000000Y-132612100D01*
X116687500Y-133741500D02*
X117782700Y-134836700D01*
X211467700Y-128079800D02*
X211256300Y-128079800D01*
X117782700Y-134836700D02*
X121191500Y-134836700D01*
%TO.N,Net-(L18-DOUT)*%
X324524700Y-104124500D02*
X324524700Y-77274700D01*
X324524700Y-77274700D02*
X322352500Y-75102500D01*
X322352500Y-75102500D02*
X322187500Y-75102500D01*
X332110300Y-133500000D02*
X328537800Y-129927500D01*
X328537800Y-108137600D02*
X324524700Y-104124500D01*
X328537800Y-129927500D02*
X328537800Y-108137600D01*
X332200000Y-133500000D02*
X332110300Y-133500000D01*
%TO.N,Net-(L19-DOUT)*%
X317478800Y-96603700D02*
X318454400Y-96603700D01*
X319178600Y-95879500D02*
X319178600Y-94914700D01*
X321276100Y-94394500D02*
X321700000Y-94818400D01*
X319698800Y-94394500D02*
X321276100Y-94394500D01*
X319178600Y-94914700D02*
X319698800Y-94394500D01*
X316987500Y-76602500D02*
X316717600Y-76872400D01*
X316717600Y-95842500D02*
X317478800Y-96603700D01*
X321700000Y-94818400D02*
X321700000Y-102100000D01*
X318454400Y-96603700D02*
X319178600Y-95879500D01*
X316717600Y-76872400D02*
X316717600Y-95842500D01*
%TO.N,Col 1*%
X39746800Y-82291800D02*
X39746800Y-101282500D01*
X34925000Y-39370000D02*
X32150000Y-39370000D01*
X36912500Y-82232500D02*
X39687500Y-82232500D01*
X39687500Y-82232500D02*
X39746800Y-82291800D01*
X44056300Y-132632500D02*
X44056300Y-120332500D01*
X32150000Y-63182500D02*
X34925000Y-63182500D01*
X34925000Y-63182500D02*
X35750300Y-64007800D01*
X37306300Y-139382500D02*
X34531300Y-139382500D01*
X39293800Y-101282500D02*
X39746800Y-101282500D01*
X35750300Y-64007800D02*
X35750300Y-81070300D01*
X37306300Y-139382500D02*
X44056300Y-132632500D01*
X39746800Y-101282500D02*
X42068800Y-101282500D01*
X43299900Y-119576100D02*
X44056300Y-120332500D01*
X28306000Y-43214000D02*
X28306000Y-62247000D01*
X28510000Y-26320000D02*
X32150000Y-29960000D01*
X32150000Y-39370000D02*
X28306000Y-43214000D01*
X42068800Y-101282500D02*
X43299900Y-102513600D01*
X46831300Y-120332500D02*
X44056300Y-120332500D01*
X35750300Y-81070300D02*
X36912500Y-82232500D01*
X32150000Y-29960000D02*
X32150000Y-39370000D01*
X43299900Y-102513600D02*
X43299900Y-119576100D01*
%TO.N,Col 2*%
X75012500Y-120332500D02*
X75012500Y-113432300D01*
X55962500Y-61195000D02*
X55962500Y-39370000D01*
X54449600Y-83193800D02*
X54449600Y-63657100D01*
X68737100Y-101757100D02*
X68262500Y-101282500D01*
X60725000Y-82232500D02*
X63500000Y-82232500D01*
X68262500Y-101282500D02*
X65487500Y-101282500D01*
X77787500Y-120332500D02*
X75012500Y-120332500D01*
X58737500Y-139382500D02*
X58737500Y-108032500D01*
X55962500Y-139382500D02*
X58737500Y-139382500D01*
X53975000Y-63182500D02*
X55962500Y-61195000D01*
X75012500Y-113432300D02*
X68737100Y-107156900D01*
X65487500Y-101282500D02*
X63974600Y-99769600D01*
X63974600Y-82707100D02*
X63500000Y-82232500D01*
X58737500Y-39370000D02*
X55962500Y-39370000D01*
X54449600Y-63657100D02*
X53975000Y-63182500D01*
X68737100Y-107156900D02*
X68737100Y-101757100D01*
X58737500Y-108032500D02*
X65487500Y-101282500D01*
X63974600Y-99769600D02*
X63974600Y-82707100D01*
X51200000Y-63182500D02*
X53975000Y-63182500D01*
%TO.N,Col 3*%
X77787500Y-39370000D02*
X75012500Y-39370000D01*
X79775000Y-79245600D02*
X73031700Y-72502300D01*
X73025000Y-63182500D02*
X73025000Y-41357500D01*
X84537500Y-101282500D02*
X87312500Y-101282500D01*
X73031700Y-72502300D02*
X73031700Y-63189200D01*
X87312500Y-101282500D02*
X88009800Y-101979800D01*
X88009800Y-111906400D02*
X94062500Y-117959100D01*
X73031700Y-63189200D02*
X73025000Y-63182500D01*
X83026100Y-82708600D02*
X82550000Y-82232500D01*
X79775000Y-82232500D02*
X79775000Y-79245600D01*
X88009800Y-101979800D02*
X88009800Y-111906400D01*
X82550000Y-82232500D02*
X79775000Y-82232500D01*
X84537500Y-101282500D02*
X83026100Y-99771100D01*
X73025000Y-63182500D02*
X70250000Y-63182500D01*
X83026100Y-99771100D02*
X83026100Y-82708600D01*
X94062500Y-120332500D02*
X96837500Y-120332500D01*
X73025000Y-41357500D02*
X75012500Y-39370000D01*
X94062500Y-117959100D02*
X94062500Y-120332500D01*
%TO.N,Col 4*%
X113112500Y-120332500D02*
X115887500Y-120332500D01*
X102079100Y-99774100D02*
X102079100Y-82711600D01*
X98825000Y-82232500D02*
X98825000Y-76973900D01*
X92083200Y-63190700D02*
X92075000Y-63182500D01*
X112972100Y-120472900D02*
X112972100Y-133530300D01*
X98825000Y-76973900D02*
X92083200Y-70232100D01*
X106362500Y-101282500D02*
X103587500Y-101282500D01*
X80168800Y-139382500D02*
X77393800Y-139382500D01*
X92075000Y-63182500D02*
X89300000Y-63182500D01*
X94062500Y-61195000D02*
X94062500Y-39370000D01*
X92083200Y-70232100D02*
X92083200Y-63190700D01*
X113316300Y-120128700D02*
X113112500Y-120332500D01*
X113112500Y-120332500D02*
X112972100Y-120472900D01*
X113316300Y-102202300D02*
X113316300Y-120128700D01*
X102079100Y-82711600D02*
X101600000Y-82232500D01*
X103587500Y-101282500D02*
X102079100Y-99774100D01*
X112972100Y-133530300D02*
X107464100Y-139038300D01*
X101600000Y-82232500D02*
X98825000Y-82232500D01*
X92075000Y-63182500D02*
X94062500Y-61195000D01*
X96837500Y-39370000D02*
X94062500Y-39370000D01*
%TO.N,Col 5*%
X111125000Y-63182500D02*
X108350000Y-63182500D01*
X126109800Y-111698600D02*
X126109800Y-101979800D01*
X112437800Y-38695300D02*
X113112500Y-39370000D01*
X120650000Y-82232500D02*
X122058300Y-83640800D01*
X117875000Y-82232500D02*
X120650000Y-82232500D01*
X111125000Y-63182500D02*
X111125000Y-41357500D01*
X122058300Y-83640800D02*
X122058300Y-100703300D01*
X117875000Y-77869700D02*
X111131700Y-71126400D01*
X132162500Y-120332500D02*
X132162500Y-117751300D01*
X117875000Y-82232500D02*
X117875000Y-77869700D01*
X126109800Y-101979800D02*
X125412500Y-101282500D01*
X111131700Y-71126400D02*
X111131700Y-63189200D01*
X111131700Y-63189200D02*
X111125000Y-63182500D01*
X112437800Y-26336600D02*
X112437800Y-38695300D01*
X113112500Y-39370000D02*
X115887500Y-39370000D01*
X122637500Y-101282500D02*
X125412500Y-101282500D01*
X132162500Y-120332500D02*
X134937500Y-120332500D01*
X132162500Y-117751300D02*
X126109800Y-111698600D01*
X111125000Y-41357500D02*
X113112500Y-39370000D01*
X122058300Y-100703300D02*
X122637500Y-101282500D01*
%TO.N,Col 6*%
X136925000Y-82232500D02*
X139700000Y-82232500D01*
X136925000Y-57072200D02*
X130814700Y-63182500D01*
X153987500Y-120332500D02*
X151212500Y-120332500D01*
X139700000Y-82232500D02*
X140174600Y-82707100D01*
X139700000Y-39370000D02*
X136925000Y-39370000D01*
X141687500Y-101282500D02*
X144462500Y-101282500D01*
X151212500Y-120332500D02*
X151212500Y-115969600D01*
X151212500Y-115969600D02*
X144937100Y-109694200D01*
X130814700Y-63182500D02*
X130814700Y-70443400D01*
X127400000Y-63182500D02*
X130175000Y-63182500D01*
X136925000Y-39370000D02*
X136925000Y-57072200D01*
X136925000Y-76553700D02*
X136925000Y-82232500D01*
X140174600Y-99769600D02*
X141687500Y-101282500D01*
X130814700Y-70443400D02*
X136925000Y-76553700D01*
X144937100Y-101757100D02*
X144462500Y-101282500D01*
X144937100Y-109694200D02*
X144937100Y-101757100D01*
X140174600Y-82707100D02*
X140174600Y-99769600D01*
X130814700Y-63182500D02*
X130175000Y-63182500D01*
%TO.N,Col 7*%
X155975000Y-43546500D02*
X155975000Y-39370000D01*
X151606300Y-137131600D02*
X168405400Y-120332500D01*
X163749800Y-101519800D02*
X163512500Y-101282500D01*
X168405400Y-114112600D02*
X163749800Y-109457000D01*
X149922300Y-64801900D02*
X149922300Y-49599200D01*
X149922300Y-73806400D02*
X155975000Y-79859100D01*
X159447300Y-99992300D02*
X160737500Y-101282500D01*
X168405400Y-120332500D02*
X170262500Y-120332500D01*
X155975000Y-79859100D02*
X155975000Y-82232500D01*
X159447300Y-82929800D02*
X159447300Y-99992300D01*
X149922300Y-63879800D02*
X149922300Y-64801900D01*
X173037500Y-120332500D02*
X170262500Y-120332500D01*
X163512500Y-101282500D02*
X160737500Y-101282500D01*
X168405400Y-120332500D02*
X168405400Y-114112600D01*
X146450000Y-63182500D02*
X149225000Y-63182500D01*
X163749800Y-109457000D02*
X163749800Y-101519800D01*
X149225000Y-63182500D02*
X149922300Y-63879800D01*
X151606300Y-139382500D02*
X148831300Y-139382500D01*
X149922300Y-49599200D02*
X155975000Y-43546500D01*
X158750000Y-82232500D02*
X159447300Y-82929800D01*
X155975000Y-82232500D02*
X158750000Y-82232500D01*
X151606300Y-139382500D02*
X151606300Y-137131600D01*
X158750000Y-39370000D02*
X155975000Y-39370000D01*
X149922300Y-64801900D02*
X149922300Y-73806400D01*
%TO.N,Col 8*%
X168749600Y-63657100D02*
X168275000Y-63182500D01*
X178274600Y-82707100D02*
X177800000Y-82232500D01*
X175025000Y-82232500D02*
X175025000Y-79831000D01*
X172429100Y-77235100D02*
X172056200Y-77235100D01*
X168749600Y-63744000D02*
X168749600Y-49821900D01*
X183037100Y-111638200D02*
X183037100Y-101757100D01*
X177800000Y-39370000D02*
X175025000Y-39370000D01*
X168749600Y-73928500D02*
X168749600Y-63744000D01*
X168275000Y-63182500D02*
X165500000Y-63182500D01*
X179787500Y-101282500D02*
X178274600Y-99769600D01*
X189312500Y-120332500D02*
X189312500Y-117913600D01*
X189312500Y-120332500D02*
X192087500Y-120332500D01*
X179787500Y-101282500D02*
X182562500Y-101282500D01*
X175025000Y-79831000D02*
X172429100Y-77235100D01*
X178274600Y-99769600D02*
X178274600Y-82707100D01*
X172056200Y-77235100D02*
X168749600Y-73928500D01*
X175025000Y-43546500D02*
X175025000Y-39370000D01*
X183037100Y-101757100D02*
X182562500Y-101282500D01*
X189312500Y-117913600D02*
X183037100Y-111638200D01*
X177800000Y-82232500D02*
X175025000Y-82232500D01*
X168749600Y-63744000D02*
X168749600Y-63657100D01*
X168749600Y-49821900D02*
X175025000Y-43546500D01*
%TO.N,Col 9*%
X194075000Y-39370000D02*
X194075000Y-50916700D01*
X193896500Y-62962800D02*
X194075000Y-63141300D01*
X196850000Y-39370000D02*
X194075000Y-39370000D01*
X194075000Y-82232500D02*
X196850000Y-82232500D01*
X198837500Y-101282500D02*
X201612500Y-101282500D01*
X194075000Y-50916700D02*
X187325000Y-57666700D01*
X202087100Y-111638200D02*
X202087100Y-101757100D01*
X187325000Y-57666700D02*
X187325000Y-63182500D01*
X208362500Y-117913600D02*
X202087100Y-111638200D01*
X202087100Y-101757100D02*
X201612500Y-101282500D01*
X190294800Y-14368600D02*
X194075000Y-18148800D01*
X208362500Y-120332500D02*
X208362500Y-117913600D01*
X197324600Y-99769600D02*
X198837500Y-101282500D01*
X184550000Y-63182500D02*
X187325000Y-63182500D01*
X196850000Y-82232500D02*
X197324600Y-82707100D01*
X194075000Y-63141300D02*
X194075000Y-82232500D01*
X194075000Y-18148800D02*
X194075000Y-39370000D01*
X197324600Y-82707100D02*
X197324600Y-99769600D01*
X208362500Y-120332500D02*
X211137500Y-120332500D01*
%TO.N,RE_SW_1*%
X92082500Y-29705600D02*
X86790000Y-24413100D01*
X91559700Y-41498000D02*
X91559700Y-36440900D01*
X92082500Y-35918100D02*
X92082500Y-29705600D01*
X92075000Y-42013300D02*
X91559700Y-41498000D01*
X91559700Y-36440900D02*
X92082500Y-35918100D01*
X86790000Y-15350000D02*
X85520000Y-14080000D01*
X86790000Y-24413100D02*
X86790000Y-15350000D01*
X91589200Y-44976300D02*
X92075000Y-44490500D01*
X92075000Y-44490500D02*
X92075000Y-42013300D01*
%TO.N,RE_SW_2*%
X322187500Y-76602500D02*
X322187500Y-93841400D01*
X224387500Y-95402500D02*
X224387500Y-96671600D01*
X322837100Y-103600000D02*
X322837100Y-94491000D01*
X290842800Y-84765700D02*
X293189500Y-87112400D01*
X261145600Y-88445600D02*
X266100000Y-93400000D01*
X254290100Y-115043000D02*
X249926100Y-115043000D01*
X322187500Y-93841400D02*
X319658600Y-93841400D01*
X127115400Y-113555100D02*
X127115400Y-128494100D01*
X255587500Y-113745600D02*
X254290100Y-115043000D01*
X125404000Y-56875700D02*
X125404000Y-60809200D01*
X120051900Y-20671900D02*
X120051900Y-37818500D01*
X222343600Y-128190900D02*
X216134500Y-134400000D01*
X337400000Y-133500000D02*
X337524200Y-133500000D01*
X127252500Y-94082400D02*
X128866200Y-95696100D01*
X180183100Y-122682300D02*
X180183100Y-131883100D01*
X323000000Y-54900000D02*
X318905113Y-58994887D01*
X337400000Y-134649500D02*
X337400000Y-133500000D01*
X113460000Y-14080000D02*
X120051900Y-20671900D01*
X215287500Y-54336200D02*
X214306000Y-55317700D01*
X295542800Y-55813500D02*
X291670300Y-55813500D01*
X89695600Y-84582300D02*
X89695600Y-90851400D01*
X125404000Y-56875700D02*
X131484400Y-56875700D01*
X192112800Y-77819000D02*
X192112800Y-80010700D01*
X216134500Y-134400000D02*
X216000000Y-134400000D01*
X260200000Y-75800000D02*
X260200000Y-76075500D01*
X125404000Y-60809200D02*
X123183300Y-63029900D01*
X293189500Y-92171000D02*
X295102300Y-92171000D01*
X215287500Y-54102500D02*
X215287500Y-54336200D01*
X318905113Y-58994887D02*
X318905113Y-65200000D01*
X108380000Y-16620000D02*
X108380000Y-14080000D01*
X187311800Y-73018000D02*
X193567500Y-66762300D01*
X124180813Y-56875700D02*
X121105113Y-53800000D01*
X128866200Y-95696100D02*
X135747100Y-95696100D01*
X214306000Y-55317700D02*
X210549400Y-55317700D01*
X290842800Y-70054500D02*
X290842800Y-84765700D01*
X292225400Y-93802500D02*
X292087500Y-93802500D01*
X224387500Y-100211700D02*
X227808100Y-103632300D01*
X123183300Y-79970000D02*
X127252500Y-84039200D01*
X177054200Y-115698700D02*
X177054200Y-119553400D01*
X73847000Y-127587900D02*
X73624200Y-127365100D01*
X334750000Y-47100000D02*
X336651700Y-47100000D01*
X327250000Y-41500000D02*
X332848300Y-47098300D01*
X334750000Y-35900000D02*
X336651700Y-35900000D01*
X41191000Y-46003900D02*
X33494900Y-53700000D01*
X88300000Y-76100000D02*
X88300000Y-76357400D01*
X136700000Y-94621600D02*
X136700000Y-112811600D01*
X334750000Y-47100000D02*
X332848300Y-47100000D01*
X59139700Y-84862100D02*
X58613200Y-84335600D01*
X127252500Y-84039200D02*
X127252500Y-89178600D01*
X29617400Y-92312300D02*
X29617400Y-74216600D01*
X58613200Y-80993300D02*
X65006500Y-74600000D01*
X325744700Y-106507600D02*
X325744700Y-121391400D01*
X53300000Y-54400000D02*
X53468800Y-54568800D01*
X121887500Y-133502500D02*
X121997200Y-133612200D01*
X88300000Y-76357400D02*
X87248100Y-77409300D01*
X227808100Y-103632300D02*
X227808100Y-108592900D01*
X241371000Y-97225100D02*
X247140400Y-102994500D01*
X131484400Y-56875700D02*
X133900000Y-54460100D01*
X210492500Y-55260800D02*
X210549400Y-55260800D01*
X258224800Y-81659600D02*
X261145600Y-84580400D01*
X193567500Y-63709100D02*
X191560100Y-61701700D01*
X86793400Y-81680100D02*
X89695600Y-84582300D01*
X260200000Y-76075500D02*
X258741600Y-77533900D01*
X121997200Y-133612200D02*
X121997300Y-133612200D01*
X87248100Y-77409300D02*
X86793400Y-77409300D01*
X183900000Y-76032100D02*
X182928400Y-77003700D01*
X291670300Y-55813500D02*
X287201900Y-60281900D01*
X192112800Y-80010700D02*
X191976000Y-80147500D01*
X193567500Y-66762300D02*
X193567500Y-63709100D01*
X127115400Y-128494100D02*
X121997300Y-133612200D01*
X176687500Y-115332000D02*
X177054200Y-115698700D01*
X121105113Y-48794887D02*
X121105113Y-53800000D01*
X72697400Y-130502500D02*
X73847000Y-129352900D01*
X222343600Y-122071600D02*
X222343600Y-128190900D01*
X59139700Y-92612300D02*
X59139700Y-84862100D01*
X237405100Y-74600000D02*
X237405100Y-78783700D01*
X31705100Y-94400000D02*
X29617400Y-92312300D01*
X58149500Y-93602500D02*
X59139700Y-92612300D01*
X231815200Y-112600000D02*
X222343600Y-122071600D01*
X180183100Y-131883100D02*
X190300000Y-142000000D01*
X196005600Y-87827100D02*
X196005600Y-92969100D01*
X120051900Y-37818500D02*
X122135100Y-39901700D01*
X136700000Y-112811600D02*
X136393800Y-113117800D01*
X31050000Y-11080000D02*
X33590000Y-13620000D01*
X321700000Y-103600000D02*
X322837100Y-103600000D01*
X323000000Y-41500000D02*
X327250000Y-41500000D01*
X210549400Y-55260800D02*
X210492500Y-55260800D01*
X57987500Y-93602500D02*
X58149500Y-93602500D01*
X183900000Y-75800000D02*
X184529800Y-75800000D01*
X293189500Y-92838400D02*
X292225400Y-93802500D01*
X176687500Y-114102500D02*
X176687500Y-115332000D01*
X337274000Y-134775500D02*
X337400000Y-134649500D01*
X178308200Y-77003700D02*
X177359600Y-76055100D01*
X296687500Y-54402500D02*
X296687500Y-54668800D01*
X249926100Y-115043000D02*
X247140400Y-112257300D01*
X183900000Y-75800000D02*
X183900000Y-76032100D01*
X293189500Y-92171000D02*
X293189500Y-92838400D01*
X338510900Y-128010900D02*
X333800000Y-123300000D01*
X299357100Y-133332900D02*
X299387500Y-133302500D01*
X296372800Y-54983500D02*
X297563200Y-56174000D01*
X103300000Y-21700000D02*
X108380000Y-16620000D01*
X237405100Y-78783700D02*
X241371000Y-82749600D01*
X191976000Y-80147500D02*
X191976000Y-83797500D01*
X247140400Y-102994500D02*
X247140400Y-111912300D01*
X191976000Y-83797500D02*
X196005600Y-87827100D01*
X338510900Y-132513300D02*
X338510900Y-128010900D01*
X122135100Y-47764900D02*
X121105113Y-48794887D01*
X232905100Y-112600000D02*
X231815200Y-112600000D01*
X125404000Y-56875700D02*
X124180813Y-56875700D01*
X177054200Y-119553400D02*
X180183100Y-122682300D01*
X73624200Y-127365100D02*
X73847000Y-127587900D01*
X29617400Y-57577500D02*
X33494900Y-53700000D01*
X86793400Y-77409300D02*
X82744800Y-77409300D01*
X58613200Y-84335600D02*
X58613200Y-80993300D01*
X73847000Y-129352900D02*
X73847000Y-127587900D01*
X135747100Y-95696100D02*
X136700000Y-94743200D01*
X53468800Y-56697700D02*
X46558800Y-63607700D01*
X36130000Y-26320000D02*
X36130000Y-35472900D01*
X216346700Y-136153400D02*
X216000000Y-135806700D01*
X184529800Y-75800000D02*
X187311800Y-73018000D01*
X36130000Y-35472900D02*
X41191000Y-40533900D01*
X121997300Y-139497300D02*
X125900000Y-143400000D01*
X332848300Y-47098300D02*
X332848300Y-47100000D01*
X216000000Y-135806700D02*
X216000000Y-134400000D01*
X194900000Y-53400000D02*
X199405113Y-53400000D01*
X86793400Y-77409300D02*
X86793400Y-81680100D01*
X224387500Y-96671600D02*
X224387500Y-100211700D01*
X65006500Y-74600000D02*
X65800000Y-74600000D01*
X136700000Y-94743200D02*
X136700000Y-94621600D01*
X323000000Y-16900000D02*
X323000000Y-41500000D01*
X33590000Y-13620000D02*
X33590000Y-26320000D01*
X89695600Y-90851400D02*
X91476300Y-92632100D01*
X337524200Y-133500000D02*
X338510900Y-132513300D01*
X241371000Y-82749600D02*
X241371000Y-97225100D01*
X182928400Y-77003700D02*
X178308200Y-77003700D01*
X190300000Y-142000000D02*
X210805113Y-142000000D01*
X287201900Y-66413600D02*
X290842800Y-70054500D01*
X191560100Y-56739900D02*
X194900000Y-53400000D01*
X31005100Y-130900000D02*
X31005100Y-95100000D01*
X127252500Y-89178600D02*
X127252500Y-94082400D01*
X322837100Y-103600000D02*
X325744700Y-106507600D01*
X322837100Y-94491000D02*
X322187500Y-93841400D01*
X296372800Y-54983500D02*
X295542800Y-55813500D01*
X191560100Y-61701700D02*
X191560100Y-56739900D01*
X287201900Y-60281900D02*
X287201900Y-66413600D01*
X299357100Y-139276000D02*
X299357100Y-133332900D01*
X31005100Y-95100000D02*
X31705100Y-94400000D01*
X133900000Y-54460100D02*
X133900000Y-54200000D01*
X258224800Y-78050700D02*
X258224800Y-81659600D01*
X123183300Y-63029900D02*
X123183300Y-79970000D01*
X53468800Y-54568800D02*
X53468800Y-56697700D01*
X261145600Y-84580400D02*
X261145600Y-88445600D01*
X293189500Y-87112400D02*
X293189500Y-92171000D01*
X122135100Y-39901700D02*
X122135100Y-47764900D01*
X72587500Y-130502500D02*
X72697400Y-130502500D01*
X210549400Y-55317700D02*
X210492500Y-55260800D01*
X29617400Y-74216600D02*
X28522800Y-74216600D01*
X41191000Y-40533900D02*
X41191000Y-46003900D01*
X296687500Y-54668800D02*
X296372800Y-54983500D01*
X126962400Y-113402100D02*
X127115400Y-113555100D01*
X319658600Y-93841400D02*
X318000000Y-95500000D01*
X121997300Y-133612200D02*
X121997300Y-139497300D01*
X29617400Y-74216600D02*
X29617400Y-57577500D01*
X227808100Y-108592900D02*
X231815200Y-112600000D01*
X336651700Y-47100000D02*
X336651700Y-35900000D01*
X136700000Y-94500000D02*
X136700000Y-94621600D01*
X187311800Y-73018000D02*
X192112800Y-77819000D01*
X247140400Y-112257300D02*
X247140400Y-111912300D01*
X46558800Y-63607700D02*
X46558800Y-74216600D01*
X258741600Y-77533900D02*
X258224800Y-78050700D01*
X255587500Y-113502500D02*
X255587500Y-113745600D01*
X323000000Y-41500000D02*
X323000000Y-54900000D01*
%TO.N,Col 10*%
X215740500Y-39370000D02*
X206375000Y-48735500D01*
X213125000Y-82232500D02*
X215900000Y-82232500D01*
X227412500Y-120332500D02*
X230187500Y-120332500D01*
X217887500Y-101282500D02*
X220662500Y-101282500D01*
X213214900Y-63195600D02*
X213112100Y-63092800D01*
X221137100Y-101757100D02*
X220662500Y-101282500D01*
X215740500Y-20143600D02*
X204890500Y-9293600D01*
X221137100Y-109694300D02*
X221137100Y-101757100D01*
X216370600Y-99765600D02*
X217887500Y-101282500D01*
X203600000Y-63182500D02*
X206375000Y-63182500D01*
X206375000Y-48735500D02*
X206375000Y-63182500D01*
X213125000Y-82232500D02*
X213214900Y-82142600D01*
X215900000Y-82232500D02*
X216370600Y-82703100D01*
X217887500Y-39370000D02*
X215740500Y-39370000D01*
X222714700Y-111271900D02*
X221137100Y-109694300D01*
X220662500Y-39370000D02*
X217887500Y-39370000D01*
X220662500Y-139382500D02*
X217887500Y-139382500D01*
X220662500Y-139382500D02*
X227412500Y-132632500D01*
X215740500Y-39370000D02*
X215740500Y-20143600D01*
X216370600Y-82703100D02*
X216370600Y-99765600D01*
X227412500Y-132632500D02*
X227412500Y-120332500D01*
X213214900Y-82142600D02*
X213214900Y-63195600D01*
X222714700Y-117010700D02*
X222714700Y-111271900D01*
%TO.N,Col 11*%
X226252700Y-64801900D02*
X226252700Y-73847300D01*
X226252700Y-54231300D02*
X236937500Y-43546500D01*
X226252700Y-64801900D02*
X226252700Y-54231300D01*
X246462500Y-120332500D02*
X246462500Y-115969600D01*
X235424600Y-82707100D02*
X234950000Y-82232500D01*
X236937500Y-43546500D02*
X236937500Y-39370000D01*
X239712500Y-101282500D02*
X236937500Y-101282500D01*
X226252700Y-73847300D02*
X232175000Y-79769600D01*
X239949800Y-109456900D02*
X239949800Y-101519800D01*
X249237500Y-120332500D02*
X246462500Y-120332500D01*
X236937500Y-39370000D02*
X236937500Y-28067600D01*
X226252700Y-64010200D02*
X226252700Y-64801900D01*
X225425000Y-63182500D02*
X226252700Y-64010200D01*
X239712500Y-39370000D02*
X236937500Y-39370000D01*
X239949800Y-101519800D02*
X239712500Y-101282500D01*
X222650000Y-63182500D02*
X225425000Y-63182500D01*
X232175000Y-82232500D02*
X234950000Y-82232500D01*
X232175000Y-79769600D02*
X232175000Y-82232500D01*
X239712500Y-139382500D02*
X236937500Y-139382500D01*
X236937500Y-28067600D02*
X221578200Y-12708300D01*
X246462500Y-115969600D02*
X239949800Y-109456900D01*
X246462500Y-132632500D02*
X246462500Y-120332500D01*
X235424600Y-99769600D02*
X235424600Y-82707100D01*
X236937500Y-101282500D02*
X235424600Y-99769600D01*
X239712500Y-139382500D02*
X246462500Y-132632500D01*
%TO.N,Col 12*%
X259237100Y-108316500D02*
X260489500Y-109568900D01*
X245426800Y-63182500D02*
X244475000Y-63182500D01*
X241700000Y-63182500D02*
X244475000Y-63182500D01*
X245426800Y-69912200D02*
X245426800Y-63182500D01*
X255987500Y-18823500D02*
X247190300Y-10026300D01*
X259237100Y-101757100D02*
X259237100Y-108316500D01*
X255987500Y-39370000D02*
X255987500Y-18823500D01*
X260489500Y-137655500D02*
X260489500Y-119821100D01*
X260489500Y-109568900D02*
X260489500Y-119821100D01*
X254000000Y-82232500D02*
X251225000Y-82232500D01*
X245426800Y-62230700D02*
X245426800Y-63182500D01*
X251225000Y-75710400D02*
X245426800Y-69912200D01*
X258762500Y-101282500D02*
X255987500Y-101282500D01*
X255987500Y-39370000D02*
X255987500Y-51670000D01*
X251225000Y-82232500D02*
X251225000Y-75710400D01*
X258762500Y-139382500D02*
X255987500Y-139382500D01*
X254474600Y-99769600D02*
X254474600Y-82707100D01*
X258762500Y-101282500D02*
X259237100Y-101757100D01*
X255987500Y-101282500D02*
X254474600Y-99769600D01*
X275431300Y-120332500D02*
X272656300Y-120332500D01*
X258762500Y-39370000D02*
X255987500Y-39370000D01*
X258762500Y-139382500D02*
X260489500Y-137655500D01*
X254474600Y-82707100D02*
X254000000Y-82232500D01*
X255987500Y-51670000D02*
X245426800Y-62230700D01*
%TO.N,Col 13*%
X264464100Y-63481900D02*
X264164700Y-63182500D01*
X264464100Y-74048200D02*
X264464100Y-63481900D01*
X282175200Y-137517400D02*
X288802800Y-144145000D01*
X273099400Y-113255400D02*
X282175200Y-122331200D01*
X275037500Y-39370000D02*
X275037500Y-52309700D01*
X264164700Y-63182500D02*
X263525000Y-63182500D01*
X273099400Y-82281900D02*
X273099400Y-113255400D01*
X270275000Y-82232500D02*
X270275000Y-79859100D01*
X288802800Y-144145000D02*
X289325000Y-144145000D01*
X273050000Y-82232500D02*
X273099400Y-82281900D01*
X270275000Y-79859100D02*
X264464100Y-74048200D01*
X275037500Y-14691600D02*
X275037500Y-39370000D01*
X289325000Y-144145000D02*
X292100000Y-144145000D01*
X282175200Y-122331200D02*
X282175200Y-137517400D01*
X277812500Y-39370000D02*
X275037500Y-39370000D01*
X263525000Y-63182500D02*
X260750000Y-63182500D01*
X275037500Y-52309700D02*
X264164700Y-63182500D01*
X270275000Y-82232500D02*
X273050000Y-82232500D01*
X272055400Y-11709500D02*
X275037500Y-14691600D01*
%TO.N,Col 14*%
X292574600Y-63182500D02*
X292574600Y-80719600D01*
X296862500Y-82232500D02*
X294087500Y-82232500D01*
X296921800Y-95247500D02*
X295753800Y-95247500D01*
X308375000Y-144145000D02*
X308375000Y-128515500D01*
X298850000Y-30088000D02*
X292107800Y-23345800D01*
X289325000Y-63182500D02*
X292100000Y-63182500D01*
X298850000Y-39370000D02*
X301625000Y-39370000D01*
X292574600Y-80719600D02*
X294087500Y-82232500D01*
X308375000Y-128515500D02*
X301701100Y-121841600D01*
X295753800Y-95247500D02*
X289718800Y-101282500D01*
X298850000Y-39370000D02*
X298850000Y-30088000D01*
X298767300Y-95247500D02*
X296921800Y-95247500D01*
X301701100Y-121841600D02*
X301701100Y-98181300D01*
X298850000Y-56907100D02*
X292574600Y-63182500D01*
X298850000Y-39370000D02*
X298850000Y-56907100D01*
X301701100Y-98181300D02*
X298767300Y-95247500D01*
X289718800Y-101282500D02*
X286943800Y-101282500D01*
X308375000Y-144145000D02*
X311150000Y-144145000D01*
X296921800Y-82291800D02*
X296862500Y-82232500D01*
X296921800Y-95247500D02*
X296921800Y-82291800D01*
X292100000Y-63182500D02*
X292574600Y-63182500D01*
%TO.N,Col 15*%
X327425000Y-63182500D02*
X327425000Y-82232500D01*
X327425000Y-136854900D02*
X327425000Y-144145000D01*
X318295600Y-127547800D02*
X318295600Y-127725500D01*
X327425000Y-101282500D02*
X330200000Y-101282500D01*
X327425000Y-82232500D02*
X330200000Y-82232500D01*
X311150000Y-125095000D02*
X315842800Y-125095000D01*
X326360600Y-123184800D02*
X326360600Y-106541900D01*
X330232900Y-82265400D02*
X330232900Y-101249600D01*
X327425000Y-63182500D02*
X330200000Y-63182500D01*
X318295600Y-127725500D02*
X320057800Y-129487600D01*
X52714600Y-44510900D02*
X52125300Y-45100200D01*
X323923000Y-104104300D02*
X323923000Y-101148200D01*
X308375000Y-125095000D02*
X311150000Y-125095000D01*
X330232900Y-101249600D02*
X330200000Y-101282500D01*
X53910000Y-11080000D02*
X52714600Y-12275400D01*
X330200000Y-144145000D02*
X327425000Y-144145000D01*
X320057800Y-129487600D02*
X326360600Y-123184800D01*
X320057800Y-129487600D02*
X327425000Y-136854900D01*
X326360600Y-106541900D02*
X323923000Y-104104300D01*
X52714600Y-12275400D02*
X52714600Y-44510900D01*
X330200000Y-82232500D02*
X330232900Y-82265400D01*
X315842800Y-125095000D02*
X318295600Y-127547800D01*
%TO.N,Net-(L8-DOUT)*%
X137813700Y-95761200D02*
X137345500Y-96229400D01*
X53154200Y-95799600D02*
X52787500Y-95432900D01*
X136837100Y-93000000D02*
X137813700Y-93976600D01*
X136700000Y-93000000D02*
X136837100Y-93000000D01*
X137813700Y-93976600D02*
X137813700Y-95761200D01*
X52787500Y-95432900D02*
X52787500Y-93602500D01*
%TO.N,Net-(L16-DOUT)*%
X210800000Y-134400000D02*
X210800000Y-134630500D01*
X213015600Y-136846100D02*
X217245300Y-136846100D01*
X299866800Y-130484100D02*
X299387500Y-130963400D01*
X299387500Y-130963400D02*
X299387500Y-131802500D01*
X210800000Y-134630500D02*
X213015600Y-136846100D01*
%TO.N,Net-(L17-DOUT)*%
X336240900Y-130572200D02*
X334523400Y-130572200D01*
X337400000Y-132000000D02*
X337400000Y-131731300D01*
X337400000Y-131731300D02*
X336240900Y-130572200D01*
X294187500Y-134299200D02*
X294187500Y-133302500D01*
X294488800Y-134600500D02*
X294187500Y-134299200D01*
%TD*%
M02*
