M48
METRIC
T1C0.300
T2C0.762
T3C0.800
T4C0.900
T5C1.000
T6C1.092
T7C1.500
T8C3.050
%
G90
G05
T1
X28.306Y-62.247
X28.523Y-74.217
X46.559Y-74.217
X49.553Y-92.171
X52.125Y-45.1
X52.814Y-56.273
X53.154Y-95.8
X54.45Y-83.194
X58.537Y-14.369
X64.806Y-128.008
X67.328Y-131.596
X70.556Y-75.01
X73.847Y-127.588
X74.39Y-115.182
X76.504Y-21.083
X76.504Y-74.217
X81.63Y-75.289
X82.745Y-77.409
X88.483Y-73.581
X91.476Y-92.632
X91.589Y-44.976
X107.464Y-139.038
X112.438Y-26.337
X113.316Y-102.202
X118.736Y-130.544
X121.191Y-134.837
X126.962Y-113.402
X127.252Y-89.179
X127.41Y-56.262
X128.337Y-93.702
X129.942Y-92.115
X133.399Y-50.277
X136.394Y-113.118
X137.345Y-96.229
X165.896Y-92.171
X169.338Y-112.741
X169.596Y-113.827
X172.328Y-76.628
X177.054Y-115.699
X177.36Y-74.664
X177.36Y-76.055
X178.574Y-113.195
X185.122Y-73.441
X190.295Y-14.369
X193.897Y-62.963
X196.006Y-92.969
X204.891Y-9.294
X208.237Y-53.27
X208.783Y-52.138
X210.492Y-55.261
X211.256Y-128.08
X212.6Y-71.224
X213.112Y-63.093
X216.347Y-136.153
X217.245Y-136.846
X217.643Y-54.652
X217.826Y-96.593
X220.24Y-98.405
X221.578Y-12.708
X222.715Y-117.011
X224.387Y-96.672
X226.229Y-89.179
X247.14Y-111.912
X247.19Y-10.026
X248.904Y-112.32
X249.532Y-74.868
X250.185Y-71.224
X250.185Y-114.416
X250.919Y-94.562
X255.214Y-73.305
X258.742Y-77.534
X259.168Y-110.125
X260.489Y-119.821
X263.862Y-71.224
X272.055Y-11.71
X283.693Y-109.751
X285.354Y-92.033
X286.336Y-71.116
X287.335Y-141.826
X291.67Y-55.813
X292.1Y-89.141
X292.108Y-23.346
X294.489Y-134.6
X295.102Y-92.171
X297.563Y-56.174
X298.097Y-50.277
X299.357Y-139.276
X299.867Y-130.484
X315.242Y-93.197
X323.923Y-101.148
X325.52Y-95.163
X325.745Y-121.391
X334.523Y-130.572
X337.274Y-134.775
T2
X320.46Y-16.9
X323.0Y-16.9
T3
X31.005Y-130.9
X31.705Y-94.4
X33.495Y-53.7
X33.505Y-130.9
X34.205Y-94.4
X35.995Y-53.7
X48.1Y-35.48
X48.1Y-43.1
X48.1Y-59.292
X48.1Y-66.912
X50.481Y-135.493
X50.481Y-143.112
X52.862Y-78.343
X52.862Y-85.962
X55.244Y-97.392
X55.244Y-105.012
X65.8Y-74.6
X66.595Y-19.1
X67.15Y-59.292
X67.15Y-66.912
X68.3Y-74.6
X69.095Y-19.1
X69.2Y-116.69
X69.2Y-124.31
X71.912Y-35.48
X71.912Y-43.1
X71.912Y-135.493
X71.912Y-143.112
X76.675Y-78.343
X76.675Y-85.962
X80.44Y-14.08
X80.44Y-21.7
X81.438Y-97.392
X81.438Y-105.012
X82.98Y-14.08
X82.98Y-21.7
X85.52Y-14.08
X85.52Y-21.7
X86.2Y-59.292
X86.2Y-66.912
X88.06Y-14.08
X88.06Y-21.7
X90.6Y-14.08
X90.6Y-21.7
X90.962Y-35.48
X90.962Y-43.1
X90.962Y-116.442
X90.962Y-124.062
X93.14Y-14.08
X93.14Y-21.7
X93.344Y-135.493
X93.344Y-143.112
X95.68Y-14.08
X95.68Y-21.7
X95.725Y-78.343
X95.725Y-85.962
X98.22Y-14.08
X98.22Y-21.7
X100.487Y-97.392
X100.487Y-105.012
X100.76Y-14.08
X100.76Y-21.7
X103.3Y-14.08
X103.3Y-21.7
X105.25Y-59.292
X105.25Y-66.912
X105.84Y-14.08
X105.84Y-21.7
X108.38Y-14.08
X108.38Y-21.7
X110.012Y-35.48
X110.012Y-43.1
X110.012Y-116.442
X110.012Y-124.062
X110.92Y-14.08
X110.92Y-21.7
X113.4Y-93.7
X113.46Y-14.08
X113.46Y-21.7
X114.775Y-78.343
X114.775Y-85.962
X115.9Y-93.7
X119.537Y-97.392
X119.537Y-105.012
X121.105Y-53.8
X123.605Y-53.8
X124.3Y-59.292
X124.3Y-66.912
X125.9Y-143.4
X128.4Y-143.4
X129.062Y-35.48
X129.062Y-43.1
X129.062Y-116.442
X129.062Y-124.062
X133.825Y-78.343
X133.825Y-85.962
X136.39Y-17.1
X136.69Y-23.4
X138.588Y-97.392
X138.588Y-105.012
X143.35Y-59.292
X143.35Y-66.912
X144.01Y-17.1
X144.31Y-23.4
X148.112Y-116.442
X148.112Y-124.062
X152.875Y-35.48
X152.875Y-43.1
X152.875Y-78.343
X152.875Y-85.962
X156.2Y-112.8
X157.637Y-97.392
X157.637Y-105.012
X158.7Y-112.8
X161.205Y-74.7
X162.4Y-59.292
X162.4Y-66.912
X163.705Y-74.7
X164.781Y-135.493
X164.781Y-143.112
X167.162Y-116.442
X167.162Y-124.062
X171.925Y-35.48
X171.925Y-43.1
X171.925Y-78.343
X171.925Y-85.962
X176.688Y-97.392
X176.688Y-105.012
X181.45Y-59.292
X181.45Y-66.912
X186.213Y-116.442
X186.213Y-124.062
X190.975Y-35.48
X190.975Y-43.1
X190.975Y-78.343
X190.975Y-85.962
X195.737Y-97.392
X195.737Y-105.012
X199.405Y-53.4
X200.5Y-59.292
X200.5Y-66.912
X201.905Y-53.4
X205.262Y-116.442
X205.262Y-124.062
X209.0Y-93.5
X210.025Y-35.48
X210.025Y-43.1
X210.025Y-78.343
X210.025Y-85.962
X210.805Y-142.0
X211.5Y-93.5
X213.305Y-142.0
X214.787Y-97.392
X214.787Y-105.012
X219.55Y-59.292
X219.55Y-66.912
X224.312Y-116.442
X224.312Y-124.062
X229.075Y-78.343
X229.075Y-85.962
X232.905Y-112.6
X233.837Y-35.48
X233.837Y-43.1
X233.837Y-97.392
X233.837Y-105.012
X233.837Y-135.493
X233.837Y-143.112
X235.405Y-112.6
X237.405Y-74.6
X238.6Y-59.292
X238.6Y-66.912
X239.905Y-74.6
X243.362Y-116.442
X243.362Y-124.062
X248.125Y-78.343
X248.125Y-85.962
X252.887Y-35.48
X252.887Y-43.1
X252.887Y-97.392
X252.887Y-105.012
X252.887Y-135.493
X252.887Y-143.112
X257.65Y-59.292
X257.65Y-66.912
X262.412Y-116.442
X262.412Y-124.062
X266.1Y-93.4
X267.175Y-78.343
X267.175Y-85.962
X268.6Y-93.4
X271.938Y-35.48
X271.938Y-43.1
X271.938Y-97.392
X271.938Y-105.012
X271.938Y-135.493
X271.938Y-143.112
X276.7Y-59.292
X276.7Y-66.912
X276.705Y-53.7
X279.205Y-53.7
X279.7Y-145.4
X282.2Y-145.4
X286.225Y-78.343
X286.225Y-85.962
X288.606Y-116.442
X288.606Y-124.062
X290.988Y-35.48
X290.988Y-43.1
X305.275Y-140.255
X305.275Y-147.875
X310.037Y-78.343
X310.037Y-85.962
X311.7Y-97.29
X311.7Y-104.91
X313.1Y-59.1
X313.1Y-66.72
X314.8Y-35.48
X314.8Y-43.1
X318.0Y-95.5
X318.905Y-65.2
X320.5Y-95.5
X321.405Y-65.2
X324.325Y-121.205
X324.325Y-128.825
X324.325Y-140.255
X324.325Y-147.875
X333.8Y-123.3
X336.3Y-123.3
X343.375Y-59.292
X343.375Y-66.912
X343.375Y-78.343
X343.375Y-85.962
X343.375Y-97.392
X343.375Y-105.012
X343.375Y-140.255
X343.375Y-147.875
T4
X276.812Y-19.5
X279.312Y-19.5
X281.812Y-19.5
T5
X327.25Y-39.0
X327.25Y-41.5
X327.25Y-44.0
X341.75Y-39.0
X341.75Y-44.0
T6
X28.51Y-11.08
X28.51Y-26.32
X31.05Y-11.08
X31.05Y-26.32
X33.59Y-11.08
X33.59Y-26.32
X36.13Y-11.08
X36.13Y-26.32
X38.67Y-11.08
X38.67Y-26.32
X41.21Y-11.08
X41.21Y-26.32
X43.75Y-11.08
X43.75Y-26.32
X46.29Y-11.08
X46.29Y-26.32
X48.83Y-11.08
X48.83Y-26.32
X51.37Y-11.08
X51.37Y-18.7
X51.37Y-21.24
X51.37Y-23.78
X51.37Y-26.32
X53.91Y-11.08
X53.91Y-26.32
X56.45Y-11.08
X56.45Y-26.32
T8
X34.925Y-39.37
X34.925Y-63.182
X37.306Y-139.382
X39.688Y-82.233
X41.275Y-36.83
X41.275Y-60.642
X42.069Y-101.282
X43.656Y-136.843
X46.038Y-79.692
X46.831Y-120.332
X48.419Y-98.742
X53.181Y-117.792
X53.975Y-63.182
X58.737Y-39.37
X58.737Y-139.382
X60.325Y-60.642
X63.5Y-82.233
X65.087Y-36.83
X65.087Y-136.843
X68.263Y-101.282
X69.85Y-79.692
X73.025Y-63.182
X74.612Y-98.742
X77.787Y-39.37
X77.787Y-120.332
X79.375Y-60.642
X80.169Y-139.382
X82.55Y-82.233
X84.138Y-36.83
X84.138Y-117.792
X86.519Y-136.843
X87.312Y-101.282
X88.9Y-79.692
X92.075Y-63.182
X93.662Y-98.742
X96.837Y-39.37
X96.837Y-120.332
X98.425Y-60.642
X101.6Y-82.233
X103.188Y-36.83
X103.188Y-117.792
X106.362Y-101.282
X107.95Y-79.692
X111.125Y-63.182
X112.712Y-98.742
X115.887Y-39.37
X115.887Y-120.332
X117.475Y-60.642
X120.65Y-82.233
X122.237Y-36.83
X122.237Y-117.792
X125.412Y-101.282
X127.0Y-79.692
X130.175Y-63.182
X131.762Y-98.742
X134.938Y-120.332
X136.525Y-60.642
X139.7Y-39.37
X139.7Y-82.233
X141.287Y-117.792
X144.463Y-101.282
X146.05Y-36.83
X146.05Y-79.692
X149.225Y-63.182
X150.812Y-98.742
X151.606Y-139.382
X153.987Y-120.332
X155.575Y-60.642
X157.956Y-136.843
X158.75Y-39.37
X158.75Y-82.233
X160.338Y-117.792
X163.512Y-101.282
X165.1Y-36.83
X165.1Y-79.692
X168.275Y-63.182
X169.862Y-98.742
X173.037Y-120.332
X174.625Y-60.642
X177.8Y-39.37
X177.8Y-82.233
X179.387Y-117.792
X182.562Y-101.282
X184.15Y-36.83
X184.15Y-79.692
X187.325Y-63.182
X188.912Y-98.742
X192.087Y-120.332
X193.675Y-60.642
X196.85Y-39.37
X196.85Y-82.233
X198.438Y-117.792
X201.612Y-101.282
X203.2Y-36.83
X203.2Y-79.692
X206.375Y-63.182
X207.962Y-98.742
X211.137Y-120.332
X212.725Y-60.642
X215.9Y-82.233
X217.487Y-117.792
X220.662Y-39.37
X220.662Y-101.282
X220.662Y-139.382
X222.25Y-79.692
X225.425Y-63.182
X227.012Y-36.83
X227.012Y-98.742
X227.012Y-136.843
X230.188Y-120.332
X231.775Y-60.642
X234.95Y-82.233
X236.537Y-117.792
X239.712Y-39.37
X239.712Y-101.282
X239.712Y-139.382
X241.3Y-79.692
X244.475Y-63.182
X246.062Y-36.83
X246.062Y-98.742
X246.062Y-136.843
X249.237Y-120.332
X250.825Y-60.642
X254.0Y-82.233
X255.587Y-117.792
X258.762Y-39.37
X258.762Y-101.282
X258.762Y-139.382
X260.35Y-79.692
X263.525Y-63.182
X265.113Y-36.83
X265.113Y-98.742
X265.113Y-136.843
X269.875Y-60.642
X273.05Y-82.233
X275.431Y-120.332
X277.812Y-39.37
X279.4Y-79.692
X281.781Y-117.792
X284.162Y-36.83
X289.719Y-101.282
X292.1Y-63.182
X292.1Y-144.145
X296.069Y-98.742
X296.863Y-82.233
X298.45Y-60.642
X298.45Y-141.605
X301.625Y-39.37
X303.212Y-79.692
X307.975Y-36.83
X311.15Y-125.095
X311.15Y-144.145
X317.5Y-122.555
X317.5Y-141.605
X330.2Y-63.182
X330.2Y-82.233
X330.2Y-101.282
X330.2Y-144.145
X336.55Y-60.642
X336.55Y-79.692
X336.55Y-98.742
X336.55Y-141.605
T7
G00X334.1Y-35.9
M15
G01X335.4Y-35.9
M16
G05
G00X334.1Y-47.1
M15
G01X335.4Y-47.1
M16
G05
M30
