%TF.GenerationSoftware,KiCad,Pcbnew,9.0.2*%
%TF.CreationDate,2025-08-01T15:53:50+05:30*%
%TF.ProjectId,clackintosh,636c6163-6b69-46e7-946f-73682e6b6963,rev?*%
%TF.SameCoordinates,Original*%
%TF.FileFunction,Profile,NP*%
%FSLAX46Y46*%
G04 Gerber Fmt 4.6, Leading zero omitted, Abs format (unit mm)*
G04 Created by KiCad (PCBNEW 9.0.2) date 2025-08-01 15:53:50*
%MOMM*%
%LPD*%
G01*
G04 APERTURE LIST*
%TA.AperFunction,Profile*%
%ADD10C,0.050000*%
%TD*%
%TA.AperFunction,Profile*%
%ADD11C,0.100000*%
%TD*%
G04 APERTURE END LIST*
D10*
X24200000Y-4000000D02*
X350400000Y-4000000D01*
X350400000Y-159400000D01*
X24200000Y-159400000D01*
X24200000Y-4000000D01*
D11*
%TO.C,L16*%
X211700001Y-134352841D02*
X211700001Y-132947157D01*
X212605548Y-132150000D02*
X214194453Y-132150000D01*
X214194452Y-135149999D02*
X212605548Y-135149999D01*
X215099999Y-132947157D02*
X215099999Y-134352841D01*
X211650516Y-132730279D02*
G75*
G02*
X211700001Y-132947157I-450505J-216876D01*
G01*
X211650516Y-132730279D02*
G75*
G02*
X212353289Y-132081700I450515J216878D01*
G01*
X211700001Y-134352842D02*
G75*
G02*
X211650516Y-134569719I-499990J-1D01*
G01*
X212353289Y-135218296D02*
G75*
G02*
X211650516Y-134569719I-252258J431700D01*
G01*
X212353290Y-135218298D02*
G75*
G02*
X212605548Y-135149999I252261J-431710D01*
G01*
X212605547Y-132149999D02*
G75*
G02*
X212353289Y-132081700I3J500009D01*
G01*
X214194452Y-135149999D02*
G75*
G02*
X214446711Y-135218298I-2J-500011D01*
G01*
X214446711Y-132081701D02*
G75*
G02*
X214194453Y-132150000I-252261J431711D01*
G01*
X214446711Y-132081701D02*
G75*
G02*
X215149483Y-132730279I252259J-431699D01*
G01*
X215099999Y-132947156D02*
G75*
G02*
X215149486Y-132730280I499991J-4D01*
G01*
X215149484Y-134569718D02*
G75*
G02*
X214446711Y-135218298I-450514J-216880D01*
G01*
X215149484Y-134569719D02*
G75*
G02*
X215099981Y-134352841I450516J216919D01*
G01*
%TO.C,L14*%
X68287501Y-130455341D02*
X68287501Y-129049657D01*
X69193048Y-128252500D02*
X70781953Y-128252500D01*
X70781952Y-131252499D02*
X69193048Y-131252499D01*
X71687499Y-129049657D02*
X71687499Y-130455341D01*
X68238016Y-128832779D02*
G75*
G02*
X68287501Y-129049657I-450505J-216876D01*
G01*
X68238016Y-128832779D02*
G75*
G02*
X68940789Y-128184200I450515J216878D01*
G01*
X68287501Y-130455342D02*
G75*
G02*
X68238016Y-130672219I-499990J-1D01*
G01*
X68940789Y-131320796D02*
G75*
G02*
X68238016Y-130672219I-252258J431700D01*
G01*
X68940790Y-131320798D02*
G75*
G02*
X69193048Y-131252499I252261J-431710D01*
G01*
X69193047Y-128252499D02*
G75*
G02*
X68940789Y-128184200I3J500009D01*
G01*
X70781952Y-131252499D02*
G75*
G02*
X71034211Y-131320798I-2J-500011D01*
G01*
X71034211Y-128184201D02*
G75*
G02*
X70781953Y-128252500I-252261J431711D01*
G01*
X71034211Y-128184201D02*
G75*
G02*
X71736983Y-128832779I252259J-431699D01*
G01*
X71687499Y-129049656D02*
G75*
G02*
X71736986Y-128832780I499991J-4D01*
G01*
X71736984Y-130672218D02*
G75*
G02*
X71034211Y-131320798I-450514J-216880D01*
G01*
X71736984Y-130672219D02*
G75*
G02*
X71687481Y-130455341I450516J216919D01*
G01*
%TO.C,L18*%
X333100001Y-133452841D02*
X333100001Y-132047157D01*
X334005548Y-131250000D02*
X335594453Y-131250000D01*
X335594452Y-134249999D02*
X334005548Y-134249999D01*
X336499999Y-132047157D02*
X336499999Y-133452841D01*
X333050516Y-131830279D02*
G75*
G02*
X333100001Y-132047157I-450505J-216876D01*
G01*
X333050516Y-131830279D02*
G75*
G02*
X333753289Y-131181700I450515J216878D01*
G01*
X333100001Y-133452842D02*
G75*
G02*
X333050516Y-133669719I-499990J-1D01*
G01*
X333753289Y-134318296D02*
G75*
G02*
X333050516Y-133669719I-252258J431700D01*
G01*
X333753290Y-134318298D02*
G75*
G02*
X334005548Y-134249999I252261J-431710D01*
G01*
X334005547Y-131249999D02*
G75*
G02*
X333753289Y-131181700I3J500009D01*
G01*
X335594452Y-134249999D02*
G75*
G02*
X335846711Y-134318298I-2J-500011D01*
G01*
X335846711Y-131181701D02*
G75*
G02*
X335594453Y-131250000I-252261J431711D01*
G01*
X335846711Y-131181701D02*
G75*
G02*
X336549483Y-131830279I252259J-431699D01*
G01*
X336499999Y-132047156D02*
G75*
G02*
X336549486Y-131830280I499991J-4D01*
G01*
X336549484Y-133669718D02*
G75*
G02*
X335846711Y-134318298I-450514J-216880D01*
G01*
X336549484Y-133669719D02*
G75*
G02*
X336499981Y-133452841I450516J216919D01*
G01*
%TO.C,L5*%
X255900001Y-75752841D02*
X255900001Y-74347157D01*
X256805548Y-73550000D02*
X258394453Y-73550000D01*
X258394452Y-76549999D02*
X256805548Y-76549999D01*
X259299999Y-74347157D02*
X259299999Y-75752841D01*
X255850516Y-74130279D02*
G75*
G02*
X255900001Y-74347157I-450505J-216876D01*
G01*
X255850516Y-74130279D02*
G75*
G02*
X256553289Y-73481700I450515J216878D01*
G01*
X255900001Y-75752842D02*
G75*
G02*
X255850516Y-75969719I-499990J-1D01*
G01*
X256553289Y-76618296D02*
G75*
G02*
X255850516Y-75969719I-252258J431700D01*
G01*
X256553290Y-76618298D02*
G75*
G02*
X256805548Y-76549999I252261J-431710D01*
G01*
X256805547Y-73549999D02*
G75*
G02*
X256553289Y-73481700I3J500009D01*
G01*
X258394452Y-76549999D02*
G75*
G02*
X258646711Y-76618298I-2J-500011D01*
G01*
X258646711Y-73481701D02*
G75*
G02*
X258394453Y-73550000I-252261J431711D01*
G01*
X258646711Y-73481701D02*
G75*
G02*
X259349483Y-74130279I252259J-431699D01*
G01*
X259299999Y-74347156D02*
G75*
G02*
X259349486Y-74130280I499991J-4D01*
G01*
X259349484Y-75969718D02*
G75*
G02*
X258646711Y-76618298I-450514J-216880D01*
G01*
X259349484Y-75969719D02*
G75*
G02*
X259299981Y-75752841I450516J216919D01*
G01*
%TO.C,L6*%
X179600001Y-75752841D02*
X179600001Y-74347157D01*
X180505548Y-73550000D02*
X182094453Y-73550000D01*
X182094452Y-76549999D02*
X180505548Y-76549999D01*
X182999999Y-74347157D02*
X182999999Y-75752841D01*
X179550516Y-74130279D02*
G75*
G02*
X179600001Y-74347157I-450505J-216876D01*
G01*
X179550516Y-74130279D02*
G75*
G02*
X180253289Y-73481700I450515J216878D01*
G01*
X179600001Y-75752842D02*
G75*
G02*
X179550516Y-75969719I-499990J-1D01*
G01*
X180253289Y-76618296D02*
G75*
G02*
X179550516Y-75969719I-252258J431700D01*
G01*
X180253290Y-76618298D02*
G75*
G02*
X180505548Y-76549999I252261J-431710D01*
G01*
X180505547Y-73549999D02*
G75*
G02*
X180253289Y-73481700I3J500009D01*
G01*
X182094452Y-76549999D02*
G75*
G02*
X182346711Y-76618298I-2J-500011D01*
G01*
X182346711Y-73481701D02*
G75*
G02*
X182094453Y-73550000I-252261J431711D01*
G01*
X182346711Y-73481701D02*
G75*
G02*
X183049483Y-74130279I252259J-431699D01*
G01*
X182999999Y-74347156D02*
G75*
G02*
X183049486Y-74130280I499991J-4D01*
G01*
X183049484Y-75969718D02*
G75*
G02*
X182346711Y-76618298I-450514J-216880D01*
G01*
X183049484Y-75969719D02*
G75*
G02*
X182999981Y-75752841I450516J216919D01*
G01*
%TO.C,L3*%
X210987501Y-54055341D02*
X210987501Y-52649657D01*
X211893048Y-51852500D02*
X213481953Y-51852500D01*
X213481952Y-54852499D02*
X211893048Y-54852499D01*
X214387499Y-52649657D02*
X214387499Y-54055341D01*
X210938016Y-52432779D02*
G75*
G02*
X210987501Y-52649657I-450505J-216876D01*
G01*
X210938016Y-52432779D02*
G75*
G02*
X211640789Y-51784200I450515J216878D01*
G01*
X210987501Y-54055342D02*
G75*
G02*
X210938016Y-54272219I-499990J-1D01*
G01*
X211640789Y-54920796D02*
G75*
G02*
X210938016Y-54272219I-252258J431700D01*
G01*
X211640790Y-54920798D02*
G75*
G02*
X211893048Y-54852499I252261J-431710D01*
G01*
X211893047Y-51852499D02*
G75*
G02*
X211640789Y-51784200I3J500009D01*
G01*
X213481952Y-54852499D02*
G75*
G02*
X213734211Y-54920798I-2J-500011D01*
G01*
X213734211Y-51784201D02*
G75*
G02*
X213481953Y-51852500I-252261J431711D01*
G01*
X213734211Y-51784201D02*
G75*
G02*
X214436983Y-52432779I252259J-431699D01*
G01*
X214387499Y-52649656D02*
G75*
G02*
X214436986Y-52432780I499991J-4D01*
G01*
X214436984Y-54272218D02*
G75*
G02*
X213734211Y-54920798I-450514J-216880D01*
G01*
X214436984Y-54272219D02*
G75*
G02*
X214387481Y-54055341I450516J216919D01*
G01*
%TO.C,L4*%
X292387501Y-54355341D02*
X292387501Y-52949657D01*
X293293048Y-52152500D02*
X294881953Y-52152500D01*
X294881952Y-55152499D02*
X293293048Y-55152499D01*
X295787499Y-52949657D02*
X295787499Y-54355341D01*
X292338016Y-52732779D02*
G75*
G02*
X292387501Y-52949657I-450505J-216876D01*
G01*
X292338016Y-52732779D02*
G75*
G02*
X293040789Y-52084200I450515J216878D01*
G01*
X292387501Y-54355342D02*
G75*
G02*
X292338016Y-54572219I-499990J-1D01*
G01*
X293040789Y-55220796D02*
G75*
G02*
X292338016Y-54572219I-252258J431700D01*
G01*
X293040790Y-55220798D02*
G75*
G02*
X293293048Y-55152499I252261J-431710D01*
G01*
X293293047Y-52152499D02*
G75*
G02*
X293040789Y-52084200I3J500009D01*
G01*
X294881952Y-55152499D02*
G75*
G02*
X295134211Y-55220798I-2J-500011D01*
G01*
X295134211Y-52084201D02*
G75*
G02*
X294881953Y-52152500I-252261J431711D01*
G01*
X295134211Y-52084201D02*
G75*
G02*
X295836983Y-52732779I252259J-431699D01*
G01*
X295787499Y-52949656D02*
G75*
G02*
X295836986Y-52732780I499991J-4D01*
G01*
X295836984Y-54572218D02*
G75*
G02*
X295134211Y-55220798I-450514J-216880D01*
G01*
X295836984Y-54572219D02*
G75*
G02*
X295787481Y-54355341I450516J216919D01*
G01*
%TO.C,L20*%
X317400001Y-103552841D02*
X317400001Y-102147157D01*
X318305548Y-101350000D02*
X319894453Y-101350000D01*
X319894452Y-104349999D02*
X318305548Y-104349999D01*
X320799999Y-102147157D02*
X320799999Y-103552841D01*
X317350516Y-101930279D02*
G75*
G02*
X317400001Y-102147157I-450505J-216876D01*
G01*
X317350516Y-101930279D02*
G75*
G02*
X318053289Y-101281700I450515J216878D01*
G01*
X317400001Y-103552842D02*
G75*
G02*
X317350516Y-103769719I-499990J-1D01*
G01*
X318053289Y-104418296D02*
G75*
G02*
X317350516Y-103769719I-252258J431700D01*
G01*
X318053290Y-104418298D02*
G75*
G02*
X318305548Y-104349999I252261J-431710D01*
G01*
X318305547Y-101349999D02*
G75*
G02*
X318053289Y-101281700I3J500009D01*
G01*
X319894452Y-104349999D02*
G75*
G02*
X320146711Y-104418298I-2J-500011D01*
G01*
X320146711Y-101281701D02*
G75*
G02*
X319894453Y-101350000I-252261J431711D01*
G01*
X320146711Y-101281701D02*
G75*
G02*
X320849483Y-101930279I252259J-431699D01*
G01*
X320799999Y-102147156D02*
G75*
G02*
X320849486Y-101930280I499991J-4D01*
G01*
X320849484Y-103769718D02*
G75*
G02*
X320146711Y-104418298I-450514J-216880D01*
G01*
X320849484Y-103769719D02*
G75*
G02*
X320799981Y-103552841I450516J216919D01*
G01*
%TO.C,L2*%
X129600001Y-54152841D02*
X129600001Y-52747157D01*
X130505548Y-51950000D02*
X132094453Y-51950000D01*
X132094452Y-54949999D02*
X130505548Y-54949999D01*
X132999999Y-52747157D02*
X132999999Y-54152841D01*
X129550516Y-52530279D02*
G75*
G02*
X129600001Y-52747157I-450505J-216876D01*
G01*
X129550516Y-52530279D02*
G75*
G02*
X130253289Y-51881700I450515J216878D01*
G01*
X129600001Y-54152842D02*
G75*
G02*
X129550516Y-54369719I-499990J-1D01*
G01*
X130253289Y-55018296D02*
G75*
G02*
X129550516Y-54369719I-252258J431700D01*
G01*
X130253290Y-55018298D02*
G75*
G02*
X130505548Y-54949999I252261J-431710D01*
G01*
X130505547Y-51949999D02*
G75*
G02*
X130253289Y-51881700I3J500009D01*
G01*
X132094452Y-54949999D02*
G75*
G02*
X132346711Y-55018298I-2J-500011D01*
G01*
X132346711Y-51881701D02*
G75*
G02*
X132094453Y-51950000I-252261J431711D01*
G01*
X132346711Y-51881701D02*
G75*
G02*
X133049483Y-52530279I252259J-431699D01*
G01*
X132999999Y-52747156D02*
G75*
G02*
X133049486Y-52530280I499991J-4D01*
G01*
X133049484Y-54369718D02*
G75*
G02*
X132346711Y-55018298I-450514J-216880D01*
G01*
X133049484Y-54369719D02*
G75*
G02*
X132999981Y-54152841I450516J216919D01*
G01*
%TO.C,L1*%
X49000001Y-54352841D02*
X49000001Y-52947157D01*
X49905548Y-52150000D02*
X51494453Y-52150000D01*
X51494452Y-55149999D02*
X49905548Y-55149999D01*
X52399999Y-52947157D02*
X52399999Y-54352841D01*
X48950516Y-52730279D02*
G75*
G02*
X49000001Y-52947157I-450505J-216876D01*
G01*
X48950516Y-52730279D02*
G75*
G02*
X49653289Y-52081700I450515J216878D01*
G01*
X49000001Y-54352842D02*
G75*
G02*
X48950516Y-54569719I-499990J-1D01*
G01*
X49653289Y-55218296D02*
G75*
G02*
X48950516Y-54569719I-252258J431700D01*
G01*
X49653290Y-55218298D02*
G75*
G02*
X49905548Y-55149999I252261J-431710D01*
G01*
X49905547Y-52149999D02*
G75*
G02*
X49653289Y-52081700I3J500009D01*
G01*
X51494452Y-55149999D02*
G75*
G02*
X51746711Y-55218298I-2J-500011D01*
G01*
X51746711Y-52081701D02*
G75*
G02*
X51494453Y-52150000I-252261J431711D01*
G01*
X51746711Y-52081701D02*
G75*
G02*
X52449483Y-52730279I252259J-431699D01*
G01*
X52399999Y-52947156D02*
G75*
G02*
X52449486Y-52730280I499991J-4D01*
G01*
X52449484Y-54569718D02*
G75*
G02*
X51746711Y-55218298I-450514J-216880D01*
G01*
X52449484Y-54569719D02*
G75*
G02*
X52399981Y-54352841I450516J216919D01*
G01*
%TO.C,L7*%
X84000001Y-76052841D02*
X84000001Y-74647157D01*
X84905548Y-73850000D02*
X86494453Y-73850000D01*
X86494452Y-76849999D02*
X84905548Y-76849999D01*
X87399999Y-74647157D02*
X87399999Y-76052841D01*
X83950516Y-74430279D02*
G75*
G02*
X84000001Y-74647157I-450505J-216876D01*
G01*
X83950516Y-74430279D02*
G75*
G02*
X84653289Y-73781700I450515J216878D01*
G01*
X84000001Y-76052842D02*
G75*
G02*
X83950516Y-76269719I-499990J-1D01*
G01*
X84653289Y-76918296D02*
G75*
G02*
X83950516Y-76269719I-252258J431700D01*
G01*
X84653290Y-76918298D02*
G75*
G02*
X84905548Y-76849999I252261J-431710D01*
G01*
X84905547Y-73849999D02*
G75*
G02*
X84653289Y-73781700I3J500009D01*
G01*
X86494452Y-76849999D02*
G75*
G02*
X86746711Y-76918298I-2J-500011D01*
G01*
X86746711Y-73781701D02*
G75*
G02*
X86494453Y-73850000I-252261J431711D01*
G01*
X86746711Y-73781701D02*
G75*
G02*
X87449483Y-74430279I252259J-431699D01*
G01*
X87399999Y-74647156D02*
G75*
G02*
X87449486Y-74430280I499991J-4D01*
G01*
X87449484Y-76269718D02*
G75*
G02*
X86746711Y-76918298I-450514J-216880D01*
G01*
X87449484Y-76269719D02*
G75*
G02*
X87399981Y-76052841I450516J216919D01*
G01*
%TO.C,L13*%
X172387501Y-114055341D02*
X172387501Y-112649657D01*
X173293048Y-111852500D02*
X174881953Y-111852500D01*
X174881952Y-114852499D02*
X173293048Y-114852499D01*
X175787499Y-112649657D02*
X175787499Y-114055341D01*
X172338016Y-112432779D02*
G75*
G02*
X172387501Y-112649657I-450505J-216876D01*
G01*
X172338016Y-112432779D02*
G75*
G02*
X173040789Y-111784200I450515J216878D01*
G01*
X172387501Y-114055342D02*
G75*
G02*
X172338016Y-114272219I-499990J-1D01*
G01*
X173040789Y-114920796D02*
G75*
G02*
X172338016Y-114272219I-252258J431700D01*
G01*
X173040790Y-114920798D02*
G75*
G02*
X173293048Y-114852499I252261J-431710D01*
G01*
X173293047Y-111852499D02*
G75*
G02*
X173040789Y-111784200I3J500009D01*
G01*
X174881952Y-114852499D02*
G75*
G02*
X175134211Y-114920798I-2J-500011D01*
G01*
X175134211Y-111784201D02*
G75*
G02*
X174881953Y-111852500I-252261J431711D01*
G01*
X175134211Y-111784201D02*
G75*
G02*
X175836983Y-112432779I252259J-431699D01*
G01*
X175787499Y-112649656D02*
G75*
G02*
X175836986Y-112432780I499991J-4D01*
G01*
X175836984Y-114272218D02*
G75*
G02*
X175134211Y-114920798I-450514J-216880D01*
G01*
X175836984Y-114272219D02*
G75*
G02*
X175787481Y-114055341I450516J216919D01*
G01*
%TO.C,L12*%
X251287501Y-113455341D02*
X251287501Y-112049657D01*
X252193048Y-111252500D02*
X253781953Y-111252500D01*
X253781952Y-114252499D02*
X252193048Y-114252499D01*
X254687499Y-112049657D02*
X254687499Y-113455341D01*
X251238016Y-111832779D02*
G75*
G02*
X251287501Y-112049657I-450505J-216876D01*
G01*
X251238016Y-111832779D02*
G75*
G02*
X251940789Y-111184200I450515J216878D01*
G01*
X251287501Y-113455342D02*
G75*
G02*
X251238016Y-113672219I-499990J-1D01*
G01*
X251940789Y-114320796D02*
G75*
G02*
X251238016Y-113672219I-252258J431700D01*
G01*
X251940790Y-114320798D02*
G75*
G02*
X252193048Y-114252499I252261J-431710D01*
G01*
X252193047Y-111252499D02*
G75*
G02*
X251940789Y-111184200I3J500009D01*
G01*
X253781952Y-114252499D02*
G75*
G02*
X254034211Y-114320798I-2J-500011D01*
G01*
X254034211Y-111184201D02*
G75*
G02*
X253781953Y-111252500I-252261J431711D01*
G01*
X254034211Y-111184201D02*
G75*
G02*
X254736983Y-111832779I252259J-431699D01*
G01*
X254687499Y-112049656D02*
G75*
G02*
X254736986Y-111832780I499991J-4D01*
G01*
X254736984Y-113672218D02*
G75*
G02*
X254034211Y-114320798I-450514J-216880D01*
G01*
X254736984Y-113672219D02*
G75*
G02*
X254687481Y-113455341I450516J216919D01*
G01*
%TO.C,L11*%
X287787501Y-93755341D02*
X287787501Y-92349657D01*
X288693048Y-91552500D02*
X290281953Y-91552500D01*
X290281952Y-94552499D02*
X288693048Y-94552499D01*
X291187499Y-92349657D02*
X291187499Y-93755341D01*
X287738016Y-92132779D02*
G75*
G02*
X287787501Y-92349657I-450505J-216876D01*
G01*
X287738016Y-92132779D02*
G75*
G02*
X288440789Y-91484200I450515J216878D01*
G01*
X287787501Y-93755342D02*
G75*
G02*
X287738016Y-93972219I-499990J-1D01*
G01*
X288440789Y-94620796D02*
G75*
G02*
X287738016Y-93972219I-252258J431700D01*
G01*
X288440790Y-94620798D02*
G75*
G02*
X288693048Y-94552499I252261J-431710D01*
G01*
X288693047Y-91552499D02*
G75*
G02*
X288440789Y-91484200I3J500009D01*
G01*
X290281952Y-94552499D02*
G75*
G02*
X290534211Y-94620798I-2J-500011D01*
G01*
X290534211Y-91484201D02*
G75*
G02*
X290281953Y-91552500I-252261J431711D01*
G01*
X290534211Y-91484201D02*
G75*
G02*
X291236983Y-92132779I252259J-431699D01*
G01*
X291187499Y-92349656D02*
G75*
G02*
X291236986Y-92132780I499991J-4D01*
G01*
X291236984Y-93972218D02*
G75*
G02*
X290534211Y-94620798I-450514J-216880D01*
G01*
X291236984Y-93972219D02*
G75*
G02*
X291187481Y-93755341I450516J216919D01*
G01*
%TO.C,L10*%
X220087501Y-95355341D02*
X220087501Y-93949657D01*
X220993048Y-93152500D02*
X222581953Y-93152500D01*
X222581952Y-96152499D02*
X220993048Y-96152499D01*
X223487499Y-93949657D02*
X223487499Y-95355341D01*
X220038016Y-93732779D02*
G75*
G02*
X220087501Y-93949657I-450505J-216876D01*
G01*
X220038016Y-93732779D02*
G75*
G02*
X220740789Y-93084200I450515J216878D01*
G01*
X220087501Y-95355342D02*
G75*
G02*
X220038016Y-95572219I-499990J-1D01*
G01*
X220740789Y-96220796D02*
G75*
G02*
X220038016Y-95572219I-252258J431700D01*
G01*
X220740790Y-96220798D02*
G75*
G02*
X220993048Y-96152499I252261J-431710D01*
G01*
X220993047Y-93152499D02*
G75*
G02*
X220740789Y-93084200I3J500009D01*
G01*
X222581952Y-96152499D02*
G75*
G02*
X222834211Y-96220798I-2J-500011D01*
G01*
X222834211Y-93084201D02*
G75*
G02*
X222581953Y-93152500I-252261J431711D01*
G01*
X222834211Y-93084201D02*
G75*
G02*
X223536983Y-93732779I252259J-431699D01*
G01*
X223487499Y-93949656D02*
G75*
G02*
X223536986Y-93732780I499991J-4D01*
G01*
X223536984Y-95572218D02*
G75*
G02*
X222834211Y-96220798I-450514J-216880D01*
G01*
X223536984Y-95572219D02*
G75*
G02*
X223487481Y-95355341I450516J216919D01*
G01*
%TO.C,L15*%
X117587501Y-133455341D02*
X117587501Y-132049657D01*
X118493048Y-131252500D02*
X120081953Y-131252500D01*
X120081952Y-134252499D02*
X118493048Y-134252499D01*
X120987499Y-132049657D02*
X120987499Y-133455341D01*
X117538016Y-131832779D02*
G75*
G02*
X117587501Y-132049657I-450505J-216876D01*
G01*
X117538016Y-131832779D02*
G75*
G02*
X118240789Y-131184200I450515J216878D01*
G01*
X117587501Y-133455342D02*
G75*
G02*
X117538016Y-133672219I-499990J-1D01*
G01*
X118240789Y-134320796D02*
G75*
G02*
X117538016Y-133672219I-252258J431700D01*
G01*
X118240790Y-134320798D02*
G75*
G02*
X118493048Y-134252499I252261J-431710D01*
G01*
X118493047Y-131252499D02*
G75*
G02*
X118240789Y-131184200I3J500009D01*
G01*
X120081952Y-134252499D02*
G75*
G02*
X120334211Y-134320798I-2J-500011D01*
G01*
X120334211Y-131184201D02*
G75*
G02*
X120081953Y-131252500I-252261J431711D01*
G01*
X120334211Y-131184201D02*
G75*
G02*
X121036983Y-131832779I252259J-431699D01*
G01*
X120987499Y-132049656D02*
G75*
G02*
X121036986Y-131832780I499991J-4D01*
G01*
X121036984Y-133672218D02*
G75*
G02*
X120334211Y-134320798I-450514J-216880D01*
G01*
X121036984Y-133672219D02*
G75*
G02*
X120987481Y-133455341I450516J216919D01*
G01*
%TO.C,L17*%
X295087501Y-133255341D02*
X295087501Y-131849657D01*
X295993048Y-131052500D02*
X297581953Y-131052500D01*
X297581952Y-134052499D02*
X295993048Y-134052499D01*
X298487499Y-131849657D02*
X298487499Y-133255341D01*
X295038016Y-131632779D02*
G75*
G02*
X295087501Y-131849657I-450505J-216876D01*
G01*
X295038016Y-131632779D02*
G75*
G02*
X295740789Y-130984200I450515J216878D01*
G01*
X295087501Y-133255342D02*
G75*
G02*
X295038016Y-133472219I-499990J-1D01*
G01*
X295740789Y-134120796D02*
G75*
G02*
X295038016Y-133472219I-252258J431700D01*
G01*
X295740790Y-134120798D02*
G75*
G02*
X295993048Y-134052499I252261J-431710D01*
G01*
X295993047Y-131052499D02*
G75*
G02*
X295740789Y-130984200I3J500009D01*
G01*
X297581952Y-134052499D02*
G75*
G02*
X297834211Y-134120798I-2J-500011D01*
G01*
X297834211Y-130984201D02*
G75*
G02*
X297581953Y-131052500I-252261J431711D01*
G01*
X297834211Y-130984201D02*
G75*
G02*
X298536983Y-131632779I252259J-431699D01*
G01*
X298487499Y-131849656D02*
G75*
G02*
X298536986Y-131632780I499991J-4D01*
G01*
X298536984Y-133472218D02*
G75*
G02*
X297834211Y-134120798I-450514J-216880D01*
G01*
X298536984Y-133472219D02*
G75*
G02*
X298487481Y-133255341I450516J216919D01*
G01*
%TO.C,L9*%
X132400001Y-94452841D02*
X132400001Y-93047157D01*
X133305548Y-92250000D02*
X134894453Y-92250000D01*
X134894452Y-95249999D02*
X133305548Y-95249999D01*
X135799999Y-93047157D02*
X135799999Y-94452841D01*
X132350516Y-92830279D02*
G75*
G02*
X132400001Y-93047157I-450505J-216876D01*
G01*
X132350516Y-92830279D02*
G75*
G02*
X133053289Y-92181700I450515J216878D01*
G01*
X132400001Y-94452842D02*
G75*
G02*
X132350516Y-94669719I-499990J-1D01*
G01*
X133053289Y-95318296D02*
G75*
G02*
X132350516Y-94669719I-252258J431700D01*
G01*
X133053290Y-95318298D02*
G75*
G02*
X133305548Y-95249999I252261J-431710D01*
G01*
X133305547Y-92249999D02*
G75*
G02*
X133053289Y-92181700I3J500009D01*
G01*
X134894452Y-95249999D02*
G75*
G02*
X135146711Y-95318298I-2J-500011D01*
G01*
X135146711Y-92181701D02*
G75*
G02*
X134894453Y-92250000I-252261J431711D01*
G01*
X135146711Y-92181701D02*
G75*
G02*
X135849483Y-92830279I252259J-431699D01*
G01*
X135799999Y-93047156D02*
G75*
G02*
X135849486Y-92830280I499991J-4D01*
G01*
X135849484Y-94669718D02*
G75*
G02*
X135146711Y-95318298I-450514J-216880D01*
G01*
X135849484Y-94669719D02*
G75*
G02*
X135799981Y-94452841I450516J216919D01*
G01*
%TO.C,L8*%
X53687501Y-93555341D02*
X53687501Y-92149657D01*
X54593048Y-91352500D02*
X56181953Y-91352500D01*
X56181952Y-94352499D02*
X54593048Y-94352499D01*
X57087499Y-92149657D02*
X57087499Y-93555341D01*
X53638016Y-91932779D02*
G75*
G02*
X53687501Y-92149657I-450505J-216876D01*
G01*
X53638016Y-91932779D02*
G75*
G02*
X54340789Y-91284200I450515J216878D01*
G01*
X53687501Y-93555342D02*
G75*
G02*
X53638016Y-93772219I-499990J-1D01*
G01*
X54340789Y-94420796D02*
G75*
G02*
X53638016Y-93772219I-252258J431700D01*
G01*
X54340790Y-94420798D02*
G75*
G02*
X54593048Y-94352499I252261J-431710D01*
G01*
X54593047Y-91352499D02*
G75*
G02*
X54340789Y-91284200I3J500009D01*
G01*
X56181952Y-94352499D02*
G75*
G02*
X56434211Y-94420798I-2J-500011D01*
G01*
X56434211Y-91284201D02*
G75*
G02*
X56181953Y-91352500I-252261J431711D01*
G01*
X56434211Y-91284201D02*
G75*
G02*
X57136983Y-91932779I252259J-431699D01*
G01*
X57087499Y-92149656D02*
G75*
G02*
X57136986Y-91932780I499991J-4D01*
G01*
X57136984Y-93772218D02*
G75*
G02*
X56434211Y-94420798I-450514J-216880D01*
G01*
X57136984Y-93772219D02*
G75*
G02*
X57087481Y-93555341I450516J216919D01*
G01*
%TO.C,L19*%
X317887501Y-76555341D02*
X317887501Y-75149657D01*
X318793048Y-74352500D02*
X320381953Y-74352500D01*
X320381952Y-77352499D02*
X318793048Y-77352499D01*
X321287499Y-75149657D02*
X321287499Y-76555341D01*
X317838016Y-74932779D02*
G75*
G02*
X317887501Y-75149657I-450505J-216876D01*
G01*
X317838016Y-74932779D02*
G75*
G02*
X318540789Y-74284200I450515J216878D01*
G01*
X317887501Y-76555342D02*
G75*
G02*
X317838016Y-76772219I-499990J-1D01*
G01*
X318540789Y-77420796D02*
G75*
G02*
X317838016Y-76772219I-252258J431700D01*
G01*
X318540790Y-77420798D02*
G75*
G02*
X318793048Y-77352499I252261J-431710D01*
G01*
X318793047Y-74352499D02*
G75*
G02*
X318540789Y-74284200I3J500009D01*
G01*
X320381952Y-77352499D02*
G75*
G02*
X320634211Y-77420798I-2J-500011D01*
G01*
X320634211Y-74284201D02*
G75*
G02*
X320381953Y-74352500I-252261J431711D01*
G01*
X320634211Y-74284201D02*
G75*
G02*
X321336983Y-74932779I252259J-431699D01*
G01*
X321287499Y-75149656D02*
G75*
G02*
X321336986Y-74932780I499991J-4D01*
G01*
X321336984Y-76772218D02*
G75*
G02*
X320634211Y-77420798I-450514J-216880D01*
G01*
X321336984Y-76772219D02*
G75*
G02*
X321287481Y-76555341I450516J216919D01*
G01*
%TD*%
M02*
