%TF.GenerationSoftware,KiCad,Pcbnew,9.0.2*%
%TF.CreationDate,2025-08-01T15:53:50+05:30*%
%TF.ProjectId,clackintosh,636c6163-6b69-46e7-946f-73682e6b6963,rev?*%
%TF.SameCoordinates,Original*%
%TF.FileFunction,Copper,L1,Top*%
%TF.FilePolarity,Positive*%
%FSLAX46Y46*%
G04 Gerber Fmt 4.6, Leading zero omitted, Abs format (unit mm)*
G04 Created by KiCad (PCBNEW 9.0.2) date 2025-08-01 15:53:50*
%MOMM*%
%LPD*%
G01*
G04 APERTURE LIST*
G04 Aperture macros list*
%AMRoundRect*
0 Rectangle with rounded corners*
0 $1 Rounding radius*
0 $2 $3 $4 $5 $6 $7 $8 $9 X,Y pos of 4 corners*
0 Add a 4 corners polygon primitive as box body*
4,1,4,$2,$3,$4,$5,$6,$7,$8,$9,$2,$3,0*
0 Add four circle primitives for the rounded corners*
1,1,$1+$1,$2,$3*
1,1,$1+$1,$4,$5*
1,1,$1+$1,$6,$7*
1,1,$1+$1,$8,$9*
0 Add four rect primitives between the rounded corners*
20,1,$1+$1,$2,$3,$4,$5,0*
20,1,$1+$1,$4,$5,$6,$7,0*
20,1,$1+$1,$6,$7,$8,$9,0*
20,1,$1+$1,$8,$9,$2,$3,0*%
G04 Aperture macros list end*
%TA.AperFunction,ComponentPad*%
%ADD10RoundRect,0.250000X0.550000X-0.550000X0.550000X0.550000X-0.550000X0.550000X-0.550000X-0.550000X0*%
%TD*%
%TA.AperFunction,ComponentPad*%
%ADD11C,1.600000*%
%TD*%
%TA.AperFunction,ComponentPad*%
%ADD12R,2.000000X2.000000*%
%TD*%
%TA.AperFunction,ComponentPad*%
%ADD13C,2.000000*%
%TD*%
%TA.AperFunction,ComponentPad*%
%ADD14R,3.200000X2.000000*%
%TD*%
%TA.AperFunction,ComponentPad*%
%ADD15R,1.408000X1.408000*%
%TD*%
%TA.AperFunction,ComponentPad*%
%ADD16C,1.408000*%
%TD*%
%TA.AperFunction,ComponentPad*%
%ADD17RoundRect,0.250000X-0.550000X-0.550000X0.550000X-0.550000X0.550000X0.550000X-0.550000X0.550000X0*%
%TD*%
%TA.AperFunction,ComponentPad*%
%ADD18C,1.524000*%
%TD*%
%TA.AperFunction,ComponentPad*%
%ADD19RoundRect,0.250000X-0.512000X-0.512000X0.512000X-0.512000X0.512000X0.512000X-0.512000X0.512000X0*%
%TD*%
%TA.AperFunction,ComponentPad*%
%ADD20C,1.752600*%
%TD*%
%TA.AperFunction,ComponentPad*%
%ADD21C,3.600000*%
%TD*%
%TA.AperFunction,ComponentPad*%
%ADD22RoundRect,0.250000X0.550000X0.550000X-0.550000X0.550000X-0.550000X-0.550000X0.550000X-0.550000X0*%
%TD*%
%TA.AperFunction,ViaPad*%
%ADD23C,0.600000*%
%TD*%
%TA.AperFunction,Conductor*%
%ADD24C,0.200000*%
%TD*%
G04 APERTURE END LIST*
D10*
%TO.P,D55,1,K*%
%TO.N,Row 4*%
X252887500Y-105012500D03*
D11*
%TO.P,D55,2,A*%
%TO.N,Net-(D55-A)*%
X252887500Y-97392500D03*
%TD*%
D10*
%TO.P,D61,1,K*%
%TO.N,Row 5*%
X110012500Y-124062500D03*
D11*
%TO.P,D61,2,A*%
%TO.N,Net-(D61-A)*%
X110012500Y-116442500D03*
%TD*%
D10*
%TO.P,D75,1,K*%
%TO.N,Row 6*%
X164781300Y-143112500D03*
D11*
%TO.P,D75,2,A*%
%TO.N,Net-(D75-A)*%
X164781300Y-135492500D03*
%TD*%
D10*
%TO.P,D17,1,K*%
%TO.N,Row 2*%
X86200000Y-66912500D03*
D11*
%TO.P,D17,2,A*%
%TO.N,Net-(D17-A)*%
X86200000Y-59292500D03*
%TD*%
D10*
%TO.P,D18,1,K*%
%TO.N,Row 2*%
X105250000Y-66912500D03*
D11*
%TO.P,D18,2,A*%
%TO.N,Net-(D18-A)*%
X105250000Y-59292500D03*
%TD*%
D12*
%TO.P,SW1,A,A*%
%TO.N,RE_R_A*%
X327250000Y-39000000D03*
D13*
%TO.P,SW1,B,B*%
%TO.N,RE_R_B*%
X327250000Y-44000000D03*
%TO.P,SW1,C,C*%
%TO.N,RE_SW_2*%
X327250000Y-41500000D03*
D14*
%TO.P,SW1,MP,MP*%
X334750000Y-35900000D03*
X334750000Y-47100000D03*
D13*
%TO.P,SW1,S1,S1*%
%TO.N,RE_SW_1*%
X341750000Y-44000000D03*
%TO.P,SW1,S2,S2*%
%TO.N,RE_SW_2*%
X341750000Y-39000000D03*
%TD*%
D10*
%TO.P,D56,1,K*%
%TO.N,Row 4*%
X271937500Y-105012500D03*
D11*
%TO.P,D56,2,A*%
%TO.N,Net-(D56-A)*%
X271937500Y-97392500D03*
%TD*%
D10*
%TO.P,D10,1,K*%
%TO.N,Row 1*%
X233837500Y-43100000D03*
D11*
%TO.P,D10,2,A*%
%TO.N,Net-(D10-A)*%
X233837500Y-35480000D03*
%TD*%
D10*
%TO.P,D23,1,K*%
%TO.N,Row 2*%
X200500000Y-66912500D03*
D11*
%TO.P,D23,2,A*%
%TO.N,Net-(D23-A)*%
X200500000Y-59292500D03*
%TD*%
D10*
%TO.P,D79,1,K*%
%TO.N,Row 6*%
X305275000Y-147875000D03*
D11*
%TO.P,D79,2,A*%
%TO.N,Net-(D79-A)*%
X305275000Y-140255000D03*
%TD*%
D10*
%TO.P,D50,1,K*%
%TO.N,Row 4*%
X157637500Y-105012500D03*
D11*
%TO.P,D50,2,A*%
%TO.N,Net-(D50-A)*%
X157637500Y-97392500D03*
%TD*%
D10*
%TO.P,D33,1,K*%
%TO.N,Row 3*%
X114775000Y-85962500D03*
D11*
%TO.P,D33,2,A*%
%TO.N,Net-(D33-A)*%
X114775000Y-78342500D03*
%TD*%
D10*
%TO.P,D67,1,K*%
%TO.N,Row 5*%
X224312500Y-124062500D03*
D11*
%TO.P,D67,2,A*%
%TO.N,Net-(D67-A)*%
X224312500Y-116442500D03*
%TD*%
D15*
%TO.P,SW2,1,A*%
%TO.N,RE_SW_2*%
X276812500Y-19500000D03*
D16*
%TO.P,SW2,2,B*%
%TO.N,SW_power*%
X279312500Y-19500000D03*
%TO.P,SW2,3,C*%
%TO.N,VCC*%
X281812500Y-19500000D03*
%TD*%
D10*
%TO.P,D8,1,K*%
%TO.N,Row 1*%
X190975000Y-43100000D03*
D11*
%TO.P,D8,2,A*%
%TO.N,Net-(D8-A)*%
X190975000Y-35480000D03*
%TD*%
D10*
%TO.P,D48,1,K*%
%TO.N,Row 4*%
X119537500Y-105012500D03*
D11*
%TO.P,D48,2,A*%
%TO.N,Net-(D48-A)*%
X119537500Y-97392500D03*
%TD*%
D10*
%TO.P,D4,1,K*%
%TO.N,Row 1*%
X110012500Y-43100000D03*
D11*
%TO.P,D4,2,A*%
%TO.N,Net-(D4-A)*%
X110012500Y-35480000D03*
%TD*%
D10*
%TO.P,D63,1,K*%
%TO.N,Row 5*%
X148112500Y-124062500D03*
D11*
%TO.P,D63,2,A*%
%TO.N,Net-(D63-A)*%
X148112500Y-116442500D03*
%TD*%
D10*
%TO.P,D73,1,K*%
%TO.N,Row 6*%
X71912500Y-143112500D03*
D11*
%TO.P,D73,2,A*%
%TO.N,Net-(D73-A)*%
X71912500Y-135492500D03*
%TD*%
D10*
%TO.P,D30,1,K*%
%TO.N,Row 3*%
X52862500Y-85962500D03*
D11*
%TO.P,D30,2,A*%
%TO.N,Net-(D30-A)*%
X52862500Y-78342500D03*
%TD*%
D10*
%TO.P,D3,1,K*%
%TO.N,Row 1*%
X90962500Y-43100000D03*
D11*
%TO.P,D3,2,A*%
%TO.N,Net-(D3-A)*%
X90962500Y-35480000D03*
%TD*%
D10*
%TO.P,D12,1,K*%
%TO.N,Row 1*%
X271937500Y-43100000D03*
D11*
%TO.P,D12,2,A*%
%TO.N,Net-(D12-A)*%
X271937500Y-35480000D03*
%TD*%
D10*
%TO.P,D7,1,K*%
%TO.N,Row 1*%
X171925000Y-43100000D03*
D11*
%TO.P,D7,2,A*%
%TO.N,Net-(D7-A)*%
X171925000Y-35480000D03*
%TD*%
D10*
%TO.P,D40,1,K*%
%TO.N,Row 3*%
X248125000Y-85962500D03*
D11*
%TO.P,D40,2,A*%
%TO.N,Net-(D40-A)*%
X248125000Y-78342500D03*
%TD*%
D10*
%TO.P,D26,1,K*%
%TO.N,Row 2*%
X257650000Y-66912500D03*
D11*
%TO.P,D26,2,A*%
%TO.N,Net-(D26-A)*%
X257650000Y-59292500D03*
%TD*%
D10*
%TO.P,D39,1,K*%
%TO.N,Row 3*%
X229075000Y-85962500D03*
D11*
%TO.P,D39,2,A*%
%TO.N,Net-(D39-A)*%
X229075000Y-78342500D03*
%TD*%
D10*
%TO.P,D47,1,K*%
%TO.N,Row 4*%
X100487500Y-105012500D03*
D11*
%TO.P,D47,2,A*%
%TO.N,Net-(D47-A)*%
X100487500Y-97392500D03*
%TD*%
D10*
%TO.P,D38,1,K*%
%TO.N,Row 3*%
X210025000Y-85962500D03*
D11*
%TO.P,D38,2,A*%
%TO.N,Net-(D38-A)*%
X210025000Y-78342500D03*
%TD*%
D10*
%TO.P,D69,1,K*%
%TO.N,Row 5*%
X262412500Y-124062500D03*
D11*
%TO.P,D69,2,A*%
%TO.N,Net-(D69-A)*%
X262412500Y-116442500D03*
%TD*%
D10*
%TO.P,D58,1,K*%
%TO.N,Row 4*%
X343375000Y-105012500D03*
D11*
%TO.P,D58,2,A*%
%TO.N,Net-(D58-A)*%
X343375000Y-97392500D03*
%TD*%
D10*
%TO.P,D22,1,K*%
%TO.N,Row 2*%
X181450000Y-66912500D03*
D11*
%TO.P,D22,2,A*%
%TO.N,Net-(D22-A)*%
X181450000Y-59292500D03*
%TD*%
D10*
%TO.P,D72,1,K*%
%TO.N,Row 6*%
X50481300Y-143112500D03*
D11*
%TO.P,D72,2,A*%
%TO.N,Net-(D72-A)*%
X50481300Y-135492500D03*
%TD*%
D10*
%TO.P,D14,1,K*%
%TO.N,Row 1*%
X314800000Y-43100000D03*
D11*
%TO.P,D14,2,A*%
%TO.N,Net-(D14-A)*%
X314800000Y-35480000D03*
%TD*%
D10*
%TO.P,D6,1,K*%
%TO.N,Row 1*%
X152875000Y-43100000D03*
D11*
%TO.P,D6,2,A*%
%TO.N,Net-(D6-A)*%
X152875000Y-35480000D03*
%TD*%
D10*
%TO.P,D27,1,K*%
%TO.N,Row 2*%
X276700000Y-66912500D03*
D11*
%TO.P,D27,2,A*%
%TO.N,Net-(D27-A)*%
X276700000Y-59292500D03*
%TD*%
D10*
%TO.P,D2,1,K*%
%TO.N,Row 1*%
X71912500Y-43100000D03*
D11*
%TO.P,D2,2,A*%
%TO.N,Net-(D2-A)*%
X71912500Y-35480000D03*
%TD*%
D10*
%TO.P,D24,1,K*%
%TO.N,Row 2*%
X219550000Y-66912500D03*
D11*
%TO.P,D24,2,A*%
%TO.N,Net-(D24-A)*%
X219550000Y-59292500D03*
%TD*%
D17*
%TO.P,C21,1*%
%TO.N,VCC*%
X66594900Y-19100000D03*
D11*
%TO.P,C21,2*%
%TO.N,RE_SW_2*%
X69094900Y-19100000D03*
%TD*%
D10*
%TO.P,D25,1,K*%
%TO.N,Row 2*%
X238600000Y-66912500D03*
D11*
%TO.P,D25,2,A*%
%TO.N,Net-(D25-A)*%
X238600000Y-59292500D03*
%TD*%
D10*
%TO.P,D42,1,K*%
%TO.N,Row 3*%
X286225000Y-85962500D03*
D11*
%TO.P,D42,2,A*%
%TO.N,Net-(D42-A)*%
X286225000Y-78342500D03*
%TD*%
D10*
%TO.P,D5,1,K*%
%TO.N,Row 1*%
X129062500Y-43100000D03*
D11*
%TO.P,D5,2,A*%
%TO.N,Net-(D5-A)*%
X129062500Y-35480000D03*
%TD*%
D10*
%TO.P,D62,1,K*%
%TO.N,Row 5*%
X129062500Y-124062500D03*
D11*
%TO.P,D62,2,A*%
%TO.N,Net-(D62-A)*%
X129062500Y-116442500D03*
%TD*%
D10*
%TO.P,D68,1,K*%
%TO.N,Row 5*%
X243362500Y-124062500D03*
D11*
%TO.P,D68,2,A*%
%TO.N,Net-(D68-A)*%
X243362500Y-116442500D03*
%TD*%
D18*
%TO.P,BT1,1,+*%
%TO.N,Batt+*%
X320460000Y-16900000D03*
D19*
%TO.P,BT1,2,-*%
%TO.N,RE_SW_2*%
X323000000Y-16900000D03*
%TD*%
D10*
%TO.P,D41,1,K*%
%TO.N,Row 3*%
X267175000Y-85962500D03*
D11*
%TO.P,D41,2,A*%
%TO.N,Net-(D41-A)*%
X267175000Y-78342500D03*
%TD*%
D10*
%TO.P,D32,1,K*%
%TO.N,Row 3*%
X95725000Y-85962500D03*
D11*
%TO.P,D32,2,A*%
%TO.N,Net-(D32-A)*%
X95725000Y-78342500D03*
%TD*%
D10*
%TO.P,D70,1,K*%
%TO.N,Row 5*%
X288606300Y-124062500D03*
D11*
%TO.P,D70,2,A*%
%TO.N,Net-(D70-A)*%
X288606300Y-116442500D03*
%TD*%
D10*
%TO.P,D52,1,K*%
%TO.N,Row 4*%
X195737500Y-105012500D03*
D11*
%TO.P,D52,2,A*%
%TO.N,Net-(D52-A)*%
X195737500Y-97392500D03*
%TD*%
D20*
%TO.P,U2,1,1*%
%TO.N,Col 1*%
X28510000Y-26320000D03*
%TO.P,U2,2,0*%
%TO.N,Col 2*%
X31050000Y-26320000D03*
%TO.P,U2,3,GND*%
%TO.N,RE_SW_2*%
X33590000Y-26320000D03*
%TO.P,U2,4,GND*%
X36130000Y-26320000D03*
%TO.P,U2,5,2*%
%TO.N,SDA*%
X38670000Y-26320000D03*
%TO.P,U2,6,3*%
%TO.N,SCL*%
X41210000Y-26320000D03*
%TO.P,U2,7,4*%
%TO.N,Col 3*%
X43750000Y-26320000D03*
%TO.P,U2,8,5*%
%TO.N,Col 4*%
X46290000Y-26320000D03*
%TO.P,U2,9,6*%
%TO.N,Col 5*%
X48830000Y-26320000D03*
%TO.P,U2,10,7*%
%TO.N,Col 6*%
X51370000Y-26320000D03*
%TO.P,U2,11,8*%
%TO.N,Col 7*%
X53910000Y-26320000D03*
%TO.P,U2,12,9*%
%TO.N,Col 8*%
X56450000Y-26320000D03*
%TO.P,U2,13,10*%
%TO.N,SW_power*%
X56450000Y-11080000D03*
%TO.P,U2,14,16*%
%TO.N,Col 15*%
X53910000Y-11080000D03*
%TO.P,U2,15,14*%
%TO.N,Col 14*%
X51370000Y-11080000D03*
%TO.P,U2,16,15*%
%TO.N,Col 13*%
X48830000Y-11080000D03*
%TO.P,U2,17,18*%
%TO.N,Col 12*%
X46290000Y-11080000D03*
%TO.P,U2,18,19*%
%TO.N,Col 11*%
X43750000Y-11080000D03*
%TO.P,U2,19,20*%
%TO.N,Col 10*%
X41210000Y-11080000D03*
%TO.P,U2,20,21*%
%TO.N,Col 9*%
X38670000Y-11080000D03*
%TO.P,U2,21,3.3v*%
%TO.N,VCC*%
X36130000Y-11080000D03*
%TO.P,U2,22,RST*%
%TO.N,unconnected-(U2-RST-Pad22)*%
X33590000Y-11080000D03*
%TO.P,U2,23,GND*%
%TO.N,RE_SW_2*%
X31050000Y-11080000D03*
%TO.P,U2,24,B+*%
%TO.N,Batt+*%
X28510000Y-11080000D03*
%TO.P,U2,25,1*%
%TO.N,unconnected-(U2-1-Pad25)*%
X51370000Y-23780000D03*
%TO.P,U2,26,2*%
%TO.N,unconnected-(U2-2-Pad26)*%
X51370000Y-21240000D03*
%TO.P,U2,27,7*%
%TO.N,unconnected-(U2-7-Pad27)*%
X51370000Y-18700000D03*
%TD*%
D10*
%TO.P,D45,1,K*%
%TO.N,Row 4*%
X55243800Y-105012500D03*
D11*
%TO.P,D45,2,A*%
%TO.N,Net-(D45-A)*%
X55243800Y-97392500D03*
%TD*%
D10*
%TO.P,D59,1,K*%
%TO.N,Row 5*%
X69200000Y-124310000D03*
D11*
%TO.P,D59,2,A*%
%TO.N,Net-(D59-A)*%
X69200000Y-116690000D03*
%TD*%
D10*
%TO.P,D57,1,K*%
%TO.N,Row 4*%
X311700000Y-104910000D03*
D11*
%TO.P,D57,2,A*%
%TO.N,Net-(D57-A)*%
X311700000Y-97290000D03*
%TD*%
D10*
%TO.P,D9,1,K*%
%TO.N,Row 1*%
X210025000Y-43100000D03*
D11*
%TO.P,D9,2,A*%
%TO.N,Net-(D9-A)*%
X210025000Y-35480000D03*
%TD*%
D10*
%TO.P,D76,1,K*%
%TO.N,Row 6*%
X233837500Y-143112500D03*
D11*
%TO.P,D76,2,A*%
%TO.N,Net-(D76-A)*%
X233837500Y-135492500D03*
%TD*%
D10*
%TO.P,D34,1,K*%
%TO.N,Row 3*%
X133825000Y-85962500D03*
D11*
%TO.P,D34,2,A*%
%TO.N,Net-(D34-A)*%
X133825000Y-78342500D03*
%TD*%
D10*
%TO.P,D1,1,K*%
%TO.N,Row 1*%
X48100000Y-43100000D03*
D11*
%TO.P,D1,2,A*%
%TO.N,Net-(D1-A)*%
X48100000Y-35480000D03*
%TD*%
D10*
%TO.P,U1,1,GPB0*%
%TO.N,Row 1*%
X80440000Y-21700000D03*
D11*
%TO.P,U1,2,GPB1*%
%TO.N,Row 2*%
X82980000Y-21700000D03*
%TO.P,U1,3,GPB2*%
%TO.N,Row 3*%
X85520000Y-21700000D03*
%TO.P,U1,4,GPB3*%
%TO.N,Row 4*%
X88060000Y-21700000D03*
%TO.P,U1,5,GPB4*%
%TO.N,Row 5*%
X90600000Y-21700000D03*
%TO.P,U1,6,GPB5*%
%TO.N,Row 6*%
X93140000Y-21700000D03*
%TO.P,U1,7,GPB6*%
%TO.N,unconnected-(U1-GPB6-Pad7)*%
X95680000Y-21700000D03*
%TO.P,U1,8,GPB7*%
%TO.N,unconnected-(U1-GPB7-Pad8)*%
X98220000Y-21700000D03*
%TO.P,U1,9,VDD*%
%TO.N,VCC*%
X100760000Y-21700000D03*
%TO.P,U1,10,VSS*%
%TO.N,RE_SW_2*%
X103300000Y-21700000D03*
%TO.P,U1,11,NC*%
%TO.N,unconnected-(U1-NC-Pad11)*%
X105840000Y-21700000D03*
%TO.P,U1,12,SCK*%
%TO.N,SCL*%
X108380000Y-21700000D03*
%TO.P,U1,13,SDA*%
%TO.N,SDA*%
X110920000Y-21700000D03*
%TO.P,U1,14,NC*%
%TO.N,unconnected-(U1-NC-Pad14)*%
X113460000Y-21700000D03*
%TO.P,U1,15,A0*%
%TO.N,RE_SW_2*%
X113460000Y-14080000D03*
%TO.P,U1,16,A1*%
X110920000Y-14080000D03*
%TO.P,U1,17,A2*%
X108380000Y-14080000D03*
%TO.P,U1,18,~{RESET}*%
%TO.N,VCC*%
X105840000Y-14080000D03*
%TO.P,U1,19,INTB*%
%TO.N,unconnected-(U1-INTB-Pad19)*%
X103300000Y-14080000D03*
%TO.P,U1,20,INTA*%
%TO.N,unconnected-(U1-INTA-Pad20)*%
X100760000Y-14080000D03*
%TO.P,U1,21,GPA0*%
%TO.N,LED*%
X98220000Y-14080000D03*
%TO.P,U1,22,GPA1*%
%TO.N,unconnected-(U1-GPA1-Pad22)*%
X95680000Y-14080000D03*
%TO.P,U1,23,GPA2*%
%TO.N,RE_R_A*%
X93140000Y-14080000D03*
%TO.P,U1,24,GPA3*%
%TO.N,RE_R_B*%
X90600000Y-14080000D03*
%TO.P,U1,25,GPA4*%
%TO.N,unconnected-(U1-GPA4-Pad25)*%
X88060000Y-14080000D03*
%TO.P,U1,26,GPA5*%
%TO.N,RE_SW_1*%
X85520000Y-14080000D03*
%TO.P,U1,27,GPA6*%
%TO.N,unconnected-(U1-GPA6-Pad27)*%
X82980000Y-14080000D03*
%TO.P,U1,28,GPA7*%
%TO.N,unconnected-(U1-GPA7-Pad28)*%
X80440000Y-14080000D03*
%TD*%
D10*
%TO.P,D31,1,K*%
%TO.N,Row 3*%
X76675000Y-85962500D03*
D11*
%TO.P,D31,2,A*%
%TO.N,Net-(D31-A)*%
X76675000Y-78342500D03*
%TD*%
D10*
%TO.P,D37,1,K*%
%TO.N,Row 3*%
X190975000Y-85962500D03*
D11*
%TO.P,D37,2,A*%
%TO.N,Net-(D37-A)*%
X190975000Y-78342500D03*
%TD*%
D10*
%TO.P,D64,1,K*%
%TO.N,Row 5*%
X167162500Y-124062500D03*
D11*
%TO.P,D64,2,A*%
%TO.N,Net-(D64-A)*%
X167162500Y-116442500D03*
%TD*%
D10*
%TO.P,D81,1,K*%
%TO.N,Row 6*%
X343375000Y-147875000D03*
D11*
%TO.P,D81,2,A*%
%TO.N,Net-(D81-A)*%
X343375000Y-140255000D03*
%TD*%
D10*
%TO.P,D16,1,K*%
%TO.N,Row 2*%
X67150000Y-66912500D03*
D11*
%TO.P,D16,2,A*%
%TO.N,Net-(D16-A)*%
X67150000Y-59292500D03*
%TD*%
D10*
%TO.P,D78,1,K*%
%TO.N,Row 6*%
X271937500Y-143112500D03*
D11*
%TO.P,D78,2,A*%
%TO.N,Net-(D78-A)*%
X271937500Y-135492500D03*
%TD*%
D10*
%TO.P,D11,1,K*%
%TO.N,Row 1*%
X252887500Y-43100000D03*
D11*
%TO.P,D11,2,A*%
%TO.N,Net-(D11-A)*%
X252887500Y-35480000D03*
%TD*%
D10*
%TO.P,D77,1,K*%
%TO.N,Row 6*%
X252887500Y-143112500D03*
D11*
%TO.P,D77,2,A*%
%TO.N,Net-(D77-A)*%
X252887500Y-135492500D03*
%TD*%
%TO.P,R1,1*%
%TO.N,SDA*%
X136390000Y-17100000D03*
%TO.P,R1,2*%
%TO.N,VCC*%
X144010000Y-17100000D03*
%TD*%
D10*
%TO.P,D65,1,K*%
%TO.N,Row 5*%
X186212500Y-124062500D03*
D11*
%TO.P,D65,2,A*%
%TO.N,Net-(D65-A)*%
X186212500Y-116442500D03*
%TD*%
D10*
%TO.P,D60,1,K*%
%TO.N,Row 5*%
X90962500Y-124062500D03*
D11*
%TO.P,D60,2,A*%
%TO.N,Net-(D60-A)*%
X90962500Y-116442500D03*
%TD*%
D10*
%TO.P,D35,1,K*%
%TO.N,Row 3*%
X152875000Y-85962500D03*
D11*
%TO.P,D35,2,A*%
%TO.N,Net-(D35-A)*%
X152875000Y-78342500D03*
%TD*%
D10*
%TO.P,D53,1,K*%
%TO.N,Row 4*%
X214787500Y-105012500D03*
D11*
%TO.P,D53,2,A*%
%TO.N,Net-(D53-A)*%
X214787500Y-97392500D03*
%TD*%
D10*
%TO.P,D36,1,K*%
%TO.N,Row 3*%
X171925000Y-85962500D03*
D11*
%TO.P,D36,2,A*%
%TO.N,Net-(D36-A)*%
X171925000Y-78342500D03*
%TD*%
%TO.P,R2,1*%
%TO.N,VCC*%
X144310000Y-23400000D03*
%TO.P,R2,2*%
%TO.N,SCL*%
X136690000Y-23400000D03*
%TD*%
D10*
%TO.P,D21,1,K*%
%TO.N,Row 2*%
X162400000Y-66912500D03*
D11*
%TO.P,D21,2,A*%
%TO.N,Net-(D21-A)*%
X162400000Y-59292500D03*
%TD*%
D10*
%TO.P,D54,1,K*%
%TO.N,Row 4*%
X233837500Y-105012500D03*
D11*
%TO.P,D54,2,A*%
%TO.N,Net-(D54-A)*%
X233837500Y-97392500D03*
%TD*%
D10*
%TO.P,D15,1,K*%
%TO.N,Row 2*%
X48100000Y-66912500D03*
D11*
%TO.P,D15,2,A*%
%TO.N,Net-(D15-A)*%
X48100000Y-59292500D03*
%TD*%
D10*
%TO.P,D74,1,K*%
%TO.N,Row 6*%
X93343800Y-143112500D03*
D11*
%TO.P,D74,2,A*%
%TO.N,Net-(D74-A)*%
X93343800Y-135492500D03*
%TD*%
D10*
%TO.P,D71,1,K*%
%TO.N,Row 5*%
X324325000Y-128825000D03*
D11*
%TO.P,D71,2,A*%
%TO.N,Net-(D71-A)*%
X324325000Y-121205000D03*
%TD*%
D10*
%TO.P,D66,1,K*%
%TO.N,Row 5*%
X205262500Y-124062500D03*
D11*
%TO.P,D66,2,A*%
%TO.N,Net-(D66-A)*%
X205262500Y-116442500D03*
%TD*%
D10*
%TO.P,D80,1,K*%
%TO.N,Row 6*%
X324325000Y-147875000D03*
D11*
%TO.P,D80,2,A*%
%TO.N,Net-(D80-A)*%
X324325000Y-140255000D03*
%TD*%
D10*
%TO.P,D29,1,K*%
%TO.N,Row 2*%
X343375000Y-66912500D03*
D11*
%TO.P,D29,2,A*%
%TO.N,Net-(D29-A)*%
X343375000Y-59292500D03*
%TD*%
D10*
%TO.P,D43,1,K*%
%TO.N,Row 3*%
X310037500Y-85962500D03*
D11*
%TO.P,D43,2,A*%
%TO.N,Net-(D43-A)*%
X310037500Y-78342500D03*
%TD*%
D10*
%TO.P,D49,1,K*%
%TO.N,Row 4*%
X138587500Y-105012500D03*
D11*
%TO.P,D49,2,A*%
%TO.N,Net-(D49-A)*%
X138587500Y-97392500D03*
%TD*%
D10*
%TO.P,D20,1,K*%
%TO.N,Row 2*%
X143350000Y-66912500D03*
D11*
%TO.P,D20,2,A*%
%TO.N,Net-(D20-A)*%
X143350000Y-59292500D03*
%TD*%
D10*
%TO.P,D51,1,K*%
%TO.N,Row 4*%
X176687500Y-105012500D03*
D11*
%TO.P,D51,2,A*%
%TO.N,Net-(D51-A)*%
X176687500Y-97392500D03*
%TD*%
D10*
%TO.P,D28,1,K*%
%TO.N,Row 2*%
X313100000Y-66720000D03*
D11*
%TO.P,D28,2,A*%
%TO.N,Net-(D28-A)*%
X313100000Y-59100000D03*
%TD*%
D10*
%TO.P,D19,1,K*%
%TO.N,Row 2*%
X124300000Y-66912500D03*
D11*
%TO.P,D19,2,A*%
%TO.N,Net-(D19-A)*%
X124300000Y-59292500D03*
%TD*%
D10*
%TO.P,D44,1,K*%
%TO.N,Row 3*%
X343375000Y-85962500D03*
D11*
%TO.P,D44,2,A*%
%TO.N,Net-(D44-A)*%
X343375000Y-78342500D03*
%TD*%
D10*
%TO.P,D13,1,K*%
%TO.N,Row 1*%
X290987500Y-43100000D03*
D11*
%TO.P,D13,2,A*%
%TO.N,Net-(D13-A)*%
X290987500Y-35480000D03*
%TD*%
D10*
%TO.P,D46,1,K*%
%TO.N,Row 4*%
X81437500Y-105012500D03*
D11*
%TO.P,D46,2,A*%
%TO.N,Net-(D46-A)*%
X81437500Y-97392500D03*
%TD*%
D21*
%TO.P,S12,1,1*%
%TO.N,Col 12*%
X258762500Y-39370000D03*
%TO.P,S12,2,2*%
%TO.N,Net-(D12-A)*%
X265112500Y-36830000D03*
%TD*%
%TO.P,S70,1,1*%
%TO.N,Col 12*%
X275431300Y-120332500D03*
%TO.P,S70,2,2*%
%TO.N,Net-(D70-A)*%
X281781300Y-117792500D03*
%TD*%
%TO.P,S39,1,1*%
%TO.N,Col 10*%
X215900000Y-82232500D03*
%TO.P,S39,2,2*%
%TO.N,Net-(D39-A)*%
X222250000Y-79692500D03*
%TD*%
%TO.P,S57,1,1*%
%TO.N,Col 14*%
X289718800Y-101282500D03*
%TO.P,S57,2,2*%
%TO.N,Net-(D57-A)*%
X296068800Y-98742500D03*
%TD*%
%TO.P,S59,1,1*%
%TO.N,Col 1*%
X46831300Y-120332500D03*
%TO.P,S59,2,2*%
%TO.N,Net-(D59-A)*%
X53181300Y-117792500D03*
%TD*%
D22*
%TO.P,C14,1*%
%TO.N,VCC*%
X33505100Y-130900000D03*
D11*
%TO.P,C14,2*%
%TO.N,RE_SW_2*%
X31005100Y-130900000D03*
%TD*%
D21*
%TO.P,S65,1,1*%
%TO.N,Col 7*%
X173037500Y-120332500D03*
%TO.P,S65,2,2*%
%TO.N,Net-(D65-A)*%
X179387500Y-117792500D03*
%TD*%
%TO.P,S8,1,1*%
%TO.N,Col 8*%
X177800000Y-39370000D03*
%TO.P,S8,2,2*%
%TO.N,Net-(D8-A)*%
X184150000Y-36830000D03*
%TD*%
%TO.P,S44,1,1*%
%TO.N,Col 15*%
X330200000Y-82232500D03*
%TO.P,S44,2,2*%
%TO.N,Net-(D44-A)*%
X336550000Y-79692500D03*
%TD*%
%TO.P,S60,1,1*%
%TO.N,Col 2*%
X77787500Y-120332500D03*
%TO.P,S60,2,2*%
%TO.N,Net-(D60-A)*%
X84137500Y-117792500D03*
%TD*%
%TO.P,S47,1,1*%
%TO.N,Col 3*%
X87312500Y-101282500D03*
%TO.P,S47,2,2*%
%TO.N,Net-(D47-A)*%
X93662500Y-98742500D03*
%TD*%
%TO.P,S81,1,1*%
%TO.N,Col 15*%
X330200000Y-144145000D03*
%TO.P,S81,2,2*%
%TO.N,Net-(D81-A)*%
X336550000Y-141605000D03*
%TD*%
%TO.P,S69,1,1*%
%TO.N,Col 11*%
X249237500Y-120332500D03*
%TO.P,S69,2,2*%
%TO.N,Net-(D69-A)*%
X255587500Y-117792500D03*
%TD*%
D22*
%TO.P,C6,1*%
%TO.N,VCC*%
X163705100Y-74700000D03*
D11*
%TO.P,C6,2*%
%TO.N,RE_SW_2*%
X161205100Y-74700000D03*
%TD*%
D21*
%TO.P,S66,1,1*%
%TO.N,Col 8*%
X192087500Y-120332500D03*
%TO.P,S66,2,2*%
%TO.N,Net-(D66-A)*%
X198437500Y-117792500D03*
%TD*%
%TO.P,S9,1,1*%
%TO.N,Col 9*%
X196850000Y-39370000D03*
%TO.P,S9,2,2*%
%TO.N,Net-(D9-A)*%
X203200000Y-36830000D03*
%TD*%
%TO.P,S77,1,1*%
%TO.N,Col 11*%
X239712500Y-139382500D03*
%TO.P,S77,2,2*%
%TO.N,Net-(D77-A)*%
X246062500Y-136842500D03*
%TD*%
D22*
%TO.P,C8,1*%
%TO.N,VCC*%
X34205100Y-94400000D03*
D11*
%TO.P,C8,2*%
%TO.N,RE_SW_2*%
X31705100Y-94400000D03*
%TD*%
D21*
%TO.P,S30,1,1*%
%TO.N,Col 1*%
X39687500Y-82232500D03*
%TO.P,S30,2,2*%
%TO.N,Net-(D30-A)*%
X46037500Y-79692500D03*
%TD*%
D22*
%TO.P,C20,1*%
%TO.N,VCC*%
X320500000Y-95500000D03*
D11*
%TO.P,C20,2*%
%TO.N,RE_SW_2*%
X318000000Y-95500000D03*
%TD*%
D22*
%TO.P,C7,1*%
%TO.N,VCC*%
X68300000Y-74600000D03*
D11*
%TO.P,C7,2*%
%TO.N,RE_SW_2*%
X65800000Y-74600000D03*
%TD*%
D21*
%TO.P,S40,1,1*%
%TO.N,Col 11*%
X234950000Y-82232500D03*
%TO.P,S40,2,2*%
%TO.N,Net-(D40-A)*%
X241300000Y-79692500D03*
%TD*%
%TO.P,S38,1,1*%
%TO.N,Col 9*%
X196850000Y-82232500D03*
%TO.P,S38,2,2*%
%TO.N,Net-(D38-A)*%
X203200000Y-79692500D03*
%TD*%
%TO.P,S76,1,1*%
%TO.N,Col 10*%
X220662500Y-139382500D03*
%TO.P,S76,2,2*%
%TO.N,Net-(D76-A)*%
X227012500Y-136842500D03*
%TD*%
D22*
%TO.P,C10,1*%
%TO.N,VCC*%
X211500000Y-93500000D03*
D11*
%TO.P,C10,2*%
%TO.N,RE_SW_2*%
X209000000Y-93500000D03*
%TD*%
D21*
%TO.P,S52,1,1*%
%TO.N,Col 8*%
X182562500Y-101282500D03*
%TO.P,S52,2,2*%
%TO.N,Net-(D52-A)*%
X188912500Y-98742500D03*
%TD*%
%TO.P,S79,1,1*%
%TO.N,Col 13*%
X292100000Y-144145000D03*
%TO.P,S79,2,2*%
%TO.N,Net-(D79-A)*%
X298450000Y-141605000D03*
%TD*%
%TO.P,S2,1,1*%
%TO.N,Col 2*%
X58737500Y-39370000D03*
%TO.P,S2,2,2*%
%TO.N,Net-(D2-A)*%
X65087500Y-36830000D03*
%TD*%
%TO.P,S17,1,1*%
%TO.N,Col 3*%
X73025000Y-63182500D03*
%TO.P,S17,2,2*%
%TO.N,Net-(D17-A)*%
X79375000Y-60642500D03*
%TD*%
%TO.P,S41,1,1*%
%TO.N,Col 12*%
X254000000Y-82232500D03*
%TO.P,S41,2,2*%
%TO.N,Net-(D41-A)*%
X260350000Y-79692500D03*
%TD*%
%TO.P,S80,1,1*%
%TO.N,Col 14*%
X311150000Y-144145000D03*
%TO.P,S80,2,2*%
%TO.N,Net-(D80-A)*%
X317500000Y-141605000D03*
%TD*%
%TO.P,S32,1,1*%
%TO.N,Col 3*%
X82550000Y-82232500D03*
%TO.P,S32,2,2*%
%TO.N,Net-(D32-A)*%
X88900000Y-79692500D03*
%TD*%
%TO.P,S75,1,1*%
%TO.N,Col 7*%
X151606300Y-139382500D03*
%TO.P,S75,2,2*%
%TO.N,Net-(D75-A)*%
X157956300Y-136842500D03*
%TD*%
%TO.P,S37,1,1*%
%TO.N,Col 8*%
X177800000Y-82232500D03*
%TO.P,S37,2,2*%
%TO.N,Net-(D37-A)*%
X184150000Y-79692500D03*
%TD*%
%TO.P,S4,1,1*%
%TO.N,Col 4*%
X96837500Y-39370000D03*
%TO.P,S4,2,2*%
%TO.N,Net-(D4-A)*%
X103187500Y-36830000D03*
%TD*%
%TO.P,S18,1,1*%
%TO.N,Col 4*%
X92075000Y-63182500D03*
%TO.P,S18,2,2*%
%TO.N,Net-(D18-A)*%
X98425000Y-60642500D03*
%TD*%
%TO.P,S20,1,1*%
%TO.N,Col 6*%
X130175000Y-63182500D03*
%TO.P,S20,2,2*%
%TO.N,Net-(D20-A)*%
X136525000Y-60642500D03*
%TD*%
D22*
%TO.P,C2,1*%
%TO.N,VCC*%
X123605113Y-53800000D03*
D11*
%TO.P,C2,2*%
%TO.N,RE_SW_2*%
X121105113Y-53800000D03*
%TD*%
D21*
%TO.P,S14,1,1*%
%TO.N,Col 14*%
X301625000Y-39370000D03*
%TO.P,S14,2,2*%
%TO.N,Net-(D14-A)*%
X307975000Y-36830000D03*
%TD*%
D22*
%TO.P,C1,1*%
%TO.N,VCC*%
X35994900Y-53700000D03*
D11*
%TO.P,C1,2*%
%TO.N,RE_SW_2*%
X33494900Y-53700000D03*
%TD*%
D21*
%TO.P,S27,1,1*%
%TO.N,Col 13*%
X263525000Y-63182500D03*
%TO.P,S27,2,2*%
%TO.N,Net-(D27-A)*%
X269875000Y-60642500D03*
%TD*%
D22*
%TO.P,C4,1*%
%TO.N,VCC*%
X279205113Y-53700000D03*
D11*
%TO.P,C4,2*%
%TO.N,RE_SW_2*%
X276705113Y-53700000D03*
%TD*%
D21*
%TO.P,S71,1,1*%
%TO.N,Col 15*%
X311150000Y-125095000D03*
%TO.P,S71,2,2*%
%TO.N,Net-(D71-A)*%
X317500000Y-122555000D03*
%TD*%
%TO.P,S29,1,1*%
%TO.N,Col 15*%
X330200000Y-63182500D03*
%TO.P,S29,2,2*%
%TO.N,Net-(D29-A)*%
X336550000Y-60642500D03*
%TD*%
%TO.P,S58,1,1*%
%TO.N,Col 15*%
X330200000Y-101282500D03*
%TO.P,S58,2,2*%
%TO.N,Net-(D58-A)*%
X336550000Y-98742500D03*
%TD*%
%TO.P,S49,1,1*%
%TO.N,Col 5*%
X125412500Y-101282500D03*
%TO.P,S49,2,2*%
%TO.N,Net-(D49-A)*%
X131762500Y-98742500D03*
%TD*%
%TO.P,S23,1,1*%
%TO.N,Col 9*%
X187325000Y-63182500D03*
%TO.P,S23,2,2*%
%TO.N,Net-(D23-A)*%
X193675000Y-60642500D03*
%TD*%
%TO.P,S33,1,1*%
%TO.N,Col 4*%
X101600000Y-82232500D03*
%TO.P,S33,2,2*%
%TO.N,Net-(D33-A)*%
X107950000Y-79692500D03*
%TD*%
D22*
%TO.P,C13,1*%
%TO.N,VCC*%
X158700000Y-112800000D03*
D11*
%TO.P,C13,2*%
%TO.N,RE_SW_2*%
X156200000Y-112800000D03*
%TD*%
D22*
%TO.P,C18,1*%
%TO.N,VCC*%
X336300000Y-123300000D03*
D11*
%TO.P,C18,2*%
%TO.N,RE_SW_2*%
X333800000Y-123300000D03*
%TD*%
D21*
%TO.P,S78,1,1*%
%TO.N,Col 12*%
X258762500Y-139382500D03*
%TO.P,S78,2,2*%
%TO.N,Net-(D78-A)*%
X265112500Y-136842500D03*
%TD*%
%TO.P,S46,1,1*%
%TO.N,Col 2*%
X68262500Y-101282500D03*
%TO.P,S46,2,2*%
%TO.N,Net-(D46-A)*%
X74612500Y-98742500D03*
%TD*%
%TO.P,S68,1,1*%
%TO.N,Col 10*%
X230187500Y-120332500D03*
%TO.P,S68,2,2*%
%TO.N,Net-(D68-A)*%
X236537500Y-117792500D03*
%TD*%
%TO.P,S31,1,1*%
%TO.N,Col 2*%
X63500000Y-82232500D03*
%TO.P,S31,2,2*%
%TO.N,Net-(D31-A)*%
X69850000Y-79692500D03*
%TD*%
%TO.P,S24,1,1*%
%TO.N,Col 10*%
X206375000Y-63182500D03*
%TO.P,S24,2,2*%
%TO.N,Net-(D24-A)*%
X212725000Y-60642500D03*
%TD*%
%TO.P,S6,1,1*%
%TO.N,Col 6*%
X139700000Y-39370000D03*
%TO.P,S6,2,2*%
%TO.N,Net-(D6-A)*%
X146050000Y-36830000D03*
%TD*%
%TO.P,S11,1,1*%
%TO.N,Col 11*%
X239712500Y-39370000D03*
%TO.P,S11,2,2*%
%TO.N,Net-(D11-A)*%
X246062500Y-36830000D03*
%TD*%
%TO.P,S45,1,1*%
%TO.N,Col 1*%
X42068800Y-101282500D03*
%TO.P,S45,2,2*%
%TO.N,Net-(D45-A)*%
X48418800Y-98742500D03*
%TD*%
D22*
%TO.P,C5,1*%
%TO.N,VCC*%
X239905100Y-74600000D03*
D11*
%TO.P,C5,2*%
%TO.N,RE_SW_2*%
X237405100Y-74600000D03*
%TD*%
D21*
%TO.P,S73,1,1*%
%TO.N,Col 2*%
X58737500Y-139382500D03*
%TO.P,S73,2,2*%
%TO.N,Net-(D73-A)*%
X65087500Y-136842500D03*
%TD*%
%TO.P,S26,1,1*%
%TO.N,Col 12*%
X244475000Y-63182500D03*
%TO.P,S26,2,2*%
%TO.N,Net-(D26-A)*%
X250825000Y-60642500D03*
%TD*%
D22*
%TO.P,C3,1*%
%TO.N,VCC*%
X201905113Y-53400000D03*
D11*
%TO.P,C3,2*%
%TO.N,RE_SW_2*%
X199405113Y-53400000D03*
%TD*%
D21*
%TO.P,S51,1,1*%
%TO.N,Col 7*%
X163512500Y-101282500D03*
%TO.P,S51,2,2*%
%TO.N,Net-(D51-A)*%
X169862500Y-98742500D03*
%TD*%
%TO.P,S35,1,1*%
%TO.N,Col 6*%
X139700000Y-82232500D03*
%TO.P,S35,2,2*%
%TO.N,Net-(D35-A)*%
X146050000Y-79692500D03*
%TD*%
%TO.P,S36,1,1*%
%TO.N,Col 7*%
X158750000Y-82232500D03*
%TO.P,S36,2,2*%
%TO.N,Net-(D36-A)*%
X165100000Y-79692500D03*
%TD*%
%TO.P,S15,1,1*%
%TO.N,Col 1*%
X34925000Y-63182500D03*
%TO.P,S15,2,2*%
%TO.N,Net-(D15-A)*%
X41275000Y-60642500D03*
%TD*%
%TO.P,S61,1,1*%
%TO.N,Col 3*%
X96837500Y-120332500D03*
%TO.P,S61,2,2*%
%TO.N,Net-(D61-A)*%
X103187500Y-117792500D03*
%TD*%
%TO.P,S72,1,1*%
%TO.N,Col 1*%
X37306300Y-139382500D03*
%TO.P,S72,2,2*%
%TO.N,Net-(D72-A)*%
X43656300Y-136842500D03*
%TD*%
%TO.P,S25,1,1*%
%TO.N,Col 11*%
X225425000Y-63182500D03*
%TO.P,S25,2,2*%
%TO.N,Net-(D25-A)*%
X231775000Y-60642500D03*
%TD*%
%TO.P,S54,1,1*%
%TO.N,Col 10*%
X220662500Y-101282500D03*
%TO.P,S54,2,2*%
%TO.N,Net-(D54-A)*%
X227012500Y-98742500D03*
%TD*%
D22*
%TO.P,C17,1*%
%TO.N,VCC*%
X282200000Y-145400000D03*
D11*
%TO.P,C17,2*%
%TO.N,RE_SW_2*%
X279700000Y-145400000D03*
%TD*%
D21*
%TO.P,S63,1,1*%
%TO.N,Col 5*%
X134937500Y-120332500D03*
%TO.P,S63,2,2*%
%TO.N,Net-(D63-A)*%
X141287500Y-117792500D03*
%TD*%
D22*
%TO.P,C12,1*%
%TO.N,VCC*%
X235405100Y-112600000D03*
D11*
%TO.P,C12,2*%
%TO.N,RE_SW_2*%
X232905100Y-112600000D03*
%TD*%
D21*
%TO.P,S7,1,1*%
%TO.N,Col 7*%
X158750000Y-39370000D03*
%TO.P,S7,2,2*%
%TO.N,Net-(D7-A)*%
X165100000Y-36830000D03*
%TD*%
D22*
%TO.P,C11,1*%
%TO.N,VCC*%
X268600000Y-93400000D03*
D11*
%TO.P,C11,2*%
%TO.N,RE_SW_2*%
X266100000Y-93400000D03*
%TD*%
D21*
%TO.P,S16,1,1*%
%TO.N,Col 2*%
X53975000Y-63182500D03*
%TO.P,S16,2,2*%
%TO.N,Net-(D16-A)*%
X60325000Y-60642500D03*
%TD*%
D22*
%TO.P,C19,1*%
%TO.N,VCC*%
X321405113Y-65200000D03*
D11*
%TO.P,C19,2*%
%TO.N,RE_SW_2*%
X318905113Y-65200000D03*
%TD*%
D21*
%TO.P,S1,1,1*%
%TO.N,Col 1*%
X34925000Y-39370000D03*
%TO.P,S1,2,2*%
%TO.N,Net-(D1-A)*%
X41275000Y-36830000D03*
%TD*%
%TO.P,S67,1,1*%
%TO.N,Col 9*%
X211137500Y-120332500D03*
%TO.P,S67,2,2*%
%TO.N,Net-(D67-A)*%
X217487500Y-117792500D03*
%TD*%
%TO.P,S48,1,1*%
%TO.N,Col 4*%
X106362500Y-101282500D03*
%TO.P,S48,2,2*%
%TO.N,Net-(D48-A)*%
X112712500Y-98742500D03*
%TD*%
D22*
%TO.P,C16,1*%
%TO.N,VCC*%
X213305113Y-142000000D03*
D11*
%TO.P,C16,2*%
%TO.N,RE_SW_2*%
X210805113Y-142000000D03*
%TD*%
D21*
%TO.P,S74,1,1*%
%TO.N,Col 4*%
X80168800Y-139382500D03*
%TO.P,S74,2,2*%
%TO.N,Net-(D74-A)*%
X86518800Y-136842500D03*
%TD*%
%TO.P,S62,1,1*%
%TO.N,Col 4*%
X115887500Y-120332500D03*
%TO.P,S62,2,2*%
%TO.N,Net-(D62-A)*%
X122237500Y-117792500D03*
%TD*%
%TO.P,S19,1,1*%
%TO.N,Col 5*%
X111125000Y-63182500D03*
%TO.P,S19,2,2*%
%TO.N,Net-(D19-A)*%
X117475000Y-60642500D03*
%TD*%
%TO.P,S22,1,1*%
%TO.N,Col 8*%
X168275000Y-63182500D03*
%TO.P,S22,2,2*%
%TO.N,Net-(D22-A)*%
X174625000Y-60642500D03*
%TD*%
%TO.P,S5,1,1*%
%TO.N,Col 5*%
X115887500Y-39370000D03*
%TO.P,S5,2,2*%
%TO.N,Net-(D5-A)*%
X122237500Y-36830000D03*
%TD*%
%TO.P,S53,1,1*%
%TO.N,Col 9*%
X201612500Y-101282500D03*
%TO.P,S53,2,2*%
%TO.N,Net-(D53-A)*%
X207962500Y-98742500D03*
%TD*%
%TO.P,S10,1,1*%
%TO.N,Col 10*%
X220662500Y-39370000D03*
%TO.P,S10,2,2*%
%TO.N,Net-(D10-A)*%
X227012500Y-36830000D03*
%TD*%
%TO.P,S64,1,1*%
%TO.N,Col 6*%
X153987500Y-120332500D03*
%TO.P,S64,2,2*%
%TO.N,Net-(D64-A)*%
X160337500Y-117792500D03*
%TD*%
%TO.P,S28,1,1*%
%TO.N,Col 14*%
X292100000Y-63182500D03*
%TO.P,S28,2,2*%
%TO.N,Net-(D28-A)*%
X298450000Y-60642500D03*
%TD*%
%TO.P,S3,1,1*%
%TO.N,Col 3*%
X77787500Y-39370000D03*
%TO.P,S3,2,2*%
%TO.N,Net-(D3-A)*%
X84137500Y-36830000D03*
%TD*%
%TO.P,S55,1,1*%
%TO.N,Col 11*%
X239712500Y-101282500D03*
%TO.P,S55,2,2*%
%TO.N,Net-(D55-A)*%
X246062500Y-98742500D03*
%TD*%
%TO.P,S42,1,1*%
%TO.N,Col 13*%
X273050000Y-82232500D03*
%TO.P,S42,2,2*%
%TO.N,Net-(D42-A)*%
X279400000Y-79692500D03*
%TD*%
%TO.P,S50,1,1*%
%TO.N,Col 6*%
X144462500Y-101282500D03*
%TO.P,S50,2,2*%
%TO.N,Net-(D50-A)*%
X150812500Y-98742500D03*
%TD*%
D22*
%TO.P,C15,1*%
%TO.N,VCC*%
X128400000Y-143400000D03*
D11*
%TO.P,C15,2*%
%TO.N,RE_SW_2*%
X125900000Y-143400000D03*
%TD*%
D21*
%TO.P,S13,1,1*%
%TO.N,Col 13*%
X277812500Y-39370000D03*
%TO.P,S13,2,2*%
%TO.N,Net-(D13-A)*%
X284162500Y-36830000D03*
%TD*%
D22*
%TO.P,C9,1*%
%TO.N,VCC*%
X115900000Y-93700000D03*
D11*
%TO.P,C9,2*%
%TO.N,RE_SW_2*%
X113400000Y-93700000D03*
%TD*%
D21*
%TO.P,S56,1,1*%
%TO.N,Col 12*%
X258762500Y-101282500D03*
%TO.P,S56,2,2*%
%TO.N,Net-(D56-A)*%
X265112500Y-98742500D03*
%TD*%
%TO.P,S34,1,1*%
%TO.N,Col 5*%
X120650000Y-82232500D03*
%TO.P,S34,2,2*%
%TO.N,Net-(D34-A)*%
X127000000Y-79692500D03*
%TD*%
%TO.P,S43,1,1*%
%TO.N,Col 14*%
X296862500Y-82232500D03*
%TO.P,S43,2,2*%
%TO.N,Net-(D43-A)*%
X303212500Y-79692500D03*
%TD*%
%TO.P,S21,1,1*%
%TO.N,Col 7*%
X149225000Y-63182500D03*
%TO.P,S21,2,2*%
%TO.N,Net-(D21-A)*%
X155575000Y-60642500D03*
%TD*%
D23*
%TO.N,Row 4*%
X76503800Y-21083100D03*
%TO.N,Net-(L1-DOUT)*%
X133399300Y-50277400D03*
X52814400Y-56273100D03*
%TO.N,VCC*%
X76503800Y-74216600D03*
X217825700Y-96593400D03*
X250918600Y-94561600D03*
X212600300Y-71224200D03*
X255214300Y-73305000D03*
X49553300Y-92171000D03*
X285354400Y-92033500D03*
X177359600Y-74663800D03*
X249532000Y-74868300D03*
X325520200Y-95163400D03*
X165895600Y-92171000D03*
X248904400Y-112319700D03*
X315241600Y-93196600D03*
X287335100Y-141826500D03*
X64806400Y-128008200D03*
X128337000Y-93701600D03*
X208237200Y-53269800D03*
X169338000Y-112740700D03*
%TO.N,LED*%
X58536800Y-14368600D03*
%TO.N,Net-(L2-DOUT)*%
X127410300Y-56262200D03*
X208782900Y-52138000D03*
%TO.N,Net-(L3-DOUT)*%
X298096800Y-50277400D03*
X217643300Y-54652100D03*
%TO.N,Net-(L4-DOUT)*%
X263862400Y-71224200D03*
X286336100Y-71115800D03*
%TO.N,Net-(L5-DOUT)*%
X250184800Y-71224200D03*
X185122100Y-73441300D03*
%TO.N,Net-(L6-DOUT)*%
X172327800Y-76627600D03*
X88483400Y-73581000D03*
%TO.N,Net-(L7-DOUT)*%
X70556500Y-75010500D03*
X81630400Y-75288600D03*
%TO.N,Net-(L10-DOUT)*%
X292099600Y-89140500D03*
X220239800Y-98404800D03*
%TO.N,Net-(L10-DIN)*%
X129942300Y-92115500D03*
X226228800Y-89178600D03*
%TO.N,Net-(L11-DOUT)*%
X283693200Y-109751300D03*
X259168300Y-110125400D03*
%TO.N,Net-(L12-DOUT)*%
X178573600Y-113195100D03*
X250184800Y-114415800D03*
%TO.N,Net-(L13-DOUT)*%
X169596300Y-113827300D03*
X74390000Y-115182500D03*
%TO.N,Net-(L14-DOUT)*%
X67328300Y-131596100D03*
X118735600Y-130544000D03*
%TO.N,Net-(L15-DOUT)*%
X211256300Y-128079800D03*
X121191500Y-134836700D03*
%TO.N,Col 1*%
X28306000Y-62247000D03*
%TO.N,Col 2*%
X54449600Y-83193800D03*
%TO.N,Col 4*%
X113316300Y-102202300D03*
X107464100Y-139038300D03*
%TO.N,Col 5*%
X112437800Y-26336600D03*
%TO.N,Col 9*%
X190294800Y-14368600D03*
X193896500Y-62962800D03*
%TO.N,RE_SW_1*%
X91589200Y-44976300D03*
%TO.N,RE_SW_2*%
X216346700Y-136153400D03*
X295102300Y-92171000D03*
X299357100Y-139276000D03*
X196005600Y-92969100D03*
X82744800Y-77409300D03*
X177054200Y-115698700D03*
X247140400Y-111912300D03*
X258741600Y-77533900D03*
X177359600Y-76055100D03*
X73847000Y-127587900D03*
X46558800Y-74216600D03*
X91476300Y-92632100D03*
X136393800Y-113117800D03*
X224387500Y-96671600D03*
X337274000Y-134775500D03*
X291670300Y-55813500D03*
X126962400Y-113402100D03*
X325744700Y-121391400D03*
X28522800Y-74216600D03*
X127252500Y-89178600D03*
X210492500Y-55260800D03*
X297563200Y-56174000D03*
%TO.N,Col 10*%
X204890500Y-9293600D03*
X222714700Y-117010700D03*
X213112100Y-63092800D03*
%TO.N,Col 11*%
X221578200Y-12708300D03*
%TO.N,Col 12*%
X247190300Y-10026300D03*
X260489500Y-119821100D03*
%TO.N,Col 13*%
X272055400Y-11709500D03*
%TO.N,Col 14*%
X292107800Y-23345800D03*
%TO.N,Col 15*%
X52125300Y-45100200D03*
X323923000Y-101148200D03*
%TO.N,Net-(L8-DOUT)*%
X53154200Y-95799600D03*
X137345500Y-96229400D03*
%TO.N,Net-(L16-DOUT)*%
X299866800Y-130484100D03*
X217245300Y-136846100D03*
%TO.N,Net-(L17-DOUT)*%
X294488800Y-134600500D03*
X334523400Y-130572200D03*
%TD*%
D24*
%TO.N,Batt+*%
X30687100Y-8902900D02*
X28510000Y-11080000D01*
X49245500Y-8901400D02*
X49244000Y-8902900D01*
X312226000Y-8666000D02*
X49480900Y-8666000D01*
X49480900Y-8666000D02*
X49245500Y-8901400D01*
X320460000Y-16900000D02*
X312226000Y-8666000D01*
X49245500Y-8901400D02*
X49244000Y-8902900D01*
X49244000Y-8902900D02*
X30687100Y-8902900D01*
%TO.N,Row 1*%
X48100000Y-43100000D02*
X49311700Y-44311700D01*
X289730600Y-44356900D02*
X273194400Y-44356900D01*
X127847600Y-44314900D02*
X129062500Y-43100000D01*
X192186700Y-44311700D02*
X208813300Y-44311700D01*
X152875000Y-43100000D02*
X152875000Y-44349100D01*
X235086100Y-44348600D02*
X251638900Y-44348600D01*
X233837500Y-43100000D02*
X235086100Y-44348600D01*
X110012500Y-44314900D02*
X127847600Y-44314900D01*
X49311700Y-44311700D02*
X70700800Y-44311700D01*
X208813300Y-44311700D02*
X210025000Y-43100000D01*
X314800000Y-43100000D02*
X313532400Y-44367600D01*
X73127400Y-44314900D02*
X71912500Y-43100000D01*
X190975000Y-43100000D02*
X192186700Y-44311700D01*
X211236700Y-44311700D02*
X210025000Y-43100000D01*
X90962500Y-44032700D02*
X91244700Y-44314900D01*
X91244700Y-44314900D02*
X110012500Y-44314900D01*
X270725800Y-44311700D02*
X271937500Y-43100000D01*
X254099200Y-44311700D02*
X270725800Y-44311700D01*
X110012500Y-44314900D02*
X110012500Y-43100000D01*
X313532400Y-44367600D02*
X292255100Y-44367600D01*
X232625800Y-44311700D02*
X211236700Y-44311700D01*
X90962500Y-43100000D02*
X90962500Y-44032700D01*
X130311600Y-44349100D02*
X129062500Y-43100000D01*
X290987500Y-43100000D02*
X289730600Y-44356900D01*
X90680300Y-44314900D02*
X73127400Y-44314900D01*
X70700800Y-44311700D02*
X71912500Y-43100000D01*
X251638900Y-44348600D02*
X252887500Y-43100000D01*
X171925000Y-44349100D02*
X189725900Y-44349100D01*
X171925000Y-43100000D02*
X171925000Y-44349100D01*
X233837500Y-43100000D02*
X232625800Y-44311700D01*
X152875000Y-44349100D02*
X171925000Y-44349100D01*
X189725900Y-44349100D02*
X190975000Y-43100000D01*
X90962500Y-44032700D02*
X90680300Y-44314900D01*
X252887500Y-43100000D02*
X254099200Y-44311700D01*
X152875000Y-44349100D02*
X130311600Y-44349100D01*
X292255100Y-44367600D02*
X290987500Y-43100000D01*
X273194400Y-44356900D02*
X271937500Y-43100000D01*
%TO.N,Net-(D4-A)*%
X104537500Y-35480000D02*
X103187500Y-36830000D01*
X110012500Y-35480000D02*
X104537500Y-35480000D01*
%TO.N,Net-(D5-A)*%
X122237500Y-36830000D02*
X127712500Y-36830000D01*
X127712500Y-36830000D02*
X129062500Y-35480000D01*
%TO.N,Row 2*%
X106461700Y-68124200D02*
X123088300Y-68124200D01*
X305275000Y-68145200D02*
X277932700Y-68145200D01*
X343375000Y-66912500D02*
X342142300Y-68145200D01*
X257650000Y-66912500D02*
X256438300Y-68124200D01*
X143350000Y-68148300D02*
X143350000Y-66912500D01*
X200500000Y-66912500D02*
X200500000Y-68124200D01*
X220803000Y-68165500D02*
X219550000Y-66912500D01*
X125535800Y-68148300D02*
X143350000Y-68148300D01*
X275488300Y-68124200D02*
X258861700Y-68124200D01*
X200500000Y-68124200D02*
X182661700Y-68124200D01*
X312700000Y-68145200D02*
X305275000Y-68145200D01*
X163611700Y-68124200D02*
X162400000Y-66912500D01*
X67150000Y-66912500D02*
X68361700Y-68124200D01*
X256438300Y-68124200D02*
X239811700Y-68124200D01*
X258861700Y-68124200D02*
X257650000Y-66912500D01*
X161164200Y-68148300D02*
X162400000Y-66912500D01*
X124300000Y-66912500D02*
X125535800Y-68148300D01*
X65908000Y-68154500D02*
X67150000Y-66912500D01*
X277932700Y-68145200D02*
X276700000Y-66912500D01*
X219550000Y-66912500D02*
X218338300Y-68124200D01*
X104038300Y-68124200D02*
X105250000Y-66912500D01*
X48100000Y-66912500D02*
X49342000Y-68154500D01*
X181450000Y-66912500D02*
X180238300Y-68124200D01*
X86200000Y-68124200D02*
X86200000Y-66912500D01*
X237347000Y-68165500D02*
X220803000Y-68165500D01*
X182661700Y-68124200D02*
X181450000Y-66912500D01*
X238600000Y-66912500D02*
X237347000Y-68165500D01*
X143350000Y-68148300D02*
X161164200Y-68148300D01*
X123088300Y-68124200D02*
X124300000Y-66912500D01*
X49342000Y-68154500D02*
X65908000Y-68154500D01*
X313100000Y-66720000D02*
X313100000Y-67845200D01*
X239811700Y-68124200D02*
X238600000Y-66912500D01*
X218338300Y-68124200D02*
X200500000Y-68124200D01*
X313400000Y-68145200D02*
X312700000Y-68145200D01*
X105250000Y-66912500D02*
X106461700Y-68124200D01*
X86200000Y-68124200D02*
X104038300Y-68124200D01*
X180238300Y-68124200D02*
X163611700Y-68124200D01*
X276700000Y-66912500D02*
X275488300Y-68124200D01*
X68361700Y-68124200D02*
X86200000Y-68124200D01*
X313100000Y-67845200D02*
X313400000Y-68145200D01*
X342142300Y-68145200D02*
X313400000Y-68145200D01*
%TO.N,Row 3*%
X285003600Y-87183900D02*
X268396400Y-87183900D01*
X342141900Y-87195600D02*
X310037500Y-87195600D01*
X229075000Y-87211200D02*
X211273700Y-87211200D01*
X268396400Y-87183900D02*
X267175000Y-85962500D01*
X208755800Y-87231700D02*
X210025000Y-85962500D01*
X229075000Y-85962500D02*
X229075000Y-87211200D01*
X76675000Y-87211200D02*
X54111200Y-87211200D01*
X310037500Y-87195600D02*
X287458100Y-87195600D01*
X190975000Y-85962500D02*
X192244200Y-87231700D01*
X54111200Y-87211200D02*
X52862500Y-85962500D01*
X95725000Y-87211200D02*
X114775000Y-87211200D01*
X133825000Y-85962500D02*
X135036700Y-87174200D01*
X248125000Y-85962500D02*
X246876300Y-87211200D01*
X246876300Y-87211200D02*
X229075000Y-87211200D01*
X132576300Y-87211200D02*
X133825000Y-85962500D01*
X287458100Y-87195600D02*
X286225000Y-85962500D01*
X192244200Y-87231700D02*
X208755800Y-87231700D01*
X211273700Y-87211200D02*
X210025000Y-85962500D01*
X343375000Y-85962500D02*
X342141900Y-87195600D01*
X248125000Y-85962500D02*
X249336700Y-87174200D01*
X152875000Y-87174200D02*
X170713300Y-87174200D01*
X173194200Y-87231700D02*
X189705800Y-87231700D01*
X76675000Y-87211200D02*
X95725000Y-87211200D01*
X76675000Y-85962500D02*
X76675000Y-87211200D01*
X265963300Y-87174200D02*
X267175000Y-85962500D01*
X189705800Y-87231700D02*
X190975000Y-85962500D01*
X135036700Y-87174200D02*
X152875000Y-87174200D01*
X286225000Y-85962500D02*
X285003600Y-87183900D01*
X114775000Y-87211200D02*
X114775000Y-85962500D01*
X171925000Y-85962500D02*
X173194200Y-87231700D01*
X249336700Y-87174200D02*
X265963300Y-87174200D01*
X114775000Y-87211200D02*
X132576300Y-87211200D01*
X95725000Y-85962500D02*
X95725000Y-87211200D01*
X310037500Y-87195600D02*
X310037500Y-85962500D01*
X170713300Y-87174200D02*
X171925000Y-85962500D01*
X152875000Y-85962500D02*
X152875000Y-87174200D01*
%TO.N,Row 4*%
X55243800Y-105012500D02*
X56496900Y-106265600D01*
X302893800Y-106263100D02*
X273188100Y-106263100D01*
X78258700Y-22838000D02*
X76503800Y-21083100D01*
X120749200Y-106224200D02*
X119537500Y-105012500D01*
X156371600Y-106278400D02*
X139853400Y-106278400D01*
X86922000Y-22838000D02*
X78258700Y-22838000D01*
X216050500Y-106275500D02*
X214787500Y-105012500D01*
X81437500Y-106265600D02*
X100487500Y-106265600D01*
X273188100Y-106263100D02*
X271937500Y-105012500D01*
X100487500Y-106265600D02*
X100487500Y-105012500D01*
X311700000Y-104910000D02*
X311700000Y-106163100D01*
X311700000Y-106163100D02*
X311800000Y-106263100D01*
X311800000Y-106263100D02*
X302893800Y-106263100D01*
X194513100Y-106236900D02*
X195737500Y-105012500D01*
X158849200Y-106224200D02*
X175475800Y-106224200D01*
X233837500Y-105012500D02*
X232574500Y-106275500D01*
X137375800Y-106224200D02*
X120749200Y-106224200D01*
X157637500Y-105012500D02*
X156371600Y-106278400D01*
X251675800Y-106224200D02*
X235049200Y-106224200D01*
X254101400Y-106226400D02*
X252887500Y-105012500D01*
X88060000Y-21700000D02*
X86922000Y-22838000D01*
X235049200Y-106224200D02*
X233837500Y-105012500D01*
X118284400Y-106265600D02*
X119537500Y-105012500D01*
X138587500Y-105012500D02*
X137375800Y-106224200D01*
X176687500Y-105012500D02*
X177911900Y-106236900D01*
X271937500Y-105012500D02*
X270723600Y-106226400D01*
X196949200Y-106224200D02*
X195737500Y-105012500D01*
X81437500Y-105012500D02*
X81437500Y-106265600D01*
X343375000Y-105012500D02*
X342124400Y-106263100D01*
X252887500Y-105012500D02*
X251675800Y-106224200D01*
X342124400Y-106263100D02*
X311800000Y-106263100D01*
X232574500Y-106275500D02*
X216050500Y-106275500D01*
X175475800Y-106224200D02*
X176687500Y-105012500D01*
X213575800Y-106224200D02*
X196949200Y-106224200D01*
X157637500Y-105012500D02*
X158849200Y-106224200D01*
X270723600Y-106226400D02*
X254101400Y-106226400D01*
X214787500Y-105012500D02*
X213575800Y-106224200D01*
X56496900Y-106265600D02*
X81437500Y-106265600D01*
X100487500Y-106265600D02*
X118284400Y-106265600D01*
X177911900Y-106236900D02*
X194513100Y-106236900D01*
X139853400Y-106278400D02*
X138587500Y-105012500D01*
%TO.N,Row 5*%
X186212500Y-124062500D02*
X185000800Y-125274200D01*
X242150800Y-125274200D02*
X224312500Y-125274200D01*
X110012500Y-125300800D02*
X92200800Y-125300800D01*
X130274200Y-125274200D02*
X129062500Y-124062500D01*
X165950800Y-125274200D02*
X149324200Y-125274200D01*
X146900800Y-125274200D02*
X130274200Y-125274200D01*
X127824200Y-125300800D02*
X110012500Y-125300800D01*
X89300000Y-125725000D02*
X90962500Y-124062500D01*
X287394600Y-125274200D02*
X263624200Y-125274200D01*
X261174700Y-125300300D02*
X244600300Y-125300300D01*
X89300000Y-126100000D02*
X89300000Y-125725000D01*
X92200800Y-125300800D02*
X90962500Y-124062500D01*
X110012500Y-124062500D02*
X110012500Y-125300800D01*
X288606300Y-124062500D02*
X287394600Y-125274200D01*
X129062500Y-124062500D02*
X127824200Y-125300800D01*
X243362500Y-124062500D02*
X242150800Y-125274200D01*
X224312500Y-124062500D02*
X224312500Y-125274200D01*
X206474200Y-125274200D02*
X205262500Y-124062500D01*
X205262500Y-124062500D02*
X203997000Y-125328000D01*
X149324200Y-125274200D02*
X148112500Y-124062500D01*
X303589700Y-130082500D02*
X297569700Y-124062500D01*
X263624200Y-125274200D02*
X262412500Y-124062500D01*
X224312500Y-125274200D02*
X206474200Y-125274200D01*
X69200000Y-124310000D02*
X70990000Y-126100000D01*
X70990000Y-126100000D02*
X89300000Y-126100000D01*
X187478000Y-125328000D02*
X186212500Y-124062500D01*
X167162500Y-124062500D02*
X165950800Y-125274200D01*
X324325000Y-128825000D02*
X323067500Y-130082500D01*
X262412500Y-124062500D02*
X261174700Y-125300300D01*
X168374200Y-125274200D02*
X167162500Y-124062500D01*
X244600300Y-125300300D02*
X243362500Y-124062500D01*
X297569700Y-124062500D02*
X288606300Y-124062500D01*
X203997000Y-125328000D02*
X187478000Y-125328000D01*
X323067500Y-130082500D02*
X303589700Y-130082500D01*
X148112500Y-124062500D02*
X146900800Y-125274200D01*
X185000800Y-125274200D02*
X168374200Y-125274200D01*
%TO.N,Row 6*%
X277976500Y-149151500D02*
X271937500Y-143112500D01*
X324325000Y-149151500D02*
X306551500Y-149151500D01*
X251675800Y-144324200D02*
X235049200Y-144324200D01*
X92052500Y-144403800D02*
X93343800Y-143112500D01*
X51772600Y-144403800D02*
X71912500Y-144403800D01*
X306551500Y-149151500D02*
X305275000Y-147875000D01*
X164781300Y-143112500D02*
X165993000Y-144324200D01*
X342098500Y-149151500D02*
X324325000Y-149151500D01*
X252887500Y-143112500D02*
X251675800Y-144324200D01*
X254127300Y-144352300D02*
X252887500Y-143112500D01*
X343375000Y-147875000D02*
X342098500Y-149151500D01*
X270697700Y-144352300D02*
X254127300Y-144352300D01*
X71912500Y-144403800D02*
X92052500Y-144403800D01*
X163384600Y-144509200D02*
X94740500Y-144509200D01*
X94740500Y-144509200D02*
X93343800Y-143112500D01*
X235049200Y-144324200D02*
X233837500Y-143112500D01*
X232625800Y-144324200D02*
X233837500Y-143112500D01*
X306551500Y-149151500D02*
X277976500Y-149151500D01*
X71912500Y-144403800D02*
X71912500Y-143112500D01*
X165993000Y-144324200D02*
X232625800Y-144324200D01*
X324325000Y-149151500D02*
X324325000Y-147875000D01*
X271937500Y-143112500D02*
X270697700Y-144352300D01*
X164781300Y-143112500D02*
X163384600Y-144509200D01*
X50481300Y-143112500D02*
X51772600Y-144403800D01*
%TO.N,Net-(D49-A)*%
X133112500Y-97392500D02*
X131762500Y-98742500D01*
X138587500Y-97392500D02*
X133112500Y-97392500D01*
%TO.N,Net-(D55-A)*%
X251537500Y-98742500D02*
X252887500Y-97392500D01*
X246062500Y-98742500D02*
X251537500Y-98742500D01*
%TO.N,Net-(D57-A)*%
X302893800Y-97392500D02*
X302893800Y-95706200D01*
X311700000Y-95400000D02*
X311700000Y-97290000D01*
X310800000Y-94500000D02*
X311700000Y-95400000D01*
X304000000Y-94600000D02*
X310700000Y-94600000D01*
X302893800Y-95706200D02*
X304000000Y-94600000D01*
X310700000Y-94600000D02*
X310800000Y-94500000D01*
X302893800Y-97392500D02*
X297418800Y-97392500D01*
X297418800Y-97392500D02*
X296068800Y-98742500D01*
%TO.N,Net-(D59-A)*%
X54531300Y-116442500D02*
X53181300Y-117792500D01*
X60006300Y-116442500D02*
X60006300Y-114493700D01*
X60006300Y-116442500D02*
X54531300Y-116442500D01*
X60800000Y-113700000D02*
X66210000Y-113700000D01*
X66210000Y-113700000D02*
X69200000Y-116690000D01*
X60006300Y-114493700D02*
X60800000Y-113700000D01*
%TO.N,Net-(D60-A)*%
X90962500Y-116442500D02*
X85487500Y-116442500D01*
X85487500Y-116442500D02*
X84137500Y-117792500D01*
%TO.N,Net-(D62-A)*%
X127712500Y-117792500D02*
X129062500Y-116442500D01*
X122237500Y-117792500D02*
X127712500Y-117792500D01*
%TO.N,Net-(D65-A)*%
X186212500Y-116442500D02*
X180737500Y-116442500D01*
X180737500Y-116442500D02*
X179387500Y-117792500D01*
%TO.N,Net-(D66-A)*%
X205262500Y-116442500D02*
X199787500Y-116442500D01*
X199787500Y-116442500D02*
X198437500Y-117792500D01*
%TO.N,Net-(D68-A)*%
X242012500Y-117792500D02*
X243362500Y-116442500D01*
X236537500Y-117792500D02*
X242012500Y-117792500D01*
%TO.N,Net-(D69-A)*%
X255587500Y-117792500D02*
X261062500Y-117792500D01*
X261062500Y-117792500D02*
X262412500Y-116442500D01*
%TO.N,Net-(D72-A)*%
X50481300Y-135492500D02*
X45006300Y-135492500D01*
X45006300Y-135492500D02*
X43656300Y-136842500D01*
%TO.N,Net-(D74-A)*%
X93343800Y-135492500D02*
X87868800Y-135492500D01*
X87868800Y-135492500D02*
X86518800Y-136842500D01*
%TO.N,Net-(D75-A)*%
X164781300Y-135492500D02*
X159306300Y-135492500D01*
X159306300Y-135492500D02*
X157956300Y-136842500D01*
%TO.N,Net-(L1-DOUT)*%
X52814400Y-56273100D02*
X58810100Y-50277400D01*
X58810100Y-50277400D02*
X133399300Y-50277400D01*
%TO.N,VCC*%
X283987900Y-93400000D02*
X285354400Y-92033500D01*
X217825700Y-96593400D02*
X214732300Y-93500000D01*
X210171000Y-92171000D02*
X211500000Y-93500000D01*
X67711500Y-20216600D02*
X66594900Y-19100000D01*
X142394700Y-15484700D02*
X144010000Y-17100000D01*
X239905100Y-74600000D02*
X236529300Y-71224200D01*
X76503800Y-74216600D02*
X68683400Y-74216600D01*
X267438400Y-94561600D02*
X268600000Y-93400000D01*
X52221900Y-94839600D02*
X114760400Y-94839600D01*
X248624100Y-112600000D02*
X248904400Y-112319700D01*
X130334600Y-95699200D02*
X128337000Y-93701600D01*
X64831400Y-17336500D02*
X42386500Y-17336500D01*
X286287500Y-91100400D02*
X285354400Y-92033500D01*
X235405100Y-112600000D02*
X248624100Y-112600000D01*
X294273100Y-93196600D02*
X292176900Y-91100400D01*
X115900000Y-93700000D02*
X128335400Y-93700000D01*
X283761600Y-145400000D02*
X287335100Y-141826500D01*
X249532000Y-74600000D02*
X253919300Y-74600000D01*
X248904400Y-112319700D02*
X248624100Y-112600000D01*
X99276600Y-20216600D02*
X67711500Y-20216600D01*
X76843700Y-74216600D02*
X76503800Y-74216600D01*
X107244700Y-15484700D02*
X142394700Y-15484700D01*
X208107000Y-53400000D02*
X201905113Y-53400000D01*
X248624100Y-112600000D02*
X248904400Y-112319700D01*
X76503800Y-74216600D02*
X76843700Y-74216600D01*
X47324300Y-94400000D02*
X49553300Y-92171000D01*
X66594900Y-19100000D02*
X64831400Y-17336500D01*
X268600000Y-93400000D02*
X283987900Y-93400000D01*
X216984200Y-95751900D02*
X217825700Y-96593400D01*
X49553300Y-92171000D02*
X52221900Y-94839600D01*
X208237200Y-53269800D02*
X208107000Y-53400000D01*
X114760400Y-94839600D02*
X115900000Y-93700000D01*
X320500000Y-95500000D02*
X325183600Y-95500000D01*
X128335400Y-93700000D02*
X128337000Y-93701600D01*
X255214300Y-73305000D02*
X255133900Y-73385400D01*
X255133900Y-73385400D02*
X255214300Y-73305000D01*
X137024900Y-95699200D02*
X130334600Y-95699200D01*
X253919300Y-74600000D02*
X255214300Y-73305000D01*
X34205100Y-94400000D02*
X47324300Y-94400000D01*
X165895600Y-92171000D02*
X210171000Y-92171000D01*
X100760000Y-21700000D02*
X99276600Y-20216600D01*
X236529300Y-71224200D02*
X212600300Y-71224200D01*
X217825700Y-96593400D02*
X216984200Y-95751900D01*
X325183600Y-95500000D02*
X325520200Y-95163400D01*
X105840000Y-14080000D02*
X107244700Y-15484700D01*
X42386500Y-17336500D02*
X36130000Y-11080000D01*
X250918600Y-94561600D02*
X267438400Y-94561600D01*
X169338000Y-112740700D02*
X170155100Y-112740700D01*
X315241600Y-93196600D02*
X294273100Y-93196600D01*
X140553100Y-92171000D02*
X137024900Y-95699200D01*
X163741300Y-74663800D02*
X163705100Y-74700000D01*
X169278700Y-112800000D02*
X169338000Y-112740700D01*
X292176900Y-91100400D02*
X286287500Y-91100400D01*
X158700000Y-112800000D02*
X169278700Y-112800000D01*
X177359600Y-74663800D02*
X163741300Y-74663800D01*
X170155100Y-112740700D02*
X169338000Y-112740700D01*
X239905100Y-74600000D02*
X249532000Y-74600000D01*
X36396900Y-128008200D02*
X64806400Y-128008200D01*
X282200000Y-145400000D02*
X283761600Y-145400000D01*
X68683400Y-74216600D02*
X68300000Y-74600000D01*
X249532000Y-74868300D02*
X249532000Y-74600000D01*
X33505100Y-130900000D02*
X36396900Y-128008200D01*
X165895600Y-92171000D02*
X140553100Y-92171000D01*
X214732300Y-93500000D02*
X211500000Y-93500000D01*
%TO.N,LED*%
X97048300Y-12908300D02*
X98220000Y-14080000D01*
X58536800Y-14368600D02*
X59997100Y-12908300D01*
X59997100Y-12908300D02*
X97048300Y-12908300D01*
%TO.N,Net-(L2-DOUT)*%
X132416300Y-56262200D02*
X127410300Y-56262200D01*
X208782900Y-52138000D02*
X136540500Y-52138000D01*
X136540500Y-52138000D02*
X132416300Y-56262200D01*
%TO.N,Net-(L3-DOUT)*%
X298096800Y-50277400D02*
X222018000Y-50277400D01*
X222018000Y-50277400D02*
X217643300Y-54652100D01*
%TO.N,Net-(L4-DOUT)*%
X286227700Y-71224200D02*
X286336100Y-71115800D01*
X263862400Y-71224200D02*
X286227700Y-71224200D01*
%TO.N,Net-(L5-DOUT)*%
X250184800Y-71224200D02*
X249544900Y-70584300D01*
X187979100Y-70584300D02*
X185122100Y-73441300D01*
X249544900Y-70584300D02*
X187979100Y-70584300D01*
%TO.N,Net-(L6-DOUT)*%
X172327800Y-76627600D02*
X91530000Y-76627600D01*
X91530000Y-76627600D02*
X88483400Y-73581000D01*
%TO.N,Net-(L7-DOUT)*%
X70556500Y-75010500D02*
X81352300Y-75010500D01*
X81352300Y-75010500D02*
X81630400Y-75288600D01*
%TO.N,Net-(L10-DOUT)*%
X224141900Y-98404800D02*
X220239800Y-98404800D01*
X292099600Y-89140500D02*
X233406200Y-89140500D01*
X233406200Y-89140500D02*
X224141900Y-98404800D01*
%TO.N,Net-(L10-DIN)*%
X226228800Y-89178600D02*
X223624800Y-89178600D01*
X132879200Y-89178600D02*
X129942300Y-92115500D01*
X223624800Y-89178600D02*
X226228800Y-89178600D01*
X132879200Y-89178600D02*
X129942300Y-92115500D01*
X129942300Y-92115500D02*
X132879200Y-89178600D01*
X226228800Y-89178600D02*
X132879200Y-89178600D01*
%TO.N,Net-(L11-DOUT)*%
X259641800Y-109651900D02*
X283593800Y-109651900D01*
X259168300Y-110125400D02*
X259641800Y-109651900D01*
X283593800Y-109651900D02*
X283693200Y-109751300D01*
%TO.N,Net-(L12-DOUT)*%
X180273100Y-111495600D02*
X178573600Y-113195100D01*
X234102200Y-111330800D02*
X233937400Y-111495600D01*
X250184800Y-114415800D02*
X250184800Y-112687800D01*
X248592400Y-111095400D02*
X234337600Y-111095400D01*
X234337600Y-111095400D02*
X234102200Y-111330800D01*
X233937400Y-111495600D02*
X180273100Y-111495600D01*
X234102200Y-111330800D02*
X233937400Y-111495600D01*
X250184800Y-112687800D02*
X248592400Y-111095400D01*
%TO.N,Net-(L13-DOUT)*%
X157341200Y-112363900D02*
X157341200Y-113349700D01*
X157911300Y-113919800D02*
X169503800Y-113919800D01*
X156641600Y-111664300D02*
X157341200Y-112363900D01*
X157341200Y-113349700D02*
X157911300Y-113919800D01*
X169503800Y-113919800D02*
X169596300Y-113827300D01*
X77908200Y-111664300D02*
X156641600Y-111664300D01*
X74390000Y-115182500D02*
X77908200Y-111664300D01*
%TO.N,Net-(L14-DOUT)*%
X67424300Y-131692100D02*
X67328300Y-131596100D01*
X118735600Y-130544000D02*
X120672100Y-130544000D01*
X120672100Y-130544000D02*
X118735600Y-130544000D01*
X114102000Y-130544000D02*
X112953900Y-131692100D01*
X112953900Y-131692100D02*
X67424300Y-131692100D01*
X118735600Y-130544000D02*
X114102000Y-130544000D01*
%TO.N,Net-(L15-DOUT)*%
X121191500Y-134836700D02*
X127948400Y-128079800D01*
X211256300Y-128079800D02*
X211467700Y-128079800D01*
X211467700Y-128079800D02*
X211256300Y-128079800D01*
X127948400Y-128079800D02*
X211256300Y-128079800D01*
%TO.N,SDA*%
X107925000Y-20596100D02*
X107110100Y-21411000D01*
X105904900Y-23241200D02*
X62240900Y-23241200D01*
X110920000Y-21700000D02*
X115520000Y-17100000D01*
X107110100Y-21411000D02*
X107110100Y-22036000D01*
X59039800Y-20040100D02*
X44949900Y-20040100D01*
X109816100Y-20596100D02*
X107925000Y-20596100D01*
X62240900Y-23241200D02*
X59039800Y-20040100D01*
X115520000Y-17100000D02*
X136390000Y-17100000D01*
X107110100Y-22036000D02*
X105904900Y-23241200D01*
X44949900Y-20040100D02*
X38670000Y-26320000D01*
X110920000Y-21700000D02*
X109816100Y-20596100D01*
%TO.N,SCL*%
X44961800Y-22568200D02*
X59002400Y-22568200D01*
X136690000Y-23400000D02*
X110080000Y-23400000D01*
X59002400Y-22568200D02*
X60104300Y-23670100D01*
X41210000Y-26320000D02*
X44961800Y-22568200D01*
X106409900Y-23670100D02*
X108380000Y-21700000D01*
X110080000Y-23400000D02*
X108380000Y-21700000D01*
X60104300Y-23670100D02*
X106409900Y-23670100D01*
%TO.N,Col 1*%
X33989500Y-62247000D02*
X34925000Y-63182500D01*
X28306000Y-62247000D02*
X33989500Y-62247000D01*
%TO.N,Col 2*%
X31050000Y-26320000D02*
X37977100Y-33247100D01*
X63500000Y-82232500D02*
X55410900Y-82232500D01*
X52614600Y-33247100D02*
X58737500Y-39370000D01*
X37977100Y-33247100D02*
X52614600Y-33247100D01*
X55410900Y-82232500D02*
X54449600Y-83193800D01*
%TO.N,Col 3*%
X43750000Y-26320000D02*
X50275300Y-32845300D01*
X50275300Y-32845300D02*
X71262800Y-32845300D01*
X71262800Y-32845300D02*
X77787500Y-39370000D01*
%TO.N,Col 4*%
X106362500Y-101282500D02*
X112396500Y-101282500D01*
X46290000Y-26320000D02*
X52272300Y-32302300D01*
X80168800Y-139382500D02*
X107119900Y-139382500D01*
X52272300Y-32302300D02*
X89769800Y-32302300D01*
X112396500Y-101282500D02*
X113316300Y-102202300D01*
X89769800Y-32302300D02*
X96837500Y-39370000D01*
X107119900Y-139382500D02*
X107464100Y-139038300D01*
%TO.N,Col 5*%
X50050000Y-25100000D02*
X111201200Y-25100000D01*
X111201200Y-25100000D02*
X112437800Y-26336600D01*
X48830000Y-26320000D02*
X50050000Y-25100000D01*
%TO.N,Col 6*%
X132230600Y-31900600D02*
X56950600Y-31900600D01*
X139700000Y-39370000D02*
X132230600Y-31900600D01*
X56950600Y-31900600D02*
X51370000Y-26320000D01*
%TO.N,Col 7*%
X59088900Y-31498900D02*
X150878900Y-31498900D01*
X53910000Y-26320000D02*
X59088900Y-31498900D01*
X150878900Y-31498900D02*
X158750000Y-39370000D01*
%TO.N,Col 8*%
X169195600Y-30765600D02*
X177800000Y-39370000D01*
X56450000Y-26320000D02*
X60895600Y-30765600D01*
X60895600Y-30765600D02*
X169195600Y-30765600D01*
%TO.N,Col 9*%
X188418400Y-12492200D02*
X58338200Y-12492200D01*
X187325000Y-63182500D02*
X193676800Y-63182500D01*
X193676800Y-63182500D02*
X193896500Y-62962800D01*
X57669500Y-13160900D02*
X40750900Y-13160900D01*
X58338200Y-12492200D02*
X57669500Y-13160900D01*
X40750900Y-13160900D02*
X38670000Y-11080000D01*
X190294800Y-14368600D02*
X188418400Y-12492200D01*
%TO.N,RE_SW_1*%
X341750000Y-44000000D02*
X340439400Y-45310600D01*
X315573800Y-45310600D02*
X315239500Y-44976300D01*
X315239500Y-44976300D02*
X91589200Y-44976300D01*
X340439400Y-45310600D02*
X315573800Y-45310600D01*
%TO.N,RE_R_A*%
X316117500Y-29169200D02*
X325948300Y-39000000D01*
X93140000Y-14080000D02*
X94258200Y-15198200D01*
X226678600Y-19333800D02*
X236514000Y-29169200D01*
X99490000Y-13765000D02*
X100318200Y-12936800D01*
X100318200Y-12936800D02*
X179405200Y-12936800D01*
X99490000Y-14375700D02*
X99490000Y-13765000D01*
X94258200Y-15198200D02*
X98667500Y-15198200D01*
X236514000Y-29169200D02*
X316117500Y-29169200D01*
X327250000Y-39000000D02*
X325948300Y-39000000D01*
X98667500Y-15198200D02*
X99490000Y-14375700D01*
X185802200Y-19333800D02*
X226678600Y-19333800D01*
X179405200Y-12936800D02*
X185802200Y-19333800D01*
%TO.N,RE_R_B*%
X316703200Y-33453200D02*
X327250000Y-44000000D01*
X200772600Y-22199600D02*
X212026200Y-33453200D01*
X90600000Y-14080000D02*
X92469400Y-15949400D01*
X143047700Y-22199600D02*
X200772600Y-22199600D01*
X136797500Y-15949400D02*
X143047700Y-22199600D01*
X212026200Y-33453200D02*
X316703200Y-33453200D01*
X92469400Y-15949400D02*
X136797500Y-15949400D01*
%TO.N,RE_SW_2*%
X91476300Y-92632100D02*
X92544200Y-93700000D01*
X299357100Y-139276000D02*
X302895800Y-139276000D01*
X224387500Y-96671600D02*
X223833400Y-97225700D01*
X81140000Y-75804500D02*
X67004500Y-75804500D01*
X319343600Y-20556400D02*
X323000000Y-16900000D01*
X285824000Y-139276000D02*
X299357100Y-139276000D01*
X168024800Y-114382800D02*
X169340700Y-115698700D01*
X237405100Y-74600000D02*
X239983500Y-77178400D01*
X279990273Y-54801000D02*
X277806113Y-54801000D01*
X127246700Y-113117800D02*
X126962400Y-113402100D01*
X281000000Y-53700000D02*
X281000000Y-53791273D01*
X295102300Y-92171000D02*
X293630000Y-90698700D01*
X327653300Y-123300000D02*
X325744700Y-121391400D01*
X223833400Y-97225700D02*
X217172800Y-97225700D01*
X177159000Y-75854500D02*
X162359600Y-75854500D01*
X157782800Y-114382800D02*
X168024800Y-114382800D01*
X73847000Y-127587900D02*
X73624200Y-127365100D01*
X297563200Y-56174000D02*
X315074000Y-56174000D01*
X341750000Y-39000000D02*
X339751700Y-39000000D01*
X339751700Y-39000000D02*
X336651700Y-35900000D01*
X162359600Y-75854500D02*
X161205100Y-74700000D01*
X156200000Y-112800000D02*
X157782800Y-114382800D01*
X92544200Y-93700000D02*
X113400000Y-93700000D01*
X277818200Y-19500000D02*
X278874600Y-20556400D01*
X82744800Y-77409300D02*
X81140000Y-75804500D01*
X46558800Y-74216600D02*
X65416600Y-74216600D01*
X234226400Y-111897300D02*
X233607800Y-111897300D01*
X156200000Y-112800000D02*
X155882200Y-113117800D01*
X208469100Y-92969100D02*
X209000000Y-93500000D01*
X169340700Y-115698700D02*
X177054200Y-115698700D01*
X155882200Y-113117800D02*
X136393800Y-113117800D01*
X234626500Y-111497100D02*
X234226400Y-111897200D01*
X333800000Y-123300000D02*
X327653300Y-123300000D01*
X291670300Y-55813500D02*
X283113500Y-55813500D01*
X215594700Y-95647600D02*
X211147600Y-95647600D01*
X293630000Y-90698700D02*
X268801300Y-90698700D01*
X279700000Y-145400000D02*
X285824000Y-139276000D01*
X136393800Y-113117800D02*
X127246700Y-113117800D01*
X315066900Y-92171000D02*
X295102300Y-92171000D01*
X210549400Y-55260800D02*
X210492500Y-55260800D01*
X258386100Y-77178400D02*
X258741600Y-77533900D01*
X69094900Y-19100000D02*
X100700000Y-19100000D01*
X73624200Y-127365100D02*
X34540000Y-127365100D01*
X67004500Y-75804500D02*
X65800000Y-74600000D01*
X334750000Y-35900000D02*
X336651700Y-35900000D01*
X211147600Y-95647600D02*
X209000000Y-93500000D01*
X65416600Y-74216600D02*
X65800000Y-74600000D01*
X246725200Y-111497100D02*
X234626500Y-111497100D01*
X113460000Y-14080000D02*
X110920000Y-14080000D01*
X108380000Y-14080000D02*
X110920000Y-14080000D01*
X278874600Y-20556400D02*
X319343600Y-20556400D01*
X73847000Y-127587900D02*
X73624200Y-127365100D01*
X277806113Y-54801000D02*
X276705113Y-53700000D01*
X247140400Y-111912300D02*
X246725200Y-111497100D01*
X315074000Y-56174000D02*
X318905113Y-60005113D01*
X215590700Y-137214413D02*
X210805113Y-142000000D01*
X215590700Y-136909400D02*
X215590700Y-137214413D01*
X318000000Y-95104100D02*
X315066900Y-92171000D01*
X234226400Y-111897200D02*
X234226400Y-111897300D01*
X283113500Y-55813500D02*
X281000000Y-53700000D01*
X201265913Y-55260800D02*
X199405113Y-53400000D01*
X302895800Y-139276000D02*
X307396300Y-134775500D01*
X34540000Y-127365100D02*
X31005100Y-130900000D01*
X318905113Y-60005113D02*
X318905113Y-65200000D01*
X268801300Y-90698700D02*
X266100000Y-93400000D01*
X233607800Y-111897300D02*
X232905100Y-112600000D01*
X113400000Y-93700000D02*
X117921400Y-89178600D01*
X100700000Y-19100000D02*
X103300000Y-21700000D01*
X196005600Y-92969100D02*
X208469100Y-92969100D01*
X276812500Y-19500000D02*
X277818200Y-19500000D01*
X281000000Y-53791273D02*
X279990273Y-54801000D01*
X210492500Y-55260800D02*
X201265913Y-55260800D01*
X307396300Y-134775500D02*
X337274000Y-134775500D01*
X28522800Y-74216600D02*
X46558800Y-74216600D01*
X36130000Y-26320000D02*
X33590000Y-26320000D01*
X318000000Y-95500000D02*
X318000000Y-95104100D01*
X177359600Y-76055100D02*
X177159000Y-75854500D01*
X239983500Y-77178400D02*
X258386100Y-77178400D01*
X117921400Y-89178600D02*
X127252500Y-89178600D01*
X215590700Y-136909400D02*
X216346700Y-136153400D01*
X210492500Y-55260800D02*
X210549400Y-55260800D01*
X73624200Y-127365100D02*
X73847000Y-127587900D01*
X217172800Y-97225700D02*
X215594700Y-95647600D01*
%TO.N,Col 10*%
X49245500Y-9469400D02*
X49647200Y-9067700D01*
X226036500Y-120332500D02*
X222714700Y-117010700D01*
X206375000Y-63182500D02*
X213022400Y-63182500D01*
X213022400Y-63182500D02*
X213112100Y-63092800D01*
X41210000Y-11080000D02*
X42820600Y-9469400D01*
X49647200Y-9067700D02*
X204664600Y-9067700D01*
X204664600Y-9067700D02*
X204890500Y-9293600D01*
X42820600Y-9469400D02*
X49245500Y-9469400D01*
X230187500Y-120332500D02*
X226036500Y-120332500D01*
%TO.N,Col 11*%
X45429200Y-12759200D02*
X43750000Y-11080000D01*
X221578200Y-12708300D02*
X220960400Y-12090500D01*
X57303300Y-12759200D02*
X45429200Y-12759200D01*
X220960400Y-12090500D02*
X57972000Y-12090500D01*
X57972000Y-12090500D02*
X57303300Y-12759200D01*
%TO.N,Col 12*%
X261000900Y-120332500D02*
X275431300Y-120332500D01*
X247190300Y-10026300D02*
X203856500Y-10026300D01*
X49457600Y-9886500D02*
X47483500Y-9886500D01*
X203856500Y-10026300D02*
X203299600Y-9469400D01*
X49613500Y-9669400D02*
X49613500Y-9730600D01*
X47483500Y-9886500D02*
X46290000Y-11080000D01*
X49613500Y-9730600D02*
X49457600Y-9886500D01*
X260489500Y-119821100D02*
X261000900Y-120332500D01*
X203299600Y-9469400D02*
X49813500Y-9469400D01*
X49813500Y-9469400D02*
X49613500Y-9669400D01*
%TO.N,Col 13*%
X50015800Y-9896300D02*
X203158400Y-9896300D01*
X48830000Y-11080000D02*
X48832100Y-11080000D01*
X203158400Y-9896300D02*
X203936400Y-10674300D01*
X271020200Y-10674300D02*
X272055400Y-11709500D01*
X48832100Y-11080000D02*
X50015800Y-9896300D01*
X203936400Y-10674300D02*
X271020200Y-10674300D01*
%TO.N,Col 14*%
X57200800Y-12293600D02*
X52583600Y-12293600D01*
X57805600Y-11688800D02*
X57200800Y-12293600D01*
X265101000Y-11688800D02*
X57805600Y-11688800D01*
X276758000Y-23345800D02*
X265101000Y-11688800D01*
X52583600Y-12293600D02*
X51370000Y-11080000D01*
X292107800Y-23345800D02*
X276758000Y-23345800D01*
%TO.N,Col 15*%
X52662900Y-45637800D02*
X312655300Y-45637800D01*
X330065700Y-101148200D02*
X330200000Y-101282500D01*
X312655300Y-45637800D02*
X330200000Y-63182500D01*
X323923000Y-101148200D02*
X330065700Y-101148200D01*
X52125300Y-45100200D02*
X52662900Y-45637800D01*
%TO.N,SW_power*%
X270575100Y-11080000D02*
X278995100Y-19500000D01*
X278995100Y-19500000D02*
X279312500Y-19500000D01*
X56450000Y-11080000D02*
X270575100Y-11080000D01*
%TO.N,Net-(L8-DOUT)*%
X137345500Y-96229400D02*
X53584000Y-96229400D01*
X53584000Y-96229400D02*
X53154200Y-95799600D01*
%TO.N,Net-(L16-DOUT)*%
X223607300Y-130484100D02*
X299866800Y-130484100D01*
X217245300Y-136846100D02*
X223607300Y-130484100D01*
%TO.N,Net-(L17-DOUT)*%
X334523400Y-130572200D02*
X311031500Y-130572200D01*
X298914100Y-134600500D02*
X294488800Y-134600500D01*
X307228500Y-134375200D02*
X307228500Y-134375300D01*
X307228500Y-134375300D02*
X299139300Y-134375300D01*
X299139300Y-134375300D02*
X298914100Y-134600500D01*
X311031500Y-130572200D02*
X307228500Y-134375200D01*
%TD*%
M02*
