%TF.GenerationSoftware,KiCad,Pcbnew,9.0.2*%
%TF.CreationDate,2025-07-31T22:41:45+05:30*%
%TF.ProjectId,clackintosh,636c6163-6b69-46e7-946f-73682e6b6963,rev?*%
%TF.SameCoordinates,Original*%
%TF.FileFunction,Legend,Bot*%
%TF.FilePolarity,Positive*%
%FSLAX46Y46*%
G04 Gerber Fmt 4.6, Leading zero omitted, Abs format (unit mm)*
G04 Created by KiCad (PCBNEW 9.0.2) date 2025-07-31 22:41:45*
%MOMM*%
%LPD*%
G01*
G04 APERTURE LIST*
%ADD10C,0.200000*%
%ADD11C,0.150000*%
%ADD12C,0.100000*%
%ADD13C,0.120000*%
G04 APERTURE END LIST*
D10*
X44202219Y-7265564D02*
X44202219Y-6694136D01*
X44202219Y-6979850D02*
X43202219Y-6979850D01*
X43202219Y-6979850D02*
X43345076Y-6884612D01*
X43345076Y-6884612D02*
X43440314Y-6789374D01*
X43440314Y-6789374D02*
X43487933Y-6694136D01*
X44202219Y-7741755D02*
X44202219Y-7932231D01*
X44202219Y-7932231D02*
X44154600Y-8027469D01*
X44154600Y-8027469D02*
X44106980Y-8075088D01*
X44106980Y-8075088D02*
X43964123Y-8170326D01*
X43964123Y-8170326D02*
X43773647Y-8217945D01*
X43773647Y-8217945D02*
X43392695Y-8217945D01*
X43392695Y-8217945D02*
X43297457Y-8170326D01*
X43297457Y-8170326D02*
X43249838Y-8122707D01*
X43249838Y-8122707D02*
X43202219Y-8027469D01*
X43202219Y-8027469D02*
X43202219Y-7836993D01*
X43202219Y-7836993D02*
X43249838Y-7741755D01*
X43249838Y-7741755D02*
X43297457Y-7694136D01*
X43297457Y-7694136D02*
X43392695Y-7646517D01*
X43392695Y-7646517D02*
X43630790Y-7646517D01*
X43630790Y-7646517D02*
X43726028Y-7694136D01*
X43726028Y-7694136D02*
X43773647Y-7741755D01*
X43773647Y-7741755D02*
X43821266Y-7836993D01*
X43821266Y-7836993D02*
X43821266Y-8027469D01*
X43821266Y-8027469D02*
X43773647Y-8122707D01*
X43773647Y-8122707D02*
X43726028Y-8170326D01*
X43726028Y-8170326D02*
X43630790Y-8217945D01*
X53790790Y-29372530D02*
X53743171Y-29277292D01*
X53743171Y-29277292D02*
X53695552Y-29229673D01*
X53695552Y-29229673D02*
X53600314Y-29182054D01*
X53600314Y-29182054D02*
X53552695Y-29182054D01*
X53552695Y-29182054D02*
X53457457Y-29229673D01*
X53457457Y-29229673D02*
X53409838Y-29277292D01*
X53409838Y-29277292D02*
X53362219Y-29372530D01*
X53362219Y-29372530D02*
X53362219Y-29563006D01*
X53362219Y-29563006D02*
X53409838Y-29658244D01*
X53409838Y-29658244D02*
X53457457Y-29705863D01*
X53457457Y-29705863D02*
X53552695Y-29753482D01*
X53552695Y-29753482D02*
X53600314Y-29753482D01*
X53600314Y-29753482D02*
X53695552Y-29705863D01*
X53695552Y-29705863D02*
X53743171Y-29658244D01*
X53743171Y-29658244D02*
X53790790Y-29563006D01*
X53790790Y-29563006D02*
X53790790Y-29372530D01*
X53790790Y-29372530D02*
X53838409Y-29277292D01*
X53838409Y-29277292D02*
X53886028Y-29229673D01*
X53886028Y-29229673D02*
X53981266Y-29182054D01*
X53981266Y-29182054D02*
X54171742Y-29182054D01*
X54171742Y-29182054D02*
X54266980Y-29229673D01*
X54266980Y-29229673D02*
X54314600Y-29277292D01*
X54314600Y-29277292D02*
X54362219Y-29372530D01*
X54362219Y-29372530D02*
X54362219Y-29563006D01*
X54362219Y-29563006D02*
X54314600Y-29658244D01*
X54314600Y-29658244D02*
X54266980Y-29705863D01*
X54266980Y-29705863D02*
X54171742Y-29753482D01*
X54171742Y-29753482D02*
X53981266Y-29753482D01*
X53981266Y-29753482D02*
X53886028Y-29705863D01*
X53886028Y-29705863D02*
X53838409Y-29658244D01*
X53838409Y-29658244D02*
X53790790Y-29563006D01*
X56902219Y-7265564D02*
X56902219Y-6694136D01*
X56902219Y-6979850D02*
X55902219Y-6979850D01*
X55902219Y-6979850D02*
X56045076Y-6884612D01*
X56045076Y-6884612D02*
X56140314Y-6789374D01*
X56140314Y-6789374D02*
X56187933Y-6694136D01*
X55902219Y-7884612D02*
X55902219Y-7979850D01*
X55902219Y-7979850D02*
X55949838Y-8075088D01*
X55949838Y-8075088D02*
X55997457Y-8122707D01*
X55997457Y-8122707D02*
X56092695Y-8170326D01*
X56092695Y-8170326D02*
X56283171Y-8217945D01*
X56283171Y-8217945D02*
X56521266Y-8217945D01*
X56521266Y-8217945D02*
X56711742Y-8170326D01*
X56711742Y-8170326D02*
X56806980Y-8122707D01*
X56806980Y-8122707D02*
X56854600Y-8075088D01*
X56854600Y-8075088D02*
X56902219Y-7979850D01*
X56902219Y-7979850D02*
X56902219Y-7884612D01*
X56902219Y-7884612D02*
X56854600Y-7789374D01*
X56854600Y-7789374D02*
X56806980Y-7741755D01*
X56806980Y-7741755D02*
X56711742Y-7694136D01*
X56711742Y-7694136D02*
X56521266Y-7646517D01*
X56521266Y-7646517D02*
X56283171Y-7646517D01*
X56283171Y-7646517D02*
X56092695Y-7694136D01*
X56092695Y-7694136D02*
X55997457Y-7741755D01*
X55997457Y-7741755D02*
X55949838Y-7789374D01*
X55949838Y-7789374D02*
X55902219Y-7884612D01*
X53457457Y-20954286D02*
X53409838Y-21001905D01*
X53409838Y-21001905D02*
X53362219Y-21097143D01*
X53362219Y-21097143D02*
X53362219Y-21335238D01*
X53362219Y-21335238D02*
X53409838Y-21430476D01*
X53409838Y-21430476D02*
X53457457Y-21478095D01*
X53457457Y-21478095D02*
X53552695Y-21525714D01*
X53552695Y-21525714D02*
X53647933Y-21525714D01*
X53647933Y-21525714D02*
X53790790Y-21478095D01*
X53790790Y-21478095D02*
X54362219Y-20906667D01*
X54362219Y-20906667D02*
X54362219Y-21525714D01*
X51822219Y-7265564D02*
X51822219Y-6694136D01*
X51822219Y-6979850D02*
X50822219Y-6979850D01*
X50822219Y-6979850D02*
X50965076Y-6884612D01*
X50965076Y-6884612D02*
X51060314Y-6789374D01*
X51060314Y-6789374D02*
X51107933Y-6694136D01*
X51155552Y-8122707D02*
X51822219Y-8122707D01*
X50774600Y-7884612D02*
X51488885Y-7646517D01*
X51488885Y-7646517D02*
X51488885Y-8265564D01*
X45742219Y-29705863D02*
X45742219Y-29229673D01*
X45742219Y-29229673D02*
X46218409Y-29182054D01*
X46218409Y-29182054D02*
X46170790Y-29229673D01*
X46170790Y-29229673D02*
X46123171Y-29324911D01*
X46123171Y-29324911D02*
X46123171Y-29563006D01*
X46123171Y-29563006D02*
X46170790Y-29658244D01*
X46170790Y-29658244D02*
X46218409Y-29705863D01*
X46218409Y-29705863D02*
X46313647Y-29753482D01*
X46313647Y-29753482D02*
X46551742Y-29753482D01*
X46551742Y-29753482D02*
X46646980Y-29705863D01*
X46646980Y-29705863D02*
X46694600Y-29658244D01*
X46694600Y-29658244D02*
X46742219Y-29563006D01*
X46742219Y-29563006D02*
X46742219Y-29324911D01*
X46742219Y-29324911D02*
X46694600Y-29229673D01*
X46694600Y-29229673D02*
X46646980Y-29182054D01*
X30502219Y-29420149D02*
X30502219Y-29515387D01*
X30502219Y-29515387D02*
X30549838Y-29610625D01*
X30549838Y-29610625D02*
X30597457Y-29658244D01*
X30597457Y-29658244D02*
X30692695Y-29705863D01*
X30692695Y-29705863D02*
X30883171Y-29753482D01*
X30883171Y-29753482D02*
X31121266Y-29753482D01*
X31121266Y-29753482D02*
X31311742Y-29705863D01*
X31311742Y-29705863D02*
X31406980Y-29658244D01*
X31406980Y-29658244D02*
X31454600Y-29610625D01*
X31454600Y-29610625D02*
X31502219Y-29515387D01*
X31502219Y-29515387D02*
X31502219Y-29420149D01*
X31502219Y-29420149D02*
X31454600Y-29324911D01*
X31454600Y-29324911D02*
X31406980Y-29277292D01*
X31406980Y-29277292D02*
X31311742Y-29229673D01*
X31311742Y-29229673D02*
X31121266Y-29182054D01*
X31121266Y-29182054D02*
X30883171Y-29182054D01*
X30883171Y-29182054D02*
X30692695Y-29229673D01*
X30692695Y-29229673D02*
X30597457Y-29277292D01*
X30597457Y-29277292D02*
X30549838Y-29324911D01*
X30549838Y-29324911D02*
X30502219Y-29420149D01*
X50822219Y-29134435D02*
X50822219Y-29801101D01*
X50822219Y-29801101D02*
X51822219Y-29372530D01*
X33089838Y-29753482D02*
X33042219Y-29658244D01*
X33042219Y-29658244D02*
X33042219Y-29515387D01*
X33042219Y-29515387D02*
X33089838Y-29372530D01*
X33089838Y-29372530D02*
X33185076Y-29277292D01*
X33185076Y-29277292D02*
X33280314Y-29229673D01*
X33280314Y-29229673D02*
X33470790Y-29182054D01*
X33470790Y-29182054D02*
X33613647Y-29182054D01*
X33613647Y-29182054D02*
X33804123Y-29229673D01*
X33804123Y-29229673D02*
X33899361Y-29277292D01*
X33899361Y-29277292D02*
X33994600Y-29372530D01*
X33994600Y-29372530D02*
X34042219Y-29515387D01*
X34042219Y-29515387D02*
X34042219Y-29610625D01*
X34042219Y-29610625D02*
X33994600Y-29753482D01*
X33994600Y-29753482D02*
X33946980Y-29801101D01*
X33946980Y-29801101D02*
X33613647Y-29801101D01*
X33613647Y-29801101D02*
X33613647Y-29610625D01*
X34042219Y-30229673D02*
X33042219Y-30229673D01*
X33042219Y-30229673D02*
X34042219Y-30801101D01*
X34042219Y-30801101D02*
X33042219Y-30801101D01*
X34042219Y-31277292D02*
X33042219Y-31277292D01*
X33042219Y-31277292D02*
X33042219Y-31515387D01*
X33042219Y-31515387D02*
X33089838Y-31658244D01*
X33089838Y-31658244D02*
X33185076Y-31753482D01*
X33185076Y-31753482D02*
X33280314Y-31801101D01*
X33280314Y-31801101D02*
X33470790Y-31848720D01*
X33470790Y-31848720D02*
X33613647Y-31848720D01*
X33613647Y-31848720D02*
X33804123Y-31801101D01*
X33804123Y-31801101D02*
X33899361Y-31753482D01*
X33899361Y-31753482D02*
X33994600Y-31658244D01*
X33994600Y-31658244D02*
X34042219Y-31515387D01*
X34042219Y-31515387D02*
X34042219Y-31277292D01*
X49282219Y-7265564D02*
X49282219Y-6694136D01*
X49282219Y-6979850D02*
X48282219Y-6979850D01*
X48282219Y-6979850D02*
X48425076Y-6884612D01*
X48425076Y-6884612D02*
X48520314Y-6789374D01*
X48520314Y-6789374D02*
X48567933Y-6694136D01*
X48282219Y-8170326D02*
X48282219Y-7694136D01*
X48282219Y-7694136D02*
X48758409Y-7646517D01*
X48758409Y-7646517D02*
X48710790Y-7694136D01*
X48710790Y-7694136D02*
X48663171Y-7789374D01*
X48663171Y-7789374D02*
X48663171Y-8027469D01*
X48663171Y-8027469D02*
X48710790Y-8122707D01*
X48710790Y-8122707D02*
X48758409Y-8170326D01*
X48758409Y-8170326D02*
X48853647Y-8217945D01*
X48853647Y-8217945D02*
X49091742Y-8217945D01*
X49091742Y-8217945D02*
X49186980Y-8170326D01*
X49186980Y-8170326D02*
X49234600Y-8122707D01*
X49234600Y-8122707D02*
X49282219Y-8027469D01*
X49282219Y-8027469D02*
X49282219Y-7789374D01*
X49282219Y-7789374D02*
X49234600Y-7694136D01*
X49234600Y-7694136D02*
X49186980Y-7646517D01*
X30549838Y-6122707D02*
X30502219Y-6027469D01*
X30502219Y-6027469D02*
X30502219Y-5884612D01*
X30502219Y-5884612D02*
X30549838Y-5741755D01*
X30549838Y-5741755D02*
X30645076Y-5646517D01*
X30645076Y-5646517D02*
X30740314Y-5598898D01*
X30740314Y-5598898D02*
X30930790Y-5551279D01*
X30930790Y-5551279D02*
X31073647Y-5551279D01*
X31073647Y-5551279D02*
X31264123Y-5598898D01*
X31264123Y-5598898D02*
X31359361Y-5646517D01*
X31359361Y-5646517D02*
X31454600Y-5741755D01*
X31454600Y-5741755D02*
X31502219Y-5884612D01*
X31502219Y-5884612D02*
X31502219Y-5979850D01*
X31502219Y-5979850D02*
X31454600Y-6122707D01*
X31454600Y-6122707D02*
X31406980Y-6170326D01*
X31406980Y-6170326D02*
X31073647Y-6170326D01*
X31073647Y-6170326D02*
X31073647Y-5979850D01*
X31502219Y-6598898D02*
X30502219Y-6598898D01*
X30502219Y-6598898D02*
X31502219Y-7170326D01*
X31502219Y-7170326D02*
X30502219Y-7170326D01*
X31502219Y-7646517D02*
X30502219Y-7646517D01*
X30502219Y-7646517D02*
X30502219Y-7884612D01*
X30502219Y-7884612D02*
X30549838Y-8027469D01*
X30549838Y-8027469D02*
X30645076Y-8122707D01*
X30645076Y-8122707D02*
X30740314Y-8170326D01*
X30740314Y-8170326D02*
X30930790Y-8217945D01*
X30930790Y-8217945D02*
X31073647Y-8217945D01*
X31073647Y-8217945D02*
X31264123Y-8170326D01*
X31264123Y-8170326D02*
X31359361Y-8122707D01*
X31359361Y-8122707D02*
X31454600Y-8027469D01*
X31454600Y-8027469D02*
X31502219Y-7884612D01*
X31502219Y-7884612D02*
X31502219Y-7646517D01*
X28438409Y-6741755D02*
X28486028Y-6884612D01*
X28486028Y-6884612D02*
X28533647Y-6932231D01*
X28533647Y-6932231D02*
X28628885Y-6979850D01*
X28628885Y-6979850D02*
X28771742Y-6979850D01*
X28771742Y-6979850D02*
X28866980Y-6932231D01*
X28866980Y-6932231D02*
X28914600Y-6884612D01*
X28914600Y-6884612D02*
X28962219Y-6789374D01*
X28962219Y-6789374D02*
X28962219Y-6408422D01*
X28962219Y-6408422D02*
X27962219Y-6408422D01*
X27962219Y-6408422D02*
X27962219Y-6741755D01*
X27962219Y-6741755D02*
X28009838Y-6836993D01*
X28009838Y-6836993D02*
X28057457Y-6884612D01*
X28057457Y-6884612D02*
X28152695Y-6932231D01*
X28152695Y-6932231D02*
X28247933Y-6932231D01*
X28247933Y-6932231D02*
X28343171Y-6884612D01*
X28343171Y-6884612D02*
X28390790Y-6836993D01*
X28390790Y-6836993D02*
X28438409Y-6741755D01*
X28438409Y-6741755D02*
X28438409Y-6408422D01*
X28581266Y-7408422D02*
X28581266Y-8170327D01*
X28962219Y-7789374D02*
X28200314Y-7789374D01*
X35582219Y-5408422D02*
X35582219Y-6027469D01*
X35582219Y-6027469D02*
X35963171Y-5694136D01*
X35963171Y-5694136D02*
X35963171Y-5836993D01*
X35963171Y-5836993D02*
X36010790Y-5932231D01*
X36010790Y-5932231D02*
X36058409Y-5979850D01*
X36058409Y-5979850D02*
X36153647Y-6027469D01*
X36153647Y-6027469D02*
X36391742Y-6027469D01*
X36391742Y-6027469D02*
X36486980Y-5979850D01*
X36486980Y-5979850D02*
X36534600Y-5932231D01*
X36534600Y-5932231D02*
X36582219Y-5836993D01*
X36582219Y-5836993D02*
X36582219Y-5551279D01*
X36582219Y-5551279D02*
X36534600Y-5456041D01*
X36534600Y-5456041D02*
X36486980Y-5408422D01*
X36486980Y-6456041D02*
X36534600Y-6503660D01*
X36534600Y-6503660D02*
X36582219Y-6456041D01*
X36582219Y-6456041D02*
X36534600Y-6408422D01*
X36534600Y-6408422D02*
X36486980Y-6456041D01*
X36486980Y-6456041D02*
X36582219Y-6456041D01*
X35582219Y-6836993D02*
X35582219Y-7456040D01*
X35582219Y-7456040D02*
X35963171Y-7122707D01*
X35963171Y-7122707D02*
X35963171Y-7265564D01*
X35963171Y-7265564D02*
X36010790Y-7360802D01*
X36010790Y-7360802D02*
X36058409Y-7408421D01*
X36058409Y-7408421D02*
X36153647Y-7456040D01*
X36153647Y-7456040D02*
X36391742Y-7456040D01*
X36391742Y-7456040D02*
X36486980Y-7408421D01*
X36486980Y-7408421D02*
X36534600Y-7360802D01*
X36534600Y-7360802D02*
X36582219Y-7265564D01*
X36582219Y-7265564D02*
X36582219Y-6979850D01*
X36582219Y-6979850D02*
X36534600Y-6884612D01*
X36534600Y-6884612D02*
X36486980Y-6836993D01*
X35915552Y-7789374D02*
X36582219Y-8027469D01*
X36582219Y-8027469D02*
X35915552Y-8265564D01*
X46742219Y-7265564D02*
X46742219Y-6694136D01*
X46742219Y-6979850D02*
X45742219Y-6979850D01*
X45742219Y-6979850D02*
X45885076Y-6884612D01*
X45885076Y-6884612D02*
X45980314Y-6789374D01*
X45980314Y-6789374D02*
X46027933Y-6694136D01*
X46170790Y-7836993D02*
X46123171Y-7741755D01*
X46123171Y-7741755D02*
X46075552Y-7694136D01*
X46075552Y-7694136D02*
X45980314Y-7646517D01*
X45980314Y-7646517D02*
X45932695Y-7646517D01*
X45932695Y-7646517D02*
X45837457Y-7694136D01*
X45837457Y-7694136D02*
X45789838Y-7741755D01*
X45789838Y-7741755D02*
X45742219Y-7836993D01*
X45742219Y-7836993D02*
X45742219Y-8027469D01*
X45742219Y-8027469D02*
X45789838Y-8122707D01*
X45789838Y-8122707D02*
X45837457Y-8170326D01*
X45837457Y-8170326D02*
X45932695Y-8217945D01*
X45932695Y-8217945D02*
X45980314Y-8217945D01*
X45980314Y-8217945D02*
X46075552Y-8170326D01*
X46075552Y-8170326D02*
X46123171Y-8122707D01*
X46123171Y-8122707D02*
X46170790Y-8027469D01*
X46170790Y-8027469D02*
X46170790Y-7836993D01*
X46170790Y-7836993D02*
X46218409Y-7741755D01*
X46218409Y-7741755D02*
X46266028Y-7694136D01*
X46266028Y-7694136D02*
X46361266Y-7646517D01*
X46361266Y-7646517D02*
X46551742Y-7646517D01*
X46551742Y-7646517D02*
X46646980Y-7694136D01*
X46646980Y-7694136D02*
X46694600Y-7741755D01*
X46694600Y-7741755D02*
X46742219Y-7836993D01*
X46742219Y-7836993D02*
X46742219Y-8027469D01*
X46742219Y-8027469D02*
X46694600Y-8122707D01*
X46694600Y-8122707D02*
X46646980Y-8170326D01*
X46646980Y-8170326D02*
X46551742Y-8217945D01*
X46551742Y-8217945D02*
X46361266Y-8217945D01*
X46361266Y-8217945D02*
X46266028Y-8170326D01*
X46266028Y-8170326D02*
X46218409Y-8122707D01*
X46218409Y-8122707D02*
X46170790Y-8027469D01*
X48282219Y-29658244D02*
X48282219Y-29467768D01*
X48282219Y-29467768D02*
X48329838Y-29372530D01*
X48329838Y-29372530D02*
X48377457Y-29324911D01*
X48377457Y-29324911D02*
X48520314Y-29229673D01*
X48520314Y-29229673D02*
X48710790Y-29182054D01*
X48710790Y-29182054D02*
X49091742Y-29182054D01*
X49091742Y-29182054D02*
X49186980Y-29229673D01*
X49186980Y-29229673D02*
X49234600Y-29277292D01*
X49234600Y-29277292D02*
X49282219Y-29372530D01*
X49282219Y-29372530D02*
X49282219Y-29563006D01*
X49282219Y-29563006D02*
X49234600Y-29658244D01*
X49234600Y-29658244D02*
X49186980Y-29705863D01*
X49186980Y-29705863D02*
X49091742Y-29753482D01*
X49091742Y-29753482D02*
X48853647Y-29753482D01*
X48853647Y-29753482D02*
X48758409Y-29705863D01*
X48758409Y-29705863D02*
X48710790Y-29658244D01*
X48710790Y-29658244D02*
X48663171Y-29563006D01*
X48663171Y-29563006D02*
X48663171Y-29372530D01*
X48663171Y-29372530D02*
X48710790Y-29277292D01*
X48710790Y-29277292D02*
X48758409Y-29229673D01*
X48758409Y-29229673D02*
X48853647Y-29182054D01*
X53362217Y-18366667D02*
X53362217Y-19033333D01*
X53362217Y-19033333D02*
X54362217Y-18604762D01*
X34042219Y-6503659D02*
X33566028Y-6170326D01*
X34042219Y-5932231D02*
X33042219Y-5932231D01*
X33042219Y-5932231D02*
X33042219Y-6313183D01*
X33042219Y-6313183D02*
X33089838Y-6408421D01*
X33089838Y-6408421D02*
X33137457Y-6456040D01*
X33137457Y-6456040D02*
X33232695Y-6503659D01*
X33232695Y-6503659D02*
X33375552Y-6503659D01*
X33375552Y-6503659D02*
X33470790Y-6456040D01*
X33470790Y-6456040D02*
X33518409Y-6408421D01*
X33518409Y-6408421D02*
X33566028Y-6313183D01*
X33566028Y-6313183D02*
X33566028Y-5932231D01*
X33994600Y-6884612D02*
X34042219Y-7027469D01*
X34042219Y-7027469D02*
X34042219Y-7265564D01*
X34042219Y-7265564D02*
X33994600Y-7360802D01*
X33994600Y-7360802D02*
X33946980Y-7408421D01*
X33946980Y-7408421D02*
X33851742Y-7456040D01*
X33851742Y-7456040D02*
X33756504Y-7456040D01*
X33756504Y-7456040D02*
X33661266Y-7408421D01*
X33661266Y-7408421D02*
X33613647Y-7360802D01*
X33613647Y-7360802D02*
X33566028Y-7265564D01*
X33566028Y-7265564D02*
X33518409Y-7075088D01*
X33518409Y-7075088D02*
X33470790Y-6979850D01*
X33470790Y-6979850D02*
X33423171Y-6932231D01*
X33423171Y-6932231D02*
X33327933Y-6884612D01*
X33327933Y-6884612D02*
X33232695Y-6884612D01*
X33232695Y-6884612D02*
X33137457Y-6932231D01*
X33137457Y-6932231D02*
X33089838Y-6979850D01*
X33089838Y-6979850D02*
X33042219Y-7075088D01*
X33042219Y-7075088D02*
X33042219Y-7313183D01*
X33042219Y-7313183D02*
X33089838Y-7456040D01*
X33042219Y-7741755D02*
X33042219Y-8313183D01*
X34042219Y-8027469D02*
X33042219Y-8027469D01*
X54362219Y-7265564D02*
X54362219Y-6694136D01*
X54362219Y-6979850D02*
X53362219Y-6979850D01*
X53362219Y-6979850D02*
X53505076Y-6884612D01*
X53505076Y-6884612D02*
X53600314Y-6789374D01*
X53600314Y-6789374D02*
X53647933Y-6694136D01*
X53362219Y-8122707D02*
X53362219Y-7932231D01*
X53362219Y-7932231D02*
X53409838Y-7836993D01*
X53409838Y-7836993D02*
X53457457Y-7789374D01*
X53457457Y-7789374D02*
X53600314Y-7694136D01*
X53600314Y-7694136D02*
X53790790Y-7646517D01*
X53790790Y-7646517D02*
X54171742Y-7646517D01*
X54171742Y-7646517D02*
X54266980Y-7694136D01*
X54266980Y-7694136D02*
X54314600Y-7741755D01*
X54314600Y-7741755D02*
X54362219Y-7836993D01*
X54362219Y-7836993D02*
X54362219Y-8027469D01*
X54362219Y-8027469D02*
X54314600Y-8122707D01*
X54314600Y-8122707D02*
X54266980Y-8170326D01*
X54266980Y-8170326D02*
X54171742Y-8217945D01*
X54171742Y-8217945D02*
X53933647Y-8217945D01*
X53933647Y-8217945D02*
X53838409Y-8170326D01*
X53838409Y-8170326D02*
X53790790Y-8122707D01*
X53790790Y-8122707D02*
X53743171Y-8027469D01*
X53743171Y-8027469D02*
X53743171Y-7836993D01*
X53743171Y-7836993D02*
X53790790Y-7741755D01*
X53790790Y-7741755D02*
X53838409Y-7694136D01*
X53838409Y-7694136D02*
X53933647Y-7646517D01*
X56902219Y-29277292D02*
X56902219Y-29467768D01*
X56902219Y-29467768D02*
X56854600Y-29563006D01*
X56854600Y-29563006D02*
X56806980Y-29610625D01*
X56806980Y-29610625D02*
X56664123Y-29705863D01*
X56664123Y-29705863D02*
X56473647Y-29753482D01*
X56473647Y-29753482D02*
X56092695Y-29753482D01*
X56092695Y-29753482D02*
X55997457Y-29705863D01*
X55997457Y-29705863D02*
X55949838Y-29658244D01*
X55949838Y-29658244D02*
X55902219Y-29563006D01*
X55902219Y-29563006D02*
X55902219Y-29372530D01*
X55902219Y-29372530D02*
X55949838Y-29277292D01*
X55949838Y-29277292D02*
X55997457Y-29229673D01*
X55997457Y-29229673D02*
X56092695Y-29182054D01*
X56092695Y-29182054D02*
X56330790Y-29182054D01*
X56330790Y-29182054D02*
X56426028Y-29229673D01*
X56426028Y-29229673D02*
X56473647Y-29277292D01*
X56473647Y-29277292D02*
X56521266Y-29372530D01*
X56521266Y-29372530D02*
X56521266Y-29563006D01*
X56521266Y-29563006D02*
X56473647Y-29658244D01*
X56473647Y-29658244D02*
X56426028Y-29705863D01*
X56426028Y-29705863D02*
X56330790Y-29753482D01*
X43535552Y-29658244D02*
X44202219Y-29658244D01*
X43154600Y-29420149D02*
X43868885Y-29182054D01*
X43868885Y-29182054D02*
X43868885Y-29801101D01*
X38217457Y-6694136D02*
X38169838Y-6741755D01*
X38169838Y-6741755D02*
X38122219Y-6836993D01*
X38122219Y-6836993D02*
X38122219Y-7075088D01*
X38122219Y-7075088D02*
X38169838Y-7170326D01*
X38169838Y-7170326D02*
X38217457Y-7217945D01*
X38217457Y-7217945D02*
X38312695Y-7265564D01*
X38312695Y-7265564D02*
X38407933Y-7265564D01*
X38407933Y-7265564D02*
X38550790Y-7217945D01*
X38550790Y-7217945D02*
X39122219Y-6646517D01*
X39122219Y-6646517D02*
X39122219Y-7265564D01*
X39122219Y-8217945D02*
X39122219Y-7646517D01*
X39122219Y-7932231D02*
X38122219Y-7932231D01*
X38122219Y-7932231D02*
X38265076Y-7836993D01*
X38265076Y-7836993D02*
X38360314Y-7741755D01*
X38360314Y-7741755D02*
X38407933Y-7646517D01*
X40757457Y-6694136D02*
X40709838Y-6741755D01*
X40709838Y-6741755D02*
X40662219Y-6836993D01*
X40662219Y-6836993D02*
X40662219Y-7075088D01*
X40662219Y-7075088D02*
X40709838Y-7170326D01*
X40709838Y-7170326D02*
X40757457Y-7217945D01*
X40757457Y-7217945D02*
X40852695Y-7265564D01*
X40852695Y-7265564D02*
X40947933Y-7265564D01*
X40947933Y-7265564D02*
X41090790Y-7217945D01*
X41090790Y-7217945D02*
X41662219Y-6646517D01*
X41662219Y-6646517D02*
X41662219Y-7265564D01*
X40662219Y-7884612D02*
X40662219Y-7979850D01*
X40662219Y-7979850D02*
X40709838Y-8075088D01*
X40709838Y-8075088D02*
X40757457Y-8122707D01*
X40757457Y-8122707D02*
X40852695Y-8170326D01*
X40852695Y-8170326D02*
X41043171Y-8217945D01*
X41043171Y-8217945D02*
X41281266Y-8217945D01*
X41281266Y-8217945D02*
X41471742Y-8170326D01*
X41471742Y-8170326D02*
X41566980Y-8122707D01*
X41566980Y-8122707D02*
X41614600Y-8075088D01*
X41614600Y-8075088D02*
X41662219Y-7979850D01*
X41662219Y-7979850D02*
X41662219Y-7884612D01*
X41662219Y-7884612D02*
X41614600Y-7789374D01*
X41614600Y-7789374D02*
X41566980Y-7741755D01*
X41566980Y-7741755D02*
X41471742Y-7694136D01*
X41471742Y-7694136D02*
X41281266Y-7646517D01*
X41281266Y-7646517D02*
X41043171Y-7646517D01*
X41043171Y-7646517D02*
X40852695Y-7694136D01*
X40852695Y-7694136D02*
X40757457Y-7741755D01*
X40757457Y-7741755D02*
X40709838Y-7789374D01*
X40709838Y-7789374D02*
X40662219Y-7884612D01*
X54362219Y-24065714D02*
X54362219Y-23494286D01*
X54362219Y-23780000D02*
X53362219Y-23780000D01*
X53362219Y-23780000D02*
X53505076Y-23684762D01*
X53505076Y-23684762D02*
X53600314Y-23589524D01*
X53600314Y-23589524D02*
X53647933Y-23494286D01*
X40662219Y-29134435D02*
X40662219Y-29753482D01*
X40662219Y-29753482D02*
X41043171Y-29420149D01*
X41043171Y-29420149D02*
X41043171Y-29563006D01*
X41043171Y-29563006D02*
X41090790Y-29658244D01*
X41090790Y-29658244D02*
X41138409Y-29705863D01*
X41138409Y-29705863D02*
X41233647Y-29753482D01*
X41233647Y-29753482D02*
X41471742Y-29753482D01*
X41471742Y-29753482D02*
X41566980Y-29705863D01*
X41566980Y-29705863D02*
X41614600Y-29658244D01*
X41614600Y-29658244D02*
X41662219Y-29563006D01*
X41662219Y-29563006D02*
X41662219Y-29277292D01*
X41662219Y-29277292D02*
X41614600Y-29182054D01*
X41614600Y-29182054D02*
X41566980Y-29134435D01*
X28962219Y-29753482D02*
X28962219Y-29182054D01*
X28962219Y-29467768D02*
X27962219Y-29467768D01*
X27962219Y-29467768D02*
X28105076Y-29372530D01*
X28105076Y-29372530D02*
X28200314Y-29277292D01*
X28200314Y-29277292D02*
X28247933Y-29182054D01*
X35629838Y-29753482D02*
X35582219Y-29658244D01*
X35582219Y-29658244D02*
X35582219Y-29515387D01*
X35582219Y-29515387D02*
X35629838Y-29372530D01*
X35629838Y-29372530D02*
X35725076Y-29277292D01*
X35725076Y-29277292D02*
X35820314Y-29229673D01*
X35820314Y-29229673D02*
X36010790Y-29182054D01*
X36010790Y-29182054D02*
X36153647Y-29182054D01*
X36153647Y-29182054D02*
X36344123Y-29229673D01*
X36344123Y-29229673D02*
X36439361Y-29277292D01*
X36439361Y-29277292D02*
X36534600Y-29372530D01*
X36534600Y-29372530D02*
X36582219Y-29515387D01*
X36582219Y-29515387D02*
X36582219Y-29610625D01*
X36582219Y-29610625D02*
X36534600Y-29753482D01*
X36534600Y-29753482D02*
X36486980Y-29801101D01*
X36486980Y-29801101D02*
X36153647Y-29801101D01*
X36153647Y-29801101D02*
X36153647Y-29610625D01*
X36582219Y-30229673D02*
X35582219Y-30229673D01*
X35582219Y-30229673D02*
X36582219Y-30801101D01*
X36582219Y-30801101D02*
X35582219Y-30801101D01*
X36582219Y-31277292D02*
X35582219Y-31277292D01*
X35582219Y-31277292D02*
X35582219Y-31515387D01*
X35582219Y-31515387D02*
X35629838Y-31658244D01*
X35629838Y-31658244D02*
X35725076Y-31753482D01*
X35725076Y-31753482D02*
X35820314Y-31801101D01*
X35820314Y-31801101D02*
X36010790Y-31848720D01*
X36010790Y-31848720D02*
X36153647Y-31848720D01*
X36153647Y-31848720D02*
X36344123Y-31801101D01*
X36344123Y-31801101D02*
X36439361Y-31753482D01*
X36439361Y-31753482D02*
X36534600Y-31658244D01*
X36534600Y-31658244D02*
X36582219Y-31515387D01*
X36582219Y-31515387D02*
X36582219Y-31277292D01*
X38217457Y-29182054D02*
X38169838Y-29229673D01*
X38169838Y-29229673D02*
X38122219Y-29324911D01*
X38122219Y-29324911D02*
X38122219Y-29563006D01*
X38122219Y-29563006D02*
X38169838Y-29658244D01*
X38169838Y-29658244D02*
X38217457Y-29705863D01*
X38217457Y-29705863D02*
X38312695Y-29753482D01*
X38312695Y-29753482D02*
X38407933Y-29753482D01*
X38407933Y-29753482D02*
X38550790Y-29705863D01*
X38550790Y-29705863D02*
X39122219Y-29134435D01*
X39122219Y-29134435D02*
X39122219Y-29753482D01*
D11*
X32897957Y-127509580D02*
X32945576Y-127557200D01*
X32945576Y-127557200D02*
X33088433Y-127604819D01*
X33088433Y-127604819D02*
X33183671Y-127604819D01*
X33183671Y-127604819D02*
X33326528Y-127557200D01*
X33326528Y-127557200D02*
X33421766Y-127461961D01*
X33421766Y-127461961D02*
X33469385Y-127366723D01*
X33469385Y-127366723D02*
X33517004Y-127176247D01*
X33517004Y-127176247D02*
X33517004Y-127033390D01*
X33517004Y-127033390D02*
X33469385Y-126842914D01*
X33469385Y-126842914D02*
X33421766Y-126747676D01*
X33421766Y-126747676D02*
X33326528Y-126652438D01*
X33326528Y-126652438D02*
X33183671Y-126604819D01*
X33183671Y-126604819D02*
X33088433Y-126604819D01*
X33088433Y-126604819D02*
X32945576Y-126652438D01*
X32945576Y-126652438D02*
X32897957Y-126700057D01*
X31945576Y-127604819D02*
X32517004Y-127604819D01*
X32231290Y-127604819D02*
X32231290Y-126604819D01*
X32231290Y-126604819D02*
X32326528Y-126747676D01*
X32326528Y-126747676D02*
X32421766Y-126842914D01*
X32421766Y-126842914D02*
X32517004Y-126890533D01*
X31088433Y-126938152D02*
X31088433Y-127604819D01*
X31326528Y-126557200D02*
X31564623Y-127271485D01*
X31564623Y-127271485D02*
X30945576Y-127271485D01*
X162621766Y-71309580D02*
X162669385Y-71357200D01*
X162669385Y-71357200D02*
X162812242Y-71404819D01*
X162812242Y-71404819D02*
X162907480Y-71404819D01*
X162907480Y-71404819D02*
X163050337Y-71357200D01*
X163050337Y-71357200D02*
X163145575Y-71261961D01*
X163145575Y-71261961D02*
X163193194Y-71166723D01*
X163193194Y-71166723D02*
X163240813Y-70976247D01*
X163240813Y-70976247D02*
X163240813Y-70833390D01*
X163240813Y-70833390D02*
X163193194Y-70642914D01*
X163193194Y-70642914D02*
X163145575Y-70547676D01*
X163145575Y-70547676D02*
X163050337Y-70452438D01*
X163050337Y-70452438D02*
X162907480Y-70404819D01*
X162907480Y-70404819D02*
X162812242Y-70404819D01*
X162812242Y-70404819D02*
X162669385Y-70452438D01*
X162669385Y-70452438D02*
X162621766Y-70500057D01*
X161764623Y-70404819D02*
X161955099Y-70404819D01*
X161955099Y-70404819D02*
X162050337Y-70452438D01*
X162050337Y-70452438D02*
X162097956Y-70500057D01*
X162097956Y-70500057D02*
X162193194Y-70642914D01*
X162193194Y-70642914D02*
X162240813Y-70833390D01*
X162240813Y-70833390D02*
X162240813Y-71214342D01*
X162240813Y-71214342D02*
X162193194Y-71309580D01*
X162193194Y-71309580D02*
X162145575Y-71357200D01*
X162145575Y-71357200D02*
X162050337Y-71404819D01*
X162050337Y-71404819D02*
X161859861Y-71404819D01*
X161859861Y-71404819D02*
X161764623Y-71357200D01*
X161764623Y-71357200D02*
X161717004Y-71309580D01*
X161717004Y-71309580D02*
X161669385Y-71214342D01*
X161669385Y-71214342D02*
X161669385Y-70976247D01*
X161669385Y-70976247D02*
X161717004Y-70881009D01*
X161717004Y-70881009D02*
X161764623Y-70833390D01*
X161764623Y-70833390D02*
X161859861Y-70785771D01*
X161859861Y-70785771D02*
X162050337Y-70785771D01*
X162050337Y-70785771D02*
X162145575Y-70833390D01*
X162145575Y-70833390D02*
X162193194Y-70881009D01*
X162193194Y-70881009D02*
X162240813Y-70976247D01*
X33121766Y-91009580D02*
X33169385Y-91057200D01*
X33169385Y-91057200D02*
X33312242Y-91104819D01*
X33312242Y-91104819D02*
X33407480Y-91104819D01*
X33407480Y-91104819D02*
X33550337Y-91057200D01*
X33550337Y-91057200D02*
X33645575Y-90961961D01*
X33645575Y-90961961D02*
X33693194Y-90866723D01*
X33693194Y-90866723D02*
X33740813Y-90676247D01*
X33740813Y-90676247D02*
X33740813Y-90533390D01*
X33740813Y-90533390D02*
X33693194Y-90342914D01*
X33693194Y-90342914D02*
X33645575Y-90247676D01*
X33645575Y-90247676D02*
X33550337Y-90152438D01*
X33550337Y-90152438D02*
X33407480Y-90104819D01*
X33407480Y-90104819D02*
X33312242Y-90104819D01*
X33312242Y-90104819D02*
X33169385Y-90152438D01*
X33169385Y-90152438D02*
X33121766Y-90200057D01*
X32550337Y-90533390D02*
X32645575Y-90485771D01*
X32645575Y-90485771D02*
X32693194Y-90438152D01*
X32693194Y-90438152D02*
X32740813Y-90342914D01*
X32740813Y-90342914D02*
X32740813Y-90295295D01*
X32740813Y-90295295D02*
X32693194Y-90200057D01*
X32693194Y-90200057D02*
X32645575Y-90152438D01*
X32645575Y-90152438D02*
X32550337Y-90104819D01*
X32550337Y-90104819D02*
X32359861Y-90104819D01*
X32359861Y-90104819D02*
X32264623Y-90152438D01*
X32264623Y-90152438D02*
X32217004Y-90200057D01*
X32217004Y-90200057D02*
X32169385Y-90295295D01*
X32169385Y-90295295D02*
X32169385Y-90342914D01*
X32169385Y-90342914D02*
X32217004Y-90438152D01*
X32217004Y-90438152D02*
X32264623Y-90485771D01*
X32264623Y-90485771D02*
X32359861Y-90533390D01*
X32359861Y-90533390D02*
X32550337Y-90533390D01*
X32550337Y-90533390D02*
X32645575Y-90581009D01*
X32645575Y-90581009D02*
X32693194Y-90628628D01*
X32693194Y-90628628D02*
X32740813Y-90723866D01*
X32740813Y-90723866D02*
X32740813Y-90914342D01*
X32740813Y-90914342D02*
X32693194Y-91009580D01*
X32693194Y-91009580D02*
X32645575Y-91057200D01*
X32645575Y-91057200D02*
X32550337Y-91104819D01*
X32550337Y-91104819D02*
X32359861Y-91104819D01*
X32359861Y-91104819D02*
X32264623Y-91057200D01*
X32264623Y-91057200D02*
X32217004Y-91009580D01*
X32217004Y-91009580D02*
X32169385Y-90914342D01*
X32169385Y-90914342D02*
X32169385Y-90723866D01*
X32169385Y-90723866D02*
X32217004Y-90628628D01*
X32217004Y-90628628D02*
X32264623Y-90581009D01*
X32264623Y-90581009D02*
X32359861Y-90533390D01*
X319892857Y-92109580D02*
X319940476Y-92157200D01*
X319940476Y-92157200D02*
X320083333Y-92204819D01*
X320083333Y-92204819D02*
X320178571Y-92204819D01*
X320178571Y-92204819D02*
X320321428Y-92157200D01*
X320321428Y-92157200D02*
X320416666Y-92061961D01*
X320416666Y-92061961D02*
X320464285Y-91966723D01*
X320464285Y-91966723D02*
X320511904Y-91776247D01*
X320511904Y-91776247D02*
X320511904Y-91633390D01*
X320511904Y-91633390D02*
X320464285Y-91442914D01*
X320464285Y-91442914D02*
X320416666Y-91347676D01*
X320416666Y-91347676D02*
X320321428Y-91252438D01*
X320321428Y-91252438D02*
X320178571Y-91204819D01*
X320178571Y-91204819D02*
X320083333Y-91204819D01*
X320083333Y-91204819D02*
X319940476Y-91252438D01*
X319940476Y-91252438D02*
X319892857Y-91300057D01*
X319511904Y-91300057D02*
X319464285Y-91252438D01*
X319464285Y-91252438D02*
X319369047Y-91204819D01*
X319369047Y-91204819D02*
X319130952Y-91204819D01*
X319130952Y-91204819D02*
X319035714Y-91252438D01*
X319035714Y-91252438D02*
X318988095Y-91300057D01*
X318988095Y-91300057D02*
X318940476Y-91395295D01*
X318940476Y-91395295D02*
X318940476Y-91490533D01*
X318940476Y-91490533D02*
X318988095Y-91633390D01*
X318988095Y-91633390D02*
X319559523Y-92204819D01*
X319559523Y-92204819D02*
X318940476Y-92204819D01*
X318321428Y-91204819D02*
X318226190Y-91204819D01*
X318226190Y-91204819D02*
X318130952Y-91252438D01*
X318130952Y-91252438D02*
X318083333Y-91300057D01*
X318083333Y-91300057D02*
X318035714Y-91395295D01*
X318035714Y-91395295D02*
X317988095Y-91585771D01*
X317988095Y-91585771D02*
X317988095Y-91823866D01*
X317988095Y-91823866D02*
X318035714Y-92014342D01*
X318035714Y-92014342D02*
X318083333Y-92109580D01*
X318083333Y-92109580D02*
X318130952Y-92157200D01*
X318130952Y-92157200D02*
X318226190Y-92204819D01*
X318226190Y-92204819D02*
X318321428Y-92204819D01*
X318321428Y-92204819D02*
X318416666Y-92157200D01*
X318416666Y-92157200D02*
X318464285Y-92109580D01*
X318464285Y-92109580D02*
X318511904Y-92014342D01*
X318511904Y-92014342D02*
X318559523Y-91823866D01*
X318559523Y-91823866D02*
X318559523Y-91585771D01*
X318559523Y-91585771D02*
X318511904Y-91395295D01*
X318511904Y-91395295D02*
X318464285Y-91300057D01*
X318464285Y-91300057D02*
X318416666Y-91252438D01*
X318416666Y-91252438D02*
X318321428Y-91204819D01*
X67216666Y-71209580D02*
X67264285Y-71257200D01*
X67264285Y-71257200D02*
X67407142Y-71304819D01*
X67407142Y-71304819D02*
X67502380Y-71304819D01*
X67502380Y-71304819D02*
X67645237Y-71257200D01*
X67645237Y-71257200D02*
X67740475Y-71161961D01*
X67740475Y-71161961D02*
X67788094Y-71066723D01*
X67788094Y-71066723D02*
X67835713Y-70876247D01*
X67835713Y-70876247D02*
X67835713Y-70733390D01*
X67835713Y-70733390D02*
X67788094Y-70542914D01*
X67788094Y-70542914D02*
X67740475Y-70447676D01*
X67740475Y-70447676D02*
X67645237Y-70352438D01*
X67645237Y-70352438D02*
X67502380Y-70304819D01*
X67502380Y-70304819D02*
X67407142Y-70304819D01*
X67407142Y-70304819D02*
X67264285Y-70352438D01*
X67264285Y-70352438D02*
X67216666Y-70400057D01*
X66883332Y-70304819D02*
X66216666Y-70304819D01*
X66216666Y-70304819D02*
X66645237Y-71304819D01*
X210892857Y-90109580D02*
X210940476Y-90157200D01*
X210940476Y-90157200D02*
X211083333Y-90204819D01*
X211083333Y-90204819D02*
X211178571Y-90204819D01*
X211178571Y-90204819D02*
X211321428Y-90157200D01*
X211321428Y-90157200D02*
X211416666Y-90061961D01*
X211416666Y-90061961D02*
X211464285Y-89966723D01*
X211464285Y-89966723D02*
X211511904Y-89776247D01*
X211511904Y-89776247D02*
X211511904Y-89633390D01*
X211511904Y-89633390D02*
X211464285Y-89442914D01*
X211464285Y-89442914D02*
X211416666Y-89347676D01*
X211416666Y-89347676D02*
X211321428Y-89252438D01*
X211321428Y-89252438D02*
X211178571Y-89204819D01*
X211178571Y-89204819D02*
X211083333Y-89204819D01*
X211083333Y-89204819D02*
X210940476Y-89252438D01*
X210940476Y-89252438D02*
X210892857Y-89300057D01*
X209940476Y-90204819D02*
X210511904Y-90204819D01*
X210226190Y-90204819D02*
X210226190Y-89204819D01*
X210226190Y-89204819D02*
X210321428Y-89347676D01*
X210321428Y-89347676D02*
X210416666Y-89442914D01*
X210416666Y-89442914D02*
X210511904Y-89490533D01*
X209321428Y-89204819D02*
X209226190Y-89204819D01*
X209226190Y-89204819D02*
X209130952Y-89252438D01*
X209130952Y-89252438D02*
X209083333Y-89300057D01*
X209083333Y-89300057D02*
X209035714Y-89395295D01*
X209035714Y-89395295D02*
X208988095Y-89585771D01*
X208988095Y-89585771D02*
X208988095Y-89823866D01*
X208988095Y-89823866D02*
X209035714Y-90014342D01*
X209035714Y-90014342D02*
X209083333Y-90109580D01*
X209083333Y-90109580D02*
X209130952Y-90157200D01*
X209130952Y-90157200D02*
X209226190Y-90204819D01*
X209226190Y-90204819D02*
X209321428Y-90204819D01*
X209321428Y-90204819D02*
X209416666Y-90157200D01*
X209416666Y-90157200D02*
X209464285Y-90109580D01*
X209464285Y-90109580D02*
X209511904Y-90014342D01*
X209511904Y-90014342D02*
X209559523Y-89823866D01*
X209559523Y-89823866D02*
X209559523Y-89585771D01*
X209559523Y-89585771D02*
X209511904Y-89395295D01*
X209511904Y-89395295D02*
X209464285Y-89300057D01*
X209464285Y-89300057D02*
X209416666Y-89252438D01*
X209416666Y-89252438D02*
X209321428Y-89204819D01*
X117416666Y-50509580D02*
X117464285Y-50557200D01*
X117464285Y-50557200D02*
X117607142Y-50604819D01*
X117607142Y-50604819D02*
X117702380Y-50604819D01*
X117702380Y-50604819D02*
X117845237Y-50557200D01*
X117845237Y-50557200D02*
X117940475Y-50461961D01*
X117940475Y-50461961D02*
X117988094Y-50366723D01*
X117988094Y-50366723D02*
X118035713Y-50176247D01*
X118035713Y-50176247D02*
X118035713Y-50033390D01*
X118035713Y-50033390D02*
X117988094Y-49842914D01*
X117988094Y-49842914D02*
X117940475Y-49747676D01*
X117940475Y-49747676D02*
X117845237Y-49652438D01*
X117845237Y-49652438D02*
X117702380Y-49604819D01*
X117702380Y-49604819D02*
X117607142Y-49604819D01*
X117607142Y-49604819D02*
X117464285Y-49652438D01*
X117464285Y-49652438D02*
X117416666Y-49700057D01*
X117035713Y-49700057D02*
X116988094Y-49652438D01*
X116988094Y-49652438D02*
X116892856Y-49604819D01*
X116892856Y-49604819D02*
X116654761Y-49604819D01*
X116654761Y-49604819D02*
X116559523Y-49652438D01*
X116559523Y-49652438D02*
X116511904Y-49700057D01*
X116511904Y-49700057D02*
X116464285Y-49795295D01*
X116464285Y-49795295D02*
X116464285Y-49890533D01*
X116464285Y-49890533D02*
X116511904Y-50033390D01*
X116511904Y-50033390D02*
X117083332Y-50604819D01*
X117083332Y-50604819D02*
X116464285Y-50604819D01*
X34911566Y-50309580D02*
X34959185Y-50357200D01*
X34959185Y-50357200D02*
X35102042Y-50404819D01*
X35102042Y-50404819D02*
X35197280Y-50404819D01*
X35197280Y-50404819D02*
X35340137Y-50357200D01*
X35340137Y-50357200D02*
X35435375Y-50261961D01*
X35435375Y-50261961D02*
X35482994Y-50166723D01*
X35482994Y-50166723D02*
X35530613Y-49976247D01*
X35530613Y-49976247D02*
X35530613Y-49833390D01*
X35530613Y-49833390D02*
X35482994Y-49642914D01*
X35482994Y-49642914D02*
X35435375Y-49547676D01*
X35435375Y-49547676D02*
X35340137Y-49452438D01*
X35340137Y-49452438D02*
X35197280Y-49404819D01*
X35197280Y-49404819D02*
X35102042Y-49404819D01*
X35102042Y-49404819D02*
X34959185Y-49452438D01*
X34959185Y-49452438D02*
X34911566Y-49500057D01*
X33959185Y-50404819D02*
X34530613Y-50404819D01*
X34244899Y-50404819D02*
X34244899Y-49404819D01*
X34244899Y-49404819D02*
X34340137Y-49547676D01*
X34340137Y-49547676D02*
X34435375Y-49642914D01*
X34435375Y-49642914D02*
X34530613Y-49690533D01*
X278121779Y-50309580D02*
X278169398Y-50357200D01*
X278169398Y-50357200D02*
X278312255Y-50404819D01*
X278312255Y-50404819D02*
X278407493Y-50404819D01*
X278407493Y-50404819D02*
X278550350Y-50357200D01*
X278550350Y-50357200D02*
X278645588Y-50261961D01*
X278645588Y-50261961D02*
X278693207Y-50166723D01*
X278693207Y-50166723D02*
X278740826Y-49976247D01*
X278740826Y-49976247D02*
X278740826Y-49833390D01*
X278740826Y-49833390D02*
X278693207Y-49642914D01*
X278693207Y-49642914D02*
X278645588Y-49547676D01*
X278645588Y-49547676D02*
X278550350Y-49452438D01*
X278550350Y-49452438D02*
X278407493Y-49404819D01*
X278407493Y-49404819D02*
X278312255Y-49404819D01*
X278312255Y-49404819D02*
X278169398Y-49452438D01*
X278169398Y-49452438D02*
X278121779Y-49500057D01*
X277264636Y-49738152D02*
X277264636Y-50404819D01*
X277502731Y-49357200D02*
X277740826Y-50071485D01*
X277740826Y-50071485D02*
X277121779Y-50071485D01*
X158092857Y-109409580D02*
X158140476Y-109457200D01*
X158140476Y-109457200D02*
X158283333Y-109504819D01*
X158283333Y-109504819D02*
X158378571Y-109504819D01*
X158378571Y-109504819D02*
X158521428Y-109457200D01*
X158521428Y-109457200D02*
X158616666Y-109361961D01*
X158616666Y-109361961D02*
X158664285Y-109266723D01*
X158664285Y-109266723D02*
X158711904Y-109076247D01*
X158711904Y-109076247D02*
X158711904Y-108933390D01*
X158711904Y-108933390D02*
X158664285Y-108742914D01*
X158664285Y-108742914D02*
X158616666Y-108647676D01*
X158616666Y-108647676D02*
X158521428Y-108552438D01*
X158521428Y-108552438D02*
X158378571Y-108504819D01*
X158378571Y-108504819D02*
X158283333Y-108504819D01*
X158283333Y-108504819D02*
X158140476Y-108552438D01*
X158140476Y-108552438D02*
X158092857Y-108600057D01*
X157140476Y-109504819D02*
X157711904Y-109504819D01*
X157426190Y-109504819D02*
X157426190Y-108504819D01*
X157426190Y-108504819D02*
X157521428Y-108647676D01*
X157521428Y-108647676D02*
X157616666Y-108742914D01*
X157616666Y-108742914D02*
X157711904Y-108790533D01*
X156807142Y-108504819D02*
X156188095Y-108504819D01*
X156188095Y-108504819D02*
X156521428Y-108885771D01*
X156521428Y-108885771D02*
X156378571Y-108885771D01*
X156378571Y-108885771D02*
X156283333Y-108933390D01*
X156283333Y-108933390D02*
X156235714Y-108981009D01*
X156235714Y-108981009D02*
X156188095Y-109076247D01*
X156188095Y-109076247D02*
X156188095Y-109314342D01*
X156188095Y-109314342D02*
X156235714Y-109409580D01*
X156235714Y-109409580D02*
X156283333Y-109457200D01*
X156283333Y-109457200D02*
X156378571Y-109504819D01*
X156378571Y-109504819D02*
X156664285Y-109504819D01*
X156664285Y-109504819D02*
X156759523Y-109457200D01*
X156759523Y-109457200D02*
X156807142Y-109409580D01*
X335692857Y-119909580D02*
X335740476Y-119957200D01*
X335740476Y-119957200D02*
X335883333Y-120004819D01*
X335883333Y-120004819D02*
X335978571Y-120004819D01*
X335978571Y-120004819D02*
X336121428Y-119957200D01*
X336121428Y-119957200D02*
X336216666Y-119861961D01*
X336216666Y-119861961D02*
X336264285Y-119766723D01*
X336264285Y-119766723D02*
X336311904Y-119576247D01*
X336311904Y-119576247D02*
X336311904Y-119433390D01*
X336311904Y-119433390D02*
X336264285Y-119242914D01*
X336264285Y-119242914D02*
X336216666Y-119147676D01*
X336216666Y-119147676D02*
X336121428Y-119052438D01*
X336121428Y-119052438D02*
X335978571Y-119004819D01*
X335978571Y-119004819D02*
X335883333Y-119004819D01*
X335883333Y-119004819D02*
X335740476Y-119052438D01*
X335740476Y-119052438D02*
X335692857Y-119100057D01*
X334740476Y-120004819D02*
X335311904Y-120004819D01*
X335026190Y-120004819D02*
X335026190Y-119004819D01*
X335026190Y-119004819D02*
X335121428Y-119147676D01*
X335121428Y-119147676D02*
X335216666Y-119242914D01*
X335216666Y-119242914D02*
X335311904Y-119290533D01*
X334169047Y-119433390D02*
X334264285Y-119385771D01*
X334264285Y-119385771D02*
X334311904Y-119338152D01*
X334311904Y-119338152D02*
X334359523Y-119242914D01*
X334359523Y-119242914D02*
X334359523Y-119195295D01*
X334359523Y-119195295D02*
X334311904Y-119100057D01*
X334311904Y-119100057D02*
X334264285Y-119052438D01*
X334264285Y-119052438D02*
X334169047Y-119004819D01*
X334169047Y-119004819D02*
X333978571Y-119004819D01*
X333978571Y-119004819D02*
X333883333Y-119052438D01*
X333883333Y-119052438D02*
X333835714Y-119100057D01*
X333835714Y-119100057D02*
X333788095Y-119195295D01*
X333788095Y-119195295D02*
X333788095Y-119242914D01*
X333788095Y-119242914D02*
X333835714Y-119338152D01*
X333835714Y-119338152D02*
X333883333Y-119385771D01*
X333883333Y-119385771D02*
X333978571Y-119433390D01*
X333978571Y-119433390D02*
X334169047Y-119433390D01*
X334169047Y-119433390D02*
X334264285Y-119481009D01*
X334264285Y-119481009D02*
X334311904Y-119528628D01*
X334311904Y-119528628D02*
X334359523Y-119623866D01*
X334359523Y-119623866D02*
X334359523Y-119814342D01*
X334359523Y-119814342D02*
X334311904Y-119909580D01*
X334311904Y-119909580D02*
X334264285Y-119957200D01*
X334264285Y-119957200D02*
X334169047Y-120004819D01*
X334169047Y-120004819D02*
X333978571Y-120004819D01*
X333978571Y-120004819D02*
X333883333Y-119957200D01*
X333883333Y-119957200D02*
X333835714Y-119909580D01*
X333835714Y-119909580D02*
X333788095Y-119814342D01*
X333788095Y-119814342D02*
X333788095Y-119623866D01*
X333788095Y-119623866D02*
X333835714Y-119528628D01*
X333835714Y-119528628D02*
X333883333Y-119481009D01*
X333883333Y-119481009D02*
X333978571Y-119433390D01*
X238821766Y-71209580D02*
X238869385Y-71257200D01*
X238869385Y-71257200D02*
X239012242Y-71304819D01*
X239012242Y-71304819D02*
X239107480Y-71304819D01*
X239107480Y-71304819D02*
X239250337Y-71257200D01*
X239250337Y-71257200D02*
X239345575Y-71161961D01*
X239345575Y-71161961D02*
X239393194Y-71066723D01*
X239393194Y-71066723D02*
X239440813Y-70876247D01*
X239440813Y-70876247D02*
X239440813Y-70733390D01*
X239440813Y-70733390D02*
X239393194Y-70542914D01*
X239393194Y-70542914D02*
X239345575Y-70447676D01*
X239345575Y-70447676D02*
X239250337Y-70352438D01*
X239250337Y-70352438D02*
X239107480Y-70304819D01*
X239107480Y-70304819D02*
X239012242Y-70304819D01*
X239012242Y-70304819D02*
X238869385Y-70352438D01*
X238869385Y-70352438D02*
X238821766Y-70400057D01*
X237917004Y-70304819D02*
X238393194Y-70304819D01*
X238393194Y-70304819D02*
X238440813Y-70781009D01*
X238440813Y-70781009D02*
X238393194Y-70733390D01*
X238393194Y-70733390D02*
X238297956Y-70685771D01*
X238297956Y-70685771D02*
X238059861Y-70685771D01*
X238059861Y-70685771D02*
X237964623Y-70733390D01*
X237964623Y-70733390D02*
X237917004Y-70781009D01*
X237917004Y-70781009D02*
X237869385Y-70876247D01*
X237869385Y-70876247D02*
X237869385Y-71114342D01*
X237869385Y-71114342D02*
X237917004Y-71209580D01*
X237917004Y-71209580D02*
X237964623Y-71257200D01*
X237964623Y-71257200D02*
X238059861Y-71304819D01*
X238059861Y-71304819D02*
X238297956Y-71304819D01*
X238297956Y-71304819D02*
X238393194Y-71257200D01*
X238393194Y-71257200D02*
X238440813Y-71209580D01*
X196216666Y-50109580D02*
X196264285Y-50157200D01*
X196264285Y-50157200D02*
X196407142Y-50204819D01*
X196407142Y-50204819D02*
X196502380Y-50204819D01*
X196502380Y-50204819D02*
X196645237Y-50157200D01*
X196645237Y-50157200D02*
X196740475Y-50061961D01*
X196740475Y-50061961D02*
X196788094Y-49966723D01*
X196788094Y-49966723D02*
X196835713Y-49776247D01*
X196835713Y-49776247D02*
X196835713Y-49633390D01*
X196835713Y-49633390D02*
X196788094Y-49442914D01*
X196788094Y-49442914D02*
X196740475Y-49347676D01*
X196740475Y-49347676D02*
X196645237Y-49252438D01*
X196645237Y-49252438D02*
X196502380Y-49204819D01*
X196502380Y-49204819D02*
X196407142Y-49204819D01*
X196407142Y-49204819D02*
X196264285Y-49252438D01*
X196264285Y-49252438D02*
X196216666Y-49300057D01*
X195883332Y-49204819D02*
X195264285Y-49204819D01*
X195264285Y-49204819D02*
X195597618Y-49585771D01*
X195597618Y-49585771D02*
X195454761Y-49585771D01*
X195454761Y-49585771D02*
X195359523Y-49633390D01*
X195359523Y-49633390D02*
X195311904Y-49681009D01*
X195311904Y-49681009D02*
X195264285Y-49776247D01*
X195264285Y-49776247D02*
X195264285Y-50014342D01*
X195264285Y-50014342D02*
X195311904Y-50109580D01*
X195311904Y-50109580D02*
X195359523Y-50157200D01*
X195359523Y-50157200D02*
X195454761Y-50204819D01*
X195454761Y-50204819D02*
X195740475Y-50204819D01*
X195740475Y-50204819D02*
X195835713Y-50157200D01*
X195835713Y-50157200D02*
X195883332Y-50109580D01*
X281592857Y-142009580D02*
X281640476Y-142057200D01*
X281640476Y-142057200D02*
X281783333Y-142104819D01*
X281783333Y-142104819D02*
X281878571Y-142104819D01*
X281878571Y-142104819D02*
X282021428Y-142057200D01*
X282021428Y-142057200D02*
X282116666Y-141961961D01*
X282116666Y-141961961D02*
X282164285Y-141866723D01*
X282164285Y-141866723D02*
X282211904Y-141676247D01*
X282211904Y-141676247D02*
X282211904Y-141533390D01*
X282211904Y-141533390D02*
X282164285Y-141342914D01*
X282164285Y-141342914D02*
X282116666Y-141247676D01*
X282116666Y-141247676D02*
X282021428Y-141152438D01*
X282021428Y-141152438D02*
X281878571Y-141104819D01*
X281878571Y-141104819D02*
X281783333Y-141104819D01*
X281783333Y-141104819D02*
X281640476Y-141152438D01*
X281640476Y-141152438D02*
X281592857Y-141200057D01*
X280640476Y-142104819D02*
X281211904Y-142104819D01*
X280926190Y-142104819D02*
X280926190Y-141104819D01*
X280926190Y-141104819D02*
X281021428Y-141247676D01*
X281021428Y-141247676D02*
X281116666Y-141342914D01*
X281116666Y-141342914D02*
X281211904Y-141390533D01*
X280307142Y-141104819D02*
X279640476Y-141104819D01*
X279640476Y-141104819D02*
X280069047Y-142104819D01*
X234797957Y-109209580D02*
X234845576Y-109257200D01*
X234845576Y-109257200D02*
X234988433Y-109304819D01*
X234988433Y-109304819D02*
X235083671Y-109304819D01*
X235083671Y-109304819D02*
X235226528Y-109257200D01*
X235226528Y-109257200D02*
X235321766Y-109161961D01*
X235321766Y-109161961D02*
X235369385Y-109066723D01*
X235369385Y-109066723D02*
X235417004Y-108876247D01*
X235417004Y-108876247D02*
X235417004Y-108733390D01*
X235417004Y-108733390D02*
X235369385Y-108542914D01*
X235369385Y-108542914D02*
X235321766Y-108447676D01*
X235321766Y-108447676D02*
X235226528Y-108352438D01*
X235226528Y-108352438D02*
X235083671Y-108304819D01*
X235083671Y-108304819D02*
X234988433Y-108304819D01*
X234988433Y-108304819D02*
X234845576Y-108352438D01*
X234845576Y-108352438D02*
X234797957Y-108400057D01*
X233845576Y-109304819D02*
X234417004Y-109304819D01*
X234131290Y-109304819D02*
X234131290Y-108304819D01*
X234131290Y-108304819D02*
X234226528Y-108447676D01*
X234226528Y-108447676D02*
X234321766Y-108542914D01*
X234321766Y-108542914D02*
X234417004Y-108590533D01*
X233464623Y-108400057D02*
X233417004Y-108352438D01*
X233417004Y-108352438D02*
X233321766Y-108304819D01*
X233321766Y-108304819D02*
X233083671Y-108304819D01*
X233083671Y-108304819D02*
X232988433Y-108352438D01*
X232988433Y-108352438D02*
X232940814Y-108400057D01*
X232940814Y-108400057D02*
X232893195Y-108495295D01*
X232893195Y-108495295D02*
X232893195Y-108590533D01*
X232893195Y-108590533D02*
X232940814Y-108733390D01*
X232940814Y-108733390D02*
X233512242Y-109304819D01*
X233512242Y-109304819D02*
X232893195Y-109304819D01*
X267992857Y-90009580D02*
X268040476Y-90057200D01*
X268040476Y-90057200D02*
X268183333Y-90104819D01*
X268183333Y-90104819D02*
X268278571Y-90104819D01*
X268278571Y-90104819D02*
X268421428Y-90057200D01*
X268421428Y-90057200D02*
X268516666Y-89961961D01*
X268516666Y-89961961D02*
X268564285Y-89866723D01*
X268564285Y-89866723D02*
X268611904Y-89676247D01*
X268611904Y-89676247D02*
X268611904Y-89533390D01*
X268611904Y-89533390D02*
X268564285Y-89342914D01*
X268564285Y-89342914D02*
X268516666Y-89247676D01*
X268516666Y-89247676D02*
X268421428Y-89152438D01*
X268421428Y-89152438D02*
X268278571Y-89104819D01*
X268278571Y-89104819D02*
X268183333Y-89104819D01*
X268183333Y-89104819D02*
X268040476Y-89152438D01*
X268040476Y-89152438D02*
X267992857Y-89200057D01*
X267040476Y-90104819D02*
X267611904Y-90104819D01*
X267326190Y-90104819D02*
X267326190Y-89104819D01*
X267326190Y-89104819D02*
X267421428Y-89247676D01*
X267421428Y-89247676D02*
X267516666Y-89342914D01*
X267516666Y-89342914D02*
X267611904Y-89390533D01*
X266088095Y-90104819D02*
X266659523Y-90104819D01*
X266373809Y-90104819D02*
X266373809Y-89104819D01*
X266373809Y-89104819D02*
X266469047Y-89247676D01*
X266469047Y-89247676D02*
X266564285Y-89342914D01*
X266564285Y-89342914D02*
X266659523Y-89390533D01*
X320292857Y-56109580D02*
X320340476Y-56157200D01*
X320340476Y-56157200D02*
X320483333Y-56204819D01*
X320483333Y-56204819D02*
X320578571Y-56204819D01*
X320578571Y-56204819D02*
X320721428Y-56157200D01*
X320721428Y-56157200D02*
X320816666Y-56061961D01*
X320816666Y-56061961D02*
X320864285Y-55966723D01*
X320864285Y-55966723D02*
X320911904Y-55776247D01*
X320911904Y-55776247D02*
X320911904Y-55633390D01*
X320911904Y-55633390D02*
X320864285Y-55442914D01*
X320864285Y-55442914D02*
X320816666Y-55347676D01*
X320816666Y-55347676D02*
X320721428Y-55252438D01*
X320721428Y-55252438D02*
X320578571Y-55204819D01*
X320578571Y-55204819D02*
X320483333Y-55204819D01*
X320483333Y-55204819D02*
X320340476Y-55252438D01*
X320340476Y-55252438D02*
X320292857Y-55300057D01*
X319340476Y-56204819D02*
X319911904Y-56204819D01*
X319626190Y-56204819D02*
X319626190Y-55204819D01*
X319626190Y-55204819D02*
X319721428Y-55347676D01*
X319721428Y-55347676D02*
X319816666Y-55442914D01*
X319816666Y-55442914D02*
X319911904Y-55490533D01*
X318864285Y-56204819D02*
X318673809Y-56204819D01*
X318673809Y-56204819D02*
X318578571Y-56157200D01*
X318578571Y-56157200D02*
X318530952Y-56109580D01*
X318530952Y-56109580D02*
X318435714Y-55966723D01*
X318435714Y-55966723D02*
X318388095Y-55776247D01*
X318388095Y-55776247D02*
X318388095Y-55395295D01*
X318388095Y-55395295D02*
X318435714Y-55300057D01*
X318435714Y-55300057D02*
X318483333Y-55252438D01*
X318483333Y-55252438D02*
X318578571Y-55204819D01*
X318578571Y-55204819D02*
X318769047Y-55204819D01*
X318769047Y-55204819D02*
X318864285Y-55252438D01*
X318864285Y-55252438D02*
X318911904Y-55300057D01*
X318911904Y-55300057D02*
X318959523Y-55395295D01*
X318959523Y-55395295D02*
X318959523Y-55633390D01*
X318959523Y-55633390D02*
X318911904Y-55728628D01*
X318911904Y-55728628D02*
X318864285Y-55776247D01*
X318864285Y-55776247D02*
X318769047Y-55823866D01*
X318769047Y-55823866D02*
X318578571Y-55823866D01*
X318578571Y-55823866D02*
X318483333Y-55776247D01*
X318483333Y-55776247D02*
X318435714Y-55728628D01*
X318435714Y-55728628D02*
X318388095Y-55633390D01*
X189292857Y-135709580D02*
X189340476Y-135757200D01*
X189340476Y-135757200D02*
X189483333Y-135804819D01*
X189483333Y-135804819D02*
X189578571Y-135804819D01*
X189578571Y-135804819D02*
X189721428Y-135757200D01*
X189721428Y-135757200D02*
X189816666Y-135661961D01*
X189816666Y-135661961D02*
X189864285Y-135566723D01*
X189864285Y-135566723D02*
X189911904Y-135376247D01*
X189911904Y-135376247D02*
X189911904Y-135233390D01*
X189911904Y-135233390D02*
X189864285Y-135042914D01*
X189864285Y-135042914D02*
X189816666Y-134947676D01*
X189816666Y-134947676D02*
X189721428Y-134852438D01*
X189721428Y-134852438D02*
X189578571Y-134804819D01*
X189578571Y-134804819D02*
X189483333Y-134804819D01*
X189483333Y-134804819D02*
X189340476Y-134852438D01*
X189340476Y-134852438D02*
X189292857Y-134900057D01*
X188340476Y-135804819D02*
X188911904Y-135804819D01*
X188626190Y-135804819D02*
X188626190Y-134804819D01*
X188626190Y-134804819D02*
X188721428Y-134947676D01*
X188721428Y-134947676D02*
X188816666Y-135042914D01*
X188816666Y-135042914D02*
X188911904Y-135090533D01*
X187483333Y-134804819D02*
X187673809Y-134804819D01*
X187673809Y-134804819D02*
X187769047Y-134852438D01*
X187769047Y-134852438D02*
X187816666Y-134900057D01*
X187816666Y-134900057D02*
X187911904Y-135042914D01*
X187911904Y-135042914D02*
X187959523Y-135233390D01*
X187959523Y-135233390D02*
X187959523Y-135614342D01*
X187959523Y-135614342D02*
X187911904Y-135709580D01*
X187911904Y-135709580D02*
X187864285Y-135757200D01*
X187864285Y-135757200D02*
X187769047Y-135804819D01*
X187769047Y-135804819D02*
X187578571Y-135804819D01*
X187578571Y-135804819D02*
X187483333Y-135757200D01*
X187483333Y-135757200D02*
X187435714Y-135709580D01*
X187435714Y-135709580D02*
X187388095Y-135614342D01*
X187388095Y-135614342D02*
X187388095Y-135376247D01*
X187388095Y-135376247D02*
X187435714Y-135281009D01*
X187435714Y-135281009D02*
X187483333Y-135233390D01*
X187483333Y-135233390D02*
X187578571Y-135185771D01*
X187578571Y-135185771D02*
X187769047Y-135185771D01*
X187769047Y-135185771D02*
X187864285Y-135233390D01*
X187864285Y-135233390D02*
X187911904Y-135281009D01*
X187911904Y-135281009D02*
X187959523Y-135376247D01*
X127792857Y-140009580D02*
X127840476Y-140057200D01*
X127840476Y-140057200D02*
X127983333Y-140104819D01*
X127983333Y-140104819D02*
X128078571Y-140104819D01*
X128078571Y-140104819D02*
X128221428Y-140057200D01*
X128221428Y-140057200D02*
X128316666Y-139961961D01*
X128316666Y-139961961D02*
X128364285Y-139866723D01*
X128364285Y-139866723D02*
X128411904Y-139676247D01*
X128411904Y-139676247D02*
X128411904Y-139533390D01*
X128411904Y-139533390D02*
X128364285Y-139342914D01*
X128364285Y-139342914D02*
X128316666Y-139247676D01*
X128316666Y-139247676D02*
X128221428Y-139152438D01*
X128221428Y-139152438D02*
X128078571Y-139104819D01*
X128078571Y-139104819D02*
X127983333Y-139104819D01*
X127983333Y-139104819D02*
X127840476Y-139152438D01*
X127840476Y-139152438D02*
X127792857Y-139200057D01*
X126840476Y-140104819D02*
X127411904Y-140104819D01*
X127126190Y-140104819D02*
X127126190Y-139104819D01*
X127126190Y-139104819D02*
X127221428Y-139247676D01*
X127221428Y-139247676D02*
X127316666Y-139342914D01*
X127316666Y-139342914D02*
X127411904Y-139390533D01*
X125935714Y-139104819D02*
X126411904Y-139104819D01*
X126411904Y-139104819D02*
X126459523Y-139581009D01*
X126459523Y-139581009D02*
X126411904Y-139533390D01*
X126411904Y-139533390D02*
X126316666Y-139485771D01*
X126316666Y-139485771D02*
X126078571Y-139485771D01*
X126078571Y-139485771D02*
X125983333Y-139533390D01*
X125983333Y-139533390D02*
X125935714Y-139581009D01*
X125935714Y-139581009D02*
X125888095Y-139676247D01*
X125888095Y-139676247D02*
X125888095Y-139914342D01*
X125888095Y-139914342D02*
X125935714Y-140009580D01*
X125935714Y-140009580D02*
X125983333Y-140057200D01*
X125983333Y-140057200D02*
X126078571Y-140104819D01*
X126078571Y-140104819D02*
X126316666Y-140104819D01*
X126316666Y-140104819D02*
X126411904Y-140057200D01*
X126411904Y-140057200D02*
X126459523Y-140009580D01*
X114816666Y-90309580D02*
X114864285Y-90357200D01*
X114864285Y-90357200D02*
X115007142Y-90404819D01*
X115007142Y-90404819D02*
X115102380Y-90404819D01*
X115102380Y-90404819D02*
X115245237Y-90357200D01*
X115245237Y-90357200D02*
X115340475Y-90261961D01*
X115340475Y-90261961D02*
X115388094Y-90166723D01*
X115388094Y-90166723D02*
X115435713Y-89976247D01*
X115435713Y-89976247D02*
X115435713Y-89833390D01*
X115435713Y-89833390D02*
X115388094Y-89642914D01*
X115388094Y-89642914D02*
X115340475Y-89547676D01*
X115340475Y-89547676D02*
X115245237Y-89452438D01*
X115245237Y-89452438D02*
X115102380Y-89404819D01*
X115102380Y-89404819D02*
X115007142Y-89404819D01*
X115007142Y-89404819D02*
X114864285Y-89452438D01*
X114864285Y-89452438D02*
X114816666Y-89500057D01*
X114340475Y-90404819D02*
X114149999Y-90404819D01*
X114149999Y-90404819D02*
X114054761Y-90357200D01*
X114054761Y-90357200D02*
X114007142Y-90309580D01*
X114007142Y-90309580D02*
X113911904Y-90166723D01*
X113911904Y-90166723D02*
X113864285Y-89976247D01*
X113864285Y-89976247D02*
X113864285Y-89595295D01*
X113864285Y-89595295D02*
X113911904Y-89500057D01*
X113911904Y-89500057D02*
X113959523Y-89452438D01*
X113959523Y-89452438D02*
X114054761Y-89404819D01*
X114054761Y-89404819D02*
X114245237Y-89404819D01*
X114245237Y-89404819D02*
X114340475Y-89452438D01*
X114340475Y-89452438D02*
X114388094Y-89500057D01*
X114388094Y-89500057D02*
X114435713Y-89595295D01*
X114435713Y-89595295D02*
X114435713Y-89833390D01*
X114435713Y-89833390D02*
X114388094Y-89928628D01*
X114388094Y-89928628D02*
X114340475Y-89976247D01*
X114340475Y-89976247D02*
X114245237Y-90023866D01*
X114245237Y-90023866D02*
X114054761Y-90023866D01*
X114054761Y-90023866D02*
X113959523Y-89976247D01*
X113959523Y-89976247D02*
X113911904Y-89928628D01*
X113911904Y-89928628D02*
X113864285Y-89833390D01*
D12*
%TO.C,L16*%
X217600000Y-135549999D02*
X216700000Y-135549999D01*
X217600000Y-134649999D01*
X217600000Y-135549999D01*
G36*
X217600000Y-135549999D02*
G01*
X216700000Y-135549999D01*
X217600000Y-134649999D01*
X217600000Y-135549999D01*
G37*
%TO.C,L14*%
X74187500Y-131652499D02*
X73287500Y-131652499D01*
X74187500Y-130752499D01*
X74187500Y-131652499D01*
G36*
X74187500Y-131652499D02*
G01*
X73287500Y-131652499D01*
X74187500Y-130752499D01*
X74187500Y-131652499D01*
G37*
%TO.C,L18*%
X339000000Y-134649999D02*
X338100000Y-134649999D01*
X339000000Y-133749999D01*
X339000000Y-134649999D01*
G36*
X339000000Y-134649999D02*
G01*
X338100000Y-134649999D01*
X339000000Y-133749999D01*
X339000000Y-134649999D01*
G37*
%TO.C,L5*%
X261800000Y-76949999D02*
X260900000Y-76949999D01*
X261800000Y-76049999D01*
X261800000Y-76949999D01*
G36*
X261800000Y-76949999D02*
G01*
X260900000Y-76949999D01*
X261800000Y-76049999D01*
X261800000Y-76949999D01*
G37*
%TO.C,L6*%
X185500000Y-76949999D02*
X184600000Y-76949999D01*
X185500000Y-76049999D01*
X185500000Y-76949999D01*
G36*
X185500000Y-76949999D02*
G01*
X184600000Y-76949999D01*
X185500000Y-76049999D01*
X185500000Y-76949999D01*
G37*
%TO.C,L3*%
X216887500Y-55252499D02*
X215987500Y-55252499D01*
X216887500Y-54352499D01*
X216887500Y-55252499D01*
G36*
X216887500Y-55252499D02*
G01*
X215987500Y-55252499D01*
X216887500Y-54352499D01*
X216887500Y-55252499D01*
G37*
%TO.C,L4*%
X298287500Y-55552499D02*
X297387500Y-55552499D01*
X298287500Y-54652499D01*
X298287500Y-55552499D01*
G36*
X298287500Y-55552499D02*
G01*
X297387500Y-55552499D01*
X298287500Y-54652499D01*
X298287500Y-55552499D01*
G37*
%TO.C,L20*%
X323300000Y-104749999D02*
X322400000Y-104749999D01*
X323300000Y-103849999D01*
X323300000Y-104749999D01*
G36*
X323300000Y-104749999D02*
G01*
X322400000Y-104749999D01*
X323300000Y-103849999D01*
X323300000Y-104749999D01*
G37*
%TO.C,L2*%
X135500000Y-55349999D02*
X134600000Y-55349999D01*
X135500000Y-54449999D01*
X135500000Y-55349999D01*
G36*
X135500000Y-55349999D02*
G01*
X134600000Y-55349999D01*
X135500000Y-54449999D01*
X135500000Y-55349999D01*
G37*
D10*
%TO.C,U2*%
X24420000Y-9550000D02*
X24420000Y-27850000D01*
X57720000Y-9550000D02*
X24420000Y-9550000D01*
X57720000Y-9550000D02*
X57720000Y-27850000D01*
X57720000Y-27850000D02*
X24420000Y-27850000D01*
D12*
%TO.C,L1*%
X54900000Y-55549999D02*
X54000000Y-55549999D01*
X54900000Y-54649999D01*
X54900000Y-55549999D01*
G36*
X54900000Y-55549999D02*
G01*
X54000000Y-55549999D01*
X54900000Y-54649999D01*
X54900000Y-55549999D01*
G37*
%TO.C,L7*%
X89900000Y-77249999D02*
X89000000Y-77249999D01*
X89900000Y-76349999D01*
X89900000Y-77249999D01*
G36*
X89900000Y-77249999D02*
G01*
X89000000Y-77249999D01*
X89900000Y-76349999D01*
X89900000Y-77249999D01*
G37*
%TO.C,L13*%
X178287500Y-115252499D02*
X177387500Y-115252499D01*
X178287500Y-114352499D01*
X178287500Y-115252499D01*
G36*
X178287500Y-115252499D02*
G01*
X177387500Y-115252499D01*
X178287500Y-114352499D01*
X178287500Y-115252499D01*
G37*
%TO.C,L12*%
X257187500Y-114652499D02*
X256287500Y-114652499D01*
X257187500Y-113752499D01*
X257187500Y-114652499D01*
G36*
X257187500Y-114652499D02*
G01*
X256287500Y-114652499D01*
X257187500Y-113752499D01*
X257187500Y-114652499D01*
G37*
%TO.C,L11*%
X293687500Y-94952499D02*
X292787500Y-94952499D01*
X293687500Y-94052499D01*
X293687500Y-94952499D01*
G36*
X293687500Y-94952499D02*
G01*
X292787500Y-94952499D01*
X293687500Y-94052499D01*
X293687500Y-94952499D01*
G37*
%TO.C,L10*%
X225987500Y-96552499D02*
X225087500Y-96552499D01*
X225987500Y-95652499D01*
X225987500Y-96552499D01*
G36*
X225987500Y-96552499D02*
G01*
X225087500Y-96552499D01*
X225987500Y-95652499D01*
X225987500Y-96552499D01*
G37*
%TO.C,L15*%
X123487500Y-134652499D02*
X122587500Y-134652499D01*
X123487500Y-133752499D01*
X123487500Y-134652499D01*
G36*
X123487500Y-134652499D02*
G01*
X122587500Y-134652499D01*
X123487500Y-133752499D01*
X123487500Y-134652499D01*
G37*
%TO.C,L17*%
X300987500Y-134452499D02*
X300087500Y-134452499D01*
X300987500Y-133552499D01*
X300987500Y-134452499D01*
G36*
X300987500Y-134452499D02*
G01*
X300087500Y-134452499D01*
X300987500Y-133552499D01*
X300987500Y-134452499D01*
G37*
%TO.C,L9*%
X138300000Y-95649999D02*
X137400000Y-95649999D01*
X138300000Y-94749999D01*
X138300000Y-95649999D01*
G36*
X138300000Y-95649999D02*
G01*
X137400000Y-95649999D01*
X138300000Y-94749999D01*
X138300000Y-95649999D01*
G37*
%TO.C,L8*%
X59587500Y-94752499D02*
X58687500Y-94752499D01*
X59587500Y-93852499D01*
X59587500Y-94752499D01*
G36*
X59587500Y-94752499D02*
G01*
X58687500Y-94752499D01*
X59587500Y-93852499D01*
X59587500Y-94752499D01*
G37*
%TO.C,L19*%
X323787500Y-77752499D02*
X322887500Y-77752499D01*
X323787500Y-76852499D01*
X323787500Y-77752499D01*
G36*
X323787500Y-77752499D02*
G01*
X322887500Y-77752499D01*
X323787500Y-76852499D01*
X323787500Y-77752499D01*
G37*
D13*
%TO.C,C14*%
X29655100Y-130617000D02*
X29655100Y-131183000D01*
X29695100Y-130383000D02*
X29695100Y-131417000D01*
X29735100Y-130223000D02*
X29735100Y-131577000D01*
X29775100Y-130095000D02*
X29775100Y-131705000D01*
X29815100Y-129986000D02*
X29815100Y-131814000D01*
X29855100Y-129889000D02*
X29855100Y-131911000D01*
X29895100Y-129802000D02*
X29895100Y-131998000D01*
X29935100Y-129723000D02*
X29935100Y-132077000D01*
X29975100Y-129649000D02*
X29975100Y-129860000D01*
X29975100Y-131940000D02*
X29975100Y-132151000D01*
X30015100Y-129581000D02*
X30015100Y-129860000D01*
X30015100Y-131940000D02*
X30015100Y-132219000D01*
X30055100Y-129517000D02*
X30055100Y-129860000D01*
X30055100Y-131940000D02*
X30055100Y-132283000D01*
X30095100Y-129457000D02*
X30095100Y-129860000D01*
X30095100Y-131940000D02*
X30095100Y-132343000D01*
X30135100Y-129401000D02*
X30135100Y-129860000D01*
X30135100Y-131940000D02*
X30135100Y-132399000D01*
X30175100Y-129347000D02*
X30175100Y-129860000D01*
X30175100Y-131940000D02*
X30175100Y-132453000D01*
X30215100Y-129296000D02*
X30215100Y-129860000D01*
X30215100Y-131940000D02*
X30215100Y-132504000D01*
X30255100Y-129248000D02*
X30255100Y-129860000D01*
X30255100Y-131940000D02*
X30255100Y-132552000D01*
X30295100Y-129201000D02*
X30295100Y-129860000D01*
X30295100Y-131940000D02*
X30295100Y-132599000D01*
X30335100Y-129157000D02*
X30335100Y-129860000D01*
X30335100Y-131940000D02*
X30335100Y-132643000D01*
X30375100Y-129115000D02*
X30375100Y-129860000D01*
X30375100Y-131940000D02*
X30375100Y-132685000D01*
X30415100Y-129075000D02*
X30415100Y-129860000D01*
X30415100Y-131940000D02*
X30415100Y-132725000D01*
X30455100Y-129036000D02*
X30455100Y-129860000D01*
X30455100Y-131940000D02*
X30455100Y-132764000D01*
X30495100Y-128999000D02*
X30495100Y-129860000D01*
X30495100Y-131940000D02*
X30495100Y-132801000D01*
X30535100Y-128964000D02*
X30535100Y-129860000D01*
X30535100Y-131940000D02*
X30535100Y-132836000D01*
X30575100Y-128930000D02*
X30575100Y-129860000D01*
X30575100Y-131940000D02*
X30575100Y-132870000D01*
X30615100Y-128897000D02*
X30615100Y-129860000D01*
X30615100Y-131940000D02*
X30615100Y-132903000D01*
X30655100Y-128865000D02*
X30655100Y-129860000D01*
X30655100Y-131940000D02*
X30655100Y-132935000D01*
X30695100Y-128835000D02*
X30695100Y-129860000D01*
X30695100Y-131940000D02*
X30695100Y-132965000D01*
X30735100Y-128806000D02*
X30735100Y-129860000D01*
X30735100Y-131940000D02*
X30735100Y-132994000D01*
X30775100Y-128778000D02*
X30775100Y-129860000D01*
X30775100Y-131940000D02*
X30775100Y-133022000D01*
X30815100Y-128751000D02*
X30815100Y-129860000D01*
X30815100Y-131940000D02*
X30815100Y-133049000D01*
X30855100Y-128725000D02*
X30855100Y-129860000D01*
X30855100Y-131940000D02*
X30855100Y-133075000D01*
X30895100Y-128701000D02*
X30895100Y-129860000D01*
X30895100Y-131940000D02*
X30895100Y-133099000D01*
X30935100Y-128677000D02*
X30935100Y-129860000D01*
X30935100Y-131940000D02*
X30935100Y-133123000D01*
X30975100Y-128654000D02*
X30975100Y-129860000D01*
X30975100Y-131940000D02*
X30975100Y-133146000D01*
X31015100Y-128632000D02*
X31015100Y-129860000D01*
X31015100Y-131940000D02*
X31015100Y-133168000D01*
X31055100Y-128611000D02*
X31055100Y-129860000D01*
X31055100Y-131940000D02*
X31055100Y-133189000D01*
X31095100Y-128591000D02*
X31095100Y-129860000D01*
X31095100Y-131940000D02*
X31095100Y-133209000D01*
X31135100Y-128571000D02*
X31135100Y-129860000D01*
X31135100Y-131940000D02*
X31135100Y-133229000D01*
X31175100Y-128553000D02*
X31175100Y-129860000D01*
X31175100Y-131940000D02*
X31175100Y-133247000D01*
X31215100Y-128535000D02*
X31215100Y-129860000D01*
X31215100Y-131940000D02*
X31215100Y-133265000D01*
X31255100Y-128518000D02*
X31255100Y-129860000D01*
X31255100Y-131940000D02*
X31255100Y-133282000D01*
X31295100Y-128502000D02*
X31295100Y-129860000D01*
X31295100Y-131940000D02*
X31295100Y-133298000D01*
X31335100Y-128487000D02*
X31335100Y-129860000D01*
X31335100Y-131940000D02*
X31335100Y-133313000D01*
X31375100Y-128472000D02*
X31375100Y-129860000D01*
X31375100Y-131940000D02*
X31375100Y-133328000D01*
X31415100Y-128458000D02*
X31415100Y-129860000D01*
X31415100Y-131940000D02*
X31415100Y-133342000D01*
X31455100Y-128445000D02*
X31455100Y-129860000D01*
X31455100Y-131940000D02*
X31455100Y-133355000D01*
X31495100Y-128433000D02*
X31495100Y-129860000D01*
X31495100Y-131940000D02*
X31495100Y-133367000D01*
X31535100Y-128421000D02*
X31535100Y-129860000D01*
X31535100Y-131940000D02*
X31535100Y-133379000D01*
X31575100Y-128410000D02*
X31575100Y-129860000D01*
X31575100Y-131940000D02*
X31575100Y-133390000D01*
X31615100Y-128399000D02*
X31615100Y-129860000D01*
X31615100Y-131940000D02*
X31615100Y-133401000D01*
X31655100Y-128390000D02*
X31655100Y-129860000D01*
X31655100Y-131940000D02*
X31655100Y-133410000D01*
X31695100Y-128381000D02*
X31695100Y-129860000D01*
X31695100Y-131940000D02*
X31695100Y-133419000D01*
X31735100Y-128372000D02*
X31735100Y-129860000D01*
X31735100Y-131940000D02*
X31735100Y-133428000D01*
X31775100Y-128364000D02*
X31775100Y-129860000D01*
X31775100Y-131940000D02*
X31775100Y-133436000D01*
X31815100Y-128357000D02*
X31815100Y-129860000D01*
X31815100Y-131940000D02*
X31815100Y-133443000D01*
X31855100Y-128351000D02*
X31855100Y-129860000D01*
X31855100Y-131940000D02*
X31855100Y-133449000D01*
X31895100Y-128345000D02*
X31895100Y-129860000D01*
X31895100Y-131940000D02*
X31895100Y-133455000D01*
X31935100Y-128340000D02*
X31935100Y-129860000D01*
X31935100Y-131940000D02*
X31935100Y-133460000D01*
X31975100Y-128335000D02*
X31975100Y-129860000D01*
X31975100Y-131940000D02*
X31975100Y-133465000D01*
X32015100Y-128331000D02*
X32015100Y-129860000D01*
X32015100Y-131940000D02*
X32015100Y-133469000D01*
X32055100Y-128328000D02*
X32055100Y-133472000D01*
X32095100Y-128325000D02*
X32095100Y-133475000D01*
X32135100Y-128323000D02*
X32135100Y-133477000D01*
X32175100Y-128321000D02*
X32175100Y-133479000D01*
X32215100Y-128320000D02*
X32215100Y-133480000D01*
X32255100Y-128320000D02*
X32255100Y-133480000D01*
X34809875Y-129175000D02*
X34809875Y-129675000D01*
X35059875Y-129425000D02*
X34559875Y-129425000D01*
X34875100Y-130900000D02*
G75*
G02*
X29635100Y-130900000I-2620000J0D01*
G01*
X29635100Y-130900000D02*
G75*
G02*
X34875100Y-130900000I2620000J0D01*
G01*
%TO.C,C6*%
X159855100Y-74417000D02*
X159855100Y-74983000D01*
X159895100Y-74183000D02*
X159895100Y-75217000D01*
X159935100Y-74023000D02*
X159935100Y-75377000D01*
X159975100Y-73895000D02*
X159975100Y-75505000D01*
X160015100Y-73786000D02*
X160015100Y-75614000D01*
X160055100Y-73689000D02*
X160055100Y-75711000D01*
X160095100Y-73602000D02*
X160095100Y-75798000D01*
X160135100Y-73523000D02*
X160135100Y-75877000D01*
X160175100Y-73449000D02*
X160175100Y-73660000D01*
X160175100Y-75740000D02*
X160175100Y-75951000D01*
X160215100Y-73381000D02*
X160215100Y-73660000D01*
X160215100Y-75740000D02*
X160215100Y-76019000D01*
X160255100Y-73317000D02*
X160255100Y-73660000D01*
X160255100Y-75740000D02*
X160255100Y-76083000D01*
X160295100Y-73257000D02*
X160295100Y-73660000D01*
X160295100Y-75740000D02*
X160295100Y-76143000D01*
X160335100Y-73201000D02*
X160335100Y-73660000D01*
X160335100Y-75740000D02*
X160335100Y-76199000D01*
X160375100Y-73147000D02*
X160375100Y-73660000D01*
X160375100Y-75740000D02*
X160375100Y-76253000D01*
X160415100Y-73096000D02*
X160415100Y-73660000D01*
X160415100Y-75740000D02*
X160415100Y-76304000D01*
X160455100Y-73048000D02*
X160455100Y-73660000D01*
X160455100Y-75740000D02*
X160455100Y-76352000D01*
X160495100Y-73001000D02*
X160495100Y-73660000D01*
X160495100Y-75740000D02*
X160495100Y-76399000D01*
X160535100Y-72957000D02*
X160535100Y-73660000D01*
X160535100Y-75740000D02*
X160535100Y-76443000D01*
X160575100Y-72915000D02*
X160575100Y-73660000D01*
X160575100Y-75740000D02*
X160575100Y-76485000D01*
X160615100Y-72875000D02*
X160615100Y-73660000D01*
X160615100Y-75740000D02*
X160615100Y-76525000D01*
X160655100Y-72836000D02*
X160655100Y-73660000D01*
X160655100Y-75740000D02*
X160655100Y-76564000D01*
X160695100Y-72799000D02*
X160695100Y-73660000D01*
X160695100Y-75740000D02*
X160695100Y-76601000D01*
X160735100Y-72764000D02*
X160735100Y-73660000D01*
X160735100Y-75740000D02*
X160735100Y-76636000D01*
X160775100Y-72730000D02*
X160775100Y-73660000D01*
X160775100Y-75740000D02*
X160775100Y-76670000D01*
X160815100Y-72697000D02*
X160815100Y-73660000D01*
X160815100Y-75740000D02*
X160815100Y-76703000D01*
X160855100Y-72665000D02*
X160855100Y-73660000D01*
X160855100Y-75740000D02*
X160855100Y-76735000D01*
X160895100Y-72635000D02*
X160895100Y-73660000D01*
X160895100Y-75740000D02*
X160895100Y-76765000D01*
X160935100Y-72606000D02*
X160935100Y-73660000D01*
X160935100Y-75740000D02*
X160935100Y-76794000D01*
X160975100Y-72578000D02*
X160975100Y-73660000D01*
X160975100Y-75740000D02*
X160975100Y-76822000D01*
X161015100Y-72551000D02*
X161015100Y-73660000D01*
X161015100Y-75740000D02*
X161015100Y-76849000D01*
X161055100Y-72525000D02*
X161055100Y-73660000D01*
X161055100Y-75740000D02*
X161055100Y-76875000D01*
X161095100Y-72501000D02*
X161095100Y-73660000D01*
X161095100Y-75740000D02*
X161095100Y-76899000D01*
X161135100Y-72477000D02*
X161135100Y-73660000D01*
X161135100Y-75740000D02*
X161135100Y-76923000D01*
X161175100Y-72454000D02*
X161175100Y-73660000D01*
X161175100Y-75740000D02*
X161175100Y-76946000D01*
X161215100Y-72432000D02*
X161215100Y-73660000D01*
X161215100Y-75740000D02*
X161215100Y-76968000D01*
X161255100Y-72411000D02*
X161255100Y-73660000D01*
X161255100Y-75740000D02*
X161255100Y-76989000D01*
X161295100Y-72391000D02*
X161295100Y-73660000D01*
X161295100Y-75740000D02*
X161295100Y-77009000D01*
X161335100Y-72371000D02*
X161335100Y-73660000D01*
X161335100Y-75740000D02*
X161335100Y-77029000D01*
X161375100Y-72353000D02*
X161375100Y-73660000D01*
X161375100Y-75740000D02*
X161375100Y-77047000D01*
X161415100Y-72335000D02*
X161415100Y-73660000D01*
X161415100Y-75740000D02*
X161415100Y-77065000D01*
X161455100Y-72318000D02*
X161455100Y-73660000D01*
X161455100Y-75740000D02*
X161455100Y-77082000D01*
X161495100Y-72302000D02*
X161495100Y-73660000D01*
X161495100Y-75740000D02*
X161495100Y-77098000D01*
X161535100Y-72287000D02*
X161535100Y-73660000D01*
X161535100Y-75740000D02*
X161535100Y-77113000D01*
X161575100Y-72272000D02*
X161575100Y-73660000D01*
X161575100Y-75740000D02*
X161575100Y-77128000D01*
X161615100Y-72258000D02*
X161615100Y-73660000D01*
X161615100Y-75740000D02*
X161615100Y-77142000D01*
X161655100Y-72245000D02*
X161655100Y-73660000D01*
X161655100Y-75740000D02*
X161655100Y-77155000D01*
X161695100Y-72233000D02*
X161695100Y-73660000D01*
X161695100Y-75740000D02*
X161695100Y-77167000D01*
X161735100Y-72221000D02*
X161735100Y-73660000D01*
X161735100Y-75740000D02*
X161735100Y-77179000D01*
X161775100Y-72210000D02*
X161775100Y-73660000D01*
X161775100Y-75740000D02*
X161775100Y-77190000D01*
X161815100Y-72199000D02*
X161815100Y-73660000D01*
X161815100Y-75740000D02*
X161815100Y-77201000D01*
X161855100Y-72190000D02*
X161855100Y-73660000D01*
X161855100Y-75740000D02*
X161855100Y-77210000D01*
X161895100Y-72181000D02*
X161895100Y-73660000D01*
X161895100Y-75740000D02*
X161895100Y-77219000D01*
X161935100Y-72172000D02*
X161935100Y-73660000D01*
X161935100Y-75740000D02*
X161935100Y-77228000D01*
X161975100Y-72164000D02*
X161975100Y-73660000D01*
X161975100Y-75740000D02*
X161975100Y-77236000D01*
X162015100Y-72157000D02*
X162015100Y-73660000D01*
X162015100Y-75740000D02*
X162015100Y-77243000D01*
X162055100Y-72151000D02*
X162055100Y-73660000D01*
X162055100Y-75740000D02*
X162055100Y-77249000D01*
X162095100Y-72145000D02*
X162095100Y-73660000D01*
X162095100Y-75740000D02*
X162095100Y-77255000D01*
X162135100Y-72140000D02*
X162135100Y-73660000D01*
X162135100Y-75740000D02*
X162135100Y-77260000D01*
X162175100Y-72135000D02*
X162175100Y-73660000D01*
X162175100Y-75740000D02*
X162175100Y-77265000D01*
X162215100Y-72131000D02*
X162215100Y-73660000D01*
X162215100Y-75740000D02*
X162215100Y-77269000D01*
X162255100Y-72128000D02*
X162255100Y-77272000D01*
X162295100Y-72125000D02*
X162295100Y-77275000D01*
X162335100Y-72123000D02*
X162335100Y-77277000D01*
X162375100Y-72121000D02*
X162375100Y-77279000D01*
X162415100Y-72120000D02*
X162415100Y-77280000D01*
X162455100Y-72120000D02*
X162455100Y-77280000D01*
X165009875Y-72975000D02*
X165009875Y-73475000D01*
X165259875Y-73225000D02*
X164759875Y-73225000D01*
X165075100Y-74700000D02*
G75*
G02*
X159835100Y-74700000I-2620000J0D01*
G01*
X159835100Y-74700000D02*
G75*
G02*
X165075100Y-74700000I2620000J0D01*
G01*
%TO.C,C8*%
X30355100Y-94117000D02*
X30355100Y-94683000D01*
X30395100Y-93883000D02*
X30395100Y-94917000D01*
X30435100Y-93723000D02*
X30435100Y-95077000D01*
X30475100Y-93595000D02*
X30475100Y-95205000D01*
X30515100Y-93486000D02*
X30515100Y-95314000D01*
X30555100Y-93389000D02*
X30555100Y-95411000D01*
X30595100Y-93302000D02*
X30595100Y-95498000D01*
X30635100Y-93223000D02*
X30635100Y-95577000D01*
X30675100Y-93149000D02*
X30675100Y-93360000D01*
X30675100Y-95440000D02*
X30675100Y-95651000D01*
X30715100Y-93081000D02*
X30715100Y-93360000D01*
X30715100Y-95440000D02*
X30715100Y-95719000D01*
X30755100Y-93017000D02*
X30755100Y-93360000D01*
X30755100Y-95440000D02*
X30755100Y-95783000D01*
X30795100Y-92957000D02*
X30795100Y-93360000D01*
X30795100Y-95440000D02*
X30795100Y-95843000D01*
X30835100Y-92901000D02*
X30835100Y-93360000D01*
X30835100Y-95440000D02*
X30835100Y-95899000D01*
X30875100Y-92847000D02*
X30875100Y-93360000D01*
X30875100Y-95440000D02*
X30875100Y-95953000D01*
X30915100Y-92796000D02*
X30915100Y-93360000D01*
X30915100Y-95440000D02*
X30915100Y-96004000D01*
X30955100Y-92748000D02*
X30955100Y-93360000D01*
X30955100Y-95440000D02*
X30955100Y-96052000D01*
X30995100Y-92701000D02*
X30995100Y-93360000D01*
X30995100Y-95440000D02*
X30995100Y-96099000D01*
X31035100Y-92657000D02*
X31035100Y-93360000D01*
X31035100Y-95440000D02*
X31035100Y-96143000D01*
X31075100Y-92615000D02*
X31075100Y-93360000D01*
X31075100Y-95440000D02*
X31075100Y-96185000D01*
X31115100Y-92575000D02*
X31115100Y-93360000D01*
X31115100Y-95440000D02*
X31115100Y-96225000D01*
X31155100Y-92536000D02*
X31155100Y-93360000D01*
X31155100Y-95440000D02*
X31155100Y-96264000D01*
X31195100Y-92499000D02*
X31195100Y-93360000D01*
X31195100Y-95440000D02*
X31195100Y-96301000D01*
X31235100Y-92464000D02*
X31235100Y-93360000D01*
X31235100Y-95440000D02*
X31235100Y-96336000D01*
X31275100Y-92430000D02*
X31275100Y-93360000D01*
X31275100Y-95440000D02*
X31275100Y-96370000D01*
X31315100Y-92397000D02*
X31315100Y-93360000D01*
X31315100Y-95440000D02*
X31315100Y-96403000D01*
X31355100Y-92365000D02*
X31355100Y-93360000D01*
X31355100Y-95440000D02*
X31355100Y-96435000D01*
X31395100Y-92335000D02*
X31395100Y-93360000D01*
X31395100Y-95440000D02*
X31395100Y-96465000D01*
X31435100Y-92306000D02*
X31435100Y-93360000D01*
X31435100Y-95440000D02*
X31435100Y-96494000D01*
X31475100Y-92278000D02*
X31475100Y-93360000D01*
X31475100Y-95440000D02*
X31475100Y-96522000D01*
X31515100Y-92251000D02*
X31515100Y-93360000D01*
X31515100Y-95440000D02*
X31515100Y-96549000D01*
X31555100Y-92225000D02*
X31555100Y-93360000D01*
X31555100Y-95440000D02*
X31555100Y-96575000D01*
X31595100Y-92201000D02*
X31595100Y-93360000D01*
X31595100Y-95440000D02*
X31595100Y-96599000D01*
X31635100Y-92177000D02*
X31635100Y-93360000D01*
X31635100Y-95440000D02*
X31635100Y-96623000D01*
X31675100Y-92154000D02*
X31675100Y-93360000D01*
X31675100Y-95440000D02*
X31675100Y-96646000D01*
X31715100Y-92132000D02*
X31715100Y-93360000D01*
X31715100Y-95440000D02*
X31715100Y-96668000D01*
X31755100Y-92111000D02*
X31755100Y-93360000D01*
X31755100Y-95440000D02*
X31755100Y-96689000D01*
X31795100Y-92091000D02*
X31795100Y-93360000D01*
X31795100Y-95440000D02*
X31795100Y-96709000D01*
X31835100Y-92071000D02*
X31835100Y-93360000D01*
X31835100Y-95440000D02*
X31835100Y-96729000D01*
X31875100Y-92053000D02*
X31875100Y-93360000D01*
X31875100Y-95440000D02*
X31875100Y-96747000D01*
X31915100Y-92035000D02*
X31915100Y-93360000D01*
X31915100Y-95440000D02*
X31915100Y-96765000D01*
X31955100Y-92018000D02*
X31955100Y-93360000D01*
X31955100Y-95440000D02*
X31955100Y-96782000D01*
X31995100Y-92002000D02*
X31995100Y-93360000D01*
X31995100Y-95440000D02*
X31995100Y-96798000D01*
X32035100Y-91987000D02*
X32035100Y-93360000D01*
X32035100Y-95440000D02*
X32035100Y-96813000D01*
X32075100Y-91972000D02*
X32075100Y-93360000D01*
X32075100Y-95440000D02*
X32075100Y-96828000D01*
X32115100Y-91958000D02*
X32115100Y-93360000D01*
X32115100Y-95440000D02*
X32115100Y-96842000D01*
X32155100Y-91945000D02*
X32155100Y-93360000D01*
X32155100Y-95440000D02*
X32155100Y-96855000D01*
X32195100Y-91933000D02*
X32195100Y-93360000D01*
X32195100Y-95440000D02*
X32195100Y-96867000D01*
X32235100Y-91921000D02*
X32235100Y-93360000D01*
X32235100Y-95440000D02*
X32235100Y-96879000D01*
X32275100Y-91910000D02*
X32275100Y-93360000D01*
X32275100Y-95440000D02*
X32275100Y-96890000D01*
X32315100Y-91899000D02*
X32315100Y-93360000D01*
X32315100Y-95440000D02*
X32315100Y-96901000D01*
X32355100Y-91890000D02*
X32355100Y-93360000D01*
X32355100Y-95440000D02*
X32355100Y-96910000D01*
X32395100Y-91881000D02*
X32395100Y-93360000D01*
X32395100Y-95440000D02*
X32395100Y-96919000D01*
X32435100Y-91872000D02*
X32435100Y-93360000D01*
X32435100Y-95440000D02*
X32435100Y-96928000D01*
X32475100Y-91864000D02*
X32475100Y-93360000D01*
X32475100Y-95440000D02*
X32475100Y-96936000D01*
X32515100Y-91857000D02*
X32515100Y-93360000D01*
X32515100Y-95440000D02*
X32515100Y-96943000D01*
X32555100Y-91851000D02*
X32555100Y-93360000D01*
X32555100Y-95440000D02*
X32555100Y-96949000D01*
X32595100Y-91845000D02*
X32595100Y-93360000D01*
X32595100Y-95440000D02*
X32595100Y-96955000D01*
X32635100Y-91840000D02*
X32635100Y-93360000D01*
X32635100Y-95440000D02*
X32635100Y-96960000D01*
X32675100Y-91835000D02*
X32675100Y-93360000D01*
X32675100Y-95440000D02*
X32675100Y-96965000D01*
X32715100Y-91831000D02*
X32715100Y-93360000D01*
X32715100Y-95440000D02*
X32715100Y-96969000D01*
X32755100Y-91828000D02*
X32755100Y-96972000D01*
X32795100Y-91825000D02*
X32795100Y-96975000D01*
X32835100Y-91823000D02*
X32835100Y-96977000D01*
X32875100Y-91821000D02*
X32875100Y-96979000D01*
X32915100Y-91820000D02*
X32915100Y-96980000D01*
X32955100Y-91820000D02*
X32955100Y-96980000D01*
X35509875Y-92675000D02*
X35509875Y-93175000D01*
X35759875Y-92925000D02*
X35259875Y-92925000D01*
X35575100Y-94400000D02*
G75*
G02*
X30335100Y-94400000I-2620000J0D01*
G01*
X30335100Y-94400000D02*
G75*
G02*
X35575100Y-94400000I2620000J0D01*
G01*
%TO.C,C20*%
X316650000Y-95217000D02*
X316650000Y-95783000D01*
X316690000Y-94983000D02*
X316690000Y-96017000D01*
X316730000Y-94823000D02*
X316730000Y-96177000D01*
X316770000Y-94695000D02*
X316770000Y-96305000D01*
X316810000Y-94586000D02*
X316810000Y-96414000D01*
X316850000Y-94489000D02*
X316850000Y-96511000D01*
X316890000Y-94402000D02*
X316890000Y-96598000D01*
X316930000Y-94323000D02*
X316930000Y-96677000D01*
X316970000Y-94249000D02*
X316970000Y-94460000D01*
X316970000Y-96540000D02*
X316970000Y-96751000D01*
X317010000Y-94181000D02*
X317010000Y-94460000D01*
X317010000Y-96540000D02*
X317010000Y-96819000D01*
X317050000Y-94117000D02*
X317050000Y-94460000D01*
X317050000Y-96540000D02*
X317050000Y-96883000D01*
X317090000Y-94057000D02*
X317090000Y-94460000D01*
X317090000Y-96540000D02*
X317090000Y-96943000D01*
X317130000Y-94001000D02*
X317130000Y-94460000D01*
X317130000Y-96540000D02*
X317130000Y-96999000D01*
X317170000Y-93947000D02*
X317170000Y-94460000D01*
X317170000Y-96540000D02*
X317170000Y-97053000D01*
X317210000Y-93896000D02*
X317210000Y-94460000D01*
X317210000Y-96540000D02*
X317210000Y-97104000D01*
X317250000Y-93848000D02*
X317250000Y-94460000D01*
X317250000Y-96540000D02*
X317250000Y-97152000D01*
X317290000Y-93801000D02*
X317290000Y-94460000D01*
X317290000Y-96540000D02*
X317290000Y-97199000D01*
X317330000Y-93757000D02*
X317330000Y-94460000D01*
X317330000Y-96540000D02*
X317330000Y-97243000D01*
X317370000Y-93715000D02*
X317370000Y-94460000D01*
X317370000Y-96540000D02*
X317370000Y-97285000D01*
X317410000Y-93675000D02*
X317410000Y-94460000D01*
X317410000Y-96540000D02*
X317410000Y-97325000D01*
X317450000Y-93636000D02*
X317450000Y-94460000D01*
X317450000Y-96540000D02*
X317450000Y-97364000D01*
X317490000Y-93599000D02*
X317490000Y-94460000D01*
X317490000Y-96540000D02*
X317490000Y-97401000D01*
X317530000Y-93564000D02*
X317530000Y-94460000D01*
X317530000Y-96540000D02*
X317530000Y-97436000D01*
X317570000Y-93530000D02*
X317570000Y-94460000D01*
X317570000Y-96540000D02*
X317570000Y-97470000D01*
X317610000Y-93497000D02*
X317610000Y-94460000D01*
X317610000Y-96540000D02*
X317610000Y-97503000D01*
X317650000Y-93465000D02*
X317650000Y-94460000D01*
X317650000Y-96540000D02*
X317650000Y-97535000D01*
X317690000Y-93435000D02*
X317690000Y-94460000D01*
X317690000Y-96540000D02*
X317690000Y-97565000D01*
X317730000Y-93406000D02*
X317730000Y-94460000D01*
X317730000Y-96540000D02*
X317730000Y-97594000D01*
X317770000Y-93378000D02*
X317770000Y-94460000D01*
X317770000Y-96540000D02*
X317770000Y-97622000D01*
X317810000Y-93351000D02*
X317810000Y-94460000D01*
X317810000Y-96540000D02*
X317810000Y-97649000D01*
X317850000Y-93325000D02*
X317850000Y-94460000D01*
X317850000Y-96540000D02*
X317850000Y-97675000D01*
X317890000Y-93301000D02*
X317890000Y-94460000D01*
X317890000Y-96540000D02*
X317890000Y-97699000D01*
X317930000Y-93277000D02*
X317930000Y-94460000D01*
X317930000Y-96540000D02*
X317930000Y-97723000D01*
X317970000Y-93254000D02*
X317970000Y-94460000D01*
X317970000Y-96540000D02*
X317970000Y-97746000D01*
X318010000Y-93232000D02*
X318010000Y-94460000D01*
X318010000Y-96540000D02*
X318010000Y-97768000D01*
X318050000Y-93211000D02*
X318050000Y-94460000D01*
X318050000Y-96540000D02*
X318050000Y-97789000D01*
X318090000Y-93191000D02*
X318090000Y-94460000D01*
X318090000Y-96540000D02*
X318090000Y-97809000D01*
X318130000Y-93171000D02*
X318130000Y-94460000D01*
X318130000Y-96540000D02*
X318130000Y-97829000D01*
X318170000Y-93153000D02*
X318170000Y-94460000D01*
X318170000Y-96540000D02*
X318170000Y-97847000D01*
X318210000Y-93135000D02*
X318210000Y-94460000D01*
X318210000Y-96540000D02*
X318210000Y-97865000D01*
X318250000Y-93118000D02*
X318250000Y-94460000D01*
X318250000Y-96540000D02*
X318250000Y-97882000D01*
X318290000Y-93102000D02*
X318290000Y-94460000D01*
X318290000Y-96540000D02*
X318290000Y-97898000D01*
X318330000Y-93087000D02*
X318330000Y-94460000D01*
X318330000Y-96540000D02*
X318330000Y-97913000D01*
X318370000Y-93072000D02*
X318370000Y-94460000D01*
X318370000Y-96540000D02*
X318370000Y-97928000D01*
X318410000Y-93058000D02*
X318410000Y-94460000D01*
X318410000Y-96540000D02*
X318410000Y-97942000D01*
X318450000Y-93045000D02*
X318450000Y-94460000D01*
X318450000Y-96540000D02*
X318450000Y-97955000D01*
X318490000Y-93033000D02*
X318490000Y-94460000D01*
X318490000Y-96540000D02*
X318490000Y-97967000D01*
X318530000Y-93021000D02*
X318530000Y-94460000D01*
X318530000Y-96540000D02*
X318530000Y-97979000D01*
X318570000Y-93010000D02*
X318570000Y-94460000D01*
X318570000Y-96540000D02*
X318570000Y-97990000D01*
X318610000Y-92999000D02*
X318610000Y-94460000D01*
X318610000Y-96540000D02*
X318610000Y-98001000D01*
X318650000Y-92990000D02*
X318650000Y-94460000D01*
X318650000Y-96540000D02*
X318650000Y-98010000D01*
X318690000Y-92981000D02*
X318690000Y-94460000D01*
X318690000Y-96540000D02*
X318690000Y-98019000D01*
X318730000Y-92972000D02*
X318730000Y-94460000D01*
X318730000Y-96540000D02*
X318730000Y-98028000D01*
X318770000Y-92964000D02*
X318770000Y-94460000D01*
X318770000Y-96540000D02*
X318770000Y-98036000D01*
X318810000Y-92957000D02*
X318810000Y-94460000D01*
X318810000Y-96540000D02*
X318810000Y-98043000D01*
X318850000Y-92951000D02*
X318850000Y-94460000D01*
X318850000Y-96540000D02*
X318850000Y-98049000D01*
X318890000Y-92945000D02*
X318890000Y-94460000D01*
X318890000Y-96540000D02*
X318890000Y-98055000D01*
X318930000Y-92940000D02*
X318930000Y-94460000D01*
X318930000Y-96540000D02*
X318930000Y-98060000D01*
X318970000Y-92935000D02*
X318970000Y-94460000D01*
X318970000Y-96540000D02*
X318970000Y-98065000D01*
X319010000Y-92931000D02*
X319010000Y-94460000D01*
X319010000Y-96540000D02*
X319010000Y-98069000D01*
X319050000Y-92928000D02*
X319050000Y-98072000D01*
X319090000Y-92925000D02*
X319090000Y-98075000D01*
X319130000Y-92923000D02*
X319130000Y-98077000D01*
X319170000Y-92921000D02*
X319170000Y-98079000D01*
X319210000Y-92920000D02*
X319210000Y-98080000D01*
X319250000Y-92920000D02*
X319250000Y-98080000D01*
X321804775Y-93775000D02*
X321804775Y-94275000D01*
X322054775Y-94025000D02*
X321554775Y-94025000D01*
X321870000Y-95500000D02*
G75*
G02*
X316630000Y-95500000I-2620000J0D01*
G01*
X316630000Y-95500000D02*
G75*
G02*
X321870000Y-95500000I2620000J0D01*
G01*
%TO.C,C7*%
X64450000Y-74317000D02*
X64450000Y-74883000D01*
X64490000Y-74083000D02*
X64490000Y-75117000D01*
X64530000Y-73923000D02*
X64530000Y-75277000D01*
X64570000Y-73795000D02*
X64570000Y-75405000D01*
X64610000Y-73686000D02*
X64610000Y-75514000D01*
X64650000Y-73589000D02*
X64650000Y-75611000D01*
X64690000Y-73502000D02*
X64690000Y-75698000D01*
X64730000Y-73423000D02*
X64730000Y-75777000D01*
X64770000Y-73349000D02*
X64770000Y-73560000D01*
X64770000Y-75640000D02*
X64770000Y-75851000D01*
X64810000Y-73281000D02*
X64810000Y-73560000D01*
X64810000Y-75640000D02*
X64810000Y-75919000D01*
X64850000Y-73217000D02*
X64850000Y-73560000D01*
X64850000Y-75640000D02*
X64850000Y-75983000D01*
X64890000Y-73157000D02*
X64890000Y-73560000D01*
X64890000Y-75640000D02*
X64890000Y-76043000D01*
X64930000Y-73101000D02*
X64930000Y-73560000D01*
X64930000Y-75640000D02*
X64930000Y-76099000D01*
X64970000Y-73047000D02*
X64970000Y-73560000D01*
X64970000Y-75640000D02*
X64970000Y-76153000D01*
X65010000Y-72996000D02*
X65010000Y-73560000D01*
X65010000Y-75640000D02*
X65010000Y-76204000D01*
X65050000Y-72948000D02*
X65050000Y-73560000D01*
X65050000Y-75640000D02*
X65050000Y-76252000D01*
X65090000Y-72901000D02*
X65090000Y-73560000D01*
X65090000Y-75640000D02*
X65090000Y-76299000D01*
X65130000Y-72857000D02*
X65130000Y-73560000D01*
X65130000Y-75640000D02*
X65130000Y-76343000D01*
X65170000Y-72815000D02*
X65170000Y-73560000D01*
X65170000Y-75640000D02*
X65170000Y-76385000D01*
X65210000Y-72775000D02*
X65210000Y-73560000D01*
X65210000Y-75640000D02*
X65210000Y-76425000D01*
X65250000Y-72736000D02*
X65250000Y-73560000D01*
X65250000Y-75640000D02*
X65250000Y-76464000D01*
X65290000Y-72699000D02*
X65290000Y-73560000D01*
X65290000Y-75640000D02*
X65290000Y-76501000D01*
X65330000Y-72664000D02*
X65330000Y-73560000D01*
X65330000Y-75640000D02*
X65330000Y-76536000D01*
X65370000Y-72630000D02*
X65370000Y-73560000D01*
X65370000Y-75640000D02*
X65370000Y-76570000D01*
X65410000Y-72597000D02*
X65410000Y-73560000D01*
X65410000Y-75640000D02*
X65410000Y-76603000D01*
X65450000Y-72565000D02*
X65450000Y-73560000D01*
X65450000Y-75640000D02*
X65450000Y-76635000D01*
X65490000Y-72535000D02*
X65490000Y-73560000D01*
X65490000Y-75640000D02*
X65490000Y-76665000D01*
X65530000Y-72506000D02*
X65530000Y-73560000D01*
X65530000Y-75640000D02*
X65530000Y-76694000D01*
X65570000Y-72478000D02*
X65570000Y-73560000D01*
X65570000Y-75640000D02*
X65570000Y-76722000D01*
X65610000Y-72451000D02*
X65610000Y-73560000D01*
X65610000Y-75640000D02*
X65610000Y-76749000D01*
X65650000Y-72425000D02*
X65650000Y-73560000D01*
X65650000Y-75640000D02*
X65650000Y-76775000D01*
X65690000Y-72401000D02*
X65690000Y-73560000D01*
X65690000Y-75640000D02*
X65690000Y-76799000D01*
X65730000Y-72377000D02*
X65730000Y-73560000D01*
X65730000Y-75640000D02*
X65730000Y-76823000D01*
X65770000Y-72354000D02*
X65770000Y-73560000D01*
X65770000Y-75640000D02*
X65770000Y-76846000D01*
X65810000Y-72332000D02*
X65810000Y-73560000D01*
X65810000Y-75640000D02*
X65810000Y-76868000D01*
X65850000Y-72311000D02*
X65850000Y-73560000D01*
X65850000Y-75640000D02*
X65850000Y-76889000D01*
X65890000Y-72291000D02*
X65890000Y-73560000D01*
X65890000Y-75640000D02*
X65890000Y-76909000D01*
X65930000Y-72271000D02*
X65930000Y-73560000D01*
X65930000Y-75640000D02*
X65930000Y-76929000D01*
X65970000Y-72253000D02*
X65970000Y-73560000D01*
X65970000Y-75640000D02*
X65970000Y-76947000D01*
X66010000Y-72235000D02*
X66010000Y-73560000D01*
X66010000Y-75640000D02*
X66010000Y-76965000D01*
X66050000Y-72218000D02*
X66050000Y-73560000D01*
X66050000Y-75640000D02*
X66050000Y-76982000D01*
X66090000Y-72202000D02*
X66090000Y-73560000D01*
X66090000Y-75640000D02*
X66090000Y-76998000D01*
X66130000Y-72187000D02*
X66130000Y-73560000D01*
X66130000Y-75640000D02*
X66130000Y-77013000D01*
X66170000Y-72172000D02*
X66170000Y-73560000D01*
X66170000Y-75640000D02*
X66170000Y-77028000D01*
X66210000Y-72158000D02*
X66210000Y-73560000D01*
X66210000Y-75640000D02*
X66210000Y-77042000D01*
X66250000Y-72145000D02*
X66250000Y-73560000D01*
X66250000Y-75640000D02*
X66250000Y-77055000D01*
X66290000Y-72133000D02*
X66290000Y-73560000D01*
X66290000Y-75640000D02*
X66290000Y-77067000D01*
X66330000Y-72121000D02*
X66330000Y-73560000D01*
X66330000Y-75640000D02*
X66330000Y-77079000D01*
X66370000Y-72110000D02*
X66370000Y-73560000D01*
X66370000Y-75640000D02*
X66370000Y-77090000D01*
X66410000Y-72099000D02*
X66410000Y-73560000D01*
X66410000Y-75640000D02*
X66410000Y-77101000D01*
X66450000Y-72090000D02*
X66450000Y-73560000D01*
X66450000Y-75640000D02*
X66450000Y-77110000D01*
X66490000Y-72081000D02*
X66490000Y-73560000D01*
X66490000Y-75640000D02*
X66490000Y-77119000D01*
X66530000Y-72072000D02*
X66530000Y-73560000D01*
X66530000Y-75640000D02*
X66530000Y-77128000D01*
X66570000Y-72064000D02*
X66570000Y-73560000D01*
X66570000Y-75640000D02*
X66570000Y-77136000D01*
X66610000Y-72057000D02*
X66610000Y-73560000D01*
X66610000Y-75640000D02*
X66610000Y-77143000D01*
X66650000Y-72051000D02*
X66650000Y-73560000D01*
X66650000Y-75640000D02*
X66650000Y-77149000D01*
X66690000Y-72045000D02*
X66690000Y-73560000D01*
X66690000Y-75640000D02*
X66690000Y-77155000D01*
X66730000Y-72040000D02*
X66730000Y-73560000D01*
X66730000Y-75640000D02*
X66730000Y-77160000D01*
X66770000Y-72035000D02*
X66770000Y-73560000D01*
X66770000Y-75640000D02*
X66770000Y-77165000D01*
X66810000Y-72031000D02*
X66810000Y-73560000D01*
X66810000Y-75640000D02*
X66810000Y-77169000D01*
X66850000Y-72028000D02*
X66850000Y-77172000D01*
X66890000Y-72025000D02*
X66890000Y-77175000D01*
X66930000Y-72023000D02*
X66930000Y-77177000D01*
X66970000Y-72021000D02*
X66970000Y-77179000D01*
X67010000Y-72020000D02*
X67010000Y-77180000D01*
X67050000Y-72020000D02*
X67050000Y-77180000D01*
X69604775Y-72875000D02*
X69604775Y-73375000D01*
X69854775Y-73125000D02*
X69354775Y-73125000D01*
X69670000Y-74600000D02*
G75*
G02*
X64430000Y-74600000I-2620000J0D01*
G01*
X64430000Y-74600000D02*
G75*
G02*
X69670000Y-74600000I2620000J0D01*
G01*
%TO.C,C10*%
X207650000Y-93217000D02*
X207650000Y-93783000D01*
X207690000Y-92983000D02*
X207690000Y-94017000D01*
X207730000Y-92823000D02*
X207730000Y-94177000D01*
X207770000Y-92695000D02*
X207770000Y-94305000D01*
X207810000Y-92586000D02*
X207810000Y-94414000D01*
X207850000Y-92489000D02*
X207850000Y-94511000D01*
X207890000Y-92402000D02*
X207890000Y-94598000D01*
X207930000Y-92323000D02*
X207930000Y-94677000D01*
X207970000Y-92249000D02*
X207970000Y-92460000D01*
X207970000Y-94540000D02*
X207970000Y-94751000D01*
X208010000Y-92181000D02*
X208010000Y-92460000D01*
X208010000Y-94540000D02*
X208010000Y-94819000D01*
X208050000Y-92117000D02*
X208050000Y-92460000D01*
X208050000Y-94540000D02*
X208050000Y-94883000D01*
X208090000Y-92057000D02*
X208090000Y-92460000D01*
X208090000Y-94540000D02*
X208090000Y-94943000D01*
X208130000Y-92001000D02*
X208130000Y-92460000D01*
X208130000Y-94540000D02*
X208130000Y-94999000D01*
X208170000Y-91947000D02*
X208170000Y-92460000D01*
X208170000Y-94540000D02*
X208170000Y-95053000D01*
X208210000Y-91896000D02*
X208210000Y-92460000D01*
X208210000Y-94540000D02*
X208210000Y-95104000D01*
X208250000Y-91848000D02*
X208250000Y-92460000D01*
X208250000Y-94540000D02*
X208250000Y-95152000D01*
X208290000Y-91801000D02*
X208290000Y-92460000D01*
X208290000Y-94540000D02*
X208290000Y-95199000D01*
X208330000Y-91757000D02*
X208330000Y-92460000D01*
X208330000Y-94540000D02*
X208330000Y-95243000D01*
X208370000Y-91715000D02*
X208370000Y-92460000D01*
X208370000Y-94540000D02*
X208370000Y-95285000D01*
X208410000Y-91675000D02*
X208410000Y-92460000D01*
X208410000Y-94540000D02*
X208410000Y-95325000D01*
X208450000Y-91636000D02*
X208450000Y-92460000D01*
X208450000Y-94540000D02*
X208450000Y-95364000D01*
X208490000Y-91599000D02*
X208490000Y-92460000D01*
X208490000Y-94540000D02*
X208490000Y-95401000D01*
X208530000Y-91564000D02*
X208530000Y-92460000D01*
X208530000Y-94540000D02*
X208530000Y-95436000D01*
X208570000Y-91530000D02*
X208570000Y-92460000D01*
X208570000Y-94540000D02*
X208570000Y-95470000D01*
X208610000Y-91497000D02*
X208610000Y-92460000D01*
X208610000Y-94540000D02*
X208610000Y-95503000D01*
X208650000Y-91465000D02*
X208650000Y-92460000D01*
X208650000Y-94540000D02*
X208650000Y-95535000D01*
X208690000Y-91435000D02*
X208690000Y-92460000D01*
X208690000Y-94540000D02*
X208690000Y-95565000D01*
X208730000Y-91406000D02*
X208730000Y-92460000D01*
X208730000Y-94540000D02*
X208730000Y-95594000D01*
X208770000Y-91378000D02*
X208770000Y-92460000D01*
X208770000Y-94540000D02*
X208770000Y-95622000D01*
X208810000Y-91351000D02*
X208810000Y-92460000D01*
X208810000Y-94540000D02*
X208810000Y-95649000D01*
X208850000Y-91325000D02*
X208850000Y-92460000D01*
X208850000Y-94540000D02*
X208850000Y-95675000D01*
X208890000Y-91301000D02*
X208890000Y-92460000D01*
X208890000Y-94540000D02*
X208890000Y-95699000D01*
X208930000Y-91277000D02*
X208930000Y-92460000D01*
X208930000Y-94540000D02*
X208930000Y-95723000D01*
X208970000Y-91254000D02*
X208970000Y-92460000D01*
X208970000Y-94540000D02*
X208970000Y-95746000D01*
X209010000Y-91232000D02*
X209010000Y-92460000D01*
X209010000Y-94540000D02*
X209010000Y-95768000D01*
X209050000Y-91211000D02*
X209050000Y-92460000D01*
X209050000Y-94540000D02*
X209050000Y-95789000D01*
X209090000Y-91191000D02*
X209090000Y-92460000D01*
X209090000Y-94540000D02*
X209090000Y-95809000D01*
X209130000Y-91171000D02*
X209130000Y-92460000D01*
X209130000Y-94540000D02*
X209130000Y-95829000D01*
X209170000Y-91153000D02*
X209170000Y-92460000D01*
X209170000Y-94540000D02*
X209170000Y-95847000D01*
X209210000Y-91135000D02*
X209210000Y-92460000D01*
X209210000Y-94540000D02*
X209210000Y-95865000D01*
X209250000Y-91118000D02*
X209250000Y-92460000D01*
X209250000Y-94540000D02*
X209250000Y-95882000D01*
X209290000Y-91102000D02*
X209290000Y-92460000D01*
X209290000Y-94540000D02*
X209290000Y-95898000D01*
X209330000Y-91087000D02*
X209330000Y-92460000D01*
X209330000Y-94540000D02*
X209330000Y-95913000D01*
X209370000Y-91072000D02*
X209370000Y-92460000D01*
X209370000Y-94540000D02*
X209370000Y-95928000D01*
X209410000Y-91058000D02*
X209410000Y-92460000D01*
X209410000Y-94540000D02*
X209410000Y-95942000D01*
X209450000Y-91045000D02*
X209450000Y-92460000D01*
X209450000Y-94540000D02*
X209450000Y-95955000D01*
X209490000Y-91033000D02*
X209490000Y-92460000D01*
X209490000Y-94540000D02*
X209490000Y-95967000D01*
X209530000Y-91021000D02*
X209530000Y-92460000D01*
X209530000Y-94540000D02*
X209530000Y-95979000D01*
X209570000Y-91010000D02*
X209570000Y-92460000D01*
X209570000Y-94540000D02*
X209570000Y-95990000D01*
X209610000Y-90999000D02*
X209610000Y-92460000D01*
X209610000Y-94540000D02*
X209610000Y-96001000D01*
X209650000Y-90990000D02*
X209650000Y-92460000D01*
X209650000Y-94540000D02*
X209650000Y-96010000D01*
X209690000Y-90981000D02*
X209690000Y-92460000D01*
X209690000Y-94540000D02*
X209690000Y-96019000D01*
X209730000Y-90972000D02*
X209730000Y-92460000D01*
X209730000Y-94540000D02*
X209730000Y-96028000D01*
X209770000Y-90964000D02*
X209770000Y-92460000D01*
X209770000Y-94540000D02*
X209770000Y-96036000D01*
X209810000Y-90957000D02*
X209810000Y-92460000D01*
X209810000Y-94540000D02*
X209810000Y-96043000D01*
X209850000Y-90951000D02*
X209850000Y-92460000D01*
X209850000Y-94540000D02*
X209850000Y-96049000D01*
X209890000Y-90945000D02*
X209890000Y-92460000D01*
X209890000Y-94540000D02*
X209890000Y-96055000D01*
X209930000Y-90940000D02*
X209930000Y-92460000D01*
X209930000Y-94540000D02*
X209930000Y-96060000D01*
X209970000Y-90935000D02*
X209970000Y-92460000D01*
X209970000Y-94540000D02*
X209970000Y-96065000D01*
X210010000Y-90931000D02*
X210010000Y-92460000D01*
X210010000Y-94540000D02*
X210010000Y-96069000D01*
X210050000Y-90928000D02*
X210050000Y-96072000D01*
X210090000Y-90925000D02*
X210090000Y-96075000D01*
X210130000Y-90923000D02*
X210130000Y-96077000D01*
X210170000Y-90921000D02*
X210170000Y-96079000D01*
X210210000Y-90920000D02*
X210210000Y-96080000D01*
X210250000Y-90920000D02*
X210250000Y-96080000D01*
X212804775Y-91775000D02*
X212804775Y-92275000D01*
X213054775Y-92025000D02*
X212554775Y-92025000D01*
X212870000Y-93500000D02*
G75*
G02*
X207630000Y-93500000I-2620000J0D01*
G01*
X207630000Y-93500000D02*
G75*
G02*
X212870000Y-93500000I2620000J0D01*
G01*
%TO.C,C2*%
X114650000Y-53617000D02*
X114650000Y-54183000D01*
X114690000Y-53383000D02*
X114690000Y-54417000D01*
X114730000Y-53223000D02*
X114730000Y-54577000D01*
X114770000Y-53095000D02*
X114770000Y-54705000D01*
X114810000Y-52986000D02*
X114810000Y-54814000D01*
X114850000Y-52889000D02*
X114850000Y-54911000D01*
X114890000Y-52802000D02*
X114890000Y-54998000D01*
X114930000Y-52723000D02*
X114930000Y-55077000D01*
X114970000Y-52649000D02*
X114970000Y-52860000D01*
X114970000Y-54940000D02*
X114970000Y-55151000D01*
X115010000Y-52581000D02*
X115010000Y-52860000D01*
X115010000Y-54940000D02*
X115010000Y-55219000D01*
X115050000Y-52517000D02*
X115050000Y-52860000D01*
X115050000Y-54940000D02*
X115050000Y-55283000D01*
X115090000Y-52457000D02*
X115090000Y-52860000D01*
X115090000Y-54940000D02*
X115090000Y-55343000D01*
X115130000Y-52401000D02*
X115130000Y-52860000D01*
X115130000Y-54940000D02*
X115130000Y-55399000D01*
X115170000Y-52347000D02*
X115170000Y-52860000D01*
X115170000Y-54940000D02*
X115170000Y-55453000D01*
X115210000Y-52296000D02*
X115210000Y-52860000D01*
X115210000Y-54940000D02*
X115210000Y-55504000D01*
X115250000Y-52248000D02*
X115250000Y-52860000D01*
X115250000Y-54940000D02*
X115250000Y-55552000D01*
X115290000Y-52201000D02*
X115290000Y-52860000D01*
X115290000Y-54940000D02*
X115290000Y-55599000D01*
X115330000Y-52157000D02*
X115330000Y-52860000D01*
X115330000Y-54940000D02*
X115330000Y-55643000D01*
X115370000Y-52115000D02*
X115370000Y-52860000D01*
X115370000Y-54940000D02*
X115370000Y-55685000D01*
X115410000Y-52075000D02*
X115410000Y-52860000D01*
X115410000Y-54940000D02*
X115410000Y-55725000D01*
X115450000Y-52036000D02*
X115450000Y-52860000D01*
X115450000Y-54940000D02*
X115450000Y-55764000D01*
X115490000Y-51999000D02*
X115490000Y-52860000D01*
X115490000Y-54940000D02*
X115490000Y-55801000D01*
X115530000Y-51964000D02*
X115530000Y-52860000D01*
X115530000Y-54940000D02*
X115530000Y-55836000D01*
X115570000Y-51930000D02*
X115570000Y-52860000D01*
X115570000Y-54940000D02*
X115570000Y-55870000D01*
X115610000Y-51897000D02*
X115610000Y-52860000D01*
X115610000Y-54940000D02*
X115610000Y-55903000D01*
X115650000Y-51865000D02*
X115650000Y-52860000D01*
X115650000Y-54940000D02*
X115650000Y-55935000D01*
X115690000Y-51835000D02*
X115690000Y-52860000D01*
X115690000Y-54940000D02*
X115690000Y-55965000D01*
X115730000Y-51806000D02*
X115730000Y-52860000D01*
X115730000Y-54940000D02*
X115730000Y-55994000D01*
X115770000Y-51778000D02*
X115770000Y-52860000D01*
X115770000Y-54940000D02*
X115770000Y-56022000D01*
X115810000Y-51751000D02*
X115810000Y-52860000D01*
X115810000Y-54940000D02*
X115810000Y-56049000D01*
X115850000Y-51725000D02*
X115850000Y-52860000D01*
X115850000Y-54940000D02*
X115850000Y-56075000D01*
X115890000Y-51701000D02*
X115890000Y-52860000D01*
X115890000Y-54940000D02*
X115890000Y-56099000D01*
X115930000Y-51677000D02*
X115930000Y-52860000D01*
X115930000Y-54940000D02*
X115930000Y-56123000D01*
X115970000Y-51654000D02*
X115970000Y-52860000D01*
X115970000Y-54940000D02*
X115970000Y-56146000D01*
X116010000Y-51632000D02*
X116010000Y-52860000D01*
X116010000Y-54940000D02*
X116010000Y-56168000D01*
X116050000Y-51611000D02*
X116050000Y-52860000D01*
X116050000Y-54940000D02*
X116050000Y-56189000D01*
X116090000Y-51591000D02*
X116090000Y-52860000D01*
X116090000Y-54940000D02*
X116090000Y-56209000D01*
X116130000Y-51571000D02*
X116130000Y-52860000D01*
X116130000Y-54940000D02*
X116130000Y-56229000D01*
X116170000Y-51553000D02*
X116170000Y-52860000D01*
X116170000Y-54940000D02*
X116170000Y-56247000D01*
X116210000Y-51535000D02*
X116210000Y-52860000D01*
X116210000Y-54940000D02*
X116210000Y-56265000D01*
X116250000Y-51518000D02*
X116250000Y-52860000D01*
X116250000Y-54940000D02*
X116250000Y-56282000D01*
X116290000Y-51502000D02*
X116290000Y-52860000D01*
X116290000Y-54940000D02*
X116290000Y-56298000D01*
X116330000Y-51487000D02*
X116330000Y-52860000D01*
X116330000Y-54940000D02*
X116330000Y-56313000D01*
X116370000Y-51472000D02*
X116370000Y-52860000D01*
X116370000Y-54940000D02*
X116370000Y-56328000D01*
X116410000Y-51458000D02*
X116410000Y-52860000D01*
X116410000Y-54940000D02*
X116410000Y-56342000D01*
X116450000Y-51445000D02*
X116450000Y-52860000D01*
X116450000Y-54940000D02*
X116450000Y-56355000D01*
X116490000Y-51433000D02*
X116490000Y-52860000D01*
X116490000Y-54940000D02*
X116490000Y-56367000D01*
X116530000Y-51421000D02*
X116530000Y-52860000D01*
X116530000Y-54940000D02*
X116530000Y-56379000D01*
X116570000Y-51410000D02*
X116570000Y-52860000D01*
X116570000Y-54940000D02*
X116570000Y-56390000D01*
X116610000Y-51399000D02*
X116610000Y-52860000D01*
X116610000Y-54940000D02*
X116610000Y-56401000D01*
X116650000Y-51390000D02*
X116650000Y-52860000D01*
X116650000Y-54940000D02*
X116650000Y-56410000D01*
X116690000Y-51381000D02*
X116690000Y-52860000D01*
X116690000Y-54940000D02*
X116690000Y-56419000D01*
X116730000Y-51372000D02*
X116730000Y-52860000D01*
X116730000Y-54940000D02*
X116730000Y-56428000D01*
X116770000Y-51364000D02*
X116770000Y-52860000D01*
X116770000Y-54940000D02*
X116770000Y-56436000D01*
X116810000Y-51357000D02*
X116810000Y-52860000D01*
X116810000Y-54940000D02*
X116810000Y-56443000D01*
X116850000Y-51351000D02*
X116850000Y-52860000D01*
X116850000Y-54940000D02*
X116850000Y-56449000D01*
X116890000Y-51345000D02*
X116890000Y-52860000D01*
X116890000Y-54940000D02*
X116890000Y-56455000D01*
X116930000Y-51340000D02*
X116930000Y-52860000D01*
X116930000Y-54940000D02*
X116930000Y-56460000D01*
X116970000Y-51335000D02*
X116970000Y-52860000D01*
X116970000Y-54940000D02*
X116970000Y-56465000D01*
X117010000Y-51331000D02*
X117010000Y-52860000D01*
X117010000Y-54940000D02*
X117010000Y-56469000D01*
X117050000Y-51328000D02*
X117050000Y-56472000D01*
X117090000Y-51325000D02*
X117090000Y-56475000D01*
X117130000Y-51323000D02*
X117130000Y-56477000D01*
X117170000Y-51321000D02*
X117170000Y-56479000D01*
X117210000Y-51320000D02*
X117210000Y-56480000D01*
X117250000Y-51320000D02*
X117250000Y-56480000D01*
X119804775Y-52175000D02*
X119804775Y-52675000D01*
X120054775Y-52425000D02*
X119554775Y-52425000D01*
X119870000Y-53900000D02*
G75*
G02*
X114630000Y-53900000I-2620000J0D01*
G01*
X114630000Y-53900000D02*
G75*
G02*
X119870000Y-53900000I2620000J0D01*
G01*
%TO.C,C1*%
X32144900Y-53417000D02*
X32144900Y-53983000D01*
X32184900Y-53183000D02*
X32184900Y-54217000D01*
X32224900Y-53023000D02*
X32224900Y-54377000D01*
X32264900Y-52895000D02*
X32264900Y-54505000D01*
X32304900Y-52786000D02*
X32304900Y-54614000D01*
X32344900Y-52689000D02*
X32344900Y-54711000D01*
X32384900Y-52602000D02*
X32384900Y-54798000D01*
X32424900Y-52523000D02*
X32424900Y-54877000D01*
X32464900Y-52449000D02*
X32464900Y-52660000D01*
X32464900Y-54740000D02*
X32464900Y-54951000D01*
X32504900Y-52381000D02*
X32504900Y-52660000D01*
X32504900Y-54740000D02*
X32504900Y-55019000D01*
X32544900Y-52317000D02*
X32544900Y-52660000D01*
X32544900Y-54740000D02*
X32544900Y-55083000D01*
X32584900Y-52257000D02*
X32584900Y-52660000D01*
X32584900Y-54740000D02*
X32584900Y-55143000D01*
X32624900Y-52201000D02*
X32624900Y-52660000D01*
X32624900Y-54740000D02*
X32624900Y-55199000D01*
X32664900Y-52147000D02*
X32664900Y-52660000D01*
X32664900Y-54740000D02*
X32664900Y-55253000D01*
X32704900Y-52096000D02*
X32704900Y-52660000D01*
X32704900Y-54740000D02*
X32704900Y-55304000D01*
X32744900Y-52048000D02*
X32744900Y-52660000D01*
X32744900Y-54740000D02*
X32744900Y-55352000D01*
X32784900Y-52001000D02*
X32784900Y-52660000D01*
X32784900Y-54740000D02*
X32784900Y-55399000D01*
X32824900Y-51957000D02*
X32824900Y-52660000D01*
X32824900Y-54740000D02*
X32824900Y-55443000D01*
X32864900Y-51915000D02*
X32864900Y-52660000D01*
X32864900Y-54740000D02*
X32864900Y-55485000D01*
X32904900Y-51875000D02*
X32904900Y-52660000D01*
X32904900Y-54740000D02*
X32904900Y-55525000D01*
X32944900Y-51836000D02*
X32944900Y-52660000D01*
X32944900Y-54740000D02*
X32944900Y-55564000D01*
X32984900Y-51799000D02*
X32984900Y-52660000D01*
X32984900Y-54740000D02*
X32984900Y-55601000D01*
X33024900Y-51764000D02*
X33024900Y-52660000D01*
X33024900Y-54740000D02*
X33024900Y-55636000D01*
X33064900Y-51730000D02*
X33064900Y-52660000D01*
X33064900Y-54740000D02*
X33064900Y-55670000D01*
X33104900Y-51697000D02*
X33104900Y-52660000D01*
X33104900Y-54740000D02*
X33104900Y-55703000D01*
X33144900Y-51665000D02*
X33144900Y-52660000D01*
X33144900Y-54740000D02*
X33144900Y-55735000D01*
X33184900Y-51635000D02*
X33184900Y-52660000D01*
X33184900Y-54740000D02*
X33184900Y-55765000D01*
X33224900Y-51606000D02*
X33224900Y-52660000D01*
X33224900Y-54740000D02*
X33224900Y-55794000D01*
X33264900Y-51578000D02*
X33264900Y-52660000D01*
X33264900Y-54740000D02*
X33264900Y-55822000D01*
X33304900Y-51551000D02*
X33304900Y-52660000D01*
X33304900Y-54740000D02*
X33304900Y-55849000D01*
X33344900Y-51525000D02*
X33344900Y-52660000D01*
X33344900Y-54740000D02*
X33344900Y-55875000D01*
X33384900Y-51501000D02*
X33384900Y-52660000D01*
X33384900Y-54740000D02*
X33384900Y-55899000D01*
X33424900Y-51477000D02*
X33424900Y-52660000D01*
X33424900Y-54740000D02*
X33424900Y-55923000D01*
X33464900Y-51454000D02*
X33464900Y-52660000D01*
X33464900Y-54740000D02*
X33464900Y-55946000D01*
X33504900Y-51432000D02*
X33504900Y-52660000D01*
X33504900Y-54740000D02*
X33504900Y-55968000D01*
X33544900Y-51411000D02*
X33544900Y-52660000D01*
X33544900Y-54740000D02*
X33544900Y-55989000D01*
X33584900Y-51391000D02*
X33584900Y-52660000D01*
X33584900Y-54740000D02*
X33584900Y-56009000D01*
X33624900Y-51371000D02*
X33624900Y-52660000D01*
X33624900Y-54740000D02*
X33624900Y-56029000D01*
X33664900Y-51353000D02*
X33664900Y-52660000D01*
X33664900Y-54740000D02*
X33664900Y-56047000D01*
X33704900Y-51335000D02*
X33704900Y-52660000D01*
X33704900Y-54740000D02*
X33704900Y-56065000D01*
X33744900Y-51318000D02*
X33744900Y-52660000D01*
X33744900Y-54740000D02*
X33744900Y-56082000D01*
X33784900Y-51302000D02*
X33784900Y-52660000D01*
X33784900Y-54740000D02*
X33784900Y-56098000D01*
X33824900Y-51287000D02*
X33824900Y-52660000D01*
X33824900Y-54740000D02*
X33824900Y-56113000D01*
X33864900Y-51272000D02*
X33864900Y-52660000D01*
X33864900Y-54740000D02*
X33864900Y-56128000D01*
X33904900Y-51258000D02*
X33904900Y-52660000D01*
X33904900Y-54740000D02*
X33904900Y-56142000D01*
X33944900Y-51245000D02*
X33944900Y-52660000D01*
X33944900Y-54740000D02*
X33944900Y-56155000D01*
X33984900Y-51233000D02*
X33984900Y-52660000D01*
X33984900Y-54740000D02*
X33984900Y-56167000D01*
X34024900Y-51221000D02*
X34024900Y-52660000D01*
X34024900Y-54740000D02*
X34024900Y-56179000D01*
X34064900Y-51210000D02*
X34064900Y-52660000D01*
X34064900Y-54740000D02*
X34064900Y-56190000D01*
X34104900Y-51199000D02*
X34104900Y-52660000D01*
X34104900Y-54740000D02*
X34104900Y-56201000D01*
X34144900Y-51190000D02*
X34144900Y-52660000D01*
X34144900Y-54740000D02*
X34144900Y-56210000D01*
X34184900Y-51181000D02*
X34184900Y-52660000D01*
X34184900Y-54740000D02*
X34184900Y-56219000D01*
X34224900Y-51172000D02*
X34224900Y-52660000D01*
X34224900Y-54740000D02*
X34224900Y-56228000D01*
X34264900Y-51164000D02*
X34264900Y-52660000D01*
X34264900Y-54740000D02*
X34264900Y-56236000D01*
X34304900Y-51157000D02*
X34304900Y-52660000D01*
X34304900Y-54740000D02*
X34304900Y-56243000D01*
X34344900Y-51151000D02*
X34344900Y-52660000D01*
X34344900Y-54740000D02*
X34344900Y-56249000D01*
X34384900Y-51145000D02*
X34384900Y-52660000D01*
X34384900Y-54740000D02*
X34384900Y-56255000D01*
X34424900Y-51140000D02*
X34424900Y-52660000D01*
X34424900Y-54740000D02*
X34424900Y-56260000D01*
X34464900Y-51135000D02*
X34464900Y-52660000D01*
X34464900Y-54740000D02*
X34464900Y-56265000D01*
X34504900Y-51131000D02*
X34504900Y-52660000D01*
X34504900Y-54740000D02*
X34504900Y-56269000D01*
X34544900Y-51128000D02*
X34544900Y-56272000D01*
X34584900Y-51125000D02*
X34584900Y-56275000D01*
X34624900Y-51123000D02*
X34624900Y-56277000D01*
X34664900Y-51121000D02*
X34664900Y-56279000D01*
X34704900Y-51120000D02*
X34704900Y-56280000D01*
X34744900Y-51120000D02*
X34744900Y-56280000D01*
X37299675Y-51975000D02*
X37299675Y-52475000D01*
X37549675Y-52225000D02*
X37049675Y-52225000D01*
X37364900Y-53700000D02*
G75*
G02*
X32124900Y-53700000I-2620000J0D01*
G01*
X32124900Y-53700000D02*
G75*
G02*
X37364900Y-53700000I2620000J0D01*
G01*
%TO.C,C4*%
X275355113Y-53417000D02*
X275355113Y-53983000D01*
X275395113Y-53183000D02*
X275395113Y-54217000D01*
X275435113Y-53023000D02*
X275435113Y-54377000D01*
X275475113Y-52895000D02*
X275475113Y-54505000D01*
X275515113Y-52786000D02*
X275515113Y-54614000D01*
X275555113Y-52689000D02*
X275555113Y-54711000D01*
X275595113Y-52602000D02*
X275595113Y-54798000D01*
X275635113Y-52523000D02*
X275635113Y-54877000D01*
X275675113Y-52449000D02*
X275675113Y-52660000D01*
X275675113Y-54740000D02*
X275675113Y-54951000D01*
X275715113Y-52381000D02*
X275715113Y-52660000D01*
X275715113Y-54740000D02*
X275715113Y-55019000D01*
X275755113Y-52317000D02*
X275755113Y-52660000D01*
X275755113Y-54740000D02*
X275755113Y-55083000D01*
X275795113Y-52257000D02*
X275795113Y-52660000D01*
X275795113Y-54740000D02*
X275795113Y-55143000D01*
X275835113Y-52201000D02*
X275835113Y-52660000D01*
X275835113Y-54740000D02*
X275835113Y-55199000D01*
X275875113Y-52147000D02*
X275875113Y-52660000D01*
X275875113Y-54740000D02*
X275875113Y-55253000D01*
X275915113Y-52096000D02*
X275915113Y-52660000D01*
X275915113Y-54740000D02*
X275915113Y-55304000D01*
X275955113Y-52048000D02*
X275955113Y-52660000D01*
X275955113Y-54740000D02*
X275955113Y-55352000D01*
X275995113Y-52001000D02*
X275995113Y-52660000D01*
X275995113Y-54740000D02*
X275995113Y-55399000D01*
X276035113Y-51957000D02*
X276035113Y-52660000D01*
X276035113Y-54740000D02*
X276035113Y-55443000D01*
X276075113Y-51915000D02*
X276075113Y-52660000D01*
X276075113Y-54740000D02*
X276075113Y-55485000D01*
X276115113Y-51875000D02*
X276115113Y-52660000D01*
X276115113Y-54740000D02*
X276115113Y-55525000D01*
X276155113Y-51836000D02*
X276155113Y-52660000D01*
X276155113Y-54740000D02*
X276155113Y-55564000D01*
X276195113Y-51799000D02*
X276195113Y-52660000D01*
X276195113Y-54740000D02*
X276195113Y-55601000D01*
X276235113Y-51764000D02*
X276235113Y-52660000D01*
X276235113Y-54740000D02*
X276235113Y-55636000D01*
X276275113Y-51730000D02*
X276275113Y-52660000D01*
X276275113Y-54740000D02*
X276275113Y-55670000D01*
X276315113Y-51697000D02*
X276315113Y-52660000D01*
X276315113Y-54740000D02*
X276315113Y-55703000D01*
X276355113Y-51665000D02*
X276355113Y-52660000D01*
X276355113Y-54740000D02*
X276355113Y-55735000D01*
X276395113Y-51635000D02*
X276395113Y-52660000D01*
X276395113Y-54740000D02*
X276395113Y-55765000D01*
X276435113Y-51606000D02*
X276435113Y-52660000D01*
X276435113Y-54740000D02*
X276435113Y-55794000D01*
X276475113Y-51578000D02*
X276475113Y-52660000D01*
X276475113Y-54740000D02*
X276475113Y-55822000D01*
X276515113Y-51551000D02*
X276515113Y-52660000D01*
X276515113Y-54740000D02*
X276515113Y-55849000D01*
X276555113Y-51525000D02*
X276555113Y-52660000D01*
X276555113Y-54740000D02*
X276555113Y-55875000D01*
X276595113Y-51501000D02*
X276595113Y-52660000D01*
X276595113Y-54740000D02*
X276595113Y-55899000D01*
X276635113Y-51477000D02*
X276635113Y-52660000D01*
X276635113Y-54740000D02*
X276635113Y-55923000D01*
X276675113Y-51454000D02*
X276675113Y-52660000D01*
X276675113Y-54740000D02*
X276675113Y-55946000D01*
X276715113Y-51432000D02*
X276715113Y-52660000D01*
X276715113Y-54740000D02*
X276715113Y-55968000D01*
X276755113Y-51411000D02*
X276755113Y-52660000D01*
X276755113Y-54740000D02*
X276755113Y-55989000D01*
X276795113Y-51391000D02*
X276795113Y-52660000D01*
X276795113Y-54740000D02*
X276795113Y-56009000D01*
X276835113Y-51371000D02*
X276835113Y-52660000D01*
X276835113Y-54740000D02*
X276835113Y-56029000D01*
X276875113Y-51353000D02*
X276875113Y-52660000D01*
X276875113Y-54740000D02*
X276875113Y-56047000D01*
X276915113Y-51335000D02*
X276915113Y-52660000D01*
X276915113Y-54740000D02*
X276915113Y-56065000D01*
X276955113Y-51318000D02*
X276955113Y-52660000D01*
X276955113Y-54740000D02*
X276955113Y-56082000D01*
X276995113Y-51302000D02*
X276995113Y-52660000D01*
X276995113Y-54740000D02*
X276995113Y-56098000D01*
X277035113Y-51287000D02*
X277035113Y-52660000D01*
X277035113Y-54740000D02*
X277035113Y-56113000D01*
X277075113Y-51272000D02*
X277075113Y-52660000D01*
X277075113Y-54740000D02*
X277075113Y-56128000D01*
X277115113Y-51258000D02*
X277115113Y-52660000D01*
X277115113Y-54740000D02*
X277115113Y-56142000D01*
X277155113Y-51245000D02*
X277155113Y-52660000D01*
X277155113Y-54740000D02*
X277155113Y-56155000D01*
X277195113Y-51233000D02*
X277195113Y-52660000D01*
X277195113Y-54740000D02*
X277195113Y-56167000D01*
X277235113Y-51221000D02*
X277235113Y-52660000D01*
X277235113Y-54740000D02*
X277235113Y-56179000D01*
X277275113Y-51210000D02*
X277275113Y-52660000D01*
X277275113Y-54740000D02*
X277275113Y-56190000D01*
X277315113Y-51199000D02*
X277315113Y-52660000D01*
X277315113Y-54740000D02*
X277315113Y-56201000D01*
X277355113Y-51190000D02*
X277355113Y-52660000D01*
X277355113Y-54740000D02*
X277355113Y-56210000D01*
X277395113Y-51181000D02*
X277395113Y-52660000D01*
X277395113Y-54740000D02*
X277395113Y-56219000D01*
X277435113Y-51172000D02*
X277435113Y-52660000D01*
X277435113Y-54740000D02*
X277435113Y-56228000D01*
X277475113Y-51164000D02*
X277475113Y-52660000D01*
X277475113Y-54740000D02*
X277475113Y-56236000D01*
X277515113Y-51157000D02*
X277515113Y-52660000D01*
X277515113Y-54740000D02*
X277515113Y-56243000D01*
X277555113Y-51151000D02*
X277555113Y-52660000D01*
X277555113Y-54740000D02*
X277555113Y-56249000D01*
X277595113Y-51145000D02*
X277595113Y-52660000D01*
X277595113Y-54740000D02*
X277595113Y-56255000D01*
X277635113Y-51140000D02*
X277635113Y-52660000D01*
X277635113Y-54740000D02*
X277635113Y-56260000D01*
X277675113Y-51135000D02*
X277675113Y-52660000D01*
X277675113Y-54740000D02*
X277675113Y-56265000D01*
X277715113Y-51131000D02*
X277715113Y-52660000D01*
X277715113Y-54740000D02*
X277715113Y-56269000D01*
X277755113Y-51128000D02*
X277755113Y-56272000D01*
X277795113Y-51125000D02*
X277795113Y-56275000D01*
X277835113Y-51123000D02*
X277835113Y-56277000D01*
X277875113Y-51121000D02*
X277875113Y-56279000D01*
X277915113Y-51120000D02*
X277915113Y-56280000D01*
X277955113Y-51120000D02*
X277955113Y-56280000D01*
X280509888Y-51975000D02*
X280509888Y-52475000D01*
X280759888Y-52225000D02*
X280259888Y-52225000D01*
X280575113Y-53700000D02*
G75*
G02*
X275335113Y-53700000I-2620000J0D01*
G01*
X275335113Y-53700000D02*
G75*
G02*
X280575113Y-53700000I2620000J0D01*
G01*
%TO.C,C13*%
X154850000Y-112517000D02*
X154850000Y-113083000D01*
X154890000Y-112283000D02*
X154890000Y-113317000D01*
X154930000Y-112123000D02*
X154930000Y-113477000D01*
X154970000Y-111995000D02*
X154970000Y-113605000D01*
X155010000Y-111886000D02*
X155010000Y-113714000D01*
X155050000Y-111789000D02*
X155050000Y-113811000D01*
X155090000Y-111702000D02*
X155090000Y-113898000D01*
X155130000Y-111623000D02*
X155130000Y-113977000D01*
X155170000Y-111549000D02*
X155170000Y-111760000D01*
X155170000Y-113840000D02*
X155170000Y-114051000D01*
X155210000Y-111481000D02*
X155210000Y-111760000D01*
X155210000Y-113840000D02*
X155210000Y-114119000D01*
X155250000Y-111417000D02*
X155250000Y-111760000D01*
X155250000Y-113840000D02*
X155250000Y-114183000D01*
X155290000Y-111357000D02*
X155290000Y-111760000D01*
X155290000Y-113840000D02*
X155290000Y-114243000D01*
X155330000Y-111301000D02*
X155330000Y-111760000D01*
X155330000Y-113840000D02*
X155330000Y-114299000D01*
X155370000Y-111247000D02*
X155370000Y-111760000D01*
X155370000Y-113840000D02*
X155370000Y-114353000D01*
X155410000Y-111196000D02*
X155410000Y-111760000D01*
X155410000Y-113840000D02*
X155410000Y-114404000D01*
X155450000Y-111148000D02*
X155450000Y-111760000D01*
X155450000Y-113840000D02*
X155450000Y-114452000D01*
X155490000Y-111101000D02*
X155490000Y-111760000D01*
X155490000Y-113840000D02*
X155490000Y-114499000D01*
X155530000Y-111057000D02*
X155530000Y-111760000D01*
X155530000Y-113840000D02*
X155530000Y-114543000D01*
X155570000Y-111015000D02*
X155570000Y-111760000D01*
X155570000Y-113840000D02*
X155570000Y-114585000D01*
X155610000Y-110975000D02*
X155610000Y-111760000D01*
X155610000Y-113840000D02*
X155610000Y-114625000D01*
X155650000Y-110936000D02*
X155650000Y-111760000D01*
X155650000Y-113840000D02*
X155650000Y-114664000D01*
X155690000Y-110899000D02*
X155690000Y-111760000D01*
X155690000Y-113840000D02*
X155690000Y-114701000D01*
X155730000Y-110864000D02*
X155730000Y-111760000D01*
X155730000Y-113840000D02*
X155730000Y-114736000D01*
X155770000Y-110830000D02*
X155770000Y-111760000D01*
X155770000Y-113840000D02*
X155770000Y-114770000D01*
X155810000Y-110797000D02*
X155810000Y-111760000D01*
X155810000Y-113840000D02*
X155810000Y-114803000D01*
X155850000Y-110765000D02*
X155850000Y-111760000D01*
X155850000Y-113840000D02*
X155850000Y-114835000D01*
X155890000Y-110735000D02*
X155890000Y-111760000D01*
X155890000Y-113840000D02*
X155890000Y-114865000D01*
X155930000Y-110706000D02*
X155930000Y-111760000D01*
X155930000Y-113840000D02*
X155930000Y-114894000D01*
X155970000Y-110678000D02*
X155970000Y-111760000D01*
X155970000Y-113840000D02*
X155970000Y-114922000D01*
X156010000Y-110651000D02*
X156010000Y-111760000D01*
X156010000Y-113840000D02*
X156010000Y-114949000D01*
X156050000Y-110625000D02*
X156050000Y-111760000D01*
X156050000Y-113840000D02*
X156050000Y-114975000D01*
X156090000Y-110601000D02*
X156090000Y-111760000D01*
X156090000Y-113840000D02*
X156090000Y-114999000D01*
X156130000Y-110577000D02*
X156130000Y-111760000D01*
X156130000Y-113840000D02*
X156130000Y-115023000D01*
X156170000Y-110554000D02*
X156170000Y-111760000D01*
X156170000Y-113840000D02*
X156170000Y-115046000D01*
X156210000Y-110532000D02*
X156210000Y-111760000D01*
X156210000Y-113840000D02*
X156210000Y-115068000D01*
X156250000Y-110511000D02*
X156250000Y-111760000D01*
X156250000Y-113840000D02*
X156250000Y-115089000D01*
X156290000Y-110491000D02*
X156290000Y-111760000D01*
X156290000Y-113840000D02*
X156290000Y-115109000D01*
X156330000Y-110471000D02*
X156330000Y-111760000D01*
X156330000Y-113840000D02*
X156330000Y-115129000D01*
X156370000Y-110453000D02*
X156370000Y-111760000D01*
X156370000Y-113840000D02*
X156370000Y-115147000D01*
X156410000Y-110435000D02*
X156410000Y-111760000D01*
X156410000Y-113840000D02*
X156410000Y-115165000D01*
X156450000Y-110418000D02*
X156450000Y-111760000D01*
X156450000Y-113840000D02*
X156450000Y-115182000D01*
X156490000Y-110402000D02*
X156490000Y-111760000D01*
X156490000Y-113840000D02*
X156490000Y-115198000D01*
X156530000Y-110387000D02*
X156530000Y-111760000D01*
X156530000Y-113840000D02*
X156530000Y-115213000D01*
X156570000Y-110372000D02*
X156570000Y-111760000D01*
X156570000Y-113840000D02*
X156570000Y-115228000D01*
X156610000Y-110358000D02*
X156610000Y-111760000D01*
X156610000Y-113840000D02*
X156610000Y-115242000D01*
X156650000Y-110345000D02*
X156650000Y-111760000D01*
X156650000Y-113840000D02*
X156650000Y-115255000D01*
X156690000Y-110333000D02*
X156690000Y-111760000D01*
X156690000Y-113840000D02*
X156690000Y-115267000D01*
X156730000Y-110321000D02*
X156730000Y-111760000D01*
X156730000Y-113840000D02*
X156730000Y-115279000D01*
X156770000Y-110310000D02*
X156770000Y-111760000D01*
X156770000Y-113840000D02*
X156770000Y-115290000D01*
X156810000Y-110299000D02*
X156810000Y-111760000D01*
X156810000Y-113840000D02*
X156810000Y-115301000D01*
X156850000Y-110290000D02*
X156850000Y-111760000D01*
X156850000Y-113840000D02*
X156850000Y-115310000D01*
X156890000Y-110281000D02*
X156890000Y-111760000D01*
X156890000Y-113840000D02*
X156890000Y-115319000D01*
X156930000Y-110272000D02*
X156930000Y-111760000D01*
X156930000Y-113840000D02*
X156930000Y-115328000D01*
X156970000Y-110264000D02*
X156970000Y-111760000D01*
X156970000Y-113840000D02*
X156970000Y-115336000D01*
X157010000Y-110257000D02*
X157010000Y-111760000D01*
X157010000Y-113840000D02*
X157010000Y-115343000D01*
X157050000Y-110251000D02*
X157050000Y-111760000D01*
X157050000Y-113840000D02*
X157050000Y-115349000D01*
X157090000Y-110245000D02*
X157090000Y-111760000D01*
X157090000Y-113840000D02*
X157090000Y-115355000D01*
X157130000Y-110240000D02*
X157130000Y-111760000D01*
X157130000Y-113840000D02*
X157130000Y-115360000D01*
X157170000Y-110235000D02*
X157170000Y-111760000D01*
X157170000Y-113840000D02*
X157170000Y-115365000D01*
X157210000Y-110231000D02*
X157210000Y-111760000D01*
X157210000Y-113840000D02*
X157210000Y-115369000D01*
X157250000Y-110228000D02*
X157250000Y-115372000D01*
X157290000Y-110225000D02*
X157290000Y-115375000D01*
X157330000Y-110223000D02*
X157330000Y-115377000D01*
X157370000Y-110221000D02*
X157370000Y-115379000D01*
X157410000Y-110220000D02*
X157410000Y-115380000D01*
X157450000Y-110220000D02*
X157450000Y-115380000D01*
X160004775Y-111075000D02*
X160004775Y-111575000D01*
X160254775Y-111325000D02*
X159754775Y-111325000D01*
X160070000Y-112800000D02*
G75*
G02*
X154830000Y-112800000I-2620000J0D01*
G01*
X154830000Y-112800000D02*
G75*
G02*
X160070000Y-112800000I2620000J0D01*
G01*
%TO.C,C18*%
X332450000Y-123017000D02*
X332450000Y-123583000D01*
X332490000Y-122783000D02*
X332490000Y-123817000D01*
X332530000Y-122623000D02*
X332530000Y-123977000D01*
X332570000Y-122495000D02*
X332570000Y-124105000D01*
X332610000Y-122386000D02*
X332610000Y-124214000D01*
X332650000Y-122289000D02*
X332650000Y-124311000D01*
X332690000Y-122202000D02*
X332690000Y-124398000D01*
X332730000Y-122123000D02*
X332730000Y-124477000D01*
X332770000Y-122049000D02*
X332770000Y-122260000D01*
X332770000Y-124340000D02*
X332770000Y-124551000D01*
X332810000Y-121981000D02*
X332810000Y-122260000D01*
X332810000Y-124340000D02*
X332810000Y-124619000D01*
X332850000Y-121917000D02*
X332850000Y-122260000D01*
X332850000Y-124340000D02*
X332850000Y-124683000D01*
X332890000Y-121857000D02*
X332890000Y-122260000D01*
X332890000Y-124340000D02*
X332890000Y-124743000D01*
X332930000Y-121801000D02*
X332930000Y-122260000D01*
X332930000Y-124340000D02*
X332930000Y-124799000D01*
X332970000Y-121747000D02*
X332970000Y-122260000D01*
X332970000Y-124340000D02*
X332970000Y-124853000D01*
X333010000Y-121696000D02*
X333010000Y-122260000D01*
X333010000Y-124340000D02*
X333010000Y-124904000D01*
X333050000Y-121648000D02*
X333050000Y-122260000D01*
X333050000Y-124340000D02*
X333050000Y-124952000D01*
X333090000Y-121601000D02*
X333090000Y-122260000D01*
X333090000Y-124340000D02*
X333090000Y-124999000D01*
X333130000Y-121557000D02*
X333130000Y-122260000D01*
X333130000Y-124340000D02*
X333130000Y-125043000D01*
X333170000Y-121515000D02*
X333170000Y-122260000D01*
X333170000Y-124340000D02*
X333170000Y-125085000D01*
X333210000Y-121475000D02*
X333210000Y-122260000D01*
X333210000Y-124340000D02*
X333210000Y-125125000D01*
X333250000Y-121436000D02*
X333250000Y-122260000D01*
X333250000Y-124340000D02*
X333250000Y-125164000D01*
X333290000Y-121399000D02*
X333290000Y-122260000D01*
X333290000Y-124340000D02*
X333290000Y-125201000D01*
X333330000Y-121364000D02*
X333330000Y-122260000D01*
X333330000Y-124340000D02*
X333330000Y-125236000D01*
X333370000Y-121330000D02*
X333370000Y-122260000D01*
X333370000Y-124340000D02*
X333370000Y-125270000D01*
X333410000Y-121297000D02*
X333410000Y-122260000D01*
X333410000Y-124340000D02*
X333410000Y-125303000D01*
X333450000Y-121265000D02*
X333450000Y-122260000D01*
X333450000Y-124340000D02*
X333450000Y-125335000D01*
X333490000Y-121235000D02*
X333490000Y-122260000D01*
X333490000Y-124340000D02*
X333490000Y-125365000D01*
X333530000Y-121206000D02*
X333530000Y-122260000D01*
X333530000Y-124340000D02*
X333530000Y-125394000D01*
X333570000Y-121178000D02*
X333570000Y-122260000D01*
X333570000Y-124340000D02*
X333570000Y-125422000D01*
X333610000Y-121151000D02*
X333610000Y-122260000D01*
X333610000Y-124340000D02*
X333610000Y-125449000D01*
X333650000Y-121125000D02*
X333650000Y-122260000D01*
X333650000Y-124340000D02*
X333650000Y-125475000D01*
X333690000Y-121101000D02*
X333690000Y-122260000D01*
X333690000Y-124340000D02*
X333690000Y-125499000D01*
X333730000Y-121077000D02*
X333730000Y-122260000D01*
X333730000Y-124340000D02*
X333730000Y-125523000D01*
X333770000Y-121054000D02*
X333770000Y-122260000D01*
X333770000Y-124340000D02*
X333770000Y-125546000D01*
X333810000Y-121032000D02*
X333810000Y-122260000D01*
X333810000Y-124340000D02*
X333810000Y-125568000D01*
X333850000Y-121011000D02*
X333850000Y-122260000D01*
X333850000Y-124340000D02*
X333850000Y-125589000D01*
X333890000Y-120991000D02*
X333890000Y-122260000D01*
X333890000Y-124340000D02*
X333890000Y-125609000D01*
X333930000Y-120971000D02*
X333930000Y-122260000D01*
X333930000Y-124340000D02*
X333930000Y-125629000D01*
X333970000Y-120953000D02*
X333970000Y-122260000D01*
X333970000Y-124340000D02*
X333970000Y-125647000D01*
X334010000Y-120935000D02*
X334010000Y-122260000D01*
X334010000Y-124340000D02*
X334010000Y-125665000D01*
X334050000Y-120918000D02*
X334050000Y-122260000D01*
X334050000Y-124340000D02*
X334050000Y-125682000D01*
X334090000Y-120902000D02*
X334090000Y-122260000D01*
X334090000Y-124340000D02*
X334090000Y-125698000D01*
X334130000Y-120887000D02*
X334130000Y-122260000D01*
X334130000Y-124340000D02*
X334130000Y-125713000D01*
X334170000Y-120872000D02*
X334170000Y-122260000D01*
X334170000Y-124340000D02*
X334170000Y-125728000D01*
X334210000Y-120858000D02*
X334210000Y-122260000D01*
X334210000Y-124340000D02*
X334210000Y-125742000D01*
X334250000Y-120845000D02*
X334250000Y-122260000D01*
X334250000Y-124340000D02*
X334250000Y-125755000D01*
X334290000Y-120833000D02*
X334290000Y-122260000D01*
X334290000Y-124340000D02*
X334290000Y-125767000D01*
X334330000Y-120821000D02*
X334330000Y-122260000D01*
X334330000Y-124340000D02*
X334330000Y-125779000D01*
X334370000Y-120810000D02*
X334370000Y-122260000D01*
X334370000Y-124340000D02*
X334370000Y-125790000D01*
X334410000Y-120799000D02*
X334410000Y-122260000D01*
X334410000Y-124340000D02*
X334410000Y-125801000D01*
X334450000Y-120790000D02*
X334450000Y-122260000D01*
X334450000Y-124340000D02*
X334450000Y-125810000D01*
X334490000Y-120781000D02*
X334490000Y-122260000D01*
X334490000Y-124340000D02*
X334490000Y-125819000D01*
X334530000Y-120772000D02*
X334530000Y-122260000D01*
X334530000Y-124340000D02*
X334530000Y-125828000D01*
X334570000Y-120764000D02*
X334570000Y-122260000D01*
X334570000Y-124340000D02*
X334570000Y-125836000D01*
X334610000Y-120757000D02*
X334610000Y-122260000D01*
X334610000Y-124340000D02*
X334610000Y-125843000D01*
X334650000Y-120751000D02*
X334650000Y-122260000D01*
X334650000Y-124340000D02*
X334650000Y-125849000D01*
X334690000Y-120745000D02*
X334690000Y-122260000D01*
X334690000Y-124340000D02*
X334690000Y-125855000D01*
X334730000Y-120740000D02*
X334730000Y-122260000D01*
X334730000Y-124340000D02*
X334730000Y-125860000D01*
X334770000Y-120735000D02*
X334770000Y-122260000D01*
X334770000Y-124340000D02*
X334770000Y-125865000D01*
X334810000Y-120731000D02*
X334810000Y-122260000D01*
X334810000Y-124340000D02*
X334810000Y-125869000D01*
X334850000Y-120728000D02*
X334850000Y-125872000D01*
X334890000Y-120725000D02*
X334890000Y-125875000D01*
X334930000Y-120723000D02*
X334930000Y-125877000D01*
X334970000Y-120721000D02*
X334970000Y-125879000D01*
X335010000Y-120720000D02*
X335010000Y-125880000D01*
X335050000Y-120720000D02*
X335050000Y-125880000D01*
X337604775Y-121575000D02*
X337604775Y-122075000D01*
X337854775Y-121825000D02*
X337354775Y-121825000D01*
X337670000Y-123300000D02*
G75*
G02*
X332430000Y-123300000I-2620000J0D01*
G01*
X332430000Y-123300000D02*
G75*
G02*
X337670000Y-123300000I2620000J0D01*
G01*
%TO.C,C5*%
X236055100Y-74317000D02*
X236055100Y-74883000D01*
X236095100Y-74083000D02*
X236095100Y-75117000D01*
X236135100Y-73923000D02*
X236135100Y-75277000D01*
X236175100Y-73795000D02*
X236175100Y-75405000D01*
X236215100Y-73686000D02*
X236215100Y-75514000D01*
X236255100Y-73589000D02*
X236255100Y-75611000D01*
X236295100Y-73502000D02*
X236295100Y-75698000D01*
X236335100Y-73423000D02*
X236335100Y-75777000D01*
X236375100Y-73349000D02*
X236375100Y-73560000D01*
X236375100Y-75640000D02*
X236375100Y-75851000D01*
X236415100Y-73281000D02*
X236415100Y-73560000D01*
X236415100Y-75640000D02*
X236415100Y-75919000D01*
X236455100Y-73217000D02*
X236455100Y-73560000D01*
X236455100Y-75640000D02*
X236455100Y-75983000D01*
X236495100Y-73157000D02*
X236495100Y-73560000D01*
X236495100Y-75640000D02*
X236495100Y-76043000D01*
X236535100Y-73101000D02*
X236535100Y-73560000D01*
X236535100Y-75640000D02*
X236535100Y-76099000D01*
X236575100Y-73047000D02*
X236575100Y-73560000D01*
X236575100Y-75640000D02*
X236575100Y-76153000D01*
X236615100Y-72996000D02*
X236615100Y-73560000D01*
X236615100Y-75640000D02*
X236615100Y-76204000D01*
X236655100Y-72948000D02*
X236655100Y-73560000D01*
X236655100Y-75640000D02*
X236655100Y-76252000D01*
X236695100Y-72901000D02*
X236695100Y-73560000D01*
X236695100Y-75640000D02*
X236695100Y-76299000D01*
X236735100Y-72857000D02*
X236735100Y-73560000D01*
X236735100Y-75640000D02*
X236735100Y-76343000D01*
X236775100Y-72815000D02*
X236775100Y-73560000D01*
X236775100Y-75640000D02*
X236775100Y-76385000D01*
X236815100Y-72775000D02*
X236815100Y-73560000D01*
X236815100Y-75640000D02*
X236815100Y-76425000D01*
X236855100Y-72736000D02*
X236855100Y-73560000D01*
X236855100Y-75640000D02*
X236855100Y-76464000D01*
X236895100Y-72699000D02*
X236895100Y-73560000D01*
X236895100Y-75640000D02*
X236895100Y-76501000D01*
X236935100Y-72664000D02*
X236935100Y-73560000D01*
X236935100Y-75640000D02*
X236935100Y-76536000D01*
X236975100Y-72630000D02*
X236975100Y-73560000D01*
X236975100Y-75640000D02*
X236975100Y-76570000D01*
X237015100Y-72597000D02*
X237015100Y-73560000D01*
X237015100Y-75640000D02*
X237015100Y-76603000D01*
X237055100Y-72565000D02*
X237055100Y-73560000D01*
X237055100Y-75640000D02*
X237055100Y-76635000D01*
X237095100Y-72535000D02*
X237095100Y-73560000D01*
X237095100Y-75640000D02*
X237095100Y-76665000D01*
X237135100Y-72506000D02*
X237135100Y-73560000D01*
X237135100Y-75640000D02*
X237135100Y-76694000D01*
X237175100Y-72478000D02*
X237175100Y-73560000D01*
X237175100Y-75640000D02*
X237175100Y-76722000D01*
X237215100Y-72451000D02*
X237215100Y-73560000D01*
X237215100Y-75640000D02*
X237215100Y-76749000D01*
X237255100Y-72425000D02*
X237255100Y-73560000D01*
X237255100Y-75640000D02*
X237255100Y-76775000D01*
X237295100Y-72401000D02*
X237295100Y-73560000D01*
X237295100Y-75640000D02*
X237295100Y-76799000D01*
X237335100Y-72377000D02*
X237335100Y-73560000D01*
X237335100Y-75640000D02*
X237335100Y-76823000D01*
X237375100Y-72354000D02*
X237375100Y-73560000D01*
X237375100Y-75640000D02*
X237375100Y-76846000D01*
X237415100Y-72332000D02*
X237415100Y-73560000D01*
X237415100Y-75640000D02*
X237415100Y-76868000D01*
X237455100Y-72311000D02*
X237455100Y-73560000D01*
X237455100Y-75640000D02*
X237455100Y-76889000D01*
X237495100Y-72291000D02*
X237495100Y-73560000D01*
X237495100Y-75640000D02*
X237495100Y-76909000D01*
X237535100Y-72271000D02*
X237535100Y-73560000D01*
X237535100Y-75640000D02*
X237535100Y-76929000D01*
X237575100Y-72253000D02*
X237575100Y-73560000D01*
X237575100Y-75640000D02*
X237575100Y-76947000D01*
X237615100Y-72235000D02*
X237615100Y-73560000D01*
X237615100Y-75640000D02*
X237615100Y-76965000D01*
X237655100Y-72218000D02*
X237655100Y-73560000D01*
X237655100Y-75640000D02*
X237655100Y-76982000D01*
X237695100Y-72202000D02*
X237695100Y-73560000D01*
X237695100Y-75640000D02*
X237695100Y-76998000D01*
X237735100Y-72187000D02*
X237735100Y-73560000D01*
X237735100Y-75640000D02*
X237735100Y-77013000D01*
X237775100Y-72172000D02*
X237775100Y-73560000D01*
X237775100Y-75640000D02*
X237775100Y-77028000D01*
X237815100Y-72158000D02*
X237815100Y-73560000D01*
X237815100Y-75640000D02*
X237815100Y-77042000D01*
X237855100Y-72145000D02*
X237855100Y-73560000D01*
X237855100Y-75640000D02*
X237855100Y-77055000D01*
X237895100Y-72133000D02*
X237895100Y-73560000D01*
X237895100Y-75640000D02*
X237895100Y-77067000D01*
X237935100Y-72121000D02*
X237935100Y-73560000D01*
X237935100Y-75640000D02*
X237935100Y-77079000D01*
X237975100Y-72110000D02*
X237975100Y-73560000D01*
X237975100Y-75640000D02*
X237975100Y-77090000D01*
X238015100Y-72099000D02*
X238015100Y-73560000D01*
X238015100Y-75640000D02*
X238015100Y-77101000D01*
X238055100Y-72090000D02*
X238055100Y-73560000D01*
X238055100Y-75640000D02*
X238055100Y-77110000D01*
X238095100Y-72081000D02*
X238095100Y-73560000D01*
X238095100Y-75640000D02*
X238095100Y-77119000D01*
X238135100Y-72072000D02*
X238135100Y-73560000D01*
X238135100Y-75640000D02*
X238135100Y-77128000D01*
X238175100Y-72064000D02*
X238175100Y-73560000D01*
X238175100Y-75640000D02*
X238175100Y-77136000D01*
X238215100Y-72057000D02*
X238215100Y-73560000D01*
X238215100Y-75640000D02*
X238215100Y-77143000D01*
X238255100Y-72051000D02*
X238255100Y-73560000D01*
X238255100Y-75640000D02*
X238255100Y-77149000D01*
X238295100Y-72045000D02*
X238295100Y-73560000D01*
X238295100Y-75640000D02*
X238295100Y-77155000D01*
X238335100Y-72040000D02*
X238335100Y-73560000D01*
X238335100Y-75640000D02*
X238335100Y-77160000D01*
X238375100Y-72035000D02*
X238375100Y-73560000D01*
X238375100Y-75640000D02*
X238375100Y-77165000D01*
X238415100Y-72031000D02*
X238415100Y-73560000D01*
X238415100Y-75640000D02*
X238415100Y-77169000D01*
X238455100Y-72028000D02*
X238455100Y-77172000D01*
X238495100Y-72025000D02*
X238495100Y-77175000D01*
X238535100Y-72023000D02*
X238535100Y-77177000D01*
X238575100Y-72021000D02*
X238575100Y-77179000D01*
X238615100Y-72020000D02*
X238615100Y-77180000D01*
X238655100Y-72020000D02*
X238655100Y-77180000D01*
X241209875Y-72875000D02*
X241209875Y-73375000D01*
X241459875Y-73125000D02*
X240959875Y-73125000D01*
X241275100Y-74600000D02*
G75*
G02*
X236035100Y-74600000I-2620000J0D01*
G01*
X236035100Y-74600000D02*
G75*
G02*
X241275100Y-74600000I2620000J0D01*
G01*
%TO.C,C3*%
X193450000Y-53217000D02*
X193450000Y-53783000D01*
X193490000Y-52983000D02*
X193490000Y-54017000D01*
X193530000Y-52823000D02*
X193530000Y-54177000D01*
X193570000Y-52695000D02*
X193570000Y-54305000D01*
X193610000Y-52586000D02*
X193610000Y-54414000D01*
X193650000Y-52489000D02*
X193650000Y-54511000D01*
X193690000Y-52402000D02*
X193690000Y-54598000D01*
X193730000Y-52323000D02*
X193730000Y-54677000D01*
X193770000Y-52249000D02*
X193770000Y-52460000D01*
X193770000Y-54540000D02*
X193770000Y-54751000D01*
X193810000Y-52181000D02*
X193810000Y-52460000D01*
X193810000Y-54540000D02*
X193810000Y-54819000D01*
X193850000Y-52117000D02*
X193850000Y-52460000D01*
X193850000Y-54540000D02*
X193850000Y-54883000D01*
X193890000Y-52057000D02*
X193890000Y-52460000D01*
X193890000Y-54540000D02*
X193890000Y-54943000D01*
X193930000Y-52001000D02*
X193930000Y-52460000D01*
X193930000Y-54540000D02*
X193930000Y-54999000D01*
X193970000Y-51947000D02*
X193970000Y-52460000D01*
X193970000Y-54540000D02*
X193970000Y-55053000D01*
X194010000Y-51896000D02*
X194010000Y-52460000D01*
X194010000Y-54540000D02*
X194010000Y-55104000D01*
X194050000Y-51848000D02*
X194050000Y-52460000D01*
X194050000Y-54540000D02*
X194050000Y-55152000D01*
X194090000Y-51801000D02*
X194090000Y-52460000D01*
X194090000Y-54540000D02*
X194090000Y-55199000D01*
X194130000Y-51757000D02*
X194130000Y-52460000D01*
X194130000Y-54540000D02*
X194130000Y-55243000D01*
X194170000Y-51715000D02*
X194170000Y-52460000D01*
X194170000Y-54540000D02*
X194170000Y-55285000D01*
X194210000Y-51675000D02*
X194210000Y-52460000D01*
X194210000Y-54540000D02*
X194210000Y-55325000D01*
X194250000Y-51636000D02*
X194250000Y-52460000D01*
X194250000Y-54540000D02*
X194250000Y-55364000D01*
X194290000Y-51599000D02*
X194290000Y-52460000D01*
X194290000Y-54540000D02*
X194290000Y-55401000D01*
X194330000Y-51564000D02*
X194330000Y-52460000D01*
X194330000Y-54540000D02*
X194330000Y-55436000D01*
X194370000Y-51530000D02*
X194370000Y-52460000D01*
X194370000Y-54540000D02*
X194370000Y-55470000D01*
X194410000Y-51497000D02*
X194410000Y-52460000D01*
X194410000Y-54540000D02*
X194410000Y-55503000D01*
X194450000Y-51465000D02*
X194450000Y-52460000D01*
X194450000Y-54540000D02*
X194450000Y-55535000D01*
X194490000Y-51435000D02*
X194490000Y-52460000D01*
X194490000Y-54540000D02*
X194490000Y-55565000D01*
X194530000Y-51406000D02*
X194530000Y-52460000D01*
X194530000Y-54540000D02*
X194530000Y-55594000D01*
X194570000Y-51378000D02*
X194570000Y-52460000D01*
X194570000Y-54540000D02*
X194570000Y-55622000D01*
X194610000Y-51351000D02*
X194610000Y-52460000D01*
X194610000Y-54540000D02*
X194610000Y-55649000D01*
X194650000Y-51325000D02*
X194650000Y-52460000D01*
X194650000Y-54540000D02*
X194650000Y-55675000D01*
X194690000Y-51301000D02*
X194690000Y-52460000D01*
X194690000Y-54540000D02*
X194690000Y-55699000D01*
X194730000Y-51277000D02*
X194730000Y-52460000D01*
X194730000Y-54540000D02*
X194730000Y-55723000D01*
X194770000Y-51254000D02*
X194770000Y-52460000D01*
X194770000Y-54540000D02*
X194770000Y-55746000D01*
X194810000Y-51232000D02*
X194810000Y-52460000D01*
X194810000Y-54540000D02*
X194810000Y-55768000D01*
X194850000Y-51211000D02*
X194850000Y-52460000D01*
X194850000Y-54540000D02*
X194850000Y-55789000D01*
X194890000Y-51191000D02*
X194890000Y-52460000D01*
X194890000Y-54540000D02*
X194890000Y-55809000D01*
X194930000Y-51171000D02*
X194930000Y-52460000D01*
X194930000Y-54540000D02*
X194930000Y-55829000D01*
X194970000Y-51153000D02*
X194970000Y-52460000D01*
X194970000Y-54540000D02*
X194970000Y-55847000D01*
X195010000Y-51135000D02*
X195010000Y-52460000D01*
X195010000Y-54540000D02*
X195010000Y-55865000D01*
X195050000Y-51118000D02*
X195050000Y-52460000D01*
X195050000Y-54540000D02*
X195050000Y-55882000D01*
X195090000Y-51102000D02*
X195090000Y-52460000D01*
X195090000Y-54540000D02*
X195090000Y-55898000D01*
X195130000Y-51087000D02*
X195130000Y-52460000D01*
X195130000Y-54540000D02*
X195130000Y-55913000D01*
X195170000Y-51072000D02*
X195170000Y-52460000D01*
X195170000Y-54540000D02*
X195170000Y-55928000D01*
X195210000Y-51058000D02*
X195210000Y-52460000D01*
X195210000Y-54540000D02*
X195210000Y-55942000D01*
X195250000Y-51045000D02*
X195250000Y-52460000D01*
X195250000Y-54540000D02*
X195250000Y-55955000D01*
X195290000Y-51033000D02*
X195290000Y-52460000D01*
X195290000Y-54540000D02*
X195290000Y-55967000D01*
X195330000Y-51021000D02*
X195330000Y-52460000D01*
X195330000Y-54540000D02*
X195330000Y-55979000D01*
X195370000Y-51010000D02*
X195370000Y-52460000D01*
X195370000Y-54540000D02*
X195370000Y-55990000D01*
X195410000Y-50999000D02*
X195410000Y-52460000D01*
X195410000Y-54540000D02*
X195410000Y-56001000D01*
X195450000Y-50990000D02*
X195450000Y-52460000D01*
X195450000Y-54540000D02*
X195450000Y-56010000D01*
X195490000Y-50981000D02*
X195490000Y-52460000D01*
X195490000Y-54540000D02*
X195490000Y-56019000D01*
X195530000Y-50972000D02*
X195530000Y-52460000D01*
X195530000Y-54540000D02*
X195530000Y-56028000D01*
X195570000Y-50964000D02*
X195570000Y-52460000D01*
X195570000Y-54540000D02*
X195570000Y-56036000D01*
X195610000Y-50957000D02*
X195610000Y-52460000D01*
X195610000Y-54540000D02*
X195610000Y-56043000D01*
X195650000Y-50951000D02*
X195650000Y-52460000D01*
X195650000Y-54540000D02*
X195650000Y-56049000D01*
X195690000Y-50945000D02*
X195690000Y-52460000D01*
X195690000Y-54540000D02*
X195690000Y-56055000D01*
X195730000Y-50940000D02*
X195730000Y-52460000D01*
X195730000Y-54540000D02*
X195730000Y-56060000D01*
X195770000Y-50935000D02*
X195770000Y-52460000D01*
X195770000Y-54540000D02*
X195770000Y-56065000D01*
X195810000Y-50931000D02*
X195810000Y-52460000D01*
X195810000Y-54540000D02*
X195810000Y-56069000D01*
X195850000Y-50928000D02*
X195850000Y-56072000D01*
X195890000Y-50925000D02*
X195890000Y-56075000D01*
X195930000Y-50923000D02*
X195930000Y-56077000D01*
X195970000Y-50921000D02*
X195970000Y-56079000D01*
X196010000Y-50920000D02*
X196010000Y-56080000D01*
X196050000Y-50920000D02*
X196050000Y-56080000D01*
X198604775Y-51775000D02*
X198604775Y-52275000D01*
X198854775Y-52025000D02*
X198354775Y-52025000D01*
X198670000Y-53500000D02*
G75*
G02*
X193430000Y-53500000I-2620000J0D01*
G01*
X193430000Y-53500000D02*
G75*
G02*
X198670000Y-53500000I2620000J0D01*
G01*
%TO.C,C17*%
X278350000Y-145117000D02*
X278350000Y-145683000D01*
X278390000Y-144883000D02*
X278390000Y-145917000D01*
X278430000Y-144723000D02*
X278430000Y-146077000D01*
X278470000Y-144595000D02*
X278470000Y-146205000D01*
X278510000Y-144486000D02*
X278510000Y-146314000D01*
X278550000Y-144389000D02*
X278550000Y-146411000D01*
X278590000Y-144302000D02*
X278590000Y-146498000D01*
X278630000Y-144223000D02*
X278630000Y-146577000D01*
X278670000Y-144149000D02*
X278670000Y-144360000D01*
X278670000Y-146440000D02*
X278670000Y-146651000D01*
X278710000Y-144081000D02*
X278710000Y-144360000D01*
X278710000Y-146440000D02*
X278710000Y-146719000D01*
X278750000Y-144017000D02*
X278750000Y-144360000D01*
X278750000Y-146440000D02*
X278750000Y-146783000D01*
X278790000Y-143957000D02*
X278790000Y-144360000D01*
X278790000Y-146440000D02*
X278790000Y-146843000D01*
X278830000Y-143901000D02*
X278830000Y-144360000D01*
X278830000Y-146440000D02*
X278830000Y-146899000D01*
X278870000Y-143847000D02*
X278870000Y-144360000D01*
X278870000Y-146440000D02*
X278870000Y-146953000D01*
X278910000Y-143796000D02*
X278910000Y-144360000D01*
X278910000Y-146440000D02*
X278910000Y-147004000D01*
X278950000Y-143748000D02*
X278950000Y-144360000D01*
X278950000Y-146440000D02*
X278950000Y-147052000D01*
X278990000Y-143701000D02*
X278990000Y-144360000D01*
X278990000Y-146440000D02*
X278990000Y-147099000D01*
X279030000Y-143657000D02*
X279030000Y-144360000D01*
X279030000Y-146440000D02*
X279030000Y-147143000D01*
X279070000Y-143615000D02*
X279070000Y-144360000D01*
X279070000Y-146440000D02*
X279070000Y-147185000D01*
X279110000Y-143575000D02*
X279110000Y-144360000D01*
X279110000Y-146440000D02*
X279110000Y-147225000D01*
X279150000Y-143536000D02*
X279150000Y-144360000D01*
X279150000Y-146440000D02*
X279150000Y-147264000D01*
X279190000Y-143499000D02*
X279190000Y-144360000D01*
X279190000Y-146440000D02*
X279190000Y-147301000D01*
X279230000Y-143464000D02*
X279230000Y-144360000D01*
X279230000Y-146440000D02*
X279230000Y-147336000D01*
X279270000Y-143430000D02*
X279270000Y-144360000D01*
X279270000Y-146440000D02*
X279270000Y-147370000D01*
X279310000Y-143397000D02*
X279310000Y-144360000D01*
X279310000Y-146440000D02*
X279310000Y-147403000D01*
X279350000Y-143365000D02*
X279350000Y-144360000D01*
X279350000Y-146440000D02*
X279350000Y-147435000D01*
X279390000Y-143335000D02*
X279390000Y-144360000D01*
X279390000Y-146440000D02*
X279390000Y-147465000D01*
X279430000Y-143306000D02*
X279430000Y-144360000D01*
X279430000Y-146440000D02*
X279430000Y-147494000D01*
X279470000Y-143278000D02*
X279470000Y-144360000D01*
X279470000Y-146440000D02*
X279470000Y-147522000D01*
X279510000Y-143251000D02*
X279510000Y-144360000D01*
X279510000Y-146440000D02*
X279510000Y-147549000D01*
X279550000Y-143225000D02*
X279550000Y-144360000D01*
X279550000Y-146440000D02*
X279550000Y-147575000D01*
X279590000Y-143201000D02*
X279590000Y-144360000D01*
X279590000Y-146440000D02*
X279590000Y-147599000D01*
X279630000Y-143177000D02*
X279630000Y-144360000D01*
X279630000Y-146440000D02*
X279630000Y-147623000D01*
X279670000Y-143154000D02*
X279670000Y-144360000D01*
X279670000Y-146440000D02*
X279670000Y-147646000D01*
X279710000Y-143132000D02*
X279710000Y-144360000D01*
X279710000Y-146440000D02*
X279710000Y-147668000D01*
X279750000Y-143111000D02*
X279750000Y-144360000D01*
X279750000Y-146440000D02*
X279750000Y-147689000D01*
X279790000Y-143091000D02*
X279790000Y-144360000D01*
X279790000Y-146440000D02*
X279790000Y-147709000D01*
X279830000Y-143071000D02*
X279830000Y-144360000D01*
X279830000Y-146440000D02*
X279830000Y-147729000D01*
X279870000Y-143053000D02*
X279870000Y-144360000D01*
X279870000Y-146440000D02*
X279870000Y-147747000D01*
X279910000Y-143035000D02*
X279910000Y-144360000D01*
X279910000Y-146440000D02*
X279910000Y-147765000D01*
X279950000Y-143018000D02*
X279950000Y-144360000D01*
X279950000Y-146440000D02*
X279950000Y-147782000D01*
X279990000Y-143002000D02*
X279990000Y-144360000D01*
X279990000Y-146440000D02*
X279990000Y-147798000D01*
X280030000Y-142987000D02*
X280030000Y-144360000D01*
X280030000Y-146440000D02*
X280030000Y-147813000D01*
X280070000Y-142972000D02*
X280070000Y-144360000D01*
X280070000Y-146440000D02*
X280070000Y-147828000D01*
X280110000Y-142958000D02*
X280110000Y-144360000D01*
X280110000Y-146440000D02*
X280110000Y-147842000D01*
X280150000Y-142945000D02*
X280150000Y-144360000D01*
X280150000Y-146440000D02*
X280150000Y-147855000D01*
X280190000Y-142933000D02*
X280190000Y-144360000D01*
X280190000Y-146440000D02*
X280190000Y-147867000D01*
X280230000Y-142921000D02*
X280230000Y-144360000D01*
X280230000Y-146440000D02*
X280230000Y-147879000D01*
X280270000Y-142910000D02*
X280270000Y-144360000D01*
X280270000Y-146440000D02*
X280270000Y-147890000D01*
X280310000Y-142899000D02*
X280310000Y-144360000D01*
X280310000Y-146440000D02*
X280310000Y-147901000D01*
X280350000Y-142890000D02*
X280350000Y-144360000D01*
X280350000Y-146440000D02*
X280350000Y-147910000D01*
X280390000Y-142881000D02*
X280390000Y-144360000D01*
X280390000Y-146440000D02*
X280390000Y-147919000D01*
X280430000Y-142872000D02*
X280430000Y-144360000D01*
X280430000Y-146440000D02*
X280430000Y-147928000D01*
X280470000Y-142864000D02*
X280470000Y-144360000D01*
X280470000Y-146440000D02*
X280470000Y-147936000D01*
X280510000Y-142857000D02*
X280510000Y-144360000D01*
X280510000Y-146440000D02*
X280510000Y-147943000D01*
X280550000Y-142851000D02*
X280550000Y-144360000D01*
X280550000Y-146440000D02*
X280550000Y-147949000D01*
X280590000Y-142845000D02*
X280590000Y-144360000D01*
X280590000Y-146440000D02*
X280590000Y-147955000D01*
X280630000Y-142840000D02*
X280630000Y-144360000D01*
X280630000Y-146440000D02*
X280630000Y-147960000D01*
X280670000Y-142835000D02*
X280670000Y-144360000D01*
X280670000Y-146440000D02*
X280670000Y-147965000D01*
X280710000Y-142831000D02*
X280710000Y-144360000D01*
X280710000Y-146440000D02*
X280710000Y-147969000D01*
X280750000Y-142828000D02*
X280750000Y-147972000D01*
X280790000Y-142825000D02*
X280790000Y-147975000D01*
X280830000Y-142823000D02*
X280830000Y-147977000D01*
X280870000Y-142821000D02*
X280870000Y-147979000D01*
X280910000Y-142820000D02*
X280910000Y-147980000D01*
X280950000Y-142820000D02*
X280950000Y-147980000D01*
X283504775Y-143675000D02*
X283504775Y-144175000D01*
X283754775Y-143925000D02*
X283254775Y-143925000D01*
X283570000Y-145400000D02*
G75*
G02*
X278330000Y-145400000I-2620000J0D01*
G01*
X278330000Y-145400000D02*
G75*
G02*
X283570000Y-145400000I2620000J0D01*
G01*
%TO.C,C12*%
X231555100Y-112317000D02*
X231555100Y-112883000D01*
X231595100Y-112083000D02*
X231595100Y-113117000D01*
X231635100Y-111923000D02*
X231635100Y-113277000D01*
X231675100Y-111795000D02*
X231675100Y-113405000D01*
X231715100Y-111686000D02*
X231715100Y-113514000D01*
X231755100Y-111589000D02*
X231755100Y-113611000D01*
X231795100Y-111502000D02*
X231795100Y-113698000D01*
X231835100Y-111423000D02*
X231835100Y-113777000D01*
X231875100Y-111349000D02*
X231875100Y-111560000D01*
X231875100Y-113640000D02*
X231875100Y-113851000D01*
X231915100Y-111281000D02*
X231915100Y-111560000D01*
X231915100Y-113640000D02*
X231915100Y-113919000D01*
X231955100Y-111217000D02*
X231955100Y-111560000D01*
X231955100Y-113640000D02*
X231955100Y-113983000D01*
X231995100Y-111157000D02*
X231995100Y-111560000D01*
X231995100Y-113640000D02*
X231995100Y-114043000D01*
X232035100Y-111101000D02*
X232035100Y-111560000D01*
X232035100Y-113640000D02*
X232035100Y-114099000D01*
X232075100Y-111047000D02*
X232075100Y-111560000D01*
X232075100Y-113640000D02*
X232075100Y-114153000D01*
X232115100Y-110996000D02*
X232115100Y-111560000D01*
X232115100Y-113640000D02*
X232115100Y-114204000D01*
X232155100Y-110948000D02*
X232155100Y-111560000D01*
X232155100Y-113640000D02*
X232155100Y-114252000D01*
X232195100Y-110901000D02*
X232195100Y-111560000D01*
X232195100Y-113640000D02*
X232195100Y-114299000D01*
X232235100Y-110857000D02*
X232235100Y-111560000D01*
X232235100Y-113640000D02*
X232235100Y-114343000D01*
X232275100Y-110815000D02*
X232275100Y-111560000D01*
X232275100Y-113640000D02*
X232275100Y-114385000D01*
X232315100Y-110775000D02*
X232315100Y-111560000D01*
X232315100Y-113640000D02*
X232315100Y-114425000D01*
X232355100Y-110736000D02*
X232355100Y-111560000D01*
X232355100Y-113640000D02*
X232355100Y-114464000D01*
X232395100Y-110699000D02*
X232395100Y-111560000D01*
X232395100Y-113640000D02*
X232395100Y-114501000D01*
X232435100Y-110664000D02*
X232435100Y-111560000D01*
X232435100Y-113640000D02*
X232435100Y-114536000D01*
X232475100Y-110630000D02*
X232475100Y-111560000D01*
X232475100Y-113640000D02*
X232475100Y-114570000D01*
X232515100Y-110597000D02*
X232515100Y-111560000D01*
X232515100Y-113640000D02*
X232515100Y-114603000D01*
X232555100Y-110565000D02*
X232555100Y-111560000D01*
X232555100Y-113640000D02*
X232555100Y-114635000D01*
X232595100Y-110535000D02*
X232595100Y-111560000D01*
X232595100Y-113640000D02*
X232595100Y-114665000D01*
X232635100Y-110506000D02*
X232635100Y-111560000D01*
X232635100Y-113640000D02*
X232635100Y-114694000D01*
X232675100Y-110478000D02*
X232675100Y-111560000D01*
X232675100Y-113640000D02*
X232675100Y-114722000D01*
X232715100Y-110451000D02*
X232715100Y-111560000D01*
X232715100Y-113640000D02*
X232715100Y-114749000D01*
X232755100Y-110425000D02*
X232755100Y-111560000D01*
X232755100Y-113640000D02*
X232755100Y-114775000D01*
X232795100Y-110401000D02*
X232795100Y-111560000D01*
X232795100Y-113640000D02*
X232795100Y-114799000D01*
X232835100Y-110377000D02*
X232835100Y-111560000D01*
X232835100Y-113640000D02*
X232835100Y-114823000D01*
X232875100Y-110354000D02*
X232875100Y-111560000D01*
X232875100Y-113640000D02*
X232875100Y-114846000D01*
X232915100Y-110332000D02*
X232915100Y-111560000D01*
X232915100Y-113640000D02*
X232915100Y-114868000D01*
X232955100Y-110311000D02*
X232955100Y-111560000D01*
X232955100Y-113640000D02*
X232955100Y-114889000D01*
X232995100Y-110291000D02*
X232995100Y-111560000D01*
X232995100Y-113640000D02*
X232995100Y-114909000D01*
X233035100Y-110271000D02*
X233035100Y-111560000D01*
X233035100Y-113640000D02*
X233035100Y-114929000D01*
X233075100Y-110253000D02*
X233075100Y-111560000D01*
X233075100Y-113640000D02*
X233075100Y-114947000D01*
X233115100Y-110235000D02*
X233115100Y-111560000D01*
X233115100Y-113640000D02*
X233115100Y-114965000D01*
X233155100Y-110218000D02*
X233155100Y-111560000D01*
X233155100Y-113640000D02*
X233155100Y-114982000D01*
X233195100Y-110202000D02*
X233195100Y-111560000D01*
X233195100Y-113640000D02*
X233195100Y-114998000D01*
X233235100Y-110187000D02*
X233235100Y-111560000D01*
X233235100Y-113640000D02*
X233235100Y-115013000D01*
X233275100Y-110172000D02*
X233275100Y-111560000D01*
X233275100Y-113640000D02*
X233275100Y-115028000D01*
X233315100Y-110158000D02*
X233315100Y-111560000D01*
X233315100Y-113640000D02*
X233315100Y-115042000D01*
X233355100Y-110145000D02*
X233355100Y-111560000D01*
X233355100Y-113640000D02*
X233355100Y-115055000D01*
X233395100Y-110133000D02*
X233395100Y-111560000D01*
X233395100Y-113640000D02*
X233395100Y-115067000D01*
X233435100Y-110121000D02*
X233435100Y-111560000D01*
X233435100Y-113640000D02*
X233435100Y-115079000D01*
X233475100Y-110110000D02*
X233475100Y-111560000D01*
X233475100Y-113640000D02*
X233475100Y-115090000D01*
X233515100Y-110099000D02*
X233515100Y-111560000D01*
X233515100Y-113640000D02*
X233515100Y-115101000D01*
X233555100Y-110090000D02*
X233555100Y-111560000D01*
X233555100Y-113640000D02*
X233555100Y-115110000D01*
X233595100Y-110081000D02*
X233595100Y-111560000D01*
X233595100Y-113640000D02*
X233595100Y-115119000D01*
X233635100Y-110072000D02*
X233635100Y-111560000D01*
X233635100Y-113640000D02*
X233635100Y-115128000D01*
X233675100Y-110064000D02*
X233675100Y-111560000D01*
X233675100Y-113640000D02*
X233675100Y-115136000D01*
X233715100Y-110057000D02*
X233715100Y-111560000D01*
X233715100Y-113640000D02*
X233715100Y-115143000D01*
X233755100Y-110051000D02*
X233755100Y-111560000D01*
X233755100Y-113640000D02*
X233755100Y-115149000D01*
X233795100Y-110045000D02*
X233795100Y-111560000D01*
X233795100Y-113640000D02*
X233795100Y-115155000D01*
X233835100Y-110040000D02*
X233835100Y-111560000D01*
X233835100Y-113640000D02*
X233835100Y-115160000D01*
X233875100Y-110035000D02*
X233875100Y-111560000D01*
X233875100Y-113640000D02*
X233875100Y-115165000D01*
X233915100Y-110031000D02*
X233915100Y-111560000D01*
X233915100Y-113640000D02*
X233915100Y-115169000D01*
X233955100Y-110028000D02*
X233955100Y-115172000D01*
X233995100Y-110025000D02*
X233995100Y-115175000D01*
X234035100Y-110023000D02*
X234035100Y-115177000D01*
X234075100Y-110021000D02*
X234075100Y-115179000D01*
X234115100Y-110020000D02*
X234115100Y-115180000D01*
X234155100Y-110020000D02*
X234155100Y-115180000D01*
X236709875Y-110875000D02*
X236709875Y-111375000D01*
X236959875Y-111125000D02*
X236459875Y-111125000D01*
X236775100Y-112600000D02*
G75*
G02*
X231535100Y-112600000I-2620000J0D01*
G01*
X231535100Y-112600000D02*
G75*
G02*
X236775100Y-112600000I2620000J0D01*
G01*
%TO.C,C11*%
X264750000Y-93117000D02*
X264750000Y-93683000D01*
X264790000Y-92883000D02*
X264790000Y-93917000D01*
X264830000Y-92723000D02*
X264830000Y-94077000D01*
X264870000Y-92595000D02*
X264870000Y-94205000D01*
X264910000Y-92486000D02*
X264910000Y-94314000D01*
X264950000Y-92389000D02*
X264950000Y-94411000D01*
X264990000Y-92302000D02*
X264990000Y-94498000D01*
X265030000Y-92223000D02*
X265030000Y-94577000D01*
X265070000Y-92149000D02*
X265070000Y-92360000D01*
X265070000Y-94440000D02*
X265070000Y-94651000D01*
X265110000Y-92081000D02*
X265110000Y-92360000D01*
X265110000Y-94440000D02*
X265110000Y-94719000D01*
X265150000Y-92017000D02*
X265150000Y-92360000D01*
X265150000Y-94440000D02*
X265150000Y-94783000D01*
X265190000Y-91957000D02*
X265190000Y-92360000D01*
X265190000Y-94440000D02*
X265190000Y-94843000D01*
X265230000Y-91901000D02*
X265230000Y-92360000D01*
X265230000Y-94440000D02*
X265230000Y-94899000D01*
X265270000Y-91847000D02*
X265270000Y-92360000D01*
X265270000Y-94440000D02*
X265270000Y-94953000D01*
X265310000Y-91796000D02*
X265310000Y-92360000D01*
X265310000Y-94440000D02*
X265310000Y-95004000D01*
X265350000Y-91748000D02*
X265350000Y-92360000D01*
X265350000Y-94440000D02*
X265350000Y-95052000D01*
X265390000Y-91701000D02*
X265390000Y-92360000D01*
X265390000Y-94440000D02*
X265390000Y-95099000D01*
X265430000Y-91657000D02*
X265430000Y-92360000D01*
X265430000Y-94440000D02*
X265430000Y-95143000D01*
X265470000Y-91615000D02*
X265470000Y-92360000D01*
X265470000Y-94440000D02*
X265470000Y-95185000D01*
X265510000Y-91575000D02*
X265510000Y-92360000D01*
X265510000Y-94440000D02*
X265510000Y-95225000D01*
X265550000Y-91536000D02*
X265550000Y-92360000D01*
X265550000Y-94440000D02*
X265550000Y-95264000D01*
X265590000Y-91499000D02*
X265590000Y-92360000D01*
X265590000Y-94440000D02*
X265590000Y-95301000D01*
X265630000Y-91464000D02*
X265630000Y-92360000D01*
X265630000Y-94440000D02*
X265630000Y-95336000D01*
X265670000Y-91430000D02*
X265670000Y-92360000D01*
X265670000Y-94440000D02*
X265670000Y-95370000D01*
X265710000Y-91397000D02*
X265710000Y-92360000D01*
X265710000Y-94440000D02*
X265710000Y-95403000D01*
X265750000Y-91365000D02*
X265750000Y-92360000D01*
X265750000Y-94440000D02*
X265750000Y-95435000D01*
X265790000Y-91335000D02*
X265790000Y-92360000D01*
X265790000Y-94440000D02*
X265790000Y-95465000D01*
X265830000Y-91306000D02*
X265830000Y-92360000D01*
X265830000Y-94440000D02*
X265830000Y-95494000D01*
X265870000Y-91278000D02*
X265870000Y-92360000D01*
X265870000Y-94440000D02*
X265870000Y-95522000D01*
X265910000Y-91251000D02*
X265910000Y-92360000D01*
X265910000Y-94440000D02*
X265910000Y-95549000D01*
X265950000Y-91225000D02*
X265950000Y-92360000D01*
X265950000Y-94440000D02*
X265950000Y-95575000D01*
X265990000Y-91201000D02*
X265990000Y-92360000D01*
X265990000Y-94440000D02*
X265990000Y-95599000D01*
X266030000Y-91177000D02*
X266030000Y-92360000D01*
X266030000Y-94440000D02*
X266030000Y-95623000D01*
X266070000Y-91154000D02*
X266070000Y-92360000D01*
X266070000Y-94440000D02*
X266070000Y-95646000D01*
X266110000Y-91132000D02*
X266110000Y-92360000D01*
X266110000Y-94440000D02*
X266110000Y-95668000D01*
X266150000Y-91111000D02*
X266150000Y-92360000D01*
X266150000Y-94440000D02*
X266150000Y-95689000D01*
X266190000Y-91091000D02*
X266190000Y-92360000D01*
X266190000Y-94440000D02*
X266190000Y-95709000D01*
X266230000Y-91071000D02*
X266230000Y-92360000D01*
X266230000Y-94440000D02*
X266230000Y-95729000D01*
X266270000Y-91053000D02*
X266270000Y-92360000D01*
X266270000Y-94440000D02*
X266270000Y-95747000D01*
X266310000Y-91035000D02*
X266310000Y-92360000D01*
X266310000Y-94440000D02*
X266310000Y-95765000D01*
X266350000Y-91018000D02*
X266350000Y-92360000D01*
X266350000Y-94440000D02*
X266350000Y-95782000D01*
X266390000Y-91002000D02*
X266390000Y-92360000D01*
X266390000Y-94440000D02*
X266390000Y-95798000D01*
X266430000Y-90987000D02*
X266430000Y-92360000D01*
X266430000Y-94440000D02*
X266430000Y-95813000D01*
X266470000Y-90972000D02*
X266470000Y-92360000D01*
X266470000Y-94440000D02*
X266470000Y-95828000D01*
X266510000Y-90958000D02*
X266510000Y-92360000D01*
X266510000Y-94440000D02*
X266510000Y-95842000D01*
X266550000Y-90945000D02*
X266550000Y-92360000D01*
X266550000Y-94440000D02*
X266550000Y-95855000D01*
X266590000Y-90933000D02*
X266590000Y-92360000D01*
X266590000Y-94440000D02*
X266590000Y-95867000D01*
X266630000Y-90921000D02*
X266630000Y-92360000D01*
X266630000Y-94440000D02*
X266630000Y-95879000D01*
X266670000Y-90910000D02*
X266670000Y-92360000D01*
X266670000Y-94440000D02*
X266670000Y-95890000D01*
X266710000Y-90899000D02*
X266710000Y-92360000D01*
X266710000Y-94440000D02*
X266710000Y-95901000D01*
X266750000Y-90890000D02*
X266750000Y-92360000D01*
X266750000Y-94440000D02*
X266750000Y-95910000D01*
X266790000Y-90881000D02*
X266790000Y-92360000D01*
X266790000Y-94440000D02*
X266790000Y-95919000D01*
X266830000Y-90872000D02*
X266830000Y-92360000D01*
X266830000Y-94440000D02*
X266830000Y-95928000D01*
X266870000Y-90864000D02*
X266870000Y-92360000D01*
X266870000Y-94440000D02*
X266870000Y-95936000D01*
X266910000Y-90857000D02*
X266910000Y-92360000D01*
X266910000Y-94440000D02*
X266910000Y-95943000D01*
X266950000Y-90851000D02*
X266950000Y-92360000D01*
X266950000Y-94440000D02*
X266950000Y-95949000D01*
X266990000Y-90845000D02*
X266990000Y-92360000D01*
X266990000Y-94440000D02*
X266990000Y-95955000D01*
X267030000Y-90840000D02*
X267030000Y-92360000D01*
X267030000Y-94440000D02*
X267030000Y-95960000D01*
X267070000Y-90835000D02*
X267070000Y-92360000D01*
X267070000Y-94440000D02*
X267070000Y-95965000D01*
X267110000Y-90831000D02*
X267110000Y-92360000D01*
X267110000Y-94440000D02*
X267110000Y-95969000D01*
X267150000Y-90828000D02*
X267150000Y-95972000D01*
X267190000Y-90825000D02*
X267190000Y-95975000D01*
X267230000Y-90823000D02*
X267230000Y-95977000D01*
X267270000Y-90821000D02*
X267270000Y-95979000D01*
X267310000Y-90820000D02*
X267310000Y-95980000D01*
X267350000Y-90820000D02*
X267350000Y-95980000D01*
X269904775Y-91675000D02*
X269904775Y-92175000D01*
X270154775Y-91925000D02*
X269654775Y-91925000D01*
X269970000Y-93400000D02*
G75*
G02*
X264730000Y-93400000I-2620000J0D01*
G01*
X264730000Y-93400000D02*
G75*
G02*
X269970000Y-93400000I2620000J0D01*
G01*
%TO.C,C19*%
X317050000Y-59217000D02*
X317050000Y-59783000D01*
X317090000Y-58983000D02*
X317090000Y-60017000D01*
X317130000Y-58823000D02*
X317130000Y-60177000D01*
X317170000Y-58695000D02*
X317170000Y-60305000D01*
X317210000Y-58586000D02*
X317210000Y-60414000D01*
X317250000Y-58489000D02*
X317250000Y-60511000D01*
X317290000Y-58402000D02*
X317290000Y-60598000D01*
X317330000Y-58323000D02*
X317330000Y-60677000D01*
X317370000Y-58249000D02*
X317370000Y-58460000D01*
X317370000Y-60540000D02*
X317370000Y-60751000D01*
X317410000Y-58181000D02*
X317410000Y-58460000D01*
X317410000Y-60540000D02*
X317410000Y-60819000D01*
X317450000Y-58117000D02*
X317450000Y-58460000D01*
X317450000Y-60540000D02*
X317450000Y-60883000D01*
X317490000Y-58057000D02*
X317490000Y-58460000D01*
X317490000Y-60540000D02*
X317490000Y-60943000D01*
X317530000Y-58001000D02*
X317530000Y-58460000D01*
X317530000Y-60540000D02*
X317530000Y-60999000D01*
X317570000Y-57947000D02*
X317570000Y-58460000D01*
X317570000Y-60540000D02*
X317570000Y-61053000D01*
X317610000Y-57896000D02*
X317610000Y-58460000D01*
X317610000Y-60540000D02*
X317610000Y-61104000D01*
X317650000Y-57848000D02*
X317650000Y-58460000D01*
X317650000Y-60540000D02*
X317650000Y-61152000D01*
X317690000Y-57801000D02*
X317690000Y-58460000D01*
X317690000Y-60540000D02*
X317690000Y-61199000D01*
X317730000Y-57757000D02*
X317730000Y-58460000D01*
X317730000Y-60540000D02*
X317730000Y-61243000D01*
X317770000Y-57715000D02*
X317770000Y-58460000D01*
X317770000Y-60540000D02*
X317770000Y-61285000D01*
X317810000Y-57675000D02*
X317810000Y-58460000D01*
X317810000Y-60540000D02*
X317810000Y-61325000D01*
X317850000Y-57636000D02*
X317850000Y-58460000D01*
X317850000Y-60540000D02*
X317850000Y-61364000D01*
X317890000Y-57599000D02*
X317890000Y-58460000D01*
X317890000Y-60540000D02*
X317890000Y-61401000D01*
X317930000Y-57564000D02*
X317930000Y-58460000D01*
X317930000Y-60540000D02*
X317930000Y-61436000D01*
X317970000Y-57530000D02*
X317970000Y-58460000D01*
X317970000Y-60540000D02*
X317970000Y-61470000D01*
X318010000Y-57497000D02*
X318010000Y-58460000D01*
X318010000Y-60540000D02*
X318010000Y-61503000D01*
X318050000Y-57465000D02*
X318050000Y-58460000D01*
X318050000Y-60540000D02*
X318050000Y-61535000D01*
X318090000Y-57435000D02*
X318090000Y-58460000D01*
X318090000Y-60540000D02*
X318090000Y-61565000D01*
X318130000Y-57406000D02*
X318130000Y-58460000D01*
X318130000Y-60540000D02*
X318130000Y-61594000D01*
X318170000Y-57378000D02*
X318170000Y-58460000D01*
X318170000Y-60540000D02*
X318170000Y-61622000D01*
X318210000Y-57351000D02*
X318210000Y-58460000D01*
X318210000Y-60540000D02*
X318210000Y-61649000D01*
X318250000Y-57325000D02*
X318250000Y-58460000D01*
X318250000Y-60540000D02*
X318250000Y-61675000D01*
X318290000Y-57301000D02*
X318290000Y-58460000D01*
X318290000Y-60540000D02*
X318290000Y-61699000D01*
X318330000Y-57277000D02*
X318330000Y-58460000D01*
X318330000Y-60540000D02*
X318330000Y-61723000D01*
X318370000Y-57254000D02*
X318370000Y-58460000D01*
X318370000Y-60540000D02*
X318370000Y-61746000D01*
X318410000Y-57232000D02*
X318410000Y-58460000D01*
X318410000Y-60540000D02*
X318410000Y-61768000D01*
X318450000Y-57211000D02*
X318450000Y-58460000D01*
X318450000Y-60540000D02*
X318450000Y-61789000D01*
X318490000Y-57191000D02*
X318490000Y-58460000D01*
X318490000Y-60540000D02*
X318490000Y-61809000D01*
X318530000Y-57171000D02*
X318530000Y-58460000D01*
X318530000Y-60540000D02*
X318530000Y-61829000D01*
X318570000Y-57153000D02*
X318570000Y-58460000D01*
X318570000Y-60540000D02*
X318570000Y-61847000D01*
X318610000Y-57135000D02*
X318610000Y-58460000D01*
X318610000Y-60540000D02*
X318610000Y-61865000D01*
X318650000Y-57118000D02*
X318650000Y-58460000D01*
X318650000Y-60540000D02*
X318650000Y-61882000D01*
X318690000Y-57102000D02*
X318690000Y-58460000D01*
X318690000Y-60540000D02*
X318690000Y-61898000D01*
X318730000Y-57087000D02*
X318730000Y-58460000D01*
X318730000Y-60540000D02*
X318730000Y-61913000D01*
X318770000Y-57072000D02*
X318770000Y-58460000D01*
X318770000Y-60540000D02*
X318770000Y-61928000D01*
X318810000Y-57058000D02*
X318810000Y-58460000D01*
X318810000Y-60540000D02*
X318810000Y-61942000D01*
X318850000Y-57045000D02*
X318850000Y-58460000D01*
X318850000Y-60540000D02*
X318850000Y-61955000D01*
X318890000Y-57033000D02*
X318890000Y-58460000D01*
X318890000Y-60540000D02*
X318890000Y-61967000D01*
X318930000Y-57021000D02*
X318930000Y-58460000D01*
X318930000Y-60540000D02*
X318930000Y-61979000D01*
X318970000Y-57010000D02*
X318970000Y-58460000D01*
X318970000Y-60540000D02*
X318970000Y-61990000D01*
X319010000Y-56999000D02*
X319010000Y-58460000D01*
X319010000Y-60540000D02*
X319010000Y-62001000D01*
X319050000Y-56990000D02*
X319050000Y-58460000D01*
X319050000Y-60540000D02*
X319050000Y-62010000D01*
X319090000Y-56981000D02*
X319090000Y-58460000D01*
X319090000Y-60540000D02*
X319090000Y-62019000D01*
X319130000Y-56972000D02*
X319130000Y-58460000D01*
X319130000Y-60540000D02*
X319130000Y-62028000D01*
X319170000Y-56964000D02*
X319170000Y-58460000D01*
X319170000Y-60540000D02*
X319170000Y-62036000D01*
X319210000Y-56957000D02*
X319210000Y-58460000D01*
X319210000Y-60540000D02*
X319210000Y-62043000D01*
X319250000Y-56951000D02*
X319250000Y-58460000D01*
X319250000Y-60540000D02*
X319250000Y-62049000D01*
X319290000Y-56945000D02*
X319290000Y-58460000D01*
X319290000Y-60540000D02*
X319290000Y-62055000D01*
X319330000Y-56940000D02*
X319330000Y-58460000D01*
X319330000Y-60540000D02*
X319330000Y-62060000D01*
X319370000Y-56935000D02*
X319370000Y-58460000D01*
X319370000Y-60540000D02*
X319370000Y-62065000D01*
X319410000Y-56931000D02*
X319410000Y-58460000D01*
X319410000Y-60540000D02*
X319410000Y-62069000D01*
X319450000Y-56928000D02*
X319450000Y-62072000D01*
X319490000Y-56925000D02*
X319490000Y-62075000D01*
X319530000Y-56923000D02*
X319530000Y-62077000D01*
X319570000Y-56921000D02*
X319570000Y-62079000D01*
X319610000Y-56920000D02*
X319610000Y-62080000D01*
X319650000Y-56920000D02*
X319650000Y-62080000D01*
X322204775Y-57775000D02*
X322204775Y-58275000D01*
X322454775Y-58025000D02*
X321954775Y-58025000D01*
X322270000Y-59500000D02*
G75*
G02*
X317030000Y-59500000I-2620000J0D01*
G01*
X317030000Y-59500000D02*
G75*
G02*
X322270000Y-59500000I2620000J0D01*
G01*
%TO.C,C16*%
X186050000Y-138817000D02*
X186050000Y-139383000D01*
X186090000Y-138583000D02*
X186090000Y-139617000D01*
X186130000Y-138423000D02*
X186130000Y-139777000D01*
X186170000Y-138295000D02*
X186170000Y-139905000D01*
X186210000Y-138186000D02*
X186210000Y-140014000D01*
X186250000Y-138089000D02*
X186250000Y-140111000D01*
X186290000Y-138002000D02*
X186290000Y-140198000D01*
X186330000Y-137923000D02*
X186330000Y-140277000D01*
X186370000Y-137849000D02*
X186370000Y-138060000D01*
X186370000Y-140140000D02*
X186370000Y-140351000D01*
X186410000Y-137781000D02*
X186410000Y-138060000D01*
X186410000Y-140140000D02*
X186410000Y-140419000D01*
X186450000Y-137717000D02*
X186450000Y-138060000D01*
X186450000Y-140140000D02*
X186450000Y-140483000D01*
X186490000Y-137657000D02*
X186490000Y-138060000D01*
X186490000Y-140140000D02*
X186490000Y-140543000D01*
X186530000Y-137601000D02*
X186530000Y-138060000D01*
X186530000Y-140140000D02*
X186530000Y-140599000D01*
X186570000Y-137547000D02*
X186570000Y-138060000D01*
X186570000Y-140140000D02*
X186570000Y-140653000D01*
X186610000Y-137496000D02*
X186610000Y-138060000D01*
X186610000Y-140140000D02*
X186610000Y-140704000D01*
X186650000Y-137448000D02*
X186650000Y-138060000D01*
X186650000Y-140140000D02*
X186650000Y-140752000D01*
X186690000Y-137401000D02*
X186690000Y-138060000D01*
X186690000Y-140140000D02*
X186690000Y-140799000D01*
X186730000Y-137357000D02*
X186730000Y-138060000D01*
X186730000Y-140140000D02*
X186730000Y-140843000D01*
X186770000Y-137315000D02*
X186770000Y-138060000D01*
X186770000Y-140140000D02*
X186770000Y-140885000D01*
X186810000Y-137275000D02*
X186810000Y-138060000D01*
X186810000Y-140140000D02*
X186810000Y-140925000D01*
X186850000Y-137236000D02*
X186850000Y-138060000D01*
X186850000Y-140140000D02*
X186850000Y-140964000D01*
X186890000Y-137199000D02*
X186890000Y-138060000D01*
X186890000Y-140140000D02*
X186890000Y-141001000D01*
X186930000Y-137164000D02*
X186930000Y-138060000D01*
X186930000Y-140140000D02*
X186930000Y-141036000D01*
X186970000Y-137130000D02*
X186970000Y-138060000D01*
X186970000Y-140140000D02*
X186970000Y-141070000D01*
X187010000Y-137097000D02*
X187010000Y-138060000D01*
X187010000Y-140140000D02*
X187010000Y-141103000D01*
X187050000Y-137065000D02*
X187050000Y-138060000D01*
X187050000Y-140140000D02*
X187050000Y-141135000D01*
X187090000Y-137035000D02*
X187090000Y-138060000D01*
X187090000Y-140140000D02*
X187090000Y-141165000D01*
X187130000Y-137006000D02*
X187130000Y-138060000D01*
X187130000Y-140140000D02*
X187130000Y-141194000D01*
X187170000Y-136978000D02*
X187170000Y-138060000D01*
X187170000Y-140140000D02*
X187170000Y-141222000D01*
X187210000Y-136951000D02*
X187210000Y-138060000D01*
X187210000Y-140140000D02*
X187210000Y-141249000D01*
X187250000Y-136925000D02*
X187250000Y-138060000D01*
X187250000Y-140140000D02*
X187250000Y-141275000D01*
X187290000Y-136901000D02*
X187290000Y-138060000D01*
X187290000Y-140140000D02*
X187290000Y-141299000D01*
X187330000Y-136877000D02*
X187330000Y-138060000D01*
X187330000Y-140140000D02*
X187330000Y-141323000D01*
X187370000Y-136854000D02*
X187370000Y-138060000D01*
X187370000Y-140140000D02*
X187370000Y-141346000D01*
X187410000Y-136832000D02*
X187410000Y-138060000D01*
X187410000Y-140140000D02*
X187410000Y-141368000D01*
X187450000Y-136811000D02*
X187450000Y-138060000D01*
X187450000Y-140140000D02*
X187450000Y-141389000D01*
X187490000Y-136791000D02*
X187490000Y-138060000D01*
X187490000Y-140140000D02*
X187490000Y-141409000D01*
X187530000Y-136771000D02*
X187530000Y-138060000D01*
X187530000Y-140140000D02*
X187530000Y-141429000D01*
X187570000Y-136753000D02*
X187570000Y-138060000D01*
X187570000Y-140140000D02*
X187570000Y-141447000D01*
X187610000Y-136735000D02*
X187610000Y-138060000D01*
X187610000Y-140140000D02*
X187610000Y-141465000D01*
X187650000Y-136718000D02*
X187650000Y-138060000D01*
X187650000Y-140140000D02*
X187650000Y-141482000D01*
X187690000Y-136702000D02*
X187690000Y-138060000D01*
X187690000Y-140140000D02*
X187690000Y-141498000D01*
X187730000Y-136687000D02*
X187730000Y-138060000D01*
X187730000Y-140140000D02*
X187730000Y-141513000D01*
X187770000Y-136672000D02*
X187770000Y-138060000D01*
X187770000Y-140140000D02*
X187770000Y-141528000D01*
X187810000Y-136658000D02*
X187810000Y-138060000D01*
X187810000Y-140140000D02*
X187810000Y-141542000D01*
X187850000Y-136645000D02*
X187850000Y-138060000D01*
X187850000Y-140140000D02*
X187850000Y-141555000D01*
X187890000Y-136633000D02*
X187890000Y-138060000D01*
X187890000Y-140140000D02*
X187890000Y-141567000D01*
X187930000Y-136621000D02*
X187930000Y-138060000D01*
X187930000Y-140140000D02*
X187930000Y-141579000D01*
X187970000Y-136610000D02*
X187970000Y-138060000D01*
X187970000Y-140140000D02*
X187970000Y-141590000D01*
X188010000Y-136599000D02*
X188010000Y-138060000D01*
X188010000Y-140140000D02*
X188010000Y-141601000D01*
X188050000Y-136590000D02*
X188050000Y-138060000D01*
X188050000Y-140140000D02*
X188050000Y-141610000D01*
X188090000Y-136581000D02*
X188090000Y-138060000D01*
X188090000Y-140140000D02*
X188090000Y-141619000D01*
X188130000Y-136572000D02*
X188130000Y-138060000D01*
X188130000Y-140140000D02*
X188130000Y-141628000D01*
X188170000Y-136564000D02*
X188170000Y-138060000D01*
X188170000Y-140140000D02*
X188170000Y-141636000D01*
X188210000Y-136557000D02*
X188210000Y-138060000D01*
X188210000Y-140140000D02*
X188210000Y-141643000D01*
X188250000Y-136551000D02*
X188250000Y-138060000D01*
X188250000Y-140140000D02*
X188250000Y-141649000D01*
X188290000Y-136545000D02*
X188290000Y-138060000D01*
X188290000Y-140140000D02*
X188290000Y-141655000D01*
X188330000Y-136540000D02*
X188330000Y-138060000D01*
X188330000Y-140140000D02*
X188330000Y-141660000D01*
X188370000Y-136535000D02*
X188370000Y-138060000D01*
X188370000Y-140140000D02*
X188370000Y-141665000D01*
X188410000Y-136531000D02*
X188410000Y-138060000D01*
X188410000Y-140140000D02*
X188410000Y-141669000D01*
X188450000Y-136528000D02*
X188450000Y-141672000D01*
X188490000Y-136525000D02*
X188490000Y-141675000D01*
X188530000Y-136523000D02*
X188530000Y-141677000D01*
X188570000Y-136521000D02*
X188570000Y-141679000D01*
X188610000Y-136520000D02*
X188610000Y-141680000D01*
X188650000Y-136520000D02*
X188650000Y-141680000D01*
X191204775Y-137375000D02*
X191204775Y-137875000D01*
X191454775Y-137625000D02*
X190954775Y-137625000D01*
X191270000Y-139100000D02*
G75*
G02*
X186030000Y-139100000I-2620000J0D01*
G01*
X186030000Y-139100000D02*
G75*
G02*
X191270000Y-139100000I2620000J0D01*
G01*
%TO.C,C15*%
X124550000Y-143117000D02*
X124550000Y-143683000D01*
X124590000Y-142883000D02*
X124590000Y-143917000D01*
X124630000Y-142723000D02*
X124630000Y-144077000D01*
X124670000Y-142595000D02*
X124670000Y-144205000D01*
X124710000Y-142486000D02*
X124710000Y-144314000D01*
X124750000Y-142389000D02*
X124750000Y-144411000D01*
X124790000Y-142302000D02*
X124790000Y-144498000D01*
X124830000Y-142223000D02*
X124830000Y-144577000D01*
X124870000Y-142149000D02*
X124870000Y-142360000D01*
X124870000Y-144440000D02*
X124870000Y-144651000D01*
X124910000Y-142081000D02*
X124910000Y-142360000D01*
X124910000Y-144440000D02*
X124910000Y-144719000D01*
X124950000Y-142017000D02*
X124950000Y-142360000D01*
X124950000Y-144440000D02*
X124950000Y-144783000D01*
X124990000Y-141957000D02*
X124990000Y-142360000D01*
X124990000Y-144440000D02*
X124990000Y-144843000D01*
X125030000Y-141901000D02*
X125030000Y-142360000D01*
X125030000Y-144440000D02*
X125030000Y-144899000D01*
X125070000Y-141847000D02*
X125070000Y-142360000D01*
X125070000Y-144440000D02*
X125070000Y-144953000D01*
X125110000Y-141796000D02*
X125110000Y-142360000D01*
X125110000Y-144440000D02*
X125110000Y-145004000D01*
X125150000Y-141748000D02*
X125150000Y-142360000D01*
X125150000Y-144440000D02*
X125150000Y-145052000D01*
X125190000Y-141701000D02*
X125190000Y-142360000D01*
X125190000Y-144440000D02*
X125190000Y-145099000D01*
X125230000Y-141657000D02*
X125230000Y-142360000D01*
X125230000Y-144440000D02*
X125230000Y-145143000D01*
X125270000Y-141615000D02*
X125270000Y-142360000D01*
X125270000Y-144440000D02*
X125270000Y-145185000D01*
X125310000Y-141575000D02*
X125310000Y-142360000D01*
X125310000Y-144440000D02*
X125310000Y-145225000D01*
X125350000Y-141536000D02*
X125350000Y-142360000D01*
X125350000Y-144440000D02*
X125350000Y-145264000D01*
X125390000Y-141499000D02*
X125390000Y-142360000D01*
X125390000Y-144440000D02*
X125390000Y-145301000D01*
X125430000Y-141464000D02*
X125430000Y-142360000D01*
X125430000Y-144440000D02*
X125430000Y-145336000D01*
X125470000Y-141430000D02*
X125470000Y-142360000D01*
X125470000Y-144440000D02*
X125470000Y-145370000D01*
X125510000Y-141397000D02*
X125510000Y-142360000D01*
X125510000Y-144440000D02*
X125510000Y-145403000D01*
X125550000Y-141365000D02*
X125550000Y-142360000D01*
X125550000Y-144440000D02*
X125550000Y-145435000D01*
X125590000Y-141335000D02*
X125590000Y-142360000D01*
X125590000Y-144440000D02*
X125590000Y-145465000D01*
X125630000Y-141306000D02*
X125630000Y-142360000D01*
X125630000Y-144440000D02*
X125630000Y-145494000D01*
X125670000Y-141278000D02*
X125670000Y-142360000D01*
X125670000Y-144440000D02*
X125670000Y-145522000D01*
X125710000Y-141251000D02*
X125710000Y-142360000D01*
X125710000Y-144440000D02*
X125710000Y-145549000D01*
X125750000Y-141225000D02*
X125750000Y-142360000D01*
X125750000Y-144440000D02*
X125750000Y-145575000D01*
X125790000Y-141201000D02*
X125790000Y-142360000D01*
X125790000Y-144440000D02*
X125790000Y-145599000D01*
X125830000Y-141177000D02*
X125830000Y-142360000D01*
X125830000Y-144440000D02*
X125830000Y-145623000D01*
X125870000Y-141154000D02*
X125870000Y-142360000D01*
X125870000Y-144440000D02*
X125870000Y-145646000D01*
X125910000Y-141132000D02*
X125910000Y-142360000D01*
X125910000Y-144440000D02*
X125910000Y-145668000D01*
X125950000Y-141111000D02*
X125950000Y-142360000D01*
X125950000Y-144440000D02*
X125950000Y-145689000D01*
X125990000Y-141091000D02*
X125990000Y-142360000D01*
X125990000Y-144440000D02*
X125990000Y-145709000D01*
X126030000Y-141071000D02*
X126030000Y-142360000D01*
X126030000Y-144440000D02*
X126030000Y-145729000D01*
X126070000Y-141053000D02*
X126070000Y-142360000D01*
X126070000Y-144440000D02*
X126070000Y-145747000D01*
X126110000Y-141035000D02*
X126110000Y-142360000D01*
X126110000Y-144440000D02*
X126110000Y-145765000D01*
X126150000Y-141018000D02*
X126150000Y-142360000D01*
X126150000Y-144440000D02*
X126150000Y-145782000D01*
X126190000Y-141002000D02*
X126190000Y-142360000D01*
X126190000Y-144440000D02*
X126190000Y-145798000D01*
X126230000Y-140987000D02*
X126230000Y-142360000D01*
X126230000Y-144440000D02*
X126230000Y-145813000D01*
X126270000Y-140972000D02*
X126270000Y-142360000D01*
X126270000Y-144440000D02*
X126270000Y-145828000D01*
X126310000Y-140958000D02*
X126310000Y-142360000D01*
X126310000Y-144440000D02*
X126310000Y-145842000D01*
X126350000Y-140945000D02*
X126350000Y-142360000D01*
X126350000Y-144440000D02*
X126350000Y-145855000D01*
X126390000Y-140933000D02*
X126390000Y-142360000D01*
X126390000Y-144440000D02*
X126390000Y-145867000D01*
X126430000Y-140921000D02*
X126430000Y-142360000D01*
X126430000Y-144440000D02*
X126430000Y-145879000D01*
X126470000Y-140910000D02*
X126470000Y-142360000D01*
X126470000Y-144440000D02*
X126470000Y-145890000D01*
X126510000Y-140899000D02*
X126510000Y-142360000D01*
X126510000Y-144440000D02*
X126510000Y-145901000D01*
X126550000Y-140890000D02*
X126550000Y-142360000D01*
X126550000Y-144440000D02*
X126550000Y-145910000D01*
X126590000Y-140881000D02*
X126590000Y-142360000D01*
X126590000Y-144440000D02*
X126590000Y-145919000D01*
X126630000Y-140872000D02*
X126630000Y-142360000D01*
X126630000Y-144440000D02*
X126630000Y-145928000D01*
X126670000Y-140864000D02*
X126670000Y-142360000D01*
X126670000Y-144440000D02*
X126670000Y-145936000D01*
X126710000Y-140857000D02*
X126710000Y-142360000D01*
X126710000Y-144440000D02*
X126710000Y-145943000D01*
X126750000Y-140851000D02*
X126750000Y-142360000D01*
X126750000Y-144440000D02*
X126750000Y-145949000D01*
X126790000Y-140845000D02*
X126790000Y-142360000D01*
X126790000Y-144440000D02*
X126790000Y-145955000D01*
X126830000Y-140840000D02*
X126830000Y-142360000D01*
X126830000Y-144440000D02*
X126830000Y-145960000D01*
X126870000Y-140835000D02*
X126870000Y-142360000D01*
X126870000Y-144440000D02*
X126870000Y-145965000D01*
X126910000Y-140831000D02*
X126910000Y-142360000D01*
X126910000Y-144440000D02*
X126910000Y-145969000D01*
X126950000Y-140828000D02*
X126950000Y-145972000D01*
X126990000Y-140825000D02*
X126990000Y-145975000D01*
X127030000Y-140823000D02*
X127030000Y-145977000D01*
X127070000Y-140821000D02*
X127070000Y-145979000D01*
X127110000Y-140820000D02*
X127110000Y-145980000D01*
X127150000Y-140820000D02*
X127150000Y-145980000D01*
X129704775Y-141675000D02*
X129704775Y-142175000D01*
X129954775Y-141925000D02*
X129454775Y-141925000D01*
X129770000Y-143400000D02*
G75*
G02*
X124530000Y-143400000I-2620000J0D01*
G01*
X124530000Y-143400000D02*
G75*
G02*
X129770000Y-143400000I2620000J0D01*
G01*
%TO.C,C9*%
X112050000Y-93417000D02*
X112050000Y-93983000D01*
X112090000Y-93183000D02*
X112090000Y-94217000D01*
X112130000Y-93023000D02*
X112130000Y-94377000D01*
X112170000Y-92895000D02*
X112170000Y-94505000D01*
X112210000Y-92786000D02*
X112210000Y-94614000D01*
X112250000Y-92689000D02*
X112250000Y-94711000D01*
X112290000Y-92602000D02*
X112290000Y-94798000D01*
X112330000Y-92523000D02*
X112330000Y-94877000D01*
X112370000Y-92449000D02*
X112370000Y-92660000D01*
X112370000Y-94740000D02*
X112370000Y-94951000D01*
X112410000Y-92381000D02*
X112410000Y-92660000D01*
X112410000Y-94740000D02*
X112410000Y-95019000D01*
X112450000Y-92317000D02*
X112450000Y-92660000D01*
X112450000Y-94740000D02*
X112450000Y-95083000D01*
X112490000Y-92257000D02*
X112490000Y-92660000D01*
X112490000Y-94740000D02*
X112490000Y-95143000D01*
X112530000Y-92201000D02*
X112530000Y-92660000D01*
X112530000Y-94740000D02*
X112530000Y-95199000D01*
X112570000Y-92147000D02*
X112570000Y-92660000D01*
X112570000Y-94740000D02*
X112570000Y-95253000D01*
X112610000Y-92096000D02*
X112610000Y-92660000D01*
X112610000Y-94740000D02*
X112610000Y-95304000D01*
X112650000Y-92048000D02*
X112650000Y-92660000D01*
X112650000Y-94740000D02*
X112650000Y-95352000D01*
X112690000Y-92001000D02*
X112690000Y-92660000D01*
X112690000Y-94740000D02*
X112690000Y-95399000D01*
X112730000Y-91957000D02*
X112730000Y-92660000D01*
X112730000Y-94740000D02*
X112730000Y-95443000D01*
X112770000Y-91915000D02*
X112770000Y-92660000D01*
X112770000Y-94740000D02*
X112770000Y-95485000D01*
X112810000Y-91875000D02*
X112810000Y-92660000D01*
X112810000Y-94740000D02*
X112810000Y-95525000D01*
X112850000Y-91836000D02*
X112850000Y-92660000D01*
X112850000Y-94740000D02*
X112850000Y-95564000D01*
X112890000Y-91799000D02*
X112890000Y-92660000D01*
X112890000Y-94740000D02*
X112890000Y-95601000D01*
X112930000Y-91764000D02*
X112930000Y-92660000D01*
X112930000Y-94740000D02*
X112930000Y-95636000D01*
X112970000Y-91730000D02*
X112970000Y-92660000D01*
X112970000Y-94740000D02*
X112970000Y-95670000D01*
X113010000Y-91697000D02*
X113010000Y-92660000D01*
X113010000Y-94740000D02*
X113010000Y-95703000D01*
X113050000Y-91665000D02*
X113050000Y-92660000D01*
X113050000Y-94740000D02*
X113050000Y-95735000D01*
X113090000Y-91635000D02*
X113090000Y-92660000D01*
X113090000Y-94740000D02*
X113090000Y-95765000D01*
X113130000Y-91606000D02*
X113130000Y-92660000D01*
X113130000Y-94740000D02*
X113130000Y-95794000D01*
X113170000Y-91578000D02*
X113170000Y-92660000D01*
X113170000Y-94740000D02*
X113170000Y-95822000D01*
X113210000Y-91551000D02*
X113210000Y-92660000D01*
X113210000Y-94740000D02*
X113210000Y-95849000D01*
X113250000Y-91525000D02*
X113250000Y-92660000D01*
X113250000Y-94740000D02*
X113250000Y-95875000D01*
X113290000Y-91501000D02*
X113290000Y-92660000D01*
X113290000Y-94740000D02*
X113290000Y-95899000D01*
X113330000Y-91477000D02*
X113330000Y-92660000D01*
X113330000Y-94740000D02*
X113330000Y-95923000D01*
X113370000Y-91454000D02*
X113370000Y-92660000D01*
X113370000Y-94740000D02*
X113370000Y-95946000D01*
X113410000Y-91432000D02*
X113410000Y-92660000D01*
X113410000Y-94740000D02*
X113410000Y-95968000D01*
X113450000Y-91411000D02*
X113450000Y-92660000D01*
X113450000Y-94740000D02*
X113450000Y-95989000D01*
X113490000Y-91391000D02*
X113490000Y-92660000D01*
X113490000Y-94740000D02*
X113490000Y-96009000D01*
X113530000Y-91371000D02*
X113530000Y-92660000D01*
X113530000Y-94740000D02*
X113530000Y-96029000D01*
X113570000Y-91353000D02*
X113570000Y-92660000D01*
X113570000Y-94740000D02*
X113570000Y-96047000D01*
X113610000Y-91335000D02*
X113610000Y-92660000D01*
X113610000Y-94740000D02*
X113610000Y-96065000D01*
X113650000Y-91318000D02*
X113650000Y-92660000D01*
X113650000Y-94740000D02*
X113650000Y-96082000D01*
X113690000Y-91302000D02*
X113690000Y-92660000D01*
X113690000Y-94740000D02*
X113690000Y-96098000D01*
X113730000Y-91287000D02*
X113730000Y-92660000D01*
X113730000Y-94740000D02*
X113730000Y-96113000D01*
X113770000Y-91272000D02*
X113770000Y-92660000D01*
X113770000Y-94740000D02*
X113770000Y-96128000D01*
X113810000Y-91258000D02*
X113810000Y-92660000D01*
X113810000Y-94740000D02*
X113810000Y-96142000D01*
X113850000Y-91245000D02*
X113850000Y-92660000D01*
X113850000Y-94740000D02*
X113850000Y-96155000D01*
X113890000Y-91233000D02*
X113890000Y-92660000D01*
X113890000Y-94740000D02*
X113890000Y-96167000D01*
X113930000Y-91221000D02*
X113930000Y-92660000D01*
X113930000Y-94740000D02*
X113930000Y-96179000D01*
X113970000Y-91210000D02*
X113970000Y-92660000D01*
X113970000Y-94740000D02*
X113970000Y-96190000D01*
X114010000Y-91199000D02*
X114010000Y-92660000D01*
X114010000Y-94740000D02*
X114010000Y-96201000D01*
X114050000Y-91190000D02*
X114050000Y-92660000D01*
X114050000Y-94740000D02*
X114050000Y-96210000D01*
X114090000Y-91181000D02*
X114090000Y-92660000D01*
X114090000Y-94740000D02*
X114090000Y-96219000D01*
X114130000Y-91172000D02*
X114130000Y-92660000D01*
X114130000Y-94740000D02*
X114130000Y-96228000D01*
X114170000Y-91164000D02*
X114170000Y-92660000D01*
X114170000Y-94740000D02*
X114170000Y-96236000D01*
X114210000Y-91157000D02*
X114210000Y-92660000D01*
X114210000Y-94740000D02*
X114210000Y-96243000D01*
X114250000Y-91151000D02*
X114250000Y-92660000D01*
X114250000Y-94740000D02*
X114250000Y-96249000D01*
X114290000Y-91145000D02*
X114290000Y-92660000D01*
X114290000Y-94740000D02*
X114290000Y-96255000D01*
X114330000Y-91140000D02*
X114330000Y-92660000D01*
X114330000Y-94740000D02*
X114330000Y-96260000D01*
X114370000Y-91135000D02*
X114370000Y-92660000D01*
X114370000Y-94740000D02*
X114370000Y-96265000D01*
X114410000Y-91131000D02*
X114410000Y-92660000D01*
X114410000Y-94740000D02*
X114410000Y-96269000D01*
X114450000Y-91128000D02*
X114450000Y-96272000D01*
X114490000Y-91125000D02*
X114490000Y-96275000D01*
X114530000Y-91123000D02*
X114530000Y-96277000D01*
X114570000Y-91121000D02*
X114570000Y-96279000D01*
X114610000Y-91120000D02*
X114610000Y-96280000D01*
X114650000Y-91120000D02*
X114650000Y-96280000D01*
X117204775Y-91975000D02*
X117204775Y-92475000D01*
X117454775Y-92225000D02*
X116954775Y-92225000D01*
X117270000Y-93700000D02*
G75*
G02*
X112030000Y-93700000I-2620000J0D01*
G01*
X112030000Y-93700000D02*
G75*
G02*
X117270000Y-93700000I2620000J0D01*
G01*
%TD*%
M02*
