<svg width="60" height="74" viewBox="0 0 60 74" fill="none" xmlns="http://www.w3.org/2000/svg">
<path d="M9.98361 7.42846C10.1998 7.42737 10.1998 7.42737 10.4203 7.42627C10.58 7.4266 10.7397 7.42695 10.8993 7.42732C11.0692 7.4269 11.239 7.42638 11.4088 7.42578C11.8756 7.42441 12.3424 7.42444 12.8093 7.4247C13.3127 7.42475 13.8161 7.42351 14.3195 7.42245C15.3059 7.42058 16.2923 7.41997 17.2787 7.41984C18.0805 7.41974 18.8822 7.41928 19.684 7.41856C21.957 7.41659 24.23 7.41556 26.503 7.41572C26.6256 7.41573 26.7481 7.41574 26.8744 7.41575C26.9971 7.41576 27.1198 7.41577 27.2463 7.41578C29.2348 7.41587 31.2234 7.41373 33.212 7.41056C35.2536 7.40734 37.2952 7.4058 39.3368 7.40599C40.4831 7.40606 41.6294 7.40545 42.7757 7.40304C43.7518 7.40099 44.7278 7.40051 45.7039 7.40203C46.2018 7.40276 46.6997 7.40277 47.1976 7.40083C47.6537 7.39907 48.1098 7.39939 48.5659 7.40134C48.7306 7.40168 48.8953 7.40128 49.06 7.40003C50.0513 7.393 50.9855 7.3983 51.7403 8.10512C52.2173 8.62038 52.4666 9.04323 52.4684 9.75126C52.4693 9.87648 52.4702 10.0017 52.4711 10.1307C52.4709 10.2683 52.4707 10.4059 52.4705 10.5476C52.4712 10.6938 52.4718 10.8399 52.4725 10.9905C52.4744 11.3965 52.4748 11.8025 52.4749 12.2085C52.4754 12.6463 52.4771 13.0841 52.4786 13.5218C52.4817 14.4793 52.4831 15.4367 52.4841 16.3942C52.4847 16.992 52.4857 17.5899 52.4867 18.1878C52.4895 19.8432 52.4918 21.4985 52.4926 23.1539C52.4927 23.3129 52.4927 23.3129 52.4928 23.475C52.4928 23.5812 52.4929 23.6874 52.4929 23.7968C52.493 24.0121 52.4931 24.2273 52.4932 24.4425C52.4933 24.6026 52.4933 24.6026 52.4934 24.766C52.4943 26.4955 52.4982 28.2251 52.5035 29.9546C52.5089 31.7304 52.5118 33.5061 52.512 35.2819C52.5123 36.2789 52.5136 37.2759 52.5177 38.2729C52.5212 39.1219 52.5224 39.9709 52.5205 40.82C52.5196 41.2531 52.5198 41.6861 52.523 42.1192C52.5265 42.5891 52.5246 43.0588 52.5222 43.5288C52.5249 43.7333 52.525 43.7333 52.5278 43.9419C52.5174 44.8144 52.3441 45.3578 51.7551 46.0177C51.1753 46.5741 50.5707 46.7181 49.7744 46.7191C49.6295 46.7198 49.4845 46.7205 49.3352 46.7213C49.1752 46.721 49.0151 46.7206 48.8551 46.7202C48.6845 46.7207 48.5139 46.7212 48.3432 46.7218C47.8747 46.7231 47.4062 46.7231 46.9377 46.7229C46.4322 46.7228 45.9268 46.724 45.4214 46.7251C44.4314 46.727 43.4414 46.7276 42.4514 46.7277C41.6469 46.7278 40.8424 46.7283 40.0379 46.729C37.7576 46.731 35.4772 46.732 33.1969 46.7318C33.0739 46.7318 32.951 46.7318 32.8243 46.7318C32.7013 46.7318 32.5782 46.7318 32.4514 46.7318C30.4556 46.7317 28.4598 46.7338 26.464 46.737C24.4153 46.7402 22.3666 46.7418 20.3179 46.7416C19.1675 46.7415 18.0171 46.7421 16.8667 46.7445C15.8874 46.7466 14.9082 46.7471 13.929 46.7455C13.4293 46.7448 12.9296 46.7448 12.4299 46.7467C11.9725 46.7485 11.5152 46.7482 11.0578 46.7462C10.8923 46.7459 10.7267 46.7463 10.5612 46.7475C10.3363 46.7491 10.1114 46.7477 9.88647 46.7461C9.69902 46.7461 9.69902 46.7461 9.50779 46.7462C8.91115 46.6506 8.4835 46.2997 8.10509 45.8496C8.05047 45.786 7.99585 45.7224 7.93958 45.6569C7.62633 45.2334 7.53558 44.923 7.5351 44.3974C7.53444 44.2725 7.53378 44.1475 7.53309 44.0187C7.53352 43.8814 7.53395 43.7441 7.5344 43.6027C7.53396 43.4568 7.53352 43.311 7.53308 43.1607C7.5319 42.7556 7.53215 42.3504 7.53264 41.9452C7.53292 41.5084 7.5319 41.0715 7.53104 40.6347C7.52959 39.7786 7.52939 38.9226 7.52965 38.0666C7.52986 37.3708 7.52966 36.6751 7.52917 35.9793C7.5291 35.8804 7.52904 35.7814 7.52897 35.6795C7.52883 35.4785 7.52869 35.2774 7.52855 35.0764C7.52731 33.1903 7.52756 31.3041 7.52825 29.418C7.52884 27.6923 7.52756 25.9666 7.52539 24.2409C7.52319 22.4694 7.52225 20.698 7.52268 18.9265C7.52289 17.9318 7.52261 16.937 7.521 15.9423C7.51964 15.0954 7.51948 14.2484 7.52086 13.4015C7.52153 12.9693 7.52166 12.5372 7.52029 12.1051C7.51883 11.6366 7.52002 11.1682 7.52147 10.6997C7.52063 10.5631 7.51979 10.4266 7.51892 10.2859C7.52422 9.47337 7.57785 8.886 8.09352 8.22575C8.19086 8.1332 8.19086 8.1332 8.29016 8.03878C8.35447 7.97564 8.41878 7.91249 8.48503 7.84743C8.9561 7.48883 9.399 7.4292 9.98361 7.42846ZM9.95587 9.92337C9.95587 21.2796 9.95587 32.6359 9.95587 44.3363C23.1483 44.3363 36.3407 44.3363 49.9328 44.3363C49.9328 32.98 49.9328 21.6238 49.9328 9.92337C36.7404 9.92337 23.548 9.92337 9.95587 9.92337Z" fill="#010101"/>
<path d="M50.6659 0.000951697C53.1332 -0.0143569 55.2519 0.64845 57.1083 2.30076C57.2028 2.38209 57.2971 2.46403 57.3945 2.54783C58.919 3.94012 59.8563 5.86849 59.9687 7.91697C59.9904 8.59187 59.9867 9.26719 59.9853 9.94236C59.9856 10.1715 59.9867 10.4007 59.9872 10.6299C59.9884 11.2571 59.9877 11.8844 59.9872 12.5117C59.9869 13.1893 59.9883 13.8673 59.9892 14.5449C59.9906 15.8713 59.9904 17.198 59.9902 18.5244C59.9899 19.6022 59.9906 20.68 59.9911 21.7578V22.9238C59.9921 25.0949 59.9926 27.2664 59.9921 29.4375V31.6777C59.9915 34.2688 59.992 36.8601 59.9941 39.4511C59.9964 42.3639 59.9974 45.2767 59.997 48.1894V49.3535C59.9969 50.5071 59.9977 51.6608 59.9989 52.8144C60.0003 54.1265 60.0003 55.4389 59.9989 56.751C59.9983 57.4204 59.9986 58.0903 59.9999 58.7597C60.0012 59.3724 60.0005 59.985 59.9989 60.5976C59.9986 60.8192 59.999 61.0411 59.9999 61.2627C60.0057 62.7769 59.9758 64.0885 58.9306 65.2978C58.0026 66.148 57.0161 66.4411 55.7626 66.4258C55.684 66.4253 55.6053 66.4243 55.5243 66.4238C55.3312 66.4225 55.1374 66.4211 54.9443 66.4189C54.9472 66.5443 54.95 66.6697 54.953 66.7988C54.9635 67.2701 54.9701 67.7415 54.9755 68.2129C54.9783 68.4157 54.9823 68.6185 54.9872 68.8213C55.0219 70.2756 54.9472 71.4375 54.0048 72.6328C53.266 73.3914 52.3336 73.7769 51.2734 73.8379C50.812 73.8466 50.351 73.8484 49.8896 73.8476C49.7103 73.8481 49.5308 73.8489 49.3515 73.8496C48.8603 73.8512 48.3691 73.8516 47.8779 73.8515C47.3474 73.8517 46.8165 73.8532 46.2861 73.8545C45.1269 73.857 43.9677 73.8578 42.8085 73.8584C42.0846 73.8587 41.3606 73.8595 40.6366 73.8603C38.631 73.8625 36.6247 73.8639 34.6191 73.8642H33.4501C33.3212 73.8643 33.1923 73.8652 33.0595 73.8652C32.8657 73.8652 32.8654 73.8652 32.6679 73.8652C30.5736 73.8656 28.479 73.8679 26.3847 73.872C24.2334 73.8763 22.0819 73.8788 19.9306 73.8789C18.7231 73.8789 17.515 73.8795 16.3075 73.8828C15.2796 73.8855 14.2515 73.8864 13.2236 73.8847C12.6994 73.8839 12.1754 73.8841 11.6513 73.8867C11.1707 73.889 10.6895 73.889 10.2089 73.8867C10.0358 73.8863 9.86248 73.887 9.68937 73.8886C8.28507 73.9008 7.0912 73.6608 6.04777 72.6767C5.2552 71.8315 5.02221 71.0865 5.03605 69.9433C5.03638 69.8425 5.0367 69.7416 5.03703 69.6377C5.0383 69.3168 5.04194 68.9957 5.04484 68.6748C5.04599 68.4564 5.04684 68.2379 5.04777 68.0195C5.05028 67.486 5.05382 66.9524 5.05851 66.4189C4.92671 66.4209 4.7949 66.4228 4.6591 66.4248C4.48397 66.4264 4.30884 66.4282 4.13371 66.4297C4.04718 66.4311 3.96016 66.4321 3.87101 66.4336C2.70801 66.441 1.89554 66.0956 1.05754 65.2988C0.284814 64.4827 -0.0061566 63.6141 0.00382706 62.5254C0.00333044 62.4304 0.00336216 62.3351 0.00285049 62.2373C0.00160584 61.9196 0.00265081 61.6018 0.00382706 61.2842C0.00343347 61.054 0.00255211 60.8239 0.00187393 60.5937C0.000447037 59.9613 0.00179275 59.3287 0.00285049 58.6963C0.00362287 58.0141 0.00183728 57.3316 0.00089737 56.6494C-0.000535152 55.39 -3.74921e-05 54.1304 0.00089737 52.8711C0.00175723 51.7071 0.00228206 50.5429 0.00187393 49.3789C0.00184784 49.3017 0.00190081 49.2241 0.00187393 49.1445C0.00176759 48.8311 0.00101008 48.5175 0.00089737 48.2041C-0.000147811 45.2624 0.00101138 42.3205 0.00285049 39.3789C0.00447057 36.7676 0.00448543 34.1562 0.00285049 31.5449C0.00101896 28.6097 -0.000157287 25.6744 0.00089737 22.7392C0.00100692 22.4261 0.0017682 22.1129 0.00187393 21.7998C0.00190092 21.7228 0.00184613 21.6457 0.00187393 21.5664C0.00226185 20.404 0.00176165 19.2414 0.00089737 18.0791C-8.15687e-05 16.7561 5.71145e-05 15.4323 0.00187393 14.1094C0.00276951 13.4349 0.00300623 12.7604 0.00187393 12.0859C0.000851291 11.4675 0.00104024 10.8488 0.00285049 10.2304C0.00322994 10.0075 0.00368305 9.78443 0.00285049 9.5615C-0.00262747 7.97139 0.0241332 6.37233 0.823163 4.94236C0.863354 4.86729 0.903827 4.79216 0.945233 4.71482C1.24408 4.16814 1.56873 3.66653 1.98332 3.19724C2.05917 3.1067 2.13564 3.01611 2.21379 2.92283C3.02285 1.98999 3.93102 1.38389 5.02336 0.815405C5.0913 0.778569 5.15941 0.742026 5.22941 0.704077C6.56735 0.0377588 8.09954 0.0094439 9.56535 0.0156001C9.74953 0.0151314 9.93391 0.0143924 10.1181 0.013647C10.6195 0.0120392 11.1215 0.0128162 11.623 0.013647C12.1656 0.0141794 12.7083 0.0128389 13.2509 0.0116939C14.3121 0.00977255 15.3733 0.00915235 16.4345 0.00974076H19.3974C19.6474 0.00956919 19.8974 0.00893727 20.1474 0.0087642C22.4901 0.00722757 24.833 0.00845358 27.1757 0.00974076C29.3159 0.0108539 31.4564 0.00851607 33.5966 0.00583451C35.7979 0.00309727 37.9998 0.00215999 40.2011 0.00290482C41.4354 0.00329539 42.6699 0.00291907 43.9042 0.000951697C44.9549 -0.000702069 46.0059 -2.00402e-05 47.0566 0.00192826C47.5917 0.00287849 48.1269 0.00267355 48.662 0.000951697C49.1534 -0.000610561 49.6453 -0.00022494 50.1366 0.00192826C50.3131 0.0023463 50.4895 0.00213122 50.6659 0.000951697ZM7.56437 66.4189C7.56433 67.9125 6.88808 69.8184 7.91887 71.0879C8.36792 71.4351 8.36865 71.4344 9.82805 71.4219C10.0015 71.4203 10.1751 71.4205 10.3486 71.4209C10.8281 71.4232 11.3075 71.4232 11.787 71.4209C12.3108 71.4183 12.8345 71.4181 13.3583 71.4189C14.3849 71.4206 15.4119 71.4197 16.4384 71.417C17.6441 71.4137 18.8499 71.4131 20.0556 71.4131C22.202 71.413 24.3486 71.4105 26.495 71.4062C28.5868 71.402 30.6786 71.3988 32.7704 71.3984H34.7196C36.72 71.3981 38.7203 71.3967 40.7206 71.3945C41.4435 71.3937 42.1667 71.3929 42.8896 71.3926C44.0478 71.392 45.206 71.3902 46.3642 71.3877C46.8934 71.3864 47.4228 71.3849 47.9521 71.3847C48.4434 71.3848 48.9353 71.3854 49.4267 71.3838C49.605 71.3831 49.7835 71.3823 49.9618 71.3818C50.2089 71.3822 50.456 71.383 50.703 71.3818C50.7784 71.3814 50.8516 71.3803 50.9247 71.3799C51.4056 71.3791 51.5781 71.3928 51.9833 71.1269C52.4388 70.5666 52.4384 70.566 52.4384 66.4189H7.56437ZM12.7958 2.4531C12.2597 2.45435 11.7236 2.45422 11.1874 2.45212C10.6956 2.45023 10.2036 2.45132 9.71183 2.45408C9.5349 2.45462 9.35751 2.45357 9.18058 2.45212C7.58842 2.4401 6.21406 2.76832 4.94426 3.75779C4.85782 3.82336 4.77159 3.88945 4.68254 3.95701C3.56867 4.85985 2.7832 6.15914 2.55266 7.56931C2.54177 7.88206 2.53654 8.19214 2.53703 8.50486C2.53673 8.59914 2.53636 8.69385 2.53605 8.79099C2.53518 9.10832 2.53515 9.42581 2.53508 9.74314C2.53462 9.97231 2.53465 10.2015 2.5341 10.4306C2.53274 11.062 2.53169 11.6938 2.53117 12.3252C2.53049 13.0055 2.52946 13.6858 2.52824 14.3662C2.52558 15.9319 2.52378 17.4978 2.52238 19.0635C2.5219 19.605 2.52097 20.1469 2.52043 20.6885C2.51755 23.5682 2.51501 26.4483 2.51359 29.3281C2.51326 29.9951 2.51296 30.6621 2.51262 31.3291C2.51257 31.4119 2.51266 31.4947 2.51262 31.5801C2.51123 34.2682 2.5076 36.9564 2.50285 39.6445C2.49798 42.4078 2.49563 45.1713 2.49504 47.9345C2.49495 48.3246 2.49418 48.7154 2.49406 49.1054C2.49404 49.1821 2.49408 49.2589 2.49406 49.3379C2.49366 50.5742 2.49121 51.8105 2.4882 53.0469C2.48523 54.2889 2.48505 55.5314 2.48625 56.7734C2.48684 57.4466 2.48613 58.1207 2.48332 58.7939C2.48077 59.4095 2.48115 60.025 2.48332 60.6406C2.48364 60.8638 2.48307 61.0874 2.48137 61.3105C2.4792 61.6132 2.48013 61.916 2.48234 62.2187C2.48088 62.3059 2.47994 62.3935 2.47844 62.4834C2.48903 63.1355 2.66598 63.4012 3.12199 63.8408C3.46838 64.0113 3.82889 63.9684 4.20891 63.9677C4.34404 63.9682 4.34448 63.9683 4.48234 63.9687C4.78734 63.9696 5.09238 63.9696 5.39738 63.9697C5.61702 63.9702 5.83692 63.9711 6.05656 63.9717C6.66259 63.973 7.26889 63.9731 7.87492 63.9736C8.52754 63.9743 9.18031 63.9763 9.83293 63.9775C11.4103 63.9803 12.9879 63.9819 14.5654 63.9834C15.0105 63.9838 15.4561 63.9839 15.9013 63.9844C18.6637 63.9872 21.426 63.9898 24.1884 63.9912C24.8286 63.9915 25.4691 63.9918 26.1093 63.9922C26.1888 63.9922 26.2686 63.9921 26.3505 63.9922C28.9303 63.9935 31.51 63.9973 34.0898 64.0019C36.816 64.0069 39.5423 64.0091 42.2685 64.0097C43.755 64.0101 45.2419 64.0119 46.7284 64.0156C47.994 64.0187 49.2597 64.0198 50.5253 64.0185C51.1714 64.0179 51.8177 64.0187 52.4638 64.0215C53.0548 64.024 53.6462 64.0236 54.2372 64.0215C54.4514 64.0211 54.6657 64.0217 54.8798 64.0234C55.1702 64.0255 55.4605 64.0246 55.7509 64.0224C55.8349 64.0239 55.9193 64.0249 56.0058 64.0263C56.4514 64.0189 56.6335 63.9688 56.9794 63.6826C57.0595 63.5869 57.1401 63.4911 57.2226 63.3926C57.2977 63.3186 57.3727 63.2442 57.4501 63.1679C57.4727 62.8666 57.4811 62.5768 57.4794 62.2754C57.4798 62.1816 57.48 62.0878 57.4804 61.9912C57.4813 61.6735 57.4801 61.3557 57.4794 61.0381C57.4798 60.8093 57.4808 60.5803 57.4814 60.3515C57.4825 59.7204 57.4819 59.0892 57.4814 58.458C57.4811 57.7783 57.4825 57.0986 57.4833 56.4189C57.4848 55.086 57.4846 53.7528 57.4843 52.4199C57.4841 51.3366 57.4848 50.2532 57.4853 49.1699V48C57.4862 45.8201 57.4867 43.6398 57.4862 41.4599V39.207C57.4856 36.6033 57.4861 33.9992 57.4882 31.3955C57.4906 28.4717 57.4916 25.5478 57.4911 22.624V21.4551C57.491 20.2959 57.4919 19.1366 57.4931 17.9775C57.4945 16.6588 57.4945 15.3401 57.4931 14.0215C57.4924 13.3484 57.4927 12.675 57.4941 12.0019C57.4953 11.3857 57.4947 10.7695 57.4931 10.1533C57.4928 9.93045 57.4932 9.70719 57.4941 9.48435C57.5183 7.93331 57.5182 7.933 57.1083 6.44822C57.0543 6.32127 56.9999 6.19425 56.9443 6.06345C56.1859 4.62859 55.0179 3.4274 53.4589 2.84373C52.4081 2.52815 51.4278 2.46148 50.3349 2.46775C50.1506 2.46715 49.9664 2.46579 49.7821 2.46482C49.2798 2.46274 48.7767 2.46364 48.2743 2.46482C47.731 2.46561 47.1877 2.46432 46.6445 2.46287C45.5815 2.46045 44.5179 2.46 43.455 2.46091H40.4892C40.2389 2.46071 39.9885 2.46015 39.7382 2.45994C37.393 2.45808 35.0473 2.45902 32.7021 2.46091C30.5588 2.46256 28.4156 2.46121 26.2724 2.45798C24.0687 2.45469 21.8647 2.45301 19.6611 2.45408C19.4118 2.45419 19.1623 2.45397 18.913 2.45408C18.7904 2.45413 18.6673 2.455 18.5409 2.45505C17.6782 2.4553 16.8148 2.45376 15.9521 2.45212C14.9001 2.45016 13.8478 2.45055 12.7958 2.4531Z" fill="#020202"/>
<path d="M34.0188 51.6058C34.13 51.6052 34.13 51.6052 34.2435 51.6046C34.493 51.6034 34.7425 51.6029 34.9921 51.6025C35.1705 51.6018 35.349 51.601 35.5275 51.6003C36.0132 51.5983 36.4989 51.5971 36.9846 51.5962C37.288 51.5956 37.5914 51.5949 37.8948 51.5942C38.8438 51.5921 39.7928 51.5905 40.7419 51.5896C41.8378 51.5885 42.9336 51.5855 44.0295 51.581C44.8762 51.5776 45.7229 51.576 46.5697 51.5756C47.0755 51.5753 47.5814 51.5743 48.0872 51.5715C48.5632 51.5689 49.0392 51.5684 49.5152 51.5696C49.6898 51.5696 49.8644 51.5689 50.0389 51.5674C50.2776 51.5654 50.5162 51.5662 50.7549 51.5677C50.8883 51.5674 51.0218 51.5671 51.1593 51.5669C51.611 51.6349 51.8559 51.7919 52.2107 52.0707C52.4352 52.4022 52.4819 52.5107 52.5026 52.8904C52.5098 52.9732 52.5169 53.056 52.5244 53.1413C52.4067 53.5176 52.2308 53.6943 51.9238 53.9426C51.3041 54.2623 50.5622 54.1802 49.8783 54.1737C49.6986 54.1744 49.519 54.1754 49.3393 54.1767C48.8529 54.1793 48.3665 54.1776 47.8801 54.1751C47.3705 54.1729 46.8608 54.1742 46.3511 54.1749C45.4955 54.1756 44.6399 54.1736 43.7842 54.1699C42.7956 54.1657 41.807 54.1659 40.8183 54.1685C39.8663 54.1708 38.9143 54.17 37.9623 54.1678C37.5575 54.1669 37.1528 54.1671 36.7481 54.1682C36.2713 54.1694 35.7947 54.1678 35.318 54.1641C35.1433 54.1632 34.9685 54.1632 34.7938 54.1643C33.3092 54.1723 33.3092 54.1723 32.8604 53.8175C32.5285 53.4163 32.4622 53.1666 32.466 52.643C32.5384 52.2259 32.7735 52.0255 33.0764 51.7344C33.3961 51.5771 33.6611 51.6071 34.0188 51.6058Z" fill="#010101"/>
<path d="M15.8565 20.2271C15.8908 20.1924 15.8908 20.1924 15.9259 20.157C16.0032 20.0792 16.081 20.002 16.1589 19.9248C16.2143 19.8693 16.2696 19.8138 16.325 19.7582C16.4757 19.6072 16.627 19.4566 16.7784 19.3063C16.8731 19.2124 16.9676 19.1184 17.0621 19.0244C17.3578 18.7304 17.6539 18.4368 17.9504 18.1436C18.2929 17.8051 18.634 17.4653 18.974 17.1243C19.2368 16.861 19.5008 16.5989 19.7657 16.3376C19.9239 16.1815 20.0816 16.0249 20.238 15.867C20.3853 15.7185 20.534 15.5715 20.6839 15.4255C20.7386 15.3718 20.7928 15.3175 20.8463 15.2626C20.9197 15.1876 20.995 15.1147 21.0708 15.0421C21.1124 15.0008 21.154 14.9595 21.1968 14.9169C21.3864 14.825 21.574 14.8587 21.8821 14.9432C22.1866 15.1045 22.2779 15.1656 22.5527 15.4233C22.6134 15.4786 22.6742 15.534 22.7368 15.591C22.9658 15.889 23.0355 16.066 23.1149 16.3334C23.1467 16.7466 22.8563 16.9182 22.6375 17.1245C22.5817 17.1804 22.5262 17.2364 22.4708 17.2927C22.3203 17.4444 22.1669 17.5932 22.0127 17.7413C21.8516 17.8969 21.6929 18.0549 21.5338 18.2125C21.2663 18.4767 20.9969 18.739 20.7264 19.0002C20.4138 19.302 20.1043 19.6069 19.7965 19.9134C19.5 20.2084 19.2013 20.5013 18.9016 20.7932C18.7742 20.9173 18.6476 21.0422 18.5216 21.1677C18.3732 21.3155 18.2228 21.4613 18.0709 21.6056C18.0155 21.6589 17.9608 21.7127 17.9068 21.7673C17.4475 22.2305 17.4475 22.2305 17.0563 22.1221C16.6689 21.9454 16.4717 21.7922 16.103 21.4269C15.8309 21.1146 15.763 20.9028 15.6522 20.607C15.6411 20.3991 15.7453 20.3383 15.8565 20.2271Z" fill="#010101"/>
<path d="M17.6196 15.0254C17.6548 15.0592 17.6548 15.0592 17.6908 15.0938C17.7698 15.1698 17.8483 15.2464 17.9267 15.323C17.9831 15.3776 18.0395 15.432 18.096 15.4865C18.2495 15.6349 18.4024 15.7837 18.5552 15.9328C18.6506 16.0259 18.7461 16.119 18.8416 16.212C19.1403 16.503 19.4387 16.7944 19.7366 17.0863C20.0805 17.4233 20.4258 17.759 20.7722 18.0936C21.0398 18.3523 21.3061 18.6121 21.5715 18.8728C21.7301 19.0285 21.8893 19.1838 22.0497 19.3377C22.2006 19.4826 22.35 19.629 22.4983 19.7765C22.5529 19.8304 22.6081 19.8837 22.6638 19.9364C22.74 20.0086 22.8141 20.0827 22.8878 20.1573C22.9298 20.1982 22.9718 20.2392 23.0151 20.2814C23.1084 20.4679 23.0742 20.6526 22.9883 20.9558C22.8245 21.2555 22.7624 21.3454 22.5006 21.6158C22.4443 21.6755 22.3881 21.7353 22.3301 21.7969C22.0274 22.0224 21.8475 22.091 21.5759 22.1691C21.156 22.2004 20.9816 21.9146 20.772 21.6992C20.7153 21.6444 20.6583 21.5897 20.6011 21.5352C20.447 21.3871 20.2958 21.2361 20.1453 21.0843C19.9872 20.9258 19.8267 20.7696 19.6665 20.613C19.3981 20.3498 19.1316 20.0846 18.8662 19.8183C18.5595 19.5107 18.2498 19.2061 17.9384 18.9032C17.6386 18.6114 17.341 18.3174 17.0444 18.0224C16.9183 17.897 16.7914 17.7724 16.6639 17.6484C16.5137 17.5023 16.3656 17.3543 16.2189 17.2048C16.1648 17.1503 16.1101 17.0965 16.0546 17.0433C15.5841 16.5913 15.5841 16.5913 15.6941 16.2063C15.8737 15.825 16.0294 15.6309 16.4005 15.268C16.7179 15.0002 16.933 14.9334 17.2336 14.8243C17.4449 14.8135 17.5066 14.916 17.6196 15.0254Z" fill="#010101"/>
<path d="M37.7242 20.2506C37.7586 20.2159 37.7586 20.2159 37.7937 20.1805C37.8709 20.1027 37.9488 20.0255 38.0266 19.9483C38.082 19.8928 38.1374 19.8373 38.1927 19.7817C38.3434 19.6306 38.4947 19.4801 38.6462 19.3298C38.7408 19.2358 38.8353 19.1419 38.9298 19.0479C39.2255 18.7539 39.5216 18.4602 39.8182 18.1671C40.1606 17.8285 40.5017 17.4887 40.8417 17.1478C41.1045 16.8845 41.3685 16.6223 41.6334 16.3611C41.7916 16.205 41.9493 16.0484 42.1058 15.8905C42.253 15.742 42.4017 15.5949 42.5516 15.449C42.6063 15.3952 42.6605 15.3409 42.7141 15.2861C42.7874 15.2111 42.8627 15.1381 42.9385 15.0656C42.9801 15.0243 43.0217 14.983 43.0646 14.9404C43.2541 14.8485 43.4417 14.8821 43.7498 14.9667C44.0543 15.128 44.1457 15.1891 44.4204 15.4467C44.4812 15.5021 44.5419 15.5574 44.6045 15.6145C44.8335 15.9124 44.9033 16.0895 44.9826 16.3568C45.0144 16.7701 44.724 16.9417 44.5052 17.1479C44.4495 17.2038 44.3939 17.2599 44.3386 17.3162C44.1881 17.4679 44.0346 17.6167 43.8805 17.7648C43.7193 17.9204 43.5606 18.0784 43.4015 18.236C43.1341 18.5002 42.8647 18.7625 42.5941 19.0237C42.2815 19.3255 41.9721 19.6303 41.6642 19.9368C41.3678 20.2319 41.069 20.5248 40.7693 20.8166C40.6419 20.9408 40.5153 21.0657 40.3894 21.1912C40.2409 21.339 40.0905 21.4848 39.9386 21.6291C39.8832 21.6823 39.8285 21.7362 39.7745 21.7908C39.3153 22.2539 39.3153 22.2539 38.9241 22.1456C38.5366 21.9689 38.3394 21.8157 37.9707 21.4504C37.6986 21.138 37.6307 20.9263 37.5199 20.6305C37.5089 20.4225 37.6131 20.3617 37.7242 20.2506Z" fill="#010101"/>
<path d="M39.4873 15.0488C39.5226 15.0826 39.5226 15.0826 39.5586 15.1172C39.6376 15.1932 39.716 15.2698 39.7945 15.3464C39.8509 15.401 39.9073 15.4555 39.9637 15.5099C40.1172 15.6583 40.2702 15.8071 40.4229 15.9562C40.5183 16.0493 40.6138 16.1424 40.7094 16.2354C41.0081 16.5264 41.3064 16.8178 41.6043 17.1097C41.9483 17.4467 42.2935 17.7824 42.6399 18.117C42.9075 18.3757 43.1738 18.6355 43.4393 18.8962C43.5979 19.052 43.757 19.2072 43.9174 19.3611C44.0683 19.506 44.2177 19.6524 44.366 19.7999C44.4206 19.8538 44.4758 19.9071 44.5316 19.9598C44.6077 20.032 44.6819 20.1061 44.7556 20.1807C44.7976 20.2216 44.8395 20.2626 44.8828 20.3048C44.9761 20.4913 44.942 20.676 44.8561 20.9792C44.6922 21.2789 44.6301 21.3688 44.3683 21.6392C44.3121 21.699 44.2558 21.7587 44.1979 21.8204C43.8951 22.0458 43.7152 22.1144 43.4436 22.1925C43.0237 22.2238 42.8493 21.938 42.6398 21.7227C42.583 21.6678 42.526 21.6131 42.4688 21.5586C42.3147 21.4105 42.1635 21.2595 42.013 21.1078C41.8549 20.9492 41.6944 20.793 41.5343 20.6364C41.2658 20.3732 40.9993 20.108 40.7339 19.8417C40.4273 19.5341 40.1175 19.2295 39.8061 18.9266C39.5063 18.6348 39.2087 18.3408 38.9122 18.0458C38.786 17.9204 38.6591 17.7958 38.5316 17.6718C38.3815 17.5257 38.2333 17.3777 38.0867 17.2282C38.0326 17.1737 37.9778 17.1199 37.9224 17.0667C37.4518 16.6147 37.4518 16.6147 37.5619 16.2297C37.7414 15.8484 37.8971 15.6543 38.2682 15.2914C38.5856 15.0236 38.8008 14.9568 39.1013 14.8477C39.3126 14.8369 39.3744 14.9394 39.4873 15.0488Z" fill="#010101"/>
<path d="M31.1617 17.2725C31.2455 17.2657 31.3293 17.2589 31.4157 17.2519C31.8896 17.3641 32.2081 17.6178 32.507 17.9941C32.6211 18.3818 32.6128 18.754 32.6048 19.1554C32.6056 19.2709 32.6065 19.3864 32.6074 19.5053C32.6091 19.8863 32.6051 20.267 32.6009 20.648C32.6006 20.9135 32.6005 21.1791 32.6008 21.4446C32.6004 22.001 32.5973 22.5574 32.5922 23.1138C32.5858 23.8255 32.5848 24.537 32.5858 25.2486C32.5861 25.7971 32.5841 26.3455 32.5813 26.8939C32.5802 27.1562 32.5796 27.4185 32.5796 27.6808C32.5791 28.0483 32.5757 28.4158 32.5714 28.7833C32.572 28.9445 32.572 28.9445 32.5726 29.1089C32.5582 29.9294 32.3717 30.6217 31.8277 31.2593C31.7535 31.3184 31.6794 31.3775 31.603 31.4384C31.5292 31.4995 31.4553 31.5606 31.3792 31.6236C30.7639 32.0307 30.2083 32.0417 29.4888 32.0435C29.3848 32.0443 29.2808 32.045 29.1736 32.0458C28.9542 32.0469 28.7348 32.0474 28.5154 32.0474C28.1802 32.0479 27.8451 32.052 27.5099 32.0562C27.2964 32.0569 27.0828 32.0573 26.8693 32.0575C26.7694 32.0591 26.6695 32.0607 26.5665 32.0624C26.0944 32.0589 25.8514 32.046 25.4443 31.7911C25.096 31.4318 25.0055 31.2267 24.9402 30.7308C25.0063 30.1916 25.1738 30.0314 25.5595 29.6519C25.9269 29.4711 26.3279 29.5263 26.7314 29.5288C26.8712 29.5291 26.8712 29.5291 27.0138 29.5293C27.3121 29.5299 27.6103 29.5313 27.9086 29.5328C28.1105 29.5333 28.3125 29.5338 28.5145 29.5343C29.0101 29.5355 29.5058 29.5375 30.0014 29.5398C30.0004 29.3964 29.9993 29.253 29.9983 29.1052C29.9891 27.7544 29.9822 26.4036 29.9778 25.0527C29.9754 24.3582 29.9722 23.6637 29.967 22.9692C29.9621 22.2991 29.9593 21.629 29.9581 20.9589C29.9573 20.7031 29.9557 20.4473 29.9532 20.1916C29.9499 19.8335 29.9494 19.4756 29.9496 19.1176C29.948 19.0116 29.9464 18.9057 29.9447 18.7965C29.9477 18.3196 29.9574 18.0637 30.2182 17.6506C30.5372 17.3607 30.7363 17.2963 31.1617 17.2725Z" fill="#070707"/>
<path d="M22.4099 41.0406C21.7835 40.7043 21.7835 40.7043 21.6127 40.368C21.4903 39.575 21.6518 39.0492 22.0994 38.3884C22.3771 38.0181 22.6557 37.6745 22.9794 37.3415C23.0546 37.3415 23.1297 37.3415 23.2072 37.3415C23.2072 37.2675 23.2072 37.1935 23.2072 37.1173C23.4534 36.99 23.7002 36.8642 23.9475 36.739C24.0159 36.7034 24.0843 36.6679 24.1548 36.6313C24.2238 36.5966 24.2928 36.5619 24.3639 36.5262C24.426 36.4945 24.488 36.4628 24.5519 36.4301C25.2431 36.1604 25.9095 36.0748 26.6483 36.0741C26.737 36.0732 26.8257 36.0722 26.917 36.0713C27.2076 36.0686 27.4982 36.0676 27.7888 36.0669C27.993 36.0659 28.1973 36.0648 28.4016 36.0638C28.8291 36.0619 29.2567 36.0611 29.6842 36.0608C30.228 36.0602 30.7716 36.0559 31.3154 36.0508C31.7373 36.0474 32.1592 36.0467 32.5812 36.0465C32.7814 36.0461 32.9816 36.0447 33.1819 36.0423C34.8856 36.0238 36.3864 36.2326 37.6718 37.4536C38.5157 38.3246 38.5157 38.3246 38.51 38.9844C38.4084 39.6365 38.1504 40.4574 37.6718 40.9285C37.4084 40.9846 37.4084 40.9846 37.1023 40.9285C36.6678 40.5009 36.3616 40.0046 36.0457 39.4879C35.6755 39.0336 35.3141 38.8176 34.7253 38.7425C34.5573 38.7402 34.3892 38.7404 34.2211 38.7425C34.1288 38.7419 34.0365 38.7413 33.9414 38.7406C33.6377 38.7392 33.3342 38.7411 33.0306 38.7431C32.8187 38.7431 32.6068 38.7429 32.3949 38.7426C31.9515 38.7425 31.508 38.7439 31.0646 38.7464C30.497 38.7496 29.9295 38.7493 29.3619 38.7479C28.9245 38.7471 28.4872 38.748 28.0499 38.7494C27.8406 38.7499 27.6314 38.7499 27.4221 38.7495C27.1294 38.7491 26.8367 38.751 26.5439 38.7534C26.458 38.7529 26.3721 38.7524 26.2835 38.7519C25.7408 38.7594 25.3835 38.8698 24.9156 39.135C24.8029 39.172 24.6901 39.209 24.5739 39.2471C24.4516 39.448 24.4516 39.448 24.3461 39.6955C24.2367 39.8881 24.125 40.0796 24.0116 40.27C23.9542 40.3673 23.8968 40.4647 23.8376 40.5651C23.4714 41.0915 23.0136 41.1348 22.4099 41.0406Z" fill="black"/>
<path d="M15.3739 51.5142C15.7151 51.6475 15.9074 51.8249 16.1074 52.1269C16.3366 52.6962 16.3081 53.3098 16.3006 53.9139C16.2984 54.1515 16.3029 54.3884 16.308 54.6259C16.3161 55.8885 16.3161 55.8885 15.906 56.3216C15.4644 56.6002 15.2594 56.648 14.7529 56.6136C14.2844 56.4988 14.0588 56.1811 13.8168 55.7927C13.5934 55.2535 13.6575 54.6346 13.6504 54.0604C13.6447 53.9256 13.6391 53.7908 13.6333 53.6519C13.6238 52.8422 13.7037 52.3662 14.2826 51.7746C14.631 51.5431 14.9609 51.5188 15.3739 51.5142Z" fill="#030303"/>
<path d="M21.5732 51.6223C21.995 51.8495 22.2171 52.0125 22.4843 52.407C22.5283 52.8675 22.5218 53.3281 22.5203 53.7905C22.5199 54.0168 22.5226 54.243 22.5255 54.4694C22.5256 54.6127 22.5256 54.756 22.5257 54.9037C22.526 55.0348 22.5264 55.166 22.5267 55.301C22.4799 55.6954 22.3891 55.9061 22.1426 56.2182C21.9735 56.2737 21.9735 56.2737 21.801 56.3303C21.801 56.4043 21.801 56.4783 21.801 56.5545C20.8952 56.6244 20.8952 56.6244 20.4413 56.3583C19.8225 55.6939 19.9368 54.9621 19.9359 54.1024C19.9331 53.9604 19.9304 53.8184 19.9275 53.672C19.9233 52.3675 19.9233 52.3675 20.4342 51.8465C20.8618 51.566 21.066 51.5716 21.5732 51.6223Z" fill="#050606"/>
</svg>
