999
"DXF R12 Output" (www.mydxf.blogspot.com)
 0 
SECTION
 2 
HEADER
 9 
$ACADVER
 1 
AC1009
 9 
$EXTMIN
 10 
 0 
 20 
 0 
 9 
$EXTMAX
 10 
 8.5 
 20 
 11 
 0 
ENDSEC
 0 
SECTION
 2 
ENTITIES
0
POLYLINE
8
Layer 1
62
7
70
1
10
0.000000
20
0.000000
66
1
0
VERTEX
8
Layer 1
10
2.641493
20
17.613756
70
0
0
VERTEX
8
Layer 1
10
2.757034
20
17.614335
70
0
0
VERTEX
8
Layer 1
10
2.883769
20
17.614057
70
0
0
VERTEX
8
Layer 1
10
3.018575
20
17.614465
70
0
0
VERTEX
8
Layer 1
10
3.389123
20
17.614751
70
0
0
VERTEX
8
Layer 1
10
3.788696
20
17.615346
70
0
0
VERTEX
8
Layer 1
10
4.571650
20
17.616036
70
0
0
VERTEX
8
Layer 1
10
5.208052
20
17.616375
70
0
0
VERTEX
8
Layer 1
10
7.012243
20
17.617127
70
0
0
VERTEX
8
Layer 1
10
7.110509
20
17.617119
70
0
0
VERTEX
8
Layer 1
10
7.208908
20
17.617111
70
0
0
VERTEX
8
Layer 1
10
8.787331
20
17.618492
70
0
0
VERTEX
8
Layer 1
10
10.407849
20
17.619701
70
0
0
VERTEX
8
Layer 1
10
11.317723
20
17.620481
70
0
0
VERTEX
8
Layer 1
10
12.092475
20
17.620749
70
0
0
VERTEX
8
Layer 1
10
12.487683
20
17.621066
70
0
0
VERTEX
8
Layer 1
10
12.849712
20
17.620931
70
0
0
VERTEX
8
Layer 1
10
12.980442
20
17.621278
70
0
0
VERTEX
8
Layer 1
10
13.358488
20
17.598828
70
0
0
VERTEX
8
Layer 1
10
13.689604
20
17.434723
70
0
0
VERTEX
8
Layer 1
10
13.882247
20
16.999182
70
0
0
VERTEX
8
Layer 1
10
13.882961
20
16.898789
70
0
0
VERTEX
8
Layer 1
10
13.882802
20
16.788484
70
0
0
VERTEX
8
Layer 1
10
13.883331
20
16.671301
70
0
0
VERTEX
8
Layer 1
10
13.883966
20
16.349038
70
0
0
VERTEX
8
Layer 1
10
13.884945
20
16.001562
70
0
0
VERTEX
8
Layer 1
10
13.886401
20
15.241573
70
0
0
VERTEX
8
Layer 1
10
13.887089
20
14.767017
70
0
0
VERTEX
8
Layer 1
10
13.888650
20
13.453072
70
0
0
VERTEX
8
Layer 1
10
13.888703
20
13.368114
70
0
0
VERTEX
8
Layer 1
10
13.888729
20
13.282971
70
0
0
VERTEX
8
Layer 1
10
13.888808
20
13.112130
70
0
0
VERTEX
8
Layer 1
10
13.888861
20
13.026537
70
0
0
VERTEX
8
Layer 1
10
13.891534
20
11.653722
70
0
0
VERTEX
8
Layer 1
10
13.893782
20
10.244209
70
0
0
VERTEX
8
Layer 1
10
13.895291
20
9.452841
70
0
0
VERTEX
8
Layer 1
10
13.896031
20
8.778922
70
0
0
VERTEX
8
Layer 1
10
13.896693
20
8.435176
70
0
0
VERTEX
8
Layer 1
10
13.896481
20
8.062220
70
0
0
VERTEX
8
Layer 1
10
13.897963
20
7.952920
70
0
0
VERTEX
8
Layer 1
10
13.693520
20
7.403699
70
0
0
VERTEX
8
Layer 1
10
13.169460
20
7.218120
70
0
0
VERTEX
8
Layer 1
10
13.053255
20
7.217538
70
0
0
VERTEX
8
Layer 1
10
12.926229
20
7.217829
70
0
0
VERTEX
8
Layer 1
10
12.790789
20
7.217406
70
0
0
VERTEX
8
Layer 1
10
12.418917
20
7.217115
70
0
0
VERTEX
8
Layer 1
10
12.017730
20
7.216533
70
0
0
VERTEX
8
Layer 1
10
11.231919
20
7.215845
70
0
0
VERTEX
8
Layer 1
10
10.593348
20
7.215501
70
0
0
VERTEX
8
Layer 1
10
8.783335
20
7.214760
70
0
0
VERTEX
8
Layer 1
10
8.684752
20
7.214760
70
0
0
VERTEX
8
Layer 1
10
8.586089
20
7.214760
70
0
0
VERTEX
8
Layer 1
10
7.001925
20
7.213384
70
0
0
VERTEX
8
Layer 1
10
5.375771
20
7.212167
70
0
0
VERTEX
8
Layer 1
10
4.462642
20
7.211400
70
0
0
VERTEX
8
Layer 1
10
3.685377
20
7.211135
70
0
0
VERTEX
8
Layer 1
10
3.288740
20
7.210818
70
0
0
VERTEX
8
Layer 1
10
2.925706
20
7.210950
70
0
0
VERTEX
8
Layer 1
10
2.794314
20
7.210606
70
0
0
VERTEX
8
Layer 1
10
2.615792
20
7.210977
70
0
0
VERTEX
8
Layer 1
10
2.515600
20
7.210950
70
0
0
VERTEX
8
Layer 1
10
2.144469
20
7.448175
70
0
0
VERTEX
8
Layer 1
10
2.100678
20
7.499160
70
0
0
VERTEX
8
Layer 1
10
1.993659
20
7.832403
70
0
0
VERTEX
8
Layer 1
10
1.993128
20
7.932600
70
0
0
VERTEX
8
Layer 1
10
1.993474
20
8.042667
70
0
0
VERTEX
8
Layer 1
10
1.993125
20
8.159613
70
0
0
VERTEX
8
Layer 1
10
1.993008
20
8.481213
70
0
0
VERTEX
8
Layer 1
10
1.992585
20
8.827949
70
0
0
VERTEX
8
Layer 1
10
1.992217
20
9.507425
70
0
0
VERTEX
8
Layer 1
10
1.992090
20
10.059689
70
0
0
VERTEX
8
Layer 1
10
1.992037
20
10.139011
70
0
0
VERTEX
8
Layer 1
10
1.991926
20
10.298581
70
0
0
VERTEX
8
Layer 1
10
1.991847
20
11.795697
70
0
0
VERTEX
8
Layer 1
10
1.991090
20
13.165470
70
0
0
VERTEX
8
Layer 1
10
1.990373
20
14.571570
70
0
0
VERTEX
8
Layer 1
10
1.989929
20
15.361138
70
0
0
VERTEX
8
Layer 1
10
1.989892
20
16.033391
70
0
0
VERTEX
8
Layer 1
10
1.989741
20
16.376396
70
0
0
VERTEX
8
Layer 1
10
1.990053
20
16.748241
70
0
0
VERTEX
8
Layer 1
10
1.989378
20
16.857726
70
0
0
VERTEX
8
Layer 1
10
2.141408
20
17.402806
70
0
0
VERTEX
8
Layer 1
10
2.193435
20
17.452275
70
0
0
VERTEX
8
Layer 1
10
2.244995
20
17.502903
70
0
0
VERTEX
8
Layer 1
10
2.641493
20
17.613756
70
0
0
VERTEX
8
Layer 1
10
2.641493
20
17.613756
70
0
0
SEQEND
8
Layer 1
0
POLYLINE
8
Layer 1
62
7
70
1
10
0.000000
20
0.000000
66
1
0
VERTEX
8
Layer 1
10
2.634154
20
16.953645
70
0
0
VERTEX
8
Layer 1
10
2.634154
20
7.848569
70
0
0
VERTEX
8
Layer 1
10
13.211370
20
7.848569
70
0
0
VERTEX
8
Layer 1
10
13.211370
20
16.953645
70
0
0
VERTEX
8
Layer 1
10
2.634154
20
16.953645
70
0
0
VERTEX
8
Layer 1
10
2.634154
20
16.953645
70
0
0
SEQEND
8
Layer 1
0
POLYLINE
8
Layer 1
62
7
70
1
10
0.000000
20
0.000000
66
1
0
VERTEX
8
Layer 1
10
13.405336
20
19.578948
70
0
0
VERTEX
8
Layer 1
10
14.318223
20
19.440162
70
0
0
VERTEX
8
Layer 1
10
15.109885
20
18.970458
70
0
0
VERTEX
8
Layer 1
10
15.185609
20
18.905087
70
0
0
VERTEX
8
Layer 1
10
15.666260
20
18.259902
70
0
0
VERTEX
8
Layer 1
10
15.866699
20
17.484504
70
0
0
VERTEX
8
Layer 1
10
15.871091
20
16.948621
70
0
0
VERTEX
8
Layer 1
10
15.871593
20
16.766709
70
0
0
VERTEX
8
Layer 1
10
15.871593
20
16.268817
70
0
0
VERTEX
8
Layer 1
10
15.872123
20
15.730867
70
0
0
VERTEX
8
Layer 1
10
15.872387
20
14.677959
70
0
0
VERTEX
8
Layer 1
10
15.872625
20
13.822456
70
0
0
VERTEX
8
Layer 1
10
15.872625
20
13.513952
70
0
0
VERTEX
8
Layer 1
10
15.872890
20
11.790538
70
0
0
VERTEX
8
Layer 1
10
15.872890
20
11.197819
70
0
0
VERTEX
8
Layer 1
10
15.873419
20
9.141110
70
0
0
VERTEX
8
Layer 1
10
15.874186
20
6.829104
70
0
0
VERTEX
8
Layer 1
10
15.874186
20
6.521103
70
0
0
VERTEX
8
Layer 1
10
15.874689
20
5.605408
70
0
0
VERTEX
8
Layer 1
10
15.874689
20
4.563850
70
0
0
VERTEX
8
Layer 1
10
15.874954
20
4.032382
70
0
0
VERTEX
8
Layer 1
10
15.874689
20
3.546105
70
0
0
VERTEX
8
Layer 1
10
15.874954
20
3.370131
70
0
0
VERTEX
8
Layer 1
10
15.837773
20
2.806070
70
0
0
VERTEX
8
Layer 1
10
15.592035
20
2.302512
70
0
0
VERTEX
8
Layer 1
10
15.205231
20
2.067414
70
0
0
VERTEX
8
Layer 1
10
14.753836
20
2.004063
70
0
0
VERTEX
8
Layer 1
10
14.690786
20
2.004592
70
0
0
VERTEX
8
Layer 1
10
14.537328
20
2.005888
70
0
0
VERTEX
8
Layer 1
10
14.539630
20
1.905373
70
0
0
VERTEX
8
Layer 1
10
14.545583
20
1.531226
70
0
0
VERTEX
8
Layer 1
10
14.548678
20
1.370254
70
0
0
VERTEX
8
Layer 1
10
14.515662
20
0.840327
70
0
0
VERTEX
8
Layer 1
10
14.288752
20
0.361796
70
0
0
VERTEX
8
Layer 1
10
13.959300
20
0.133156
70
0
0
VERTEX
8
Layer 1
10
13.566070
20
0.042947
70
0
0
VERTEX
8
Layer 1
10
13.199940
20
0.040380
70
0
0
VERTEX
8
Layer 1
10
13.057568
20
0.039851
70
0
0
VERTEX
8
Layer 1
10
12.667678
20
0.039349
70
0
0
VERTEX
8
Layer 1
10
12.246515
20
0.038555
70
0
0
VERTEX
8
Layer 1
10
11.326401
20
0.037523
70
0
0
VERTEX
8
Layer 1
10
10.751754
20
0.037020
70
0
0
VERTEX
8
Layer 1
10
9.159625
20
0.035988
70
0
0
VERTEX
8
Layer 1
10
8.850328
20
0.035988
70
0
0
VERTEX
8
Layer 1
10
8.746982
20
0.035724
70
0
0
VERTEX
8
Layer 1
10
8.643371
20
0.035724
70
0
0
VERTEX
8
Layer 1
10
6.980943
20
0.033925
70
0
0
VERTEX
8
Layer 1
10
5.273298
20
0.032099
70
0
0
VERTEX
8
Layer 1
10
4.314687
20
0.031067
70
0
0
VERTEX
8
Layer 1
10
3.498740
20
0.030564
70
0
0
VERTEX
8
Layer 1
10
3.082736
20
0.030035
70
0
0
VERTEX
8
Layer 1
10
2.701101
20
0.030035
70
0
0
VERTEX
8
Layer 1
10
2.563643
20
0.029533
70
0
0
VERTEX
8
Layer 1
10
2.046085
20
0.091005
70
0
0
VERTEX
8
Layer 1
10
1.600137
20
0.350181
70
0
0
VERTEX
8
Layer 1
10
1.386284
20
0.682219
70
0
0
VERTEX
8
Layer 1
10
1.332453
20
1.073392
70
0
0
VERTEX
8
Layer 1
10
1.332713
20
1.154248
70
0
0
VERTEX
8
Layer 1
10
1.334779
20
1.409015
70
0
0
VERTEX
8
Layer 1
10
1.335554
20
1.582397
70
0
0
VERTEX
8
Layer 1
10
1.338396
20
2.005888
70
0
0
VERTEX
8
Layer 1
10
1.232719
20
2.004327
70
0
0
VERTEX
8
Layer 1
10
1.093709
20
2.003031
70
0
0
VERTEX
8
Layer 1
10
1.024203
20
2.001999
70
0
0
VERTEX
8
Layer 1
10
0.619759
20
2.072332
70
0
0
VERTEX
8
Layer 1
10
0.279807
20
2.302248
70
0
0
VERTEX
8
Layer 1
10
0.062750
20
2.642098
70
0
0
VERTEX
8
Layer 1
10
0.001013
20
3.036042
70
0
0
VERTEX
8
Layer 1
10
0.000754
20
3.112268
70
0
0
VERTEX
8
Layer 1
10
0.001013
20
3.364443
70
0
0
VERTEX
8
Layer 1
10
0.000496
20
3.547137
70
0
0
VERTEX
8
Layer 1
10
0.000754
20
4.049157
70
0
0
VERTEX
8
Layer 1
10
0.000237
20
4.590732
70
0
0
VERTEX
8
Layer 1
10
0.000237
20
5.590406
70
0
0
VERTEX
8
Layer 1
10
0.000496
20
6.514383
70
0
0
VERTEX
8
Layer 1
10
0.000496
20
6.576401
70
0
0
VERTEX
8
Layer 1
10
0.000237
20
6.825215
70
0
0
VERTEX
8
Layer 1
10
0.000754
20
9.160213
70
0
0
VERTEX
8
Layer 1
10
0.000754
20
11.232956
70
0
0
VERTEX
8
Layer 1
10
0.000237
20
13.562794
70
0
0
VERTEX
8
Layer 1
10
0.000496
20
13.811344
70
0
0
VERTEX
8
Layer 1
10
0.000496
20
13.873097
70
0
0
VERTEX
8
Layer 1
10
0.000237
20
14.795777
70
0
0
VERTEX
8
Layer 1
10
0.000496
20
15.846093
70
0
0
VERTEX
8
Layer 1
10
0.000496
20
16.381476
70
0
0
VERTEX
8
Layer 1
10
0.000754
20
16.872410
70
0
0
VERTEX
8
Layer 1
10
0.000754
20
17.049390
70
0
0
VERTEX
8
Layer 1
10
0.029452
20
17.676351
70
0
0
VERTEX
8
Layer 1
10
0.217795
20
18.271536
70
0
0
VERTEX
8
Layer 1
10
0.250093
20
18.331739
70
0
0
VERTEX
8
Layer 1
10
0.524753
20
18.733265
70
0
0
VERTEX
8
Layer 1
10
0.585731
20
18.805869
70
0
0
VERTEX
8
Layer 1
10
1.329096
20
19.363458
70
0
0
VERTEX
8
Layer 1
10
1.383613
20
19.392913
70
0
0
VERTEX
8
Layer 1
10
1.944534
20
19.550715
70
0
0
VERTEX
8
Layer 1
10
2.530829
20
19.575072
70
0
0
VERTEX
8
Layer 1
10
2.677077
20
19.575589
70
0
0
VERTEX
8
Layer 1
10
3.075248
20
19.575589
70
0
0
VERTEX
8
Layer 1
10
3.505963
20
19.576106
70
0
0
VERTEX
8
Layer 1
10
4.348289
20
19.576623
70
0
0
VERTEX
8
Layer 1
10
5.132222
20
19.576623
70
0
0
VERTEX
8
Layer 1
10
5.330660
20
19.576881
70
0
0
VERTEX
8
Layer 1
10
7.190228
20
19.576623
70
0
0
VERTEX
8
Layer 1
10
8.889089
20
19.577656
70
0
0
VERTEX
8
Layer 1
10
10.636528
20
19.578431
70
0
0
VERTEX
8
Layer 1
10
11.616305
20
19.578948
70
0
0
VERTEX
8
Layer 1
10
12.450376
20
19.578690
70
0
0
VERTEX
8
Layer 1
10
12.875138
20
19.578948
70
0
0
VERTEX
8
Layer 1
10
13.265292
20
19.578690
70
0
0
VERTEX
8
Layer 1
10
13.405336
20
19.578948
70
0
0
VERTEX
8
Layer 1
10
13.405336
20
19.578948
70
0
0
SEQEND
8
Layer 1
0
POLYLINE
8
Layer 1
62
7
70
1
10
0.000000
20
0.000000
66
1
0
VERTEX
8
Layer 1
10
2.001404
20
2.005888
70
0
0
VERTEX
8
Layer 1
10
1.946024
20
1.365984
70
0
0
VERTEX
8
Layer 1
10
2.095198
20
0.770550
70
0
0
VERTEX
8
Layer 1
10
2.600335
20
0.682179
70
0
0
VERTEX
8
Layer 1
10
2.738064
20
0.682444
70
0
0
VERTEX
8
Layer 1
10
3.118640
20
0.682444
70
0
0
VERTEX
8
Layer 1
10
3.534379
20
0.682973
70
0
0
VERTEX
8
Layer 1
10
4.349321
20
0.683476
70
0
0
VERTEX
8
Layer 1
10
5.306371
20
0.684508
70
0
0
VERTEX
8
Layer 1
10
7.010127
20
0.686333
70
0
0
VERTEX
8
Layer 1
10
8.670491
20
0.688397
70
0
0
VERTEX
8
Layer 1
10
9.186216
20
0.688397
70
0
0
VERTEX
8
Layer 1
10
10.773979
20
0.689429
70
0
0
VERTEX
8
Layer 1
10
11.347859
20
0.689932
70
0
0
VERTEX
8
Layer 1
10
12.267179
20
0.691228
70
0
0
VERTEX
8
Layer 1
10
12.687310
20
0.692022
70
0
0
VERTEX
8
Layer 1
10
13.077465
20
0.692260
70
0
0
VERTEX
8
Layer 1
10
13.219043
20
0.692789
70
0
0
VERTEX
8
Layer 1
10
13.415152
20
0.692789
70
0
0
VERTEX
8
Layer 1
10
13.473810
20
0.693292
70
0
0
VERTEX
8
Layer 1
10
13.753897
20
0.760231
70
0
0
VERTEX
8
Layer 1
10
13.859297
20
1.027182
70
0
0
VERTEX
8
Layer 1
10
13.874309
20
2.005888
70
0
0
VERTEX
8
Layer 1
10
2.001404
20
2.005888
70
0
0
VERTEX
8
Layer 1
10
2.001404
20
2.005888
70
0
0
SEQEND
8
Layer 1
0
POLYLINE
8
Layer 1
62
7
70
1
10
0.000000
20
0.000000
66
1
0
VERTEX
8
Layer 1
10
3.385551
20
18.930151
70
0
0
VERTEX
8
Layer 1
10
2.959996
20
18.930411
70
0
0
VERTEX
8
Layer 1
10
2.569585
20
18.929892
70
0
0
VERTEX
8
Layer 1
10
2.429025
20
18.930411
70
0
0
VERTEX
8
Layer 1
10
1.836612
20
18.857048
70
0
0
VERTEX
8
Layer 1
10
1.308167
20
18.584953
70
0
0
VERTEX
8
Layer 1
10
1.238920
20
18.532242
70
0
0
VERTEX
8
Layer 1
10
0.869513
20
18.104702
70
0
0
VERTEX
8
Layer 1
10
0.675390
20
17.576489
70
0
0
VERTEX
8
Layer 1
10
0.671255
20
17.328959
70
0
0
VERTEX
8
Layer 1
10
0.670996
20
17.253253
70
0
0
VERTEX
8
Layer 1
10
0.670739
20
17.001331
70
0
0
VERTEX
8
Layer 1
10
0.670480
20
16.819441
70
0
0
VERTEX
8
Layer 1
10
0.669705
20
16.318162
70
0
0
VERTEX
8
Layer 1
10
0.668929
20
15.778148
70
0
0
VERTEX
8
Layer 1
10
0.667379
20
14.535322
70
0
0
VERTEX
8
Layer 1
10
0.666863
20
14.105375
70
0
0
VERTEX
8
Layer 1
10
0.665053
20
11.819483
70
0
0
VERTEX
8
Layer 1
10
0.664797
20
11.290053
70
0
0
VERTEX
8
Layer 1
10
0.664797
20
11.223642
70
0
0
VERTEX
8
Layer 1
10
0.662212
20
9.089939
70
0
0
VERTEX
8
Layer 1
10
0.660145
20
6.896546
70
0
0
VERTEX
8
Layer 1
10
0.659886
20
6.586746
70
0
0
VERTEX
8
Layer 1
10
0.659886
20
6.525230
70
0
0
VERTEX
8
Layer 1
10
0.658335
20
5.543892
70
0
0
VERTEX
8
Layer 1
10
0.657819
20
4.557924
70
0
0
VERTEX
8
Layer 1
10
0.657044
20
4.023334
70
0
0
VERTEX
8
Layer 1
10
0.657044
20
3.534728
70
0
0
VERTEX
8
Layer 1
10
0.656528
20
3.357484
70
0
0
VERTEX
8
Layer 1
10
0.656785
20
3.117190
70
0
0
VERTEX
8
Layer 1
10
0.655753
20
3.047155
70
0
0
VERTEX
8
Layer 1
10
0.826025
20
2.688010
70
0
0
VERTEX
8
Layer 1
10
1.113606
20
2.654434
70
0
0
VERTEX
8
Layer 1
10
1.185951
20
2.654169
70
0
0
VERTEX
8
Layer 1
10
1.428055
20
2.653905
70
0
0
VERTEX
8
Layer 1
10
1.602463
20
2.653376
70
0
0
VERTEX
8
Layer 1
10
2.083570
20
2.652873
70
0
0
VERTEX
8
Layer 1
10
2.601626
20
2.651841
70
0
0
VERTEX
8
Layer 1
10
3.853757
20
2.650280
70
0
0
VERTEX
8
Layer 1
10
4.207214
20
2.650015
70
0
0
VERTEX
8
Layer 1
10
6.399839
20
2.648216
70
0
0
VERTEX
8
Layer 1
10
6.908077
20
2.647952
70
0
0
VERTEX
8
Layer 1
10
6.971894
20
2.647952
70
0
0
VERTEX
8
Layer 1
10
9.019582
20
2.645385
70
0
0
VERTEX
8
Layer 1
10
11.183527
20
2.643322
70
0
0
VERTEX
8
Layer 1
10
12.363540
20
2.641761
70
0
0
VERTEX
8
Layer 1
10
13.368135
20
2.640993
70
0
0
VERTEX
8
Layer 1
10
13.881030
20
2.640199
70
0
0
VERTEX
8
Layer 1
10
14.350241
20
2.640199
70
0
0
VERTEX
8
Layer 1
10
14.520262
20
2.639697
70
0
0
VERTEX
8
Layer 1
10
14.750740
20
2.639961
70
0
0
VERTEX
8
Layer 1
10
14.818183
20
2.638929
70
0
0
VERTEX
8
Layer 1
10
15.075781
20
2.729867
70
0
0
VERTEX
8
Layer 1
10
15.140127
20
2.806596
70
0
0
VERTEX
8
Layer 1
10
15.200320
20
2.866048
70
0
0
VERTEX
8
Layer 1
10
15.208072
20
3.102188
70
0
0
VERTEX
8
Layer 1
10
15.208337
20
3.177382
70
0
0
VERTEX
8
Layer 1
10
15.208072
20
3.429556
70
0
0
VERTEX
8
Layer 1
10
15.208601
20
3.611219
70
0
0
VERTEX
8
Layer 1
10
15.208601
20
4.112207
70
0
0
VERTEX
8
Layer 1
10
15.209104
20
4.651718
70
0
0
VERTEX
8
Layer 1
10
15.209369
20
5.709786
70
0
0
VERTEX
8
Layer 1
10
15.209633
20
6.569680
70
0
0
VERTEX
8
Layer 1
10
15.209633
20
6.879216
70
0
0
VERTEX
8
Layer 1
10
15.209871
20
8.609615
70
0
0
VERTEX
8
Layer 1
10
15.209871
20
9.205694
70
0
0
VERTEX
8
Layer 1
10
15.210400
20
11.272484
70
0
0
VERTEX
8
Layer 1
10
15.211168
20
13.593274
70
0
0
VERTEX
8
Layer 1
10
15.211168
20
13.902545
70
0
0
VERTEX
8
Layer 1
10
15.211697
20
14.822659
70
0
0
VERTEX
8
Layer 1
10
15.211697
20
15.869349
70
0
0
VERTEX
8
Layer 1
10
15.211961
20
16.403701
70
0
0
VERTEX
8
Layer 1
10
15.211697
20
16.892809
70
0
0
VERTEX
8
Layer 1
10
15.211961
20
17.069802
70
0
0
VERTEX
8
Layer 1
10
15.109885
20
17.873111
70
0
0
VERTEX
8
Layer 1
10
15.066494
20
17.974914
70
0
0
VERTEX
8
Layer 1
10
14.684839
20
18.485310
70
0
0
VERTEX
8
Layer 1
10
14.144316
20
18.826797
70
0
0
VERTEX
8
Layer 1
10
13.317759
20
18.926275
70
0
0
VERTEX
8
Layer 1
10
13.171497
20
18.927051
70
0
0
VERTEX
8
Layer 1
10
12.772559
20
18.927051
70
0
0
VERTEX
8
Layer 1
10
12.341342
20
18.927566
70
0
0
VERTEX
8
Layer 1
10
11.497454
20
18.928085
70
0
0
VERTEX
8
Layer 1
10
10.712754
20
18.928085
70
0
0
VERTEX
8
Layer 1
10
10.514052
20
18.928342
70
0
0
VERTEX
8
Layer 1
10
8.652420
20
18.928085
70
0
0
VERTEX
8
Layer 1
10
6.951230
20
18.928860
70
0
0
VERTEX
8
Layer 1
10
5.201993
20
18.929892
70
0
0
VERTEX
8
Layer 1
10
5.004058
20
18.929892
70
0
0
VERTEX
8
Layer 1
10
4.905607
20
18.929636
70
0
0
VERTEX
8
Layer 1
10
4.220654
20
18.930411
70
0
0
VERTEX
8
Layer 1
10
3.385551
20
18.930151
70
0
0
VERTEX
8
Layer 1
10
3.385551
20
18.930151
70
0
0
SEQEND
8
Layer 1
0
POLYLINE
8
Layer 1
62
7
70
1
10
0.000000
20
0.000000
66
1
0
VERTEX
8
Layer 1
10
9.000796
20
5.925183
70
0
0
VERTEX
8
Layer 1
10
9.060248
20
5.925500
70
0
0
VERTEX
8
Layer 1
10
9.258315
20
5.926056
70
0
0
VERTEX
8
Layer 1
10
9.399973
20
5.926638
70
0
0
VERTEX
8
Layer 1
10
9.785496
20
5.927723
70
0
0
VERTEX
8
Layer 1
10
10.026320
20
5.928252
70
0
0
VERTEX
8
Layer 1
10
10.779614
20
5.929469
70
0
0
VERTEX
8
Layer 1
10
11.649457
20
5.931744
70
0
0
VERTEX
8
Layer 1
10
12.321551
20
5.933173
70
0
0
VERTEX
8
Layer 1
10
12.723056
20
5.934258
70
0
0
VERTEX
8
Layer 1
10
13.100880
20
5.934761
70
0
0
VERTEX
8
Layer 1
10
13.239442
20
5.935343
70
0
0
VERTEX
8
Layer 1
10
13.428884
20
5.935263
70
0
0
VERTEX
8
Layer 1
10
13.535881
20
5.935475
70
0
0
VERTEX
8
Layer 1
10
13.814064
20
5.802178
70
0
0
VERTEX
8
Layer 1
10
13.891295
20
5.585299
70
0
0
VERTEX
8
Layer 1
10
13.897063
20
5.518915
70
0
0
VERTEX
8
Layer 1
10
13.738155
20
5.306905
70
0
0
VERTEX
8
Layer 1
10
13.196950
20
5.245760
70
0
0
VERTEX
8
Layer 1
10
13.054340
20
5.244966
70
0
0
VERTEX
8
Layer 1
10
12.668260
20
5.245390
70
0
0
VERTEX
8
Layer 1
10
12.263713
20
5.245442
70
0
0
VERTEX
8
Layer 1
10
11.584555
20
5.246765
70
0
0
VERTEX
8
Layer 1
10
10.799828
20
5.247136
70
0
0
VERTEX
8
Layer 1
10
10.044179
20
5.247321
70
0
0
VERTEX
8
Layer 1
10
9.722923
20
5.247215
70
0
0
VERTEX
8
Layer 1
10
9.344542
20
5.248300
70
0
0
VERTEX
8
Layer 1
10
9.205848
20
5.248247
70
0
0
VERTEX
8
Layer 1
10
8.694303
20
5.340004
70
0
0
VERTEX
8
Layer 1
10
8.589952
20
5.650757
70
0
0
VERTEX
8
Layer 1
10
8.751453
20
5.891157
70
0
0
VERTEX
8
Layer 1
10
9.000796
20
5.925183
70
0
0
VERTEX
8
Layer 1
10
9.000796
20
5.925183
70
0
0
SEQEND
8
Layer 1
0
POLYLINE
8
Layer 1
62
7
70
1
10
0.000000
20
0.000000
66
1
0
VERTEX
8
Layer 1
10
4.195360
20
14.227453
70
0
0
VERTEX
8
Layer 1
10
4.213722
20
14.246000
70
0
0
VERTEX
8
Layer 1
10
4.275370
20
14.307437
70
0
0
VERTEX
8
Layer 1
10
4.319317
20
14.351516
70
0
0
VERTEX
8
Layer 1
10
4.439279
20
14.471081
70
0
0
VERTEX
8
Layer 1
10
4.514342
20
14.545667
70
0
0
VERTEX
8
Layer 1
10
4.749371
20
14.778712
70
0
0
VERTEX
8
Layer 1
10
5.020198
20
15.048401
70
0
0
VERTEX
8
Layer 1
10
5.229668
20
15.256549
70
0
0
VERTEX
8
Layer 1
10
5.354631
20
15.381062
70
0
0
VERTEX
8
Layer 1
10
5.472608
20
15.497875
70
0
0
VERTEX
8
Layer 1
10
5.515577
20
15.540976
70
0
0
VERTEX
8
Layer 1
10
5.574975
20
15.599316
70
0
0
VERTEX
8
Layer 1
10
5.608313
20
15.632442
70
0
0
VERTEX
8
Layer 1
10
5.789632
20
15.625483
70
0
0
VERTEX
8
Layer 1
10
5.967061
20
15.498457
70
0
0
VERTEX
8
Layer 1
10
6.015771
20
15.454086
70
0
0
VERTEX
8
Layer 1
10
6.115810
20
15.257660
70
0
0
VERTEX
8
Layer 1
10
5.989498
20
15.048348
70
0
0
VERTEX
8
Layer 1
10
5.945392
20
15.003846
70
0
0
VERTEX
8
Layer 1
10
5.824186
20
14.885154
70
0
0
VERTEX
8
Layer 1
10
5.697477
20
14.760482
70
0
0
VERTEX
8
Layer 1
10
5.483853
20
14.552070
70
0
0
VERTEX
8
Layer 1
10
5.237817
20
14.310453
70
0
0
VERTEX
8
Layer 1
10
5.001042
20
14.077673
70
0
0
VERTEX
8
Layer 1
10
4.900500
20
13.978586
70
0
0
VERTEX
8
Layer 1
10
4.781253
20
13.862726
70
0
0
VERTEX
8
Layer 1
10
4.737835
20
13.819942
70
0
0
VERTEX
8
Layer 1
10
4.512807
20
13.726068
70
0
0
VERTEX
8
Layer 1
10
4.260580
20
13.910007
70
0
0
VERTEX
8
Layer 1
10
4.141306
20
14.126938
70
0
0
VERTEX
8
Layer 1
10
4.195360
20
14.227453
70
0
0
VERTEX
8
Layer 1
10
4.195360
20
14.227453
70
0
0
SEQEND
8
Layer 1
0
POLYLINE
8
Layer 1
62
7
70
1
10
0.000000
20
0.000000
66
1
0
VERTEX
8
Layer 1
10
4.661847
20
15.603735
70
0
0
VERTEX
8
Layer 1
10
4.680685
20
15.585637
70
0
0
VERTEX
8
Layer 1
10
4.743100
20
15.524995
70
0
0
VERTEX
8
Layer 1
10
4.787894
20
15.481735
70
0
0
VERTEX
8
Layer 1
10
4.909390
20
15.363652
70
0
0
VERTEX
8
Layer 1
10
4.985167
20
15.289780
70
0
0
VERTEX
8
Layer 1
10
5.221969
20
15.058455
70
0
0
VERTEX
8
Layer 1
10
5.495971
20
14.791941
70
0
0
VERTEX
8
Layer 1
10
5.707452
20
14.585778
70
0
0
VERTEX
8
Layer 1
10
5.833976
20
14.462773
70
0
0
VERTEX
8
Layer 1
10
5.952668
20
14.346674
70
0
0
VERTEX
8
Layer 1
10
5.996456
20
14.304367
70
0
0
VERTEX
8
Layer 1
10
6.055723
20
14.245921
70
0
0
VERTEX
8
Layer 1
10
6.089404
20
14.213086
70
0
0
VERTEX
8
Layer 1
10
6.082313
20
14.034652
70
0
0
VERTEX
8
Layer 1
10
5.953276
20
13.860027
70
0
0
VERTEX
8
Layer 1
10
5.908165
20
13.812111
70
0
0
VERTEX
8
Layer 1
10
5.708616
20
13.713633
70
0
0
VERTEX
8
Layer 1
10
5.495918
20
13.837961
70
0
0
VERTEX
8
Layer 1
10
5.450701
20
13.881352
70
0
0
VERTEX
8
Layer 1
10
5.330104
20
14.000653
70
0
0
VERTEX
8
Layer 1
10
5.203422
20
14.125351
70
0
0
VERTEX
8
Layer 1
10
4.991676
20
14.335615
70
0
0
VERTEX
8
Layer 1
10
4.746196
20
14.577735
70
0
0
VERTEX
8
Layer 1
10
4.509658
20
14.810779
70
0
0
VERTEX
8
Layer 1
10
4.408985
20
14.909733
70
0
0
VERTEX
8
Layer 1
10
4.291245
20
15.027102
70
0
0
VERTEX
8
Layer 1
10
4.247774
20
15.069833
70
0
0
VERTEX
8
Layer 1
10
4.152392
20
15.291289
70
0
0
VERTEX
8
Layer 1
10
4.339293
20
15.539547
70
0
0
VERTEX
8
Layer 1
10
4.559718
20
15.656942
70
0
0
VERTEX
8
Layer 1
10
4.661847
20
15.603735
70
0
0
VERTEX
8
Layer 1
10
4.661847
20
15.603735
70
0
0
SEQEND
8
Layer 1
0
POLYLINE
8
Layer 1
62
7
70
1
10
0.000000
20
0.000000
66
1
0
VERTEX
8
Layer 1
10
9.981182
20
14.221236
70
0
0
VERTEX
8
Layer 1
10
9.999571
20
14.239783
70
0
0
VERTEX
8
Layer 1
10
10.061192
20
14.301219
70
0
0
VERTEX
8
Layer 1
10
10.105139
20
14.345298
70
0
0
VERTEX
8
Layer 1
10
10.225128
20
14.464864
70
0
0
VERTEX
8
Layer 1
10
10.300163
20
14.539449
70
0
0
VERTEX
8
Layer 1
10
10.535219
20
14.772494
70
0
0
VERTEX
8
Layer 1
10
10.806020
20
15.042184
70
0
0
VERTEX
8
Layer 1
10
11.015490
20
15.250331
70
0
0
VERTEX
8
Layer 1
10
11.140479
20
15.374844
70
0
0
VERTEX
8
Layer 1
10
11.258430
20
15.491657
70
0
0
VERTEX
8
Layer 1
10
11.301425
20
15.534758
70
0
0
VERTEX
8
Layer 1
10
11.360797
20
15.593098
70
0
0
VERTEX
8
Layer 1
10
11.394161
20
15.626224
70
0
0
VERTEX
8
Layer 1
10
11.575453
20
15.619266
70
0
0
VERTEX
8
Layer 1
10
11.752883
20
15.492266
70
0
0
VERTEX
8
Layer 1
10
11.801592
20
15.447869
70
0
0
VERTEX
8
Layer 1
10
11.901631
20
15.251469
70
0
0
VERTEX
8
Layer 1
10
11.775319
20
15.042157
70
0
0
VERTEX
8
Layer 1
10
11.731240
20
14.997628
70
0
0
VERTEX
8
Layer 1
10
11.610034
20
14.878936
70
0
0
VERTEX
8
Layer 1
10
11.483299
20
14.754264
70
0
0
VERTEX
8
Layer 1
10
11.269675
20
14.545852
70
0
0
VERTEX
8
Layer 1
10
11.023639
20
14.304262
70
0
0
VERTEX
8
Layer 1
10
10.786864
20
14.071482
70
0
0
VERTEX
8
Layer 1
10
10.686349
20
13.972369
70
0
0
VERTEX
8
Layer 1
10
10.567075
20
13.856508
70
0
0
VERTEX
8
Layer 1
10
10.523657
20
13.813725
70
0
0
VERTEX
8
Layer 1
10
10.298655
20
13.719851
70
0
0
VERTEX
8
Layer 1
10
10.046402
20
13.903789
70
0
0
VERTEX
8
Layer 1
10
9.927128
20
14.120720
70
0
0
VERTEX
8
Layer 1
10
9.981182
20
14.221236
70
0
0
VERTEX
8
Layer 1
10
9.981182
20
14.221236
70
0
0
SEQEND
8
Layer 1
0
POLYLINE
8
Layer 1
62
7
70
1
10
0.000000
20
0.000000
66
1
0
VERTEX
8
Layer 1
10
10.447668
20
15.597543
70
0
0
VERTEX
8
Layer 1
10
10.466533
20
15.579446
70
0
0
VERTEX
8
Layer 1
10
10.528948
20
15.518803
70
0
0
VERTEX
8
Layer 1
10
10.573716
20
15.475544
70
0
0
VERTEX
8
Layer 1
10
10.695212
20
15.357461
70
0
0
VERTEX
8
Layer 1
10
10.771015
20
15.283589
70
0
0
VERTEX
8
Layer 1
10
11.007791
20
15.052264
70
0
0
VERTEX
8
Layer 1
10
11.281793
20
14.785750
70
0
0
VERTEX
8
Layer 1
10
11.493300
20
14.579587
70
0
0
VERTEX
8
Layer 1
10
11.619797
20
14.456582
70
0
0
VERTEX
8
Layer 1
10
11.738489
20
14.340483
70
0
0
VERTEX
8
Layer 1
10
11.782304
20
14.298176
70
0
0
VERTEX
8
Layer 1
10
11.841571
20
14.239730
70
0
0
VERTEX
8
Layer 1
10
11.875226
20
14.206895
70
0
0
VERTEX
8
Layer 1
10
11.868162
20
14.028460
70
0
0
VERTEX
8
Layer 1
10
11.739098
20
13.853836
70
0
0
VERTEX
8
Layer 1
10
11.694013
20
13.805893
70
0
0
VERTEX
8
Layer 1
10
11.494438
20
13.707442
70
0
0
VERTEX
8
Layer 1
10
11.281766
20
13.831743
70
0
0
VERTEX
8
Layer 1
10
11.236523
20
13.875161
70
0
0
VERTEX
8
Layer 1
10
11.115926
20
13.994435
70
0
0
VERTEX
8
Layer 1
10
10.989270
20
14.119159
70
0
0
VERTEX
8
Layer 1
10
10.777497
20
14.329423
70
0
0
VERTEX
8
Layer 1
10
10.532017
20
14.571543
70
0
0
VERTEX
8
Layer 1
10
10.295507
20
14.804588
70
0
0
VERTEX
8
Layer 1
10
10.194806
20
14.903542
70
0
0
VERTEX
8
Layer 1
10
10.077093
20
15.020911
70
0
0
VERTEX
8
Layer 1
10
10.033622
20
15.063641
70
0
0
VERTEX
8
Layer 1
10
9.938240
20
15.285097
70
0
0
VERTEX
8
Layer 1
10
10.125115
20
15.533356
70
0
0
VERTEX
8
Layer 1
10
10.345539
20
15.650751
70
0
0
VERTEX
8
Layer 1
10
10.447668
20
15.597543
70
0
0
VERTEX
8
Layer 1
10
10.447668
20
15.597543
70
0
0
SEQEND
8
Layer 1
0
POLYLINE
8
Layer 1
62
7
70
1
10
0.000000
20
0.000000
66
1
0
VERTEX
8
Layer 1
10
8.244856
20
15.009190
70
0
0
VERTEX
8
Layer 1
10
8.312060
20
15.014641
70
0
0
VERTEX
8
Layer 1
10
8.600800
20
14.818267
70
0
0
VERTEX
8
Layer 1
10
8.626676
20
14.511007
70
0
0
VERTEX
8
Layer 1
10
8.627364
20
14.418429
70
0
0
VERTEX
8
Layer 1
10
8.625644
20
14.116090
70
0
0
VERTEX
8
Layer 1
10
8.625617
20
13.905323
70
0
0
VERTEX
8
Layer 1
10
8.623342
20
13.463681
70
0
0
VERTEX
8
Layer 1
10
8.621649
20
12.898850
70
0
0
VERTEX
8
Layer 1
10
8.620458
20
12.463531
70
0
0
VERTEX
8
Layer 1
10
8.620008
20
12.255331
70
0
0
VERTEX
8
Layer 1
10
8.617839
20
11.963628
70
0
0
VERTEX
8
Layer 1
10
8.618156
20
11.877480
70
0
0
VERTEX
8
Layer 1
10
8.421068
20
11.308521
70
0
0
VERTEX
8
Layer 1
10
8.361617
20
11.261134
70
0
0
VERTEX
8
Layer 1
10
8.302403
20
11.212133
70
0
0
VERTEX
8
Layer 1
10
7.802235
20
11.101035
70
0
0
VERTEX
8
Layer 1
10
7.718839
20
11.100426
70
0
0
VERTEX
8
Layer 1
10
7.544690
20
11.100003
70
0
0
VERTEX
8
Layer 1
10
7.278652
20
11.097674
70
0
0
VERTEX
8
Layer 1
10
7.109160
20
11.097330
70
0
0
VERTEX
8
Layer 1
10
7.029044
20
11.096034
70
0
0
VERTEX
8
Layer 1
10
6.732129
20
11.167815
70
0
0
VERTEX
8
Layer 1
10
6.598753
20
11.448353
70
0
0
VERTEX
8
Layer 1
10
6.762609
20
11.733811
70
0
0
VERTEX
8
Layer 1
10
7.072674
20
11.766382
70
0
0
VERTEX
8
Layer 1
10
7.147392
20
11.766249
70
0
0
VERTEX
8
Layer 1
10
7.384141
20
11.765323
70
0
0
VERTEX
8
Layer 1
10
7.544452
20
11.764926
70
0
0
VERTEX
8
Layer 1
10
7.937860
20
11.763471
70
0
0
VERTEX
8
Layer 1
10
7.937040
20
11.878459
70
0
0
VERTEX
8
Layer 1
10
7.931616
20
12.950681
70
0
0
VERTEX
8
Layer 1
10
7.928759
20
13.501940
70
0
0
VERTEX
8
Layer 1
10
7.926404
20
14.033831
70
0
0
VERTEX
8
Layer 1
10
7.925108
20
14.236846
70
0
0
VERTEX
8
Layer 1
10
7.924155
20
14.521008
70
0
0
VERTEX
8
Layer 1
10
7.922859
20
14.605966
70
0
0
VERTEX
8
Layer 1
10
7.995222
20
14.909151
70
0
0
VERTEX
8
Layer 1
10
8.244856
20
15.009190
70
0
0
VERTEX
8
Layer 1
10
8.244856
20
15.009190
70
0
0
SEQEND
8
Layer 1
0
POLYLINE
8
Layer 1
62
7
70
1
10
0.000000
20
0.000000
66
1
0
VERTEX
8
Layer 1
10
5.929279
20
8.720555
70
0
0
VERTEX
8
Layer 1
10
5.718353
20
8.898513
70
0
0
VERTEX
8
Layer 1
10
5.847126
20
9.422282
70
0
0
VERTEX
8
Layer 1
10
6.079959
20
9.699274
70
0
0
VERTEX
8
Layer 1
10
6.140231
20
9.699274
70
0
0
VERTEX
8
Layer 1
10
6.140231
20
9.758593
70
0
0
VERTEX
8
Layer 1
10
6.336101
20
9.858685
70
0
0
VERTEX
8
Layer 1
10
6.390949
20
9.887181
70
0
0
VERTEX
8
Layer 1
10
6.446274
20
9.914988
70
0
0
VERTEX
8
Layer 1
10
6.496015
20
9.940415
70
0
0
VERTEX
8
Layer 1
10
7.050687
20
10.034606
70
0
0
VERTEX
8
Layer 1
10
7.121781
20
10.035347
70
0
0
VERTEX
8
Layer 1
10
7.352444
20
10.036511
70
0
0
VERTEX
8
Layer 1
10
7.514581
20
10.037332
70
0
0
VERTEX
8
Layer 1
10
7.853935
20
10.038125
70
0
0
VERTEX
8
Layer 1
10
8.285522
20
10.040771
70
0
0
VERTEX
8
Layer 1
10
8.620432
20
10.041909
70
0
0
VERTEX
8
Layer 1
10
8.779367
20
10.043020
70
0
0
VERTEX
8
Layer 1
10
9.414845
20
9.979299
70
0
0
VERTEX
8
Layer 1
10
9.967318
20
9.669614
70
0
0
VERTEX
8
Layer 1
10
10.189091
20
9.264590
70
0
0
VERTEX
8
Layer 1
10
9.967318
20
8.750215
70
0
0
VERTEX
8
Layer 1
10
9.816638
20
8.750215
70
0
0
VERTEX
8
Layer 1
10
9.537079
20
9.131373
70
0
0
VERTEX
8
Layer 1
10
9.187724
20
9.328593
70
0
0
VERTEX
8
Layer 1
10
9.054321
20
9.328593
70
0
0
VERTEX
8
Layer 1
10
8.980317
20
9.329096
70
0
0
VERTEX
8
Layer 1
10
8.739335
20
9.328434
70
0
0
VERTEX
8
Layer 1
10
8.571140
20
9.328567
70
0
0
VERTEX
8
Layer 1
10
8.219165
20
9.327561
70
0
0
VERTEX
8
Layer 1
10
7.768660
20
9.327164
70
0
0
VERTEX
8
Layer 1
10
7.421527
20
9.326767
70
0
0
VERTEX
8
Layer 1
10
7.255421
20
9.326741
70
0
0
VERTEX
8
Layer 1
10
7.023065
20
9.325709
70
0
0
VERTEX
8
Layer 1
10
6.954167
20
9.326106
70
0
0
VERTEX
8
Layer 1
10
6.592244
20
9.224744
70
0
0
VERTEX
8
Layer 1
10
6.501836
20
9.195085
70
0
0
VERTEX
8
Layer 1
10
6.441564
20
9.076446
70
0
0
VERTEX
8
Layer 1
10
6.353061
20
8.924443
70
0
0
VERTEX
8
Layer 1
10
6.307024
20
8.846364
70
0
0
VERTEX
8
Layer 1
10
6.141716
20
8.721884
70
0
0
VERTEX
8
Layer 1
10
5.929279
20
8.720555
70
0
0
VERTEX
8
Layer 1
10
5.929279
20
8.720555
70
0
0
SEQEND
8
Layer 1
0
POLYLINE
8
Layer 1
62
7
70
1
10
0.000000
20
0.000000
66
1
0
VERTEX
8
Layer 1
10
4.067673
20
5.949418
70
0
0
VERTEX
8
Layer 1
10
4.261744
20
5.787308
70
0
0
VERTEX
8
Layer 1
10
4.312862
20
5.314499
70
0
0
VERTEX
8
Layer 1
10
4.314820
20
5.126116
70
0
0
VERTEX
8
Layer 1
10
4.208457
20
4.677462
70
0
0
VERTEX
8
Layer 1
10
3.903367
20
4.600204
70
0
0
VERTEX
8
Layer 1
10
3.655690
20
4.817400
70
0
0
VERTEX
8
Layer 1
10
3.611664
20
5.275737
70
0
0
VERTEX
8
Layer 1
10
3.607139
20
5.383819
70
0
0
VERTEX
8
Layer 1
10
3.778933
20
5.880521
70
0
0
VERTEX
8
Layer 1
10
4.067673
20
5.949418
70
0
0
VERTEX
8
Layer 1
10
4.067673
20
5.949418
70
0
0
SEQEND
8
Layer 1
0
POLYLINE
8
Layer 1
62
7
70
1
10
0.000000
20
0.000000
66
1
0
VERTEX
8
Layer 1
10
5.707902
20
5.920817
70
0
0
VERTEX
8
Layer 1
10
5.948964
20
5.713199
70
0
0
VERTEX
8
Layer 1
10
5.958489
20
5.347148
70
0
0
VERTEX
8
Layer 1
10
5.959864
20
5.167523
70
0
0
VERTEX
8
Layer 1
10
5.959917
20
5.052614
70
0
0
VERTEX
8
Layer 1
10
5.960182
20
4.947496
70
0
0
VERTEX
8
Layer 1
10
5.858556
20
4.704820
70
0
0
VERTEX
8
Layer 1
10
5.768174
20
4.675160
70
0
0
VERTEX
8
Layer 1
10
5.768174
20
4.615841
70
0
0
VERTEX
8
Layer 1
10
5.408420
20
4.667752
70
0
0
VERTEX
8
Layer 1
10
5.280253
20
4.946811
70
0
0
VERTEX
8
Layer 1
10
5.274700
20
5.264625
70
0
0
VERTEX
8
Layer 1
10
5.272478
20
5.378501
70
0
0
VERTEX
8
Layer 1
10
5.406542
20
5.861497
70
0
0
VERTEX
8
Layer 1
10
5.707902
20
5.920817
70
0
0
VERTEX
8
Layer 1
10
5.707902
20
5.920817
70
0
0
SEQEND
8
Layer 1
 0 
ENDSEC
 0 
EOF